<?xml version="1.0" encoding="utf-8" ?>
<svg baseProfile="full" height="240" version="1.1" width="720" xmlns="http://www.w3.org/2000/svg" xmlns:ev="http://www.w3.org/2001/xml-events" xmlns:xlink="http://www.w3.org/1999/xlink"><defs /><g id="figure_root"><g id="g_axes"><line stroke="#000000" stroke-width="2" x1="40.0" x2="230.0" y1="200.0" y2="200.0" /><line stroke="#000000" stroke-width="2" x1="40.0" x2="40.0" y1="200.0" y2="70.0" /><line stroke="#000000" stroke-width="2" x1="265.0" x2="455.0" y1="200.0" y2="200.0" /><line stroke="#000000" stroke-width="2" x1="265.0" x2="265.0" y1="200.0" y2="70.0" /><line stroke="#000000" stroke-width="2" x1="490.0" x2="680.0" y1="200.0" y2="200.0" /><line stroke="#000000" stroke-width="2" x1="490.0" x2="490.0" y1="200.0" y2="70.0" /></g><g id="g_curves"><path d="M 49.50 174.00 C 79.42 174.00 105.08 102.50 135.00 102.50 C 164.93 102.50 190.57 141.50 220.50 141.50" fill="none" id="curve_serving_A3" stroke="#2b6cb0" stroke-width="2" /><path d="M 49.50 122.00 C 79.42 122.00 105.08 154.50 135.00 154.50 C 164.93 154.50 190.57 96.00 220.50 96.00" fill="none" id="curve_neighbor_A3" stroke="#dd6b20" stroke-width="2" /><path d="M 274.50 174.00 C 304.43 174.00 330.07 102.50 360.00 102.50 C 389.93 102.50 415.57 141.50 445.50 141.50" fill="none" id="curve_serving_A4" stroke="#2b6cb0" stroke-width="2" /><path d="M 274.50 122.00 C 304.43 122.00 330.07 154.50 360.00 154.50 C 389.93 154.50 415.57 96.00 445.50 96.00" fill="none" id="curve_neighbor_A4" stroke="#dd6b20" stroke-width="2" /><path d="M 499.50 174.00 C 529.42 174.00 555.08 102.50 585.00 102.50 C 614.92 102.50 640.58 141.50 670.50 141.50" fill="none" id="curve_serving_A5" stroke="#2b6cb0" stroke-width="2" /><path d="M 499.50 122.00 C 529.42 122.00 555.08 154.50 585.00 154.50 C 614.92 154.50 640.58 96.00 670.50 96.00" fill="none" id="curve_neighbor_A5" stroke="#dd6b20" stroke-width="2" /></g><g id="g_annotations"><rect fill="#d0d0d0" fill-opacity="0.3" height="130.0" width="66.5" x="78.0" y="70.0" /><line stroke="#555555" stroke-width="1" x1="78.0" x2="78.0" y1="200.0" y2="70.0" /><line stroke="#555555" stroke-width="1" x1="144.5" x2="144.5" y1="200.0" y2="70.0" /><rect fill="#d0d0d0" fill-opacity="0.3" height="130.0" width="66.5" x="303.0" y="70.0" /><line stroke="#555555" stroke-width="1" x1="303.0" x2="303.0" y1="200.0" y2="70.0" /><line stroke="#555555" stroke-width="1" x1="369.5" x2="369.5" y1="200.0" y2="70.0" /><rect fill="#d0d0d0" fill-opacity="0.3" height="130.0" width="66.5" x="528.0" y="70.0" /><line stroke="#555555" stroke-width="1" x1="528.0" x2="528.0" y1="200.0" y2="70.0" /><line stroke="#555555" stroke-width="1" x1="594.5" x2="594.5" y1="200.0" y2="70.0" /><line class="dashed" id="geom_line_00" stroke="#555555" stroke-dasharray="3,4" stroke-width="1.0" x1="78.0" x2="78.0" y1="70.0" y2="200.0" /><line class="dashed" id="geom_line_01" stroke="#555555" stroke-dasharray="3,4" stroke-width="1.0" x1="144.5" x2="144.5" y1="70.0" y2="200.0" /><line class="dashed" id="geom_line_02" stroke="#555555" stroke-dasharray="3,4" stroke-width="1.0" x1="303.0" x2="303.0" y1="70.0" y2="200.0" /><line class="dashed" id="geom_line_03" stroke="#555555" stroke-dasharray="3,4" stroke-width="1.0" x1="369.5" x2="369.5" y1="70.0" y2="200.0" /><line class="dashed" id="geom_line_04" stroke="#555555" stroke-dasharray="3,4" stroke-width="1.0" x1="528.0" x2="528.0" y1="70.0" y2="200.0" /><line class="dashed" id="geom_line_05" stroke="#555555" stroke-dasharray="3,4" stroke-width="1.0" x1="594.5" x2="594.5" y1="70.0" y2="200.0" /></g><g id="g_text"><text fill="#000000" font-family="Arial, sans-serif" id="txt_title" text-anchor="start" x="10" y="20">Compact Event Timing with Threshold Noise</text><text fill="#333333" font-family="Arial, sans-serif" font-size="10" id="txt_t_start_A3" text-anchor="start" x="82.0" y="82.0">t_start</text><text fill="#333333" font-family="Arial, sans-serif" font-size="10" id="txt_t_trigger_A3" text-anchor="start" x="148.5" y="82.0">t_trigger</text><text fill="#000000" font-family="Arial, sans-serif" font-size="12" id="txt_panel_A3" text-anchor="start" x="46.0" y="86.0">A3</text><text fill="#2b6cb0" font-family="Arial, sans-serif" font-size="10" id="txt_serving_A3" text-anchor="start" x="49.5" y="115.5">Serving</text><text fill="#dd6b20" font-family="Arial, sans-serif" font-size="10" id="txt_neighbor_A3" text-anchor="start" x="49.5" y="141.5">Neighbor</text><text fill="#333333" font-family="Arial, sans-serif" font-size="10" id="txt_t_start_A4" text-anchor="start" x="307.0" y="82.0">t_start</text><text fill="#333333" font-family="Arial, sans-serif" font-size="10" id="txt_t_trigger_A4" text-anchor="start" x="373.5" y="82.0">t_trigger</text><text fill="#000000" font-family="Arial, sans-serif" font-size="12" id="txt_panel_A4" text-anchor="start" x="271.0" y="86.0">A4</text><text fill="#2b6cb0" font-family="Arial, sans-serif" font-size="10" id="txt_serving_A4" text-anchor="start" x="274.5" y="115.5">Serving</text><text fill="#dd6b20" font-family="Arial, sans-serif" font-size="10" id="txt_neighbor_A4" text-anchor="start" x="274.5" y="141.5">Neighbor</text><text fill="#333333" font-family="Arial, sans-serif" font-size="10" id="txt_t_start_A5" text-anchor="start" x="532.0" y="82.0">t_start</text><text fill="#333333" font-family="Arial, sans-serif" font-size="10" id="txt_t_trigger_A5" text-anchor="start" x="598.5" y="82.0">t_trigger</text><text fill="#000000" font-family="Arial, sans-serif" font-size="12" id="txt_panel_A5" text-anchor="start" x="496.0" y="86.0">A5</text><text fill="#2b6cb0" font-family="Arial, sans-serif" font-size="10" id="txt_serving_A5" text-anchor="start" x="499.5" y="115.5">Serving</text><text fill="#dd6b20" font-family="Arial, sans-serif" font-size="10" id="txt_neighbor_A5" text-anchor="start" x="499.5" y="141.5">Neighbor</text><text fill="#000000" font-family="Arial, sans-serif" font-size="10.0" id="txt_text_00" text-anchor="start" x="48.0" y="102.0">bias 1</text><text fill="#000000" font-family="Arial, sans-serif" font-size="10.0" id="txt_text_01" text-anchor="start" x="273.0" y="102.0">bias 2</text><text fill="#000000" font-family="Arial, sans-serif" font-size="10.0" id="txt_text_02" text-anchor="start" x="498.0" y="102.0">bias 3</text></g><g id="g_markers"><circle cx="78.0" cy="76.0" fill="#555555" r="3" /><circle cx="144.5" cy="76.0" fill="#555555" r="3" /><circle cx="49.5" cy="174.0" fill="#2b6cb0" r="3" /><circle cx="220.5" cy="141.5" fill="#2b6cb0" r="3" /><circle cx="49.5" cy="122.0" fill="#dd6b20" r="3" /><circle cx="220.5" cy="96.0" fill="#dd6b20" r="3" /><circle cx="303.0" cy="76.0" fill="#555555" r="3" /><circle cx="369.5" cy="76.0" fill="#555555" r="3" /><circle cx="274.5" cy="174.0" fill="#2b6cb0" r="3" /><circle cx="445.5" cy="141.5" fill="#2b6cb0" r="3" /><circle cx="274.5" cy="122.0" fill="#dd6b20" r="3" /><circle cx="445.5" cy="96.0" fill="#dd6b20" r="3" /><circle cx="528.0" cy="76.0" fill="#555555" r="3" /><circle cx="594.5" cy="76.0" fill="#555555" r="3" /><circle cx="499.5" cy="174.0" fill="#2b6cb0" r="3" /><circle cx="670.5" cy="141.5" fill="#2b6cb0" r="3" /><circle cx="499.5" cy="122.0" fill="#dd6b20" r="3" /><circle cx="670.5" cy="96.0" fill="#dd6b20" r="3" /><circle cx="173.0" cy="102.5" fill="#2b6cb0" id="geom_marker_00" r="3.0" /><circle cx="398.0" cy="122.0" fill="#2b6cb0" id="geom_marker_01" r="3.0" /><circle cx="623.0" cy="141.5" fill="#2b6cb0" id="geom_marker_02" r="3.0" /></g></g></svg>