<?xml version="1.0" encoding="utf-8" ?>
<svg baseProfile="full" height="360" version="1.1" width="900" xmlns="http://www.w3.org/2000/svg" xmlns:ev="http://www.w3.org/2001/xml-events" xmlns:xlink="http://www.w3.org/1999/xlink"><defs /><g id="figure_root"><g id="g_axes" /><g id="g_curves"><line fill="none" stroke="#000000" stroke-width="2" x1="240.0" x2="280.0" y1="120.0" y2="120.0" /><polyline fill="none" points="460.0,120.0 460.0,260.0 280.0,260.0" stroke="#000000" stroke-width="2" /><line fill="none" stroke="#000000" stroke-width="2" x1="480.0" x2="520.0" y1="260.0" y2="260.0" /></g><g id="g_annotations"><rect fill="#f2f2f2" height="120.0" rx="6" ry="6" stroke="#000000" stroke-width="1" width="820.0" x="40.0" y="60.0" /><rect fill="#f2f2f2" height="120.0" rx="6" ry="6" stroke="#000000" stroke-width="1" width="820.0" x="40.0" y="200.0" /><rect fill="#ffffff" height="60.0" id="node_ue_scan" rx="8.0" ry="8.0" stroke="#000000" stroke-width="2" width="160.0" x="80.0" y="90.0" /><rect fill="#ffffff" height="60.0" id="node_ue_report" rx="8.0" ry="8.0" stroke="#000000" stroke-width="2" width="180.0" x="280.0" y="90.0" /><rect fill="#ffffff" height="60.0" id="node_net_decide" rx="8.0" ry="8.0" stroke="#000000" stroke-width="2" width="200.0" x="280.0" y="230.0" /><rect fill="#ffffff" height="60.0" id="node_net_execute" rx="8.0" ry="8.0" stroke="#000000" stroke-width="2" width="200.0" x="520.0" y="230.0" /></g><g id="g_text"><text fill="#000000" font-family="Arial, sans-serif" id="txt_title" text-anchor="start" x="10" y="20">Handover Procedure</text><text fill="#000000" font-family="Arial, sans-serif" font-size="10" id="txt_lane_ue" text-anchor="start" x="48.0" y="76.0"><tspan id="txt_lane_ue_line0" x="48.0" y="76.0">UE</tspan></text><text fill="#000000" font-family="Arial, sans-serif" font-size="10" id="txt_lane_net" text-anchor="start" x="48.0" y="216.0"><tspan id="txt_lane_net_line0" x="48.0" y="216.0">Network</tspan></text><text fill="#000000" font-family="Arial, sans-serif" font-size="12" id="txt_node_ue_scan" text-anchor="start" x="92.0" y="114.0"><tspan id="txt_node_ue_scan_line0" x="92.0" y="114.0">Scan</tspan></text><text fill="#000000" font-family="Arial, sans-serif" font-size="12" id="txt_node_ue_report" text-anchor="start" x="292.0" y="114.0"><tspan id="txt_node_ue_report_line0" x="292.0" y="114.0">Report</tspan><tspan dy="14" id="txt_node_ue_report_line1" x="292.0">Measurements</tspan></text><text fill="#000000" font-family="Arial, sans-serif" font-size="12" id="txt_node_net_decide" text-anchor="start" x="292.0" y="254.0"><tspan id="txt_node_net_decide_line0" x="292.0" y="254.0">Decide</tspan></text><text fill="#000000" font-family="Arial, sans-serif" font-size="12" id="txt_node_net_execute" text-anchor="start" x="532.0" y="254.0"><tspan id="txt_node_net_execute_line0" x="532.0" y="254.0">Execute</tspan></text><text fill="#000000" font-family="Arial, sans-serif" font-size="10" id="txt_edge_ue_scan_ue_report" text-anchor="start" x="260.0" y="114.0">periodic</text><text fill="#000000" font-family="Arial, sans-serif" font-size="10" id="txt_edge_ue_report_net_decide" text-anchor="start" x="370.0" y="184.0">report</text><text fill="#000000" font-family="Arial, sans-serif" font-size="10" id="txt_edge_net_decide_net_execute" text-anchor="start" x="500.0" y="254.0">handover</text></g><g id="g_markers"><polygon fill="#000000" points="280.0,120.0 270.0,123.0 270.0,117.0" /><polygon fill="#000000" points="280.0,260.0 290.0,257.0 290.0,263.0" /><polygon fill="#000000" points="520.0,260.0 510.0,263.0 510.0,257.0" /></g></g></svg>