<?xml version="1.0" encoding="utf-8" ?>
<svg baseProfile="full" height="320" version="1.1" width="960" xmlns="http://www.w3.org/2000/svg" xmlns:ev="http://www.w3.org/2001/xml-events" xmlns:xlink="http://www.w3.org/1999/xlink"><defs /><g id="figure_root"><g id="g_axes"><line stroke="#000000" stroke-width="2.0" x1="11.0" x2="284.0" y1="270.0" y2="270.0" /><line stroke="#000000" stroke-width="2.0" x1="11.0" x2="11.0" y1="270.0" y2="70.0" /><line stroke="#000000" stroke-width="2.0" x1="306.0" x2="564.0" y1="270.0" y2="270.0" /><line stroke="#000000" stroke-width="2.0" x1="306.0" x2="306.0" y1="270.0" y2="70.0" /><line stroke="#000000" stroke-width="2.0" x1="590.0" x2="945.0" y1="270.0" y2="270.0" /><line stroke="#000000" stroke-width="2.0" x1="590.0" x2="590.0" y1="270.0" y2="70.0" /></g><g id="g_curves"><path d="M 39.01 135.00 C 43.84 129.05 58.34 108.63 68.00 99.28 C 77.67 89.93 87.33 83.80 97.00 78.92 C 106.66 74.04 116.32 71.49 125.99 70.00 C 135.66 68.51 150.17 70.00 155.01 70.00" fill="none" id="curve_serving_A3" stroke="#2b6cb0" stroke-width="2" /><path class="dashed" d="M 39.01 99.50 C 43.84 100.08 58.34 101.06 68.00 103.00 C 77.67 104.94 87.33 108.12 97.00 111.14 C 106.66 114.16 116.32 118.37 125.99 121.14 C 135.66 123.91 150.17 126.67 155.01 127.78" fill="none" id="curve_neighbor_A3" stroke="#dd6b20" stroke-dasharray="6,4" stroke-linecap="round" stroke-width="2" /><path d="M 306.00 135.00 C 306.00 129.05 306.00 108.63 306.00 99.28 C 306.00 89.93 306.00 83.80 306.00 78.92 C 306.00 74.04 306.00 71.49 306.00 70.00 C 306.00 68.51 306.00 70.00 306.00 70.00" fill="none" id="curve_serving_A4" stroke="#2b6cb0" stroke-width="2" /><path class="dashed" d="M 306.00 99.50 C 306.00 100.08 306.00 101.06 306.00 103.00 C 306.00 104.94 306.00 108.12 306.00 111.14 C 306.00 114.16 306.00 118.37 306.00 121.14 C 306.00 123.91 306.00 126.67 306.00 127.78" fill="none" id="curve_neighbor_A4" stroke="#dd6b20" stroke-dasharray="6,4" stroke-linecap="round" stroke-width="2" /><path d="M 590.00 135.00 C 590.00 129.05 590.00 109.16 590.00 99.28 C 590.00 89.40 590.00 80.60 590.00 75.72 C 590.00 70.84 590.00 70.95 590.00 70.00 C 590.00 69.05 590.00 70.00 590.00 70.00 C 590.00 70.00 590.00 69.88 590.00 70.00 C 590.00 70.12 590.00 67.02 590.00 70.72 C 590.00 74.42 590.00 87.49 590.00 92.22 C 590.00 96.95 590.00 97.94 590.00 99.08" fill="none" id="curve_serving_A5" stroke="#2b6cb0" stroke-width="2" /><path class="dashed" d="M 590.00 99.50 C 590.00 100.08 590.00 101.06 590.00 103.00 C 590.00 104.94 590.00 108.12 590.00 111.14 C 590.00 114.16 590.00 118.37 590.00 121.14 C 590.00 123.91 590.00 127.30 590.00 127.78 C 590.00 128.26 590.00 129.53 590.00 124.00 C 590.00 118.47 590.00 103.58 590.00 94.58 C 590.00 85.58 590.00 74.10 590.00 70.00 C 590.00 65.90 590.00 70.00 590.00 70.00" fill="none" id="curve_neighbor_A5" stroke="#dd6b20" stroke-dasharray="6,4" stroke-linecap="round" stroke-width="2" /></g><g id="g_annotations"><rect fill="#f2e6b8" fill-opacity="0.35" height="200.0" width="159.70499999999998" x="26.561" y="70.0" /><line stroke="#555555" stroke-width="1.0" x1="26.561" x2="26.561" y1="270.0" y2="70.0" /><line stroke="#555555" stroke-width="1.0" x1="186.266" x2="186.266" y1="270.0" y2="70.0" /><rect fill="#f2e6b8" fill-opacity="0.35" height="200.0" width="150.92999999999995" x="320.706" y="70.0" /><line stroke="#555555" stroke-width="1.0" x1="320.706" x2="320.706" y1="270.0" y2="70.0" /><line stroke="#555555" stroke-width="1.0" x1="471.63599999999997" x2="471.63599999999997" y1="270.0" y2="70.0" /><rect fill="#f2e6b8" fill-opacity="0.35" height="200.0" width="207.67499999999995" x="610.235" y="70.0" /><line stroke="#555555" stroke-width="1.0" x1="610.235" x2="610.235" y1="270.0" y2="70.0" /><line stroke="#555555" stroke-width="1.0" x1="817.91" x2="817.91" y1="270.0" y2="70.0" /><line id="geom_line_00" stroke="#000000" stroke-width="2.0" x1="39.0" x2="283.0" y1="269.0" y2="269.0" /><line id="geom_line_01" stroke="#000000" stroke-width="2.0" x1="319.0" x2="563.0" y1="269.0" y2="269.0" /><line id="geom_line_02" stroke="#000000" stroke-width="2.0" x1="599.0" x2="859.0" y1="269.0" y2="269.0" /><line id="geom_line_03" stroke="#000000" stroke-width="2.0" x1="39.0" x2="39.0" y1="70.0" y2="269.0" /><line id="geom_line_04" stroke="#000000" stroke-width="2.0" x1="130.0" x2="130.0" y1="70.0" y2="269.0" /><line id="geom_line_05" stroke="#000000" stroke-width="2.0" x1="319.0" x2="319.0" y1="70.0" y2="269.0" /><line id="geom_line_06" stroke="#000000" stroke-width="2.0" x1="410.0" x2="410.0" y1="70.0" y2="269.0" /><line id="geom_line_07" stroke="#000000" stroke-width="2.0" x1="599.0" x2="599.0" y1="70.0" y2="269.0" /><line id="geom_line_08" stroke="#000000" stroke-width="2.0" x1="690.0" x2="690.0" y1="70.0" y2="269.0" /><line id="geom_line_09" stroke="#000000" stroke-width="1.0" x1="55.0" x2="55.0" y1="77.0" y2="271.0" /><line id="geom_line_10" stroke="#000000" stroke-width="1.0" x1="56.0" x2="56.0" y1="77.0" y2="271.0" /><line id="geom_line_11" stroke="#000000" stroke-width="1.0" x1="337.0" x2="337.0" y1="77.0" y2="271.0" /><line id="geom_line_12" stroke="#000000" stroke-width="1.0" x1="615.0" x2="615.0" y1="77.0" y2="271.0" /><line id="geom_line_13" stroke="#000000" stroke-width="1.0" x1="616.0" x2="616.0" y1="77.0" y2="271.0" /><line id="geom_line_14" stroke="#000000" stroke-width="1.0" x1="336.0" x2="336.0" y1="79.0" y2="271.0" /></g><g id="g_text"><text dominant-baseline="alphabetic" fill="#000000" font-family="Arial, sans-serif" font-size="10" id="txt_t_start_A3" text-anchor="start" x="30.561" y="82.0">t_start</text><text dominant-baseline="alphabetic" fill="#000000" font-family="Arial, sans-serif" font-size="10" id="txt_t_trigger_A3" text-anchor="start" x="190.266" y="82.0">t_trigger</text><text dominant-baseline="alphabetic" fill="#000000" font-family="Arial, sans-serif" font-size="12" font-weight="bold" id="txt_panel_A3" text-anchor="start" x="17.0" y="86.0">A3</text><text dominant-baseline="alphabetic" fill="#2b6cb0" font-family="Arial, sans-serif" font-size="10" id="txt_serving_A3" text-anchor="start" x="24.65" y="140.0">Serving</text><text dominant-baseline="alphabetic" fill="#dd6b20" font-family="Arial, sans-serif" font-size="10" id="txt_neighbor_A3" text-anchor="start" x="24.65" y="180.0">Neighbor</text><text dominant-baseline="alphabetic" fill="#000000" font-family="Arial, sans-serif" font-size="10" id="txt_t_start_A4" text-anchor="start" x="324.706" y="82.0">t_start</text><text dominant-baseline="alphabetic" fill="#000000" font-family="Arial, sans-serif" font-size="10" id="txt_t_trigger_A4" text-anchor="start" x="475.63599999999997" y="82.0">t_trigger</text><text dominant-baseline="alphabetic" fill="#000000" font-family="Arial, sans-serif" font-size="12" font-weight="bold" id="txt_panel_A4" text-anchor="start" x="312.0" y="86.0">A4</text><text dominant-baseline="alphabetic" fill="#2b6cb0" font-family="Arial, sans-serif" font-size="10" id="txt_serving_A4" text-anchor="start" x="318.9" y="140.0">Serving</text><text dominant-baseline="alphabetic" fill="#dd6b20" font-family="Arial, sans-serif" font-size="10" id="txt_neighbor_A4" text-anchor="start" x="318.9" y="180.0">Neighbor</text><text dominant-baseline="alphabetic" fill="#000000" font-family="Arial, sans-serif" font-size="10" id="txt_t_start_A5" text-anchor="start" x="614.235" y="82.0">t_start</text><text dominant-baseline="alphabetic" fill="#000000" font-family="Arial, sans-serif" font-size="10" id="txt_t_trigger_A5" text-anchor="start" x="821.91" y="82.0">t_trigger</text><text dominant-baseline="alphabetic" fill="#000000" font-family="Arial, sans-serif" font-size="12" font-weight="bold" id="txt_panel_A5" text-anchor="start" x="596.0" y="86.0">A5</text><text dominant-baseline="alphabetic" fill="#2b6cb0" font-family="Arial, sans-serif" font-size="10" id="txt_serving_A5" text-anchor="start" x="607.75" y="140.0">Serving</text><text dominant-baseline="alphabetic" fill="#dd6b20" font-family="Arial, sans-serif" font-size="10" id="txt_neighbor_A5" text-anchor="start" x="607.75" y="180.0">Neighbor</text></g><g id="g_markers"><circle cx="26.561" cy="76.0" fill="#555555" r="3" /><circle cx="186.266" cy="76.0" fill="#555555" r="3" /><circle cx="39.0098" cy="135.0" fill="#2b6cb0" r="3" /><circle cx="155.0075" cy="70.0" fill="#2b6cb0" r="3" /><circle cx="39.0098" cy="99.5" fill="#dd6b20" r="3" /><circle cx="155.0075" cy="127.78" fill="#dd6b20" r="3" /><circle cx="320.706" cy="76.0" fill="#555555" r="3" /><circle cx="471.63599999999997" cy="76.0" fill="#555555" r="3" /><circle cx="306.0" cy="135.0" fill="#2b6cb0" r="3" /><circle cx="306.0" cy="70.0" fill="#2b6cb0" r="3" /><circle cx="306.0" cy="99.5" fill="#dd6b20" r="3" /><circle cx="306.0" cy="127.78" fill="#dd6b20" r="3" /><circle cx="610.235" cy="76.0" fill="#555555" r="3" /><circle cx="817.91" cy="76.0" fill="#555555" r="3" /><circle cx="590.0" cy="135.0" fill="#2b6cb0" r="3" /><circle cx="590.0" cy="99.08" fill="#2b6cb0" r="3" /><circle cx="590.0" cy="99.5" fill="#dd6b20" r="3" /><circle cx="590.0" cy="70.0" fill="#dd6b20" r="3" /></g></g></svg>