<?xml version="1.0" encoding="utf-8" ?>
<svg baseProfile="full" height="280" version="1.1" width="900" xmlns="http://www.w3.org/2000/svg" xmlns:ev="http://www.w3.org/2001/xml-events" xmlns:xlink="http://www.w3.org/1999/xlink"><defs /><g id="figure_root"><g id="g_axes"><line stroke="#000000" stroke-width="2" x1="11.0" x2="265.0" y1="240.0" y2="240.0" /><line stroke="#000000" stroke-width="2" x1="11.0" x2="11.0" y1="240.0" y2="60.0" /><line stroke="#000000" stroke-width="2" x1="286.0" x2="526.0" y1="240.0" y2="240.0" /><line stroke="#000000" stroke-width="2" x1="286.0" x2="286.0" y1="240.0" y2="60.0" /><line stroke="#000000" stroke-width="2" x1="550.0" x2="886.0" y1="240.0" y2="240.0" /><line stroke="#000000" stroke-width="2" x1="550.0" x2="550.0" y1="240.0" y2="60.0" /></g><g id="g_curves"><path d="M 23.70 204.00 C 63.70 204.00 98.00 96.00 138.00 96.00 C 178.00 96.00 212.29 168.00 252.30 168.00" fill="none" id="curve_serving_A3" stroke="#2b6cb0" stroke-width="2" /><path d="M 23.70 168.00 C 63.70 168.00 98.00 186.00 138.00 186.00 C 178.00 186.00 212.29 96.00 252.30 96.00" fill="none" id="curve_neighbor_A3" stroke="#dd6b20" stroke-width="2" /><path d="M 298.00 204.00 C 335.80 204.00 368.20 96.00 406.00 96.00 C 443.80 96.00 476.20 168.00 514.00 168.00" fill="none" id="curve_serving_A4" stroke="#2b6cb0" stroke-width="2" /><path d="M 298.00 168.00 C 335.80 168.00 368.20 186.00 406.00 186.00 C 443.80 186.00 476.20 96.00 514.00 96.00" fill="none" id="curve_neighbor_A4" stroke="#dd6b20" stroke-width="2" /><path d="M 566.80 204.00 C 619.72 204.00 665.08 96.00 718.00 96.00 C 770.92 96.00 816.28 168.00 869.20 168.00" fill="none" id="curve_serving_A5" stroke="#2b6cb0" stroke-width="2" /><path d="M 566.80 168.00 C 619.72 168.00 665.08 186.00 718.00 186.00 C 770.92 186.00 816.28 96.00 869.20 96.00" fill="none" id="curve_neighbor_A5" stroke="#dd6b20" stroke-width="2" /></g><g id="g_annotations"><rect fill="#d0d0d0" fill-opacity="0.3" height="180.0" width="101.6" x="61.800000000000004" y="60.0" /><line stroke="#555555" stroke-width="1" x1="61.800000000000004" x2="61.800000000000004" y1="240.0" y2="60.0" /><line stroke="#555555" stroke-width="1" x1="163.4" x2="163.4" y1="240.0" y2="60.0" /><rect fill="#d0d0d0" fill-opacity="0.3" height="180.0" width="96.0" x="334.0" y="60.0" /><line stroke="#555555" stroke-width="1" x1="334.0" x2="334.0" y1="240.0" y2="60.0" /><line stroke="#555555" stroke-width="1" x1="430.0" x2="430.0" y1="240.0" y2="60.0" /><rect fill="#d0d0d0" fill-opacity="0.3" height="180.0" width="134.39999999999998" x="617.2" y="60.0" /><line stroke="#555555" stroke-width="1" x1="617.2" x2="617.2" y1="240.0" y2="60.0" /><line stroke="#555555" stroke-width="1" x1="751.6" x2="751.6" y1="240.0" y2="60.0" /><line id="geom_line_00" stroke="#000000" stroke-width="2.0" x1="39.0" x2="39.0" y1="60.0" y2="239.0" /><line id="geom_line_01" stroke="#000000" stroke-width="2.0" x1="300.0" x2="300.0" y1="60.0" y2="239.0" /><line id="geom_line_02" stroke="#000000" stroke-width="2.0" x1="560.0" x2="560.0" y1="60.0" y2="239.0" /><line id="geom_line_03" stroke="#000000" stroke-width="2.0" x1="39.0" x2="264.0" y1="239.0" y2="239.0" /><line id="geom_line_04" stroke="#000000" stroke-width="2.0" x1="299.0" x2="525.0" y1="239.0" y2="239.0" /><line id="geom_line_05" stroke="#000000" stroke-width="2.0" x1="559.0" x2="799.0" y1="239.0" y2="239.0" /><line class="dashed" id="geom_line_06" stroke="#555555" stroke-dasharray="6,4" stroke-width="1.0" x1="39.0" x2="790.0" y1="169.0" y2="169.0" /><rect fill="none" height="180.0" id="geom_rect_00" stroke="#555555" stroke-width="1.0" width="254.0" x="11.0" y="60.0" /><rect fill="none" height="180.0" id="geom_rect_01" stroke="#555555" stroke-width="1.0" width="240.0" x="286.0" y="60.0" /><rect fill="none" height="180.0" id="geom_rect_02" stroke="#555555" stroke-width="1.0" width="336.0" x="550.0" y="60.0" /></g><g id="g_text"><text fill="#333333" font-family="Arial, sans-serif" font-size="10" id="txt_t_start_A3" text-anchor="start" x="65.80000000000001" y="72.0">t_start</text><text fill="#333333" font-family="Arial, sans-serif" font-size="10" id="txt_t_trigger_A3" text-anchor="start" x="167.4" y="72.0">t_trigger</text><text fill="#000000" font-family="Arial, sans-serif" font-size="12" id="txt_panel_A3" text-anchor="start" x="17.0" y="76.0">A3</text><text fill="#2b6cb0" font-family="Arial, sans-serif" font-size="10" id="txt_serving_A3" text-anchor="start" x="23.700000000000003" y="123.0">Serving</text><text fill="#dd6b20" font-family="Arial, sans-serif" font-size="10" id="txt_neighbor_A3" text-anchor="start" x="23.700000000000003" y="159.0">Neighbor</text><text fill="#333333" font-family="Arial, sans-serif" font-size="10" id="txt_t_start_A4" text-anchor="start" x="338.0" y="72.0">t_start</text><text fill="#333333" font-family="Arial, sans-serif" font-size="10" id="txt_t_trigger_A4" text-anchor="start" x="434.0" y="72.0">t_trigger</text><text fill="#000000" font-family="Arial, sans-serif" font-size="12" id="txt_panel_A4" text-anchor="start" x="292.0" y="76.0">A4</text><text fill="#2b6cb0" font-family="Arial, sans-serif" font-size="10" id="txt_serving_A4" text-anchor="start" x="298.0" y="123.0">Serving</text><text fill="#dd6b20" font-family="Arial, sans-serif" font-size="10" id="txt_neighbor_A4" text-anchor="start" x="298.0" y="159.0">Neighbor</text><text fill="#333333" font-family="Arial, sans-serif" font-size="10" id="txt_t_start_A5" text-anchor="start" x="621.2" y="72.0">t_start</text><text fill="#333333" font-family="Arial, sans-serif" font-size="10" id="txt_t_trigger_A5" text-anchor="start" x="755.6" y="72.0">t_trigger</text><text fill="#000000" font-family="Arial, sans-serif" font-size="12" id="txt_panel_A5" text-anchor="start" x="556.0" y="76.0">A5</text><text fill="#2b6cb0" font-family="Arial, sans-serif" font-size="10" id="txt_serving_A5" text-anchor="start" x="566.8" y="123.0">Serving</text><text fill="#dd6b20" font-family="Arial, sans-serif" font-size="10" id="txt_neighbor_A5" text-anchor="start" x="566.8" y="159.0">Neighbor</text></g><g id="g_markers"><circle cx="61.800000000000004" cy="66.0" fill="#555555" r="3" /><circle cx="163.4" cy="66.0" fill="#555555" r="3" /><circle cx="23.700000000000003" cy="204.0" fill="#2b6cb0" r="3" /><circle cx="252.29999999999998" cy="168.0" fill="#2b6cb0" r="3" /><circle cx="23.700000000000003" cy="168.0" fill="#dd6b20" r="3" /><circle cx="252.29999999999998" cy="96.0" fill="#dd6b20" r="3" /><circle cx="334.0" cy="66.0" fill="#555555" r="3" /><circle cx="430.0" cy="66.0" fill="#555555" r="3" /><circle cx="298.0" cy="204.0" fill="#2b6cb0" r="3" /><circle cx="514.0" cy="168.0" fill="#2b6cb0" r="3" /><circle cx="298.0" cy="168.0" fill="#dd6b20" r="3" /><circle cx="514.0" cy="96.0" fill="#dd6b20" r="3" /><circle cx="617.2" cy="66.0" fill="#555555" r="3" /><circle cx="751.6" cy="66.0" fill="#555555" r="3" /><circle cx="566.8" cy="204.0" fill="#2b6cb0" r="3" /><circle cx="869.2" cy="168.0" fill="#2b6cb0" r="3" /><circle cx="566.8" cy="168.0" fill="#dd6b20" r="3" /><circle cx="869.2" cy="96.0" fill="#dd6b20" r="3" /></g></g></svg>