<?xml version="1.0" encoding="utf-8" ?>
<svg baseProfile="full" height="240" version="1.1" width="780" xmlns="http://www.w3.org/2000/svg" xmlns:ev="http://www.w3.org/2001/xml-events" xmlns:xlink="http://www.w3.org/1999/xlink"><defs /><g id="figure_root"><g id="g_axes"><line stroke="#000000" stroke-width="2.0" x1="30.0" x2="230.0" y1="190.0" y2="190.0" /><line stroke="#000000" stroke-width="2.0" x1="30.0" x2="30.0" y1="190.0" y2="50.0" /><line stroke="#000000" stroke-width="2.0" x1="290.0" x2="490.0" y1="190.0" y2="190.0" /><line stroke="#000000" stroke-width="2.0" x1="290.0" x2="290.0" y1="190.0" y2="50.0" /><line stroke="#000000" stroke-width="2.0" x1="550.0" x2="750.0" y1="190.0" y2="190.0" /><line stroke="#000000" stroke-width="2.0" x1="550.0" x2="550.0" y1="190.0" y2="50.0" /></g><g id="g_curves"><path d="M 40.00 169.00 C 71.50 169.00 98.50 85.00 130.00 85.00 C 161.50 85.00 188.50 141.00 220.00 141.00" fill="none" id="curve_serving_A3" stroke="#2b6cb0" stroke-width="2" /><path d="M 40.00 113.00 C 71.50 113.00 98.50 155.00 130.00 155.00 C 161.50 155.00 188.50 71.00 220.00 71.00" fill="none" id="curve_neighbor_A3" stroke="#dd6b20" stroke-width="2" /><path d="M 300.00 169.00 C 331.50 169.00 358.50 85.00 390.00 85.00 C 421.50 85.00 448.50 141.00 480.00 141.00" fill="none" id="curve_serving_A4" stroke="#2b6cb0" stroke-width="2" /><path d="M 300.00 113.00 C 331.50 113.00 358.50 155.00 390.00 155.00 C 421.50 155.00 448.50 71.00 480.00 71.00" fill="none" id="curve_neighbor_A4" stroke="#dd6b20" stroke-width="2" /><path d="M 560.00 169.00 C 591.50 169.00 618.50 85.00 650.00 85.00 C 681.50 85.00 708.50 141.00 740.00 141.00" fill="none" id="curve_serving_A5" stroke="#2b6cb0" stroke-width="2" /><path d="M 560.00 113.00 C 591.50 113.00 618.50 155.00 650.00 155.00 C 681.50 155.00 708.50 71.00 740.00 71.00" fill="none" id="curve_neighbor_A5" stroke="#dd6b20" stroke-width="2" /></g><g id="g_annotations"><rect fill="#d0d0d0" fill-opacity="0.3" height="140.0" width="90.0" x="80.0" y="50.0" /><line stroke="#555555" stroke-width="1.0" x1="80.0" x2="80.0" y1="190.0" y2="50.0" /><line stroke="#555555" stroke-width="1.0" x1="170.0" x2="170.0" y1="190.0" y2="50.0" /><rect fill="#d0d0d0" fill-opacity="0.3" height="140.0" width="90.0" x="340.0" y="50.0" /><line stroke="#555555" stroke-width="1.0" x1="340.0" x2="340.0" y1="190.0" y2="50.0" /><line stroke="#555555" stroke-width="1.0" x1="430.0" x2="430.0" y1="190.0" y2="50.0" /><rect fill="#d0d0d0" fill-opacity="0.3" height="140.0" width="90.0" x="600.0" y="50.0" /><line stroke="#555555" stroke-width="1.0" x1="600.0" x2="600.0" y1="190.0" y2="50.0" /><line stroke="#555555" stroke-width="1.0" x1="690.0" x2="690.0" y1="190.0" y2="50.0" /></g><g id="g_text"><text fill="#000000" font-family="Arial, sans-serif" id="txt_title" text-anchor="start" x="10" y="20">Handover Thresholds</text><text dominant-baseline="alphabetic" fill="#000000" font-family="Arial, sans-serif" font-size="10" id="txt_t_start_A3" text-anchor="start" x="84.0" y="62.0">t_start</text><text dominant-baseline="alphabetic" fill="#000000" font-family="Arial, sans-serif" font-size="10" id="txt_t_trigger_A3" text-anchor="start" x="174.0" y="62.0">t_trigger</text><text dominant-baseline="alphabetic" fill="#000000" font-family="Arial, sans-serif" font-size="12" font-weight="bold" id="txt_panel_A3" text-anchor="start" x="36.0" y="66.0">A3</text><text dominant-baseline="alphabetic" fill="#2b6cb0" font-family="Arial, sans-serif" font-size="10" id="txt_serving_A3" text-anchor="start" x="40.0" y="99.0">Serving</text><text dominant-baseline="alphabetic" fill="#dd6b20" font-family="Arial, sans-serif" font-size="10" id="txt_neighbor_A3" text-anchor="start" x="40.0" y="127.0">Neighbor</text><text dominant-baseline="alphabetic" fill="#000000" font-family="Arial, sans-serif" font-size="10" id="txt_t_start_A4" text-anchor="start" x="344.0" y="62.0">t_start</text><text dominant-baseline="alphabetic" fill="#000000" font-family="Arial, sans-serif" font-size="10" id="txt_t_trigger_A4" text-anchor="start" x="434.0" y="62.0">t_trigger</text><text dominant-baseline="alphabetic" fill="#000000" font-family="Arial, sans-serif" font-size="12" font-weight="bold" id="txt_panel_A4" text-anchor="start" x="296.0" y="66.0">A4</text><text dominant-baseline="alphabetic" fill="#2b6cb0" font-family="Arial, sans-serif" font-size="10" id="txt_serving_A4" text-anchor="start" x="300.0" y="99.0">Serving</text><text dominant-baseline="alphabetic" fill="#dd6b20" font-family="Arial, sans-serif" font-size="10" id="txt_neighbor_A4" text-anchor="start" x="300.0" y="127.0">Neighbor</text><text dominant-baseline="alphabetic" fill="#000000" font-family="Arial, sans-serif" font-size="10" id="txt_t_start_A5" text-anchor="start" x="604.0" y="62.0">t_start</text><text dominant-baseline="alphabetic" fill="#000000" font-family="Arial, sans-serif" font-size="10" id="txt_t_trigger_A5" text-anchor="start" x="694.0" y="62.0">t_trigger</text><text dominant-baseline="alphabetic" fill="#000000" font-family="Arial, sans-serif" font-size="12" font-weight="bold" id="txt_panel_A5" text-anchor="start" x="556.0" y="66.0">A5</text><text dominant-baseline="alphabetic" fill="#2b6cb0" font-family="Arial, sans-serif" font-size="10" id="txt_serving_A5" text-anchor="start" x="560.0" y="99.0">Serving</text><text dominant-baseline="alphabetic" fill="#dd6b20" font-family="Arial, sans-serif" font-size="10" id="txt_neighbor_A5" text-anchor="start" x="560.0" y="127.0">Neighbor</text></g><g id="g_markers"><circle cx="80.0" cy="56.0" fill="#555555" r="3" /><circle cx="170.0" cy="56.0" fill="#555555" r="3" /><circle cx="40.0" cy="169.0" fill="#2b6cb0" r="3" /><circle cx="220.0" cy="141.0" fill="#2b6cb0" r="3" /><circle cx="40.0" cy="113.0" fill="#dd6b20" r="3" /><circle cx="220.0" cy="71.0" fill="#dd6b20" r="3" /><circle cx="340.0" cy="56.0" fill="#555555" r="3" /><circle cx="430.0" cy="56.0" fill="#555555" r="3" /><circle cx="300.0" cy="169.0" fill="#2b6cb0" r="3" /><circle cx="480.0" cy="141.0" fill="#2b6cb0" r="3" /><circle cx="300.0" cy="113.0" fill="#dd6b20" r="3" /><circle cx="480.0" cy="71.0" fill="#dd6b20" r="3" /><circle cx="600.0" cy="56.0" fill="#555555" r="3" /><circle cx="690.0" cy="56.0" fill="#555555" r="3" /><circle cx="560.0" cy="169.0" fill="#2b6cb0" r="3" /><circle cx="740.0" cy="141.0" fill="#2b6cb0" r="3" /><circle cx="560.0" cy="113.0" fill="#dd6b20" r="3" /><circle cx="740.0" cy="71.0" fill="#dd6b20" r="3" /></g></g></svg>