<?xml version="1.0" encoding="utf-8" ?>
<svg baseProfile="full" height="360" version="1.1" width="900" xmlns="http://www.w3.org/2000/svg" xmlns:ev="http://www.w3.org/2001/xml-events" xmlns:xlink="http://www.w3.org/1999/xlink"><defs /><g id="figure_root"><g id="g_axes"><line stroke="#000000" stroke-width="2" x1="90.0" x2="810.0" y1="288.0" y2="288.0" /><line stroke="#000000" stroke-width="2" x1="90.0" x2="90.0" y1="288.0" y2="54.0" /><line stroke="#000000" stroke-width="1" x1="90.0" x2="90.0" y1="288.0" y2="294.0" /><line stroke="#000000" stroke-width="1" x1="450.0" x2="450.0" y1="288.0" y2="294.0" /><line stroke="#000000" stroke-width="1" x1="810.0" x2="810.0" y1="288.0" y2="294.0" /><line stroke="#000000" stroke-width="1" x1="84.0" x2="90.0" y1="288.0" y2="288.0" /><line stroke="#000000" stroke-width="1" x1="84.0" x2="90.0" y1="171.0" y2="171.0" /><line stroke="#000000" stroke-width="1" x1="84.0" x2="90.0" y1="54.0" y2="54.0" /></g><g id="g_curves"><polyline fill="none" id="series_series_1" points="90.0,241.2 210.024,217.8 329.976,194.39999999999998 450.0,171.0 570.0239999999999,147.6 689.976,124.20000000000002 810.0,100.79999999999998" stroke="#1f77b4" stroke-width="2.0" /><polyline class="dashed" fill="none" id="series_series_2" points="90.0,217.8 210.024,202.1922 329.976,186.6078 450.0,171.0 570.0239999999999,155.3922 689.976,139.80780000000001 810.0,124.20000000000002" stroke="#ff7f0e" stroke-dasharray="6.0,4.0" stroke-width="2.0" /><polyline fill="none" id="series_series_3" points="90.0,194.39999999999998 210.024,186.6078 329.976,178.79219999999998 450.0,171.0 570.0239999999999,163.20780000000002 689.976,155.3922 810.0,147.6" stroke="#2ca02c" stroke-width="2.0" /><polyline fill="none" id="series_series_4" points="90.0,171.0 210.024,171.0 329.976,171.0 450.0,171.0 570.0239999999999,171.0 689.976,171.0 810.0,171.0" stroke="#d62728" stroke-width="2.0" /></g><g id="g_annotations"><g id="legend"><line stroke="#1f77b4" stroke-width="2.0" x1="670.0" x2="694.0" y1="64.0" y2="64.0" /><line class="dashed" stroke="#ff7f0e" stroke-dasharray="6.0,4.0" stroke-width="2.0" x1="670.0" x2="694.0" y1="82.0" y2="82.0" /><line stroke="#2ca02c" stroke-width="2.0" x1="670.0" x2="694.0" y1="100.0" y2="100.0" /><line stroke="#d62728" stroke-width="2.0" x1="670.0" x2="694.0" y1="118.0" y2="118.0" /></g><rect fill="none" height="234.0" id="geom_rect_00" stroke="#555555" stroke-width="1.0" width="720.0" x="90.0" y="54.0" /></g><g id="g_text"><text fill="#000000" font-family="Arial, sans-serif" font-size="10" id="txt_tick_x_0" text-anchor="middle" x="90.0" y="306.0">0</text><text fill="#000000" font-family="Arial, sans-serif" font-size="10" id="txt_tick_x_1" text-anchor="middle" x="450.0" y="306.0">0.5</text><text fill="#000000" font-family="Arial, sans-serif" font-size="10" id="txt_tick_x_2" text-anchor="middle" x="810.0" y="306.0">1</text><text fill="#000000" font-family="Arial, sans-serif" font-size="10" id="txt_tick_y_0" text-anchor="end" x="80.0" y="291.0">0</text><text fill="#000000" font-family="Arial, sans-serif" font-size="10" id="txt_tick_y_1" text-anchor="end" x="80.0" y="174.0">0.5</text><text fill="#000000" font-family="Arial, sans-serif" font-size="10" id="txt_tick_y_2" text-anchor="end" x="80.0" y="57.0">1</text><text fill="#000000" font-family="Arial, sans-serif" font-size="10" id="txt_legend_series_1" text-anchor="start" x="700.0" y="68.0">Series 1</text><text fill="#000000" font-family="Arial, sans-serif" font-size="10" id="txt_legend_series_2" text-anchor="start" x="700.0" y="86.0">Series 2</text><text fill="#000000" font-family="Arial, sans-serif" font-size="10" id="txt_legend_series_3" text-anchor="start" x="700.0" y="104.0">Series 3</text><text fill="#000000" font-family="Arial, sans-serif" font-size="10" id="txt_legend_series_4" text-anchor="start" x="700.0" y="122.0">Series 4</text></g><g id="g_markers" /></g></svg>