<?xml version="1.0" encoding="utf-8" ?>
<svg baseProfile="full" height="420" version="1.1" width="980" xmlns="http://www.w3.org/2000/svg" xmlns:ev="http://www.w3.org/2001/xml-events" xmlns:xlink="http://www.w3.org/1999/xlink"><defs /><g id="figure_root"><g id="g_axes" /><g id="g_curves"><line fill="none" stroke="#000000" stroke-width="2" x1="313.0" x2="371.0" y1="117.5" y2="117.5" /><line fill="none" stroke="#000000" stroke-width="2" x1="586.0" x2="644.0" y1="117.5" y2="117.5" /></g><g id="g_annotations"><rect fill="#ffffff" height="67.0" id="node_n1" rx="8.0" ry="8.0" stroke="#000000" stroke-width="2" width="215.0" x="98.0" y="84.0" /><rect fill="#ffffff" height="67.0" id="node_n2" rx="8.0" ry="8.0" stroke="#000000" stroke-width="2" width="215.0" x="371.0" y="84.0" /><rect fill="#ffffff" height="67.0" id="node_n3" rx="8.0" ry="8.0" stroke="#000000" stroke-width="2" width="215.0" x="644.0" y="84.0" /><line id="geom_line_00" stroke="#000000" stroke-width="2.0" x1="313.0" x2="371.0" y1="118.0" y2="118.0" /><line id="geom_line_01" stroke="#000000" stroke-width="2.0" x1="586.0" x2="644.0" y1="118.0" y2="118.0" /><rect fill="none" height="67.0" id="geom_rect_00" stroke="#000000" stroke-width="2.0" width="215.0" x="98.0" y="84.0" /><rect fill="none" height="67.0" id="geom_rect_01" stroke="#000000" stroke-width="2.0" width="215.0" x="371.0" y="84.0" /><rect fill="none" height="67.0" id="geom_rect_02" stroke="#000000" stroke-width="2.0" width="215.0" x="644.0" y="84.0" /></g><g id="g_text"><text fill="#000000" font-family="Arial, sans-serif" font-size="12" id="txt_node_n1" text-anchor="start" x="110.0" y="108.0"><tspan id="txt_node_n1_line0" x="110.0" y="108.0">n1</tspan></text><text fill="#000000" font-family="Arial, sans-serif" font-size="12" id="txt_node_n2" text-anchor="start" x="383.0" y="108.0"><tspan id="txt_node_n2_line0" x="383.0" y="108.0">n2</tspan></text><text fill="#000000" font-family="Arial, sans-serif" font-size="12" id="txt_node_n3" text-anchor="start" x="656.0" y="108.0"><tspan id="txt_node_n3_line0" x="656.0" y="108.0">n3</tspan></text><text dominant-baseline="alphabetic" fill="#000000" font-family="Arial, sans-serif" font-size="6.0" font-weight="normal" id="txt_text_00" text-anchor="start" x="50.0" y="75.0">UE</text><text dominant-baseline="alphabetic" fill="#000000" font-family="Arial, sans-serif" font-size="7.8" font-weight="normal" id="txt_text_01" text-anchor="middle" x="290.0" y="130.0">Quality</text><text dominant-baseline="alphabetic" fill="#000000" font-family="Arial, sans-serif" font-size="6.0" font-weight="normal" id="txt_text_02" text-anchor="start" x="775.0" y="250.0">Switch</text><text dominant-baseline="alphabetic" fill="#000000" font-family="Arial, sans-serif" font-size="6.0" font-weight="normal" id="txt_text_03" text-anchor="start" x="50.0" y="315.0">Core</text></g><g id="g_markers"><polygon fill="#000000" points="371.0,117.5 361.0,120.5 361.0,114.5" /><polygon fill="#000000" points="644.0,117.5 634.0,120.5 634.0,114.5" /></g></g></svg>