<?xml version="1.0" encoding="utf-8" ?>
<svg baseProfile="full" height="256" version="1.1" width="256" xmlns="http://www.w3.org/2000/svg" xmlns:ev="http://www.w3.org/2001/xml-events" xmlns:xlink="http://www.w3.org/1999/xlink"><defs /><g id="figure_root"><g id="g_axes"><line stroke="#000000" stroke-width="2" x1="40.0" x2="216.0" y1="205.0" y2="205.0" /><line stroke="#000000" stroke-width="2" x1="40.0" x2="40.0" y1="205.0" y2="38.0" /><line stroke="#000000" stroke-width="1" x1="40.0" x2="40.0" y1="205.0" y2="211.0" /><line stroke="#000000" stroke-width="1" x1="128.0" x2="128.0" y1="205.0" y2="211.0" /><line stroke="#000000" stroke-width="1" x1="216.0" x2="216.0" y1="205.0" y2="211.0" /><line stroke="#000000" stroke-width="1" x1="34.0" x2="40.0" y1="205.0" y2="205.0" /><line stroke="#000000" stroke-width="1" x1="34.0" x2="40.0" y1="121.5" y2="121.5" /><line stroke="#000000" stroke-width="1" x1="34.0" x2="40.0" y1="38.0" y2="38.0" /></g><g id="g_curves"><polyline fill="none" id="series_series_1" points="40.0,171.6 216.0,71.4" stroke="#1f77b4" stroke-width="2.0" /></g><g id="g_annotations"><g id="legend"><line stroke="#1f77b4" stroke-width="2.0" x1="76.0" x2="100.0" y1="48.0" y2="48.0" /></g><rect fill="none" height="167.0" id="geom_rect_00" stroke="#555555" stroke-width="1.0" width="176.0" x="40.0" y="38.0" /></g><g id="g_text"><text fill="#000000" font-family="Arial, sans-serif" font-size="10" id="txt_tick_x_0" text-anchor="middle" x="40.0" y="223.0">0</text><text fill="#000000" font-family="Arial, sans-serif" font-size="10" id="txt_tick_x_1" text-anchor="middle" x="128.0" y="223.0">0.5</text><text fill="#000000" font-family="Arial, sans-serif" font-size="10" id="txt_tick_x_2" text-anchor="middle" x="216.0" y="223.0">1</text><text fill="#000000" font-family="Arial, sans-serif" font-size="10" id="txt_tick_y_0" text-anchor="end" x="30.0" y="208.0">0</text><text fill="#000000" font-family="Arial, sans-serif" font-size="10" id="txt_tick_y_1" text-anchor="end" x="30.0" y="124.5">0.5</text><text fill="#000000" font-family="Arial, sans-serif" font-size="10" id="txt_tick_y_2" text-anchor="end" x="30.0" y="41.0">1</text><text fill="#000000" font-family="Arial, sans-serif" font-size="10" id="txt_legend_series_1" text-anchor="start" x="106.0" y="52.0">Series 1</text></g><g id="g_markers" /></g></svg>