<?xml version="1.0" encoding="utf-8" ?>
<svg baseProfile="full" height="280" version="1.1" width="900" xmlns="http://www.w3.org/2000/svg" xmlns:ev="http://www.w3.org/2001/xml-events" xmlns:xlink="http://www.w3.org/1999/xlink"><defs /><g id="figure_root"><g id="g_axes"><line stroke="#000000" stroke-width="2" x1="40.0" x2="280.0" y1="240.0" y2="240.0" /><line stroke="#000000" stroke-width="2" x1="40.0" x2="40.0" y1="240.0" y2="60.0" /><line stroke="#000000" stroke-width="2" x1="300.0" x2="540.0" y1="240.0" y2="240.0" /><line stroke="#000000" stroke-width="2" x1="300.0" x2="300.0" y1="240.0" y2="60.0" /><line stroke="#000000" stroke-width="2" x1="560.0" x2="800.0" y1="240.0" y2="240.0" /><line stroke="#000000" stroke-width="2" x1="560.0" x2="560.0" y1="240.0" y2="60.0" /></g><g id="g_curves"><path d="M 52.00 204.00 C 89.80 204.00 122.20 96.00 160.00 96.00 C 197.80 96.00 230.20 168.00 268.00 168.00" fill="none" id="curve_serving_A3" stroke="#2b6cb0" stroke-width="2" /><path d="M 52.00 168.00 C 89.80 168.00 122.20 186.00 160.00 186.00 C 197.80 186.00 230.20 96.00 268.00 96.00" fill="none" id="curve_neighbor_A3" stroke="#dd6b20" stroke-width="2" /><path d="M 312.00 204.00 C 349.80 204.00 382.20 96.00 420.00 96.00 C 457.80 96.00 490.20 168.00 528.00 168.00" fill="none" id="curve_serving_A4" stroke="#2b6cb0" stroke-width="2" /><path d="M 312.00 168.00 C 349.80 168.00 382.20 186.00 420.00 186.00 C 457.80 186.00 490.20 96.00 528.00 96.00" fill="none" id="curve_neighbor_A4" stroke="#dd6b20" stroke-width="2" /><path d="M 572.00 204.00 C 609.80 204.00 642.20 96.00 680.00 96.00 C 717.80 96.00 750.20 168.00 788.00 168.00" fill="none" id="curve_serving_A5" stroke="#2b6cb0" stroke-width="2" /><path d="M 572.00 168.00 C 609.80 168.00 642.20 186.00 680.00 186.00 C 717.80 186.00 750.20 96.00 788.00 96.00" fill="none" id="curve_neighbor_A5" stroke="#dd6b20" stroke-width="2" /></g><g id="g_annotations"><rect fill="#d0d0d0" fill-opacity="0.3" height="180.0" width="96.0" x="88.0" y="60.0" /><line stroke="#555555" stroke-width="1" x1="88.0" x2="88.0" y1="240.0" y2="60.0" /><line stroke="#555555" stroke-width="1" x1="184.0" x2="184.0" y1="240.0" y2="60.0" /><rect fill="#d0d0d0" fill-opacity="0.3" height="180.0" width="96.0" x="348.0" y="60.0" /><line stroke="#555555" stroke-width="1" x1="348.0" x2="348.0" y1="240.0" y2="60.0" /><line stroke="#555555" stroke-width="1" x1="444.0" x2="444.0" y1="240.0" y2="60.0" /><rect fill="#d0d0d0" fill-opacity="0.3" height="180.0" width="96.0" x="608.0" y="60.0" /><line stroke="#555555" stroke-width="1" x1="608.0" x2="608.0" y1="240.0" y2="60.0" /><line stroke="#555555" stroke-width="1" x1="704.0" x2="704.0" y1="240.0" y2="60.0" /></g><g id="g_text"><text fill="#000000" font-family="Arial, sans-serif" id="txt_title" text-anchor="start" x="10" y="20">3GPP Events A3/A4/A5</text><text fill="#333333" font-family="Arial, sans-serif" font-size="10" id="txt_t_start_A3" text-anchor="start" x="92.0" y="72.0">t_start</text><text fill="#333333" font-family="Arial, sans-serif" font-size="10" id="txt_t_trigger_A3" text-anchor="start" x="188.0" y="72.0">t_trigger</text><text fill="#000000" font-family="Arial, sans-serif" font-size="12" id="txt_panel_A3" text-anchor="start" x="46.0" y="76.0">A3</text><text fill="#2b6cb0" font-family="Arial, sans-serif" font-size="10" id="txt_serving_A3" text-anchor="start" x="52.0" y="123.0">Serving</text><text fill="#dd6b20" font-family="Arial, sans-serif" font-size="10" id="txt_neighbor_A3" text-anchor="start" x="52.0" y="159.0">Neighbor</text><text fill="#333333" font-family="Arial, sans-serif" font-size="10" id="txt_t_start_A4" text-anchor="start" x="352.0" y="72.0">t_start</text><text fill="#333333" font-family="Arial, sans-serif" font-size="10" id="txt_t_trigger_A4" text-anchor="start" x="448.0" y="72.0">t_trigger</text><text fill="#000000" font-family="Arial, sans-serif" font-size="12" id="txt_panel_A4" text-anchor="start" x="306.0" y="76.0">A4</text><text fill="#2b6cb0" font-family="Arial, sans-serif" font-size="10" id="txt_serving_A4" text-anchor="start" x="312.0" y="123.0">Serving</text><text fill="#dd6b20" font-family="Arial, sans-serif" font-size="10" id="txt_neighbor_A4" text-anchor="start" x="312.0" y="159.0">Neighbor</text><text fill="#333333" font-family="Arial, sans-serif" font-size="10" id="txt_t_start_A5" text-anchor="start" x="612.0" y="72.0">t_start</text><text fill="#333333" font-family="Arial, sans-serif" font-size="10" id="txt_t_trigger_A5" text-anchor="start" x="708.0" y="72.0">t_trigger</text><text fill="#000000" font-family="Arial, sans-serif" font-size="12" id="txt_panel_A5" text-anchor="start" x="566.0" y="76.0">A5</text><text fill="#2b6cb0" font-family="Arial, sans-serif" font-size="10" id="txt_serving_A5" text-anchor="start" x="572.0" y="123.0">Serving</text><text fill="#dd6b20" font-family="Arial, sans-serif" font-size="10" id="txt_neighbor_A5" text-anchor="start" x="572.0" y="159.0">Neighbor</text></g><g id="g_markers"><circle cx="88.0" cy="66.0" fill="#555555" r="3" /><circle cx="184.0" cy="66.0" fill="#555555" r="3" /><circle cx="52.0" cy="204.0" fill="#2b6cb0" r="3" /><circle cx="268.0" cy="168.0" fill="#2b6cb0" r="3" /><circle cx="52.0" cy="168.0" fill="#dd6b20" r="3" /><circle cx="268.0" cy="96.0" fill="#dd6b20" r="3" /><circle cx="348.0" cy="66.0" fill="#555555" r="3" /><circle cx="444.0" cy="66.0" fill="#555555" r="3" /><circle cx="312.0" cy="204.0" fill="#2b6cb0" r="3" /><circle cx="528.0" cy="168.0" fill="#2b6cb0" r="3" /><circle cx="312.0" cy="168.0" fill="#dd6b20" r="3" /><circle cx="528.0" cy="96.0" fill="#dd6b20" r="3" /><circle cx="608.0" cy="66.0" fill="#555555" r="3" /><circle cx="704.0" cy="66.0" fill="#555555" r="3" /><circle cx="572.0" cy="204.0" fill="#2b6cb0" r="3" /><circle cx="788.0" cy="168.0" fill="#2b6cb0" r="3" /><circle cx="572.0" cy="168.0" fill="#dd6b20" r="3" /><circle cx="788.0" cy="96.0" fill="#dd6b20" r="3" /></g></g></svg>