<?xml version="1.0" encoding="utf-8" ?>
<svg baseProfile="full" height="260" version="1.1" width="800" xmlns="http://www.w3.org/2000/svg" xmlns:ev="http://www.w3.org/2001/xml-events" xmlns:xlink="http://www.w3.org/1999/xlink"><defs /><g id="figure_root"><g id="g_axes" /><g id="g_curves"><line fill="none" stroke="#000000" stroke-width="2" x1="256.0" x2="320.0" y1="121.0" y2="121.0" /><line fill="none" stroke="#000000" stroke-width="2" x1="480.0" x2="544.0" y1="121.0" y2="121.0" /></g><g id="g_annotations"><rect fill="#ffffff" height="60.0" id="node_node_1" rx="8.0" ry="8.0" stroke="#000000" stroke-width="2" width="160.0" x="96.0" y="91.0" /><rect fill="#ffffff" height="60.0" id="node_node_2" rx="8.0" ry="8.0" stroke="#000000" stroke-width="2" width="160.0" x="320.0" y="91.0" /><rect fill="#ffffff" height="60.0" id="node_node_3" rx="8.0" ry="8.0" stroke="#000000" stroke-width="2" width="160.0" x="544.0" y="91.0" /><line id="geom_line_00" stroke="#000000" stroke-width="2.0" x1="176.0" x2="400.0" y1="121.0" y2="121.0" /><line id="geom_line_01" stroke="#000000" stroke-width="2.0" x1="400.0" x2="624.0" y1="121.0" y2="121.0" /><rect fill="none" height="60.0" id="geom_rect_00" stroke="#000000" stroke-width="2.0" width="160.0" x="96.0" y="91.0" /><rect fill="none" height="60.0" id="geom_rect_01" stroke="#000000" stroke-width="2.0" width="160.0" x="320.0" y="91.0" /><rect fill="none" height="60.0" id="geom_rect_02" stroke="#000000" stroke-width="2.0" width="160.0" x="544.0" y="91.0" /></g><g id="g_text"><text fill="#000000" font-family="Arial, sans-serif" font-size="12" id="txt_node_node_1" text-anchor="start" x="108.0" y="115.0"><tspan id="txt_node_node_1_line0" x="108.0" y="115.0">Unknown</tspan></text><text fill="#000000" font-family="Arial, sans-serif" font-size="12" id="txt_node_node_2" text-anchor="start" x="332.0" y="115.0"><tspan id="txt_node_node_2_line0" x="332.0" y="115.0">Unknown</tspan></text><text fill="#000000" font-family="Arial, sans-serif" font-size="12" id="txt_node_node_3" text-anchor="start" x="556.0" y="115.0"><tspan id="txt_node_node_3_line0" x="556.0" y="115.0">Unknown</tspan></text></g><g id="g_markers"><polygon fill="#000000" points="320.0,121.0 310.0,124.0 310.0,118.0" /><polygon fill="#000000" points="544.0,121.0 534.0,124.0 534.0,118.0" /></g></g></svg>