<?xml version="1.0" encoding="utf-8" ?>
<svg baseProfile="full" height="260" version="1.1" width="1000" xmlns="http://www.w3.org/2000/svg" xmlns:ev="http://www.w3.org/2001/xml-events" xmlns:xlink="http://www.w3.org/1999/xlink"><defs /><g id="figure_root"><g id="g_axes"><line stroke="#000000" stroke-width="2" x1="100.0" x2="860.0" y1="200.0" y2="200.0" /><line stroke="#000000" stroke-width="2" x1="100.0" x2="100.0" y1="200.0" y2="40.0" /><line stroke="#000000" stroke-width="1" x1="100.0" x2="100.0" y1="200.0" y2="206.0" /><line stroke="#000000" stroke-width="1" x1="290.0" x2="290.0" y1="200.0" y2="206.0" /><line stroke="#000000" stroke-width="1" x1="480.0" x2="480.0" y1="200.0" y2="206.0" /><line stroke="#000000" stroke-width="1" x1="670.0" x2="670.0" y1="200.0" y2="206.0" /><line stroke="#000000" stroke-width="1" x1="860.0" x2="860.0" y1="200.0" y2="206.0" /><line stroke="#000000" stroke-width="1" x1="94.0" x2="100.0" y1="200.0" y2="200.0" /><line stroke="#000000" stroke-width="1" x1="94.0" x2="100.0" y1="146.66666666666669" y2="146.66666666666669" /><line stroke="#000000" stroke-width="1" x1="94.0" x2="100.0" y1="93.33333333333334" y2="93.33333333333334" /><line stroke="#000000" stroke-width="1" x1="94.0" x2="100.0" y1="40.0" y2="40.0" /></g><g id="g_curves"><polyline fill="none" id="series_sat_a" points="100.0,160.0 290.0,120.0 480.0,86.66666666666666 670.0,73.33333333333334 860.0,53.33333333333334" stroke="#1f77b4" stroke-width="2.0" /><polyline class="dashed" fill="none" id="series_sat_b" points="100.0,173.33333333333334 290.0,133.33333333333331 480.0,106.66666666666666 670.0,96.0 860.0,80.0" stroke="#2ca02c" stroke-dasharray="6,4" stroke-width="2.0" /><polyline fill="none" id="series_sat_c" points="100.0,166.66666666666666 290.0,126.66666666666667 480.0,100.0 670.0,82.66666666666667 860.0,66.66666666666666" stroke="#ff7f0e" stroke-width="2.0" /></g><g id="g_annotations"><g id="legend"><line stroke="#1f77b4" stroke-width="2.0" x1="720.0" x2="744.0" y1="50.0" y2="50.0" /><line class="dashed" stroke="#2ca02c" stroke-dasharray="6,4" stroke-width="2.0" x1="720.0" x2="744.0" y1="68.0" y2="68.0" /><line stroke="#ff7f0e" stroke-width="2.0" x1="720.0" x2="744.0" y1="86.0" y2="86.0" /></g></g><g id="g_text"><text fill="#000000" font-family="Arial, sans-serif" id="txt_title" text-anchor="start" x="10" y="20">Throughput Performance Under Extended Observation Window</text><text fill="#000000" font-family="Arial, sans-serif" font-size="10" id="txt_tick_x_0" text-anchor="middle" x="100.0" y="218.0">0</text><text fill="#000000" font-family="Arial, sans-serif" font-size="10" id="txt_tick_x_1" text-anchor="middle" x="290.0" y="218.0">25</text><text fill="#000000" font-family="Arial, sans-serif" font-size="10" id="txt_tick_x_2" text-anchor="middle" x="480.0" y="218.0">50</text><text fill="#000000" font-family="Arial, sans-serif" font-size="10" id="txt_tick_x_3" text-anchor="middle" x="670.0" y="218.0">75</text><text fill="#000000" font-family="Arial, sans-serif" font-size="10" id="txt_tick_x_4" text-anchor="middle" x="860.0" y="218.0">100</text><text fill="#000000" font-family="Arial, sans-serif" font-size="10" id="txt_tick_y_0" text-anchor="end" x="90.0" y="203.0">0</text><text fill="#000000" font-family="Arial, sans-serif" font-size="10" id="txt_tick_y_1" text-anchor="end" x="90.0" y="149.66666666666669">40</text><text fill="#000000" font-family="Arial, sans-serif" font-size="10" id="txt_tick_y_2" text-anchor="end" x="90.0" y="96.33333333333334">80</text><text fill="#000000" font-family="Arial, sans-serif" font-size="10" id="txt_tick_y_3" text-anchor="end" x="90.0" y="43.0">120</text><text fill="#000000" font-family="Arial, sans-serif" font-size="12" id="txt_axis_x" text-anchor="middle" x="480.0" y="232.0">Elapsed Time (seconds)</text><text fill="#000000" font-family="Arial, sans-serif" font-size="12" id="txt_axis_y" text-anchor="middle" x="60.0" y="120.0">Average Throughput (Mbps)</text><text fill="#000000" font-family="Arial, sans-serif" font-size="10" id="txt_legend_sat_a" text-anchor="start" x="750.0" y="54.0">Satellite A</text><text fill="#000000" font-family="Arial, sans-serif" font-size="10" id="txt_legend_sat_b" text-anchor="start" x="750.0" y="72.0">Satellite B</text><text fill="#000000" font-family="Arial, sans-serif" font-size="10" id="txt_legend_sat_c" text-anchor="start" x="750.0" y="90.0">Satellite C</text></g><g id="g_markers" /></g></svg>