<?xml version="1.0" encoding="utf-8" ?>
<svg baseProfile="full" height="320" version="1.1" width="960" xmlns="http://www.w3.org/2000/svg" xmlns:ev="http://www.w3.org/2001/xml-events" xmlns:xlink="http://www.w3.org/1999/xlink"><defs /><g id="figure_root"><g id="g_axes"><line stroke="#000000" stroke-width="2" x1="11.0" x2="269.0" y1="260.0" y2="260.0" /><line stroke="#000000" stroke-width="2" x1="11.0" x2="11.0" y1="260.0" y2="59.0" /><line stroke="#000000" stroke-width="2" x1="290.0" x2="520.0" y1="260.0" y2="260.0" /><line stroke="#000000" stroke-width="2" x1="290.0" x2="290.0" y1="260.0" y2="59.0" /><line stroke="#000000" stroke-width="2" x1="547.0" x2="943.0" y1="260.0" y2="260.0" /><line stroke="#000000" stroke-width="2" x1="547.0" x2="547.0" y1="260.0" y2="59.0" /></g><g id="g_curves"><path d="M 23.90 219.80 C 64.53 219.80 99.37 99.20 140.00 99.20 C 180.63 99.20 215.47 179.60 256.10 179.60" fill="none" id="curve_serving_A3" stroke="#2b6cb0" stroke-width="2" /><path d="M 23.90 179.60 C 64.53 179.60 99.37 199.70 140.00 199.70 C 180.63 199.70 215.47 99.20 256.10 99.20" fill="none" id="curve_neighbor_A3" stroke="#dd6b20" stroke-width="2" /><path d="M 301.50 219.80 C 337.73 219.80 368.77 99.20 405.00 99.20 C 441.23 99.20 472.27 179.60 508.50 179.60" fill="none" id="curve_serving_A4" stroke="#2b6cb0" stroke-width="2" /><path d="M 301.50 179.60 C 337.73 179.60 368.77 199.70 405.00 199.70 C 441.23 199.70 472.27 99.20 508.50 99.20" fill="none" id="curve_neighbor_A4" stroke="#dd6b20" stroke-width="2" /><path d="M 566.80 219.80 C 629.17 219.80 682.63 99.20 745.00 99.20 C 807.37 99.20 860.83 179.60 923.20 179.60" fill="none" id="curve_serving_A5" stroke="#2b6cb0" stroke-width="2" /><path d="M 566.80 179.60 C 629.17 179.60 682.63 199.70 745.00 199.70 C 807.37 199.70 860.83 99.20 923.20 99.20" fill="none" id="curve_neighbor_A5" stroke="#dd6b20" stroke-width="2" /></g><g id="g_annotations"><rect fill="#d0d0d0" fill-opacity="0.3" height="201.0" width="103.19999999999999" x="62.6" y="59.0" /><line stroke="#555555" stroke-width="1" x1="62.6" x2="62.6" y1="260.0" y2="59.0" /><line stroke="#555555" stroke-width="1" x1="165.79999999999998" x2="165.79999999999998" y1="260.0" y2="59.0" /><rect fill="#d0d0d0" fill-opacity="0.3" height="201.0" width="92.0" x="336.0" y="59.0" /><line stroke="#555555" stroke-width="1" x1="336.0" x2="336.0" y1="260.0" y2="59.0" /><line stroke="#555555" stroke-width="1" x1="428.0" x2="428.0" y1="260.0" y2="59.0" /><rect fill="#d0d0d0" fill-opacity="0.3" height="201.0" width="158.39999999999998" x="626.2" y="59.0" /><line stroke="#555555" stroke-width="1" x1="626.2" x2="626.2" y1="260.0" y2="59.0" /><line stroke="#555555" stroke-width="1" x1="784.6" x2="784.6" y1="260.0" y2="59.0" /><line id="geom_line_00" stroke="#000000" stroke-width="2.0" x1="82.0" x2="237.0" y1="119.0" y2="119.0" /><line id="geom_line_01" stroke="#000000" stroke-width="2.0" x1="332.0" x2="487.0" y1="119.0" y2="119.0" /><rect fill="none" height="201.0" id="geom_rect_00" stroke="#555555" stroke-width="1.0" width="258.0" x="11.0" y="59.0" /><rect fill="none" height="201.0" id="geom_rect_01" stroke="#555555" stroke-width="1.0" width="230.0" x="290.0" y="59.0" /><rect fill="none" height="201.0" id="geom_rect_02" stroke="#555555" stroke-width="1.0" width="396.0" x="547.0" y="59.0" /></g><g id="g_text"><text fill="#333333" font-family="Arial, sans-serif" font-size="10" id="txt_t_start_A3" text-anchor="start" x="66.6" y="71.0">t_start</text><text fill="#333333" font-family="Arial, sans-serif" font-size="10" id="txt_t_trigger_A3" text-anchor="start" x="169.79999999999998" y="71.0">t_trigger</text><text fill="#000000" font-family="Arial, sans-serif" font-size="12" id="txt_panel_A3" text-anchor="start" x="17.0" y="75.0">A3</text><text fill="#2b6cb0" font-family="Arial, sans-serif" font-size="10" id="txt_serving_A3" text-anchor="start" x="23.9" y="129.35">Serving</text><text fill="#dd6b20" font-family="Arial, sans-serif" font-size="10" id="txt_neighbor_A3" text-anchor="start" x="23.9" y="169.55">Neighbor</text><text fill="#333333" font-family="Arial, sans-serif" font-size="10" id="txt_t_start_A4" text-anchor="start" x="340.0" y="71.0">t_start</text><text fill="#333333" font-family="Arial, sans-serif" font-size="10" id="txt_t_trigger_A4" text-anchor="start" x="432.0" y="71.0">t_trigger</text><text fill="#000000" font-family="Arial, sans-serif" font-size="12" id="txt_panel_A4" text-anchor="start" x="296.0" y="75.0">A4</text><text fill="#2b6cb0" font-family="Arial, sans-serif" font-size="10" id="txt_serving_A4" text-anchor="start" x="301.5" y="129.35">Serving</text><text fill="#dd6b20" font-family="Arial, sans-serif" font-size="10" id="txt_neighbor_A4" text-anchor="start" x="301.5" y="169.55">Neighbor</text><text fill="#333333" font-family="Arial, sans-serif" font-size="10" id="txt_t_start_A5" text-anchor="start" x="630.2" y="71.0">t_start</text><text fill="#333333" font-family="Arial, sans-serif" font-size="10" id="txt_t_trigger_A5" text-anchor="start" x="788.6" y="71.0">t_trigger</text><text fill="#000000" font-family="Arial, sans-serif" font-size="12" id="txt_panel_A5" text-anchor="start" x="553.0" y="75.0">A5</text><text fill="#2b6cb0" font-family="Arial, sans-serif" font-size="10" id="txt_serving_A5" text-anchor="start" x="566.8" y="129.35">Serving</text><text fill="#dd6b20" font-family="Arial, sans-serif" font-size="10" id="txt_neighbor_A5" text-anchor="start" x="566.8" y="169.55">Neighbor</text></g><g id="g_markers"><circle cx="62.6" cy="65.0" fill="#555555" r="3" /><circle cx="165.79999999999998" cy="65.0" fill="#555555" r="3" /><circle cx="23.9" cy="219.8" fill="#2b6cb0" r="3" /><circle cx="256.1" cy="179.6" fill="#2b6cb0" r="3" /><circle cx="23.9" cy="179.6" fill="#dd6b20" r="3" /><circle cx="256.1" cy="99.19999999999999" fill="#dd6b20" r="3" /><circle cx="336.0" cy="65.0" fill="#555555" r="3" /><circle cx="428.0" cy="65.0" fill="#555555" r="3" /><circle cx="301.5" cy="219.8" fill="#2b6cb0" r="3" /><circle cx="508.5" cy="179.6" fill="#2b6cb0" r="3" /><circle cx="301.5" cy="179.6" fill="#dd6b20" r="3" /><circle cx="508.5" cy="99.19999999999999" fill="#dd6b20" r="3" /><circle cx="626.2" cy="65.0" fill="#555555" r="3" /><circle cx="784.6" cy="65.0" fill="#555555" r="3" /><circle cx="566.8" cy="219.8" fill="#2b6cb0" r="3" /><circle cx="923.2" cy="179.6" fill="#2b6cb0" r="3" /><circle cx="566.8" cy="179.6" fill="#dd6b20" r="3" /><circle cx="923.2" cy="99.19999999999999" fill="#dd6b20" r="3" /></g></g></svg>