<?xml version="1.0" encoding="utf-8" ?>
<svg baseProfile="full" height="320" version="1.1" width="960" xmlns="http://www.w3.org/2000/svg" xmlns:ev="http://www.w3.org/2001/xml-events" xmlns:xlink="http://www.w3.org/1999/xlink"><defs /><g id="figure_root"><g id="g_axes"><line stroke="#000000" stroke-width="2" x1="10.0" x2="212.0" y1="270.0" y2="270.0" /><line stroke="#000000" stroke-width="2" x1="10.0" x2="10.0" y1="270.0" y2="76.0" /><line stroke="#000000" stroke-width="2" x1="234.0" x2="513.0" y1="270.0" y2="270.0" /><line stroke="#000000" stroke-width="2" x1="234.0" x2="234.0" y1="270.0" y2="76.0" /><line stroke="#000000" stroke-width="2" x1="542.0" x2="943.0" y1="270.0" y2="270.0" /><line stroke="#000000" stroke-width="2" x1="542.0" x2="542.0" y1="270.0" y2="76.0" /></g><g id="g_curves"><path d="M 50.00 204.99 C 50.16 204.99 50.67 205.88 51.01 204.99 C 51.34 204.10 51.66 202.21 52.00 199.64 C 52.33 197.07 52.67 192.10 53.01 189.57 C 53.34 187.03 53.83 185.28 54.00 184.43" fill="none" id="curve_serving_A3" stroke="#2b6cb0" stroke-width="2" /><path class="dashed" d="M 50.00 169.51 C 57.00 170.35 72.66 169.79 91.99 174.57 C 111.33 179.36 149.00 194.28 166.00 198.22 C 183.01 202.16 186.50 200.34 194.00 198.22 C 201.50 196.10 208.16 187.61 210.99 185.49" fill="none" id="curve_neighbor_A3" stroke="#dd6b20" stroke-dasharray="6,4" stroke-linecap="round" stroke-width="2" /><path d="M 234.00 145.28 C 249.83 155.63 296.33 214.83 329.00 207.42 C 361.67 200.00 402.50 116.88 430.00 100.79 C 457.50 84.71 480.33 103.95 494.00 110.92 C 507.67 117.89 509.00 137.35 512.00 142.64" fill="none" id="curve_serving_A4" stroke="#2b6cb0" stroke-width="2" /><path class="dashed" d="M 234.00 159.07 C 243.33 152.52 273.83 118.05 290.00 119.79 C 306.16 121.52 306.51 156.67 331.01 169.47 C 355.51 182.27 406.84 197.35 437.00 196.57 C 467.16 195.79 499.50 170.09 512.00 164.79" fill="none" id="curve_neighbor_A4" stroke="#dd6b20" stroke-dasharray="6,4" stroke-linecap="round" stroke-width="2" /><path d="M 542.00 163.49 C 553.17 170.93 583.01 217.30 609.01 208.11 C 635.01 198.92 677.49 126.25 697.99 108.36 C 718.49 90.47 706.82 90.68 731.99 100.79 C 757.16 110.91 829.50 157.68 849.01 169.06" fill="none" id="curve_serving_A5" stroke="#2b6cb0" stroke-width="2" /><path class="dashed" d="M 542.00 129.72 C 542.17 129.72 542.67 129.72 543.00 129.72 C 543.34 129.72 543.67 129.99 544.00 129.72 C 544.34 129.44 544.67 128.34 545.01 128.07 C 545.34 127.79 545.84 128.07 546.01 128.07" fill="none" id="curve_neighbor_A5" stroke="#dd6b20" stroke-dasharray="6,4" stroke-linecap="round" stroke-width="2" /></g><g id="g_annotations"><rect fill="#d0d0d0" fill-opacity="0.3" height="194.0" width="80.79999999999998" x="50.400000000000006" y="76.0" /><line stroke="#555555" stroke-width="1" x1="50.400000000000006" x2="50.400000000000006" y1="270.0" y2="76.0" /><line stroke="#555555" stroke-width="1" x1="131.2" x2="131.2" y1="270.0" y2="76.0" /><rect fill="#d0d0d0" fill-opacity="0.3" height="194.0" width="111.59999999999997" x="289.8" y="76.0" /><line stroke="#555555" stroke-width="1" x1="289.8" x2="289.8" y1="270.0" y2="76.0" /><line stroke="#555555" stroke-width="1" x1="401.4" x2="401.4" y1="270.0" y2="76.0" /><rect fill="#d0d0d0" fill-opacity="0.3" height="194.0" width="160.39999999999998" x="622.2" y="76.0" /><line stroke="#555555" stroke-width="1" x1="622.2" x2="622.2" y1="270.0" y2="76.0" /><line stroke="#555555" stroke-width="1" x1="782.6" x2="782.6" y1="270.0" y2="76.0" /><line class="dashed" id="geom_line_00" stroke="#555555" stroke-dasharray="6,4" stroke-width="1.0" x1="64.0" x2="757.0" y1="269.0" y2="269.0" /><rect fill="none" height="194.0" id="geom_rect_00" stroke="#555555" stroke-width="1.0" width="202.0" x="10.0" y="76.0" /><rect fill="none" height="194.0" id="geom_rect_01" stroke="#555555" stroke-width="1.0" width="279.0" x="234.0" y="76.0" /><rect fill="none" height="194.0" id="geom_rect_02" stroke="#555555" stroke-width="1.0" width="401.0" x="542.0" y="76.0" /></g><g id="g_text"><text fill="#333333" font-family="Arial, sans-serif" font-size="10" id="txt_t_start_A3" text-anchor="start" x="54.400000000000006" y="88.0">t_start</text><text fill="#333333" font-family="Arial, sans-serif" font-size="10" id="txt_t_trigger_A3" text-anchor="start" x="135.2" y="88.0">t_trigger</text><text fill="#000000" font-family="Arial, sans-serif" font-size="12" id="txt_panel_A3" text-anchor="start" x="16.0" y="92.0">A3</text><text fill="#2b6cb0" font-family="Arial, sans-serif" font-size="10" id="txt_serving_A3" text-anchor="start" x="20.1" y="143.89999999999998">Serving</text><text fill="#dd6b20" font-family="Arial, sans-serif" font-size="10" id="txt_neighbor_A3" text-anchor="start" x="20.1" y="182.7">Neighbor</text><text fill="#333333" font-family="Arial, sans-serif" font-size="10" id="txt_t_start_A4" text-anchor="start" x="293.8" y="88.0">t_start</text><text fill="#333333" font-family="Arial, sans-serif" font-size="10" id="txt_t_trigger_A4" text-anchor="start" x="405.4" y="88.0">t_trigger</text><text fill="#000000" font-family="Arial, sans-serif" font-size="12" id="txt_panel_A4" text-anchor="start" x="240.0" y="92.0">A4</text><text fill="#2b6cb0" font-family="Arial, sans-serif" font-size="10" id="txt_serving_A4" text-anchor="start" x="247.95" y="143.89999999999998">Serving</text><text fill="#dd6b20" font-family="Arial, sans-serif" font-size="10" id="txt_neighbor_A4" text-anchor="start" x="247.95" y="182.7">Neighbor</text><text fill="#333333" font-family="Arial, sans-serif" font-size="10" id="txt_t_start_A5" text-anchor="start" x="626.2" y="88.0">t_start</text><text fill="#333333" font-family="Arial, sans-serif" font-size="10" id="txt_t_trigger_A5" text-anchor="start" x="786.6" y="88.0">t_trigger</text><text fill="#000000" font-family="Arial, sans-serif" font-size="12" id="txt_panel_A5" text-anchor="start" x="548.0" y="92.0">A5</text><text fill="#2b6cb0" font-family="Arial, sans-serif" font-size="10" id="txt_serving_A5" text-anchor="start" x="562.05" y="143.89999999999998">Serving</text><text fill="#dd6b20" font-family="Arial, sans-serif" font-size="10" id="txt_neighbor_A5" text-anchor="start" x="562.05" y="182.7">Neighbor</text></g><g id="g_markers"><circle cx="50.400000000000006" cy="82.0" fill="#555555" r="3" /><circle cx="131.2" cy="82.0" fill="#555555" r="3" /><circle cx="49.996" cy="204.9906" fill="#2b6cb0" r="3" /><circle cx="53.995599999999996" cy="184.4266" fill="#2b6cb0" r="3" /><circle cx="49.996" cy="169.50799999999998" fill="#dd6b20" r="3" /><circle cx="210.99" cy="185.49360000000001" fill="#dd6b20" r="3" /><circle cx="289.8" cy="82.0" fill="#555555" r="3" /><circle cx="401.4" cy="82.0" fill="#555555" r="3" /><circle cx="234.0" cy="145.2774" fill="#2b6cb0" r="3" /><circle cx="511.99559999999997" cy="142.639" fill="#2b6cb0" r="3" /><circle cx="234.0" cy="159.07080000000002" fill="#dd6b20" r="3" /><circle cx="511.99559999999997" cy="164.7938" fill="#dd6b20" r="3" /><circle cx="622.2" cy="82.0" fill="#555555" r="3" /><circle cx="782.6" cy="82.0" fill="#555555" r="3" /><circle cx="542.0" cy="163.49399999999997" fill="#2b6cb0" r="3" /><circle cx="849.0056" cy="169.0618" fill="#2b6cb0" r="3" /><circle cx="542.0" cy="129.7186" fill="#dd6b20" r="3" /><circle cx="546.01" cy="128.06959999999998" fill="#dd6b20" r="3" /></g></g></svg>