<?xml version="1.0" encoding="utf-8" ?>
<svg baseProfile="full" height="240" version="1.1" width="720" xmlns="http://www.w3.org/2000/svg" xmlns:ev="http://www.w3.org/2001/xml-events" xmlns:xlink="http://www.w3.org/1999/xlink"><defs /><g id="figure_root"><g id="g_axes"><line stroke="#000000" stroke-width="2" x1="10.0" x2="164.0" y1="200.0" y2="200.0" /><line stroke="#000000" stroke-width="2" x1="10.0" x2="10.0" y1="200.0" y2="76.0" /><line stroke="#000000" stroke-width="2" x1="184.0" x2="389.0" y1="200.0" y2="200.0" /><line stroke="#000000" stroke-width="2" x1="184.0" x2="184.0" y1="200.0" y2="76.0" /><line stroke="#000000" stroke-width="2" x1="411.0" x2="708.0" y1="200.0" y2="200.0" /><line stroke="#000000" stroke-width="2" x1="411.0" x2="411.0" y1="200.0" y2="76.0" /></g><g id="g_curves"><path d="M 17.70 175.20 C 41.95 175.20 62.75 100.80 87.00 100.80 C 111.25 100.80 132.04 150.40 156.30 150.40" fill="none" id="curve_serving_A3" stroke="#2b6cb0" stroke-width="2" /><path d="M 17.70 150.40 C 41.95 150.40 62.75 162.80 87.00 162.80 C 111.25 162.80 132.04 100.80 156.30 100.80" fill="none" id="curve_neighbor_A3" stroke="#dd6b20" stroke-width="2" /><path d="M 194.25 175.20 C 226.54 175.20 254.21 100.80 286.50 100.80 C 318.79 100.80 346.46 150.40 378.75 150.40" fill="none" id="curve_serving_A4" stroke="#2b6cb0" stroke-width="2" /><path d="M 194.25 150.40 C 226.54 150.40 254.21 162.80 286.50 162.80 C 318.79 162.80 346.46 100.80 378.75 100.80" fill="none" id="curve_neighbor_A4" stroke="#dd6b20" stroke-width="2" /><path d="M 425.85 175.20 C 472.63 175.20 512.72 100.80 559.50 100.80 C 606.28 100.80 646.37 150.40 693.15 150.40" fill="none" id="curve_serving_A5" stroke="#2b6cb0" stroke-width="2" /><path d="M 425.85 150.40 C 472.63 150.40 512.72 162.80 559.50 162.80 C 606.28 162.80 646.37 100.80 693.15 100.80" fill="none" id="curve_neighbor_A5" stroke="#dd6b20" stroke-width="2" /></g><g id="g_annotations"><rect fill="#d0d0d0" fill-opacity="0.3" height="124.0" width="61.599999999999994" x="40.8" y="76.0" /><line stroke="#555555" stroke-width="1" x1="40.8" x2="40.8" y1="200.0" y2="76.0" /><line stroke="#555555" stroke-width="1" x1="102.39999999999999" x2="102.39999999999999" y1="200.0" y2="76.0" /><rect fill="#d0d0d0" fill-opacity="0.3" height="124.0" width="82.0" x="225.0" y="76.0" /><line stroke="#555555" stroke-width="1" x1="225.0" x2="225.0" y1="200.0" y2="76.0" /><line stroke="#555555" stroke-width="1" x1="307.0" x2="307.0" y1="200.0" y2="76.0" /><rect fill="#d0d0d0" fill-opacity="0.3" height="124.0" width="118.80000000000007" x="470.4" y="76.0" /><line stroke="#555555" stroke-width="1" x1="470.4" x2="470.4" y1="200.0" y2="76.0" /><line stroke="#555555" stroke-width="1" x1="589.2" x2="589.2" y1="200.0" y2="76.0" /><line id="geom_line_00" stroke="#000000" stroke-width="2.0" x1="144.0" x2="144.0" y1="82.0" y2="186.0" /><line id="geom_line_01" stroke="#000000" stroke-width="2.0" x1="369.0" x2="369.0" y1="82.0" y2="186.0" /><line id="geom_line_02" stroke="#000000" stroke-width="2.0" x1="594.0" x2="594.0" y1="82.0" y2="186.0" /><line class="dashed" id="geom_line_03" stroke="#555555" stroke-dasharray="6,4" stroke-width="1.0" x1="82.0" x2="598.0" y1="76.0" y2="76.0" /><line class="dashed" id="geom_line_04" stroke="#555555" stroke-dasharray="6,4" stroke-width="1.0" x1="49.0" x2="594.0" y1="101.0" y2="101.0" /><line class="dashed" id="geom_line_05" stroke="#555555" stroke-dasharray="6,4" stroke-width="1.0" x1="66.0" x2="605.0" y1="199.0" y2="199.0" /><rect fill="none" height="124.0" id="geom_rect_00" stroke="#555555" stroke-width="1.0" width="154.0" x="10.0" y="76.0" /><rect fill="none" height="124.0" id="geom_rect_01" stroke="#555555" stroke-width="1.0" width="205.0" x="184.0" y="76.0" /><rect fill="none" height="124.0" id="geom_rect_02" stroke="#555555" stroke-width="1.0" width="297.0" x="411.0" y="76.0" /></g><g id="g_text"><text fill="#333333" font-family="Arial, sans-serif" font-size="10" id="txt_t_start_A3" text-anchor="start" x="44.8" y="88.0">t_start</text><text fill="#333333" font-family="Arial, sans-serif" font-size="10" id="txt_t_trigger_A3" text-anchor="start" x="106.39999999999999" y="88.0">t_trigger</text><text fill="#000000" font-family="Arial, sans-serif" font-size="12" id="txt_panel_A3" text-anchor="start" x="16.0" y="92.0">A3</text><text fill="#2b6cb0" font-family="Arial, sans-serif" font-size="10" id="txt_serving_A3" text-anchor="start" x="17.7" y="119.4">Serving</text><text fill="#dd6b20" font-family="Arial, sans-serif" font-size="10" id="txt_neighbor_A3" text-anchor="start" x="17.7" y="144.2">Neighbor</text><text fill="#333333" font-family="Arial, sans-serif" font-size="10" id="txt_t_start_A4" text-anchor="start" x="229.0" y="88.0">t_start</text><text fill="#333333" font-family="Arial, sans-serif" font-size="10" id="txt_t_trigger_A4" text-anchor="start" x="311.0" y="88.0">t_trigger</text><text fill="#000000" font-family="Arial, sans-serif" font-size="12" id="txt_panel_A4" text-anchor="start" x="190.0" y="92.0">A4</text><text fill="#2b6cb0" font-family="Arial, sans-serif" font-size="10" id="txt_serving_A4" text-anchor="start" x="194.25" y="119.4">Serving</text><text fill="#dd6b20" font-family="Arial, sans-serif" font-size="10" id="txt_neighbor_A4" text-anchor="start" x="194.25" y="144.2">Neighbor</text><text fill="#333333" font-family="Arial, sans-serif" font-size="10" id="txt_t_start_A5" text-anchor="start" x="474.4" y="88.0">t_start</text><text fill="#333333" font-family="Arial, sans-serif" font-size="10" id="txt_t_trigger_A5" text-anchor="start" x="593.2" y="88.0">t_trigger</text><text fill="#000000" font-family="Arial, sans-serif" font-size="12" id="txt_panel_A5" text-anchor="start" x="417.0" y="92.0">A5</text><text fill="#2b6cb0" font-family="Arial, sans-serif" font-size="10" id="txt_serving_A5" text-anchor="start" x="425.85" y="119.4">Serving</text><text fill="#dd6b20" font-family="Arial, sans-serif" font-size="10" id="txt_neighbor_A5" text-anchor="start" x="425.85" y="144.2">Neighbor</text></g><g id="g_markers"><circle cx="40.8" cy="82.0" fill="#555555" r="3" /><circle cx="102.39999999999999" cy="82.0" fill="#555555" r="3" /><circle cx="17.7" cy="175.2" fill="#2b6cb0" r="3" /><circle cx="156.29999999999998" cy="150.39999999999998" fill="#2b6cb0" r="3" /><circle cx="17.7" cy="150.39999999999998" fill="#dd6b20" r="3" /><circle cx="156.29999999999998" cy="100.8" fill="#dd6b20" r="3" /><circle cx="225.0" cy="82.0" fill="#555555" r="3" /><circle cx="307.0" cy="82.0" fill="#555555" r="3" /><circle cx="194.25" cy="175.2" fill="#2b6cb0" r="3" /><circle cx="378.75" cy="150.39999999999998" fill="#2b6cb0" r="3" /><circle cx="194.25" cy="150.39999999999998" fill="#dd6b20" r="3" /><circle cx="378.75" cy="100.8" fill="#dd6b20" r="3" /><circle cx="470.4" cy="82.0" fill="#555555" r="3" /><circle cx="589.2" cy="82.0" fill="#555555" r="3" /><circle cx="425.85" cy="175.2" fill="#2b6cb0" r="3" /><circle cx="693.15" cy="150.39999999999998" fill="#2b6cb0" r="3" /><circle cx="425.85" cy="150.39999999999998" fill="#dd6b20" r="3" /><circle cx="693.15" cy="100.8" fill="#dd6b20" r="3" /></g></g></svg>