<?xml version="1.0" encoding="utf-8" ?>
<svg baseProfile="full" height="240" version="1.1" width="780" xmlns="http://www.w3.org/2000/svg" xmlns:ev="http://www.w3.org/2001/xml-events" xmlns:xlink="http://www.w3.org/1999/xlink"><defs /><g id="figure_root"><g id="g_axes"><line stroke="#000000" stroke-width="2" x1="78.0" x2="702.0" y1="192.0" y2="192.0" /><line stroke="#000000" stroke-width="2" x1="78.0" x2="78.0" y1="192.0" y2="36.0" /><line stroke="#000000" stroke-width="1" x1="78.0" x2="78.0" y1="192.0" y2="198.0" /><line stroke="#000000" stroke-width="1" x1="390.0" x2="390.0" y1="192.0" y2="198.0" /><line stroke="#000000" stroke-width="1" x1="702.0" x2="702.0" y1="192.0" y2="198.0" /><line stroke="#000000" stroke-width="1" x1="72.0" x2="78.0" y1="192.0" y2="192.0" /><line stroke="#000000" stroke-width="1" x1="72.0" x2="78.0" y1="114.0" y2="114.0" /><line stroke="#000000" stroke-width="1" x1="72.0" x2="78.0" y1="36.0" y2="36.0" /></g><g id="g_curves"><polyline fill="none" id="series_series_1" points="78.0,160.8 182.0208,145.2 285.9792,129.6 390.0,114.0 494.02079999999995,98.4 597.9792,82.80000000000001 702.0,67.19999999999999" stroke="#1f77b4" stroke-width="2.0" /><polyline class="dashed" fill="none" id="series_series_2" points="78.0,145.2 182.0208,134.7948 285.9792,124.4052 390.0,114.0 494.02079999999995,103.5948 597.9792,93.2052 702.0,82.80000000000001" stroke="#ff7f0e" stroke-dasharray="6.0,4.0" stroke-width="2.0" /><polyline fill="none" id="series_series_3" points="78.0,129.6 182.0208,124.4052 285.9792,119.1948 390.0,114.0 494.02079999999995,108.8052 597.9792,103.5948 702.0,98.4" stroke="#2ca02c" stroke-width="2.0" /><polyline fill="none" id="series_series_4" points="78.0,114.0 182.0208,114.0 285.9792,114.0 390.0,114.0 494.02079999999995,114.0 597.9792,114.0 702.0,114.0" stroke="#d62728" stroke-width="2.0" /></g><g id="g_annotations"><g id="legend"><line stroke="#1f77b4" stroke-width="2.0" x1="562.0" x2="586.0" y1="46.0" y2="46.0" /><line class="dashed" stroke="#ff7f0e" stroke-dasharray="6.0,4.0" stroke-width="2.0" x1="562.0" x2="586.0" y1="64.0" y2="64.0" /><line stroke="#2ca02c" stroke-width="2.0" x1="562.0" x2="586.0" y1="82.0" y2="82.0" /><line stroke="#d62728" stroke-width="2.0" x1="562.0" x2="586.0" y1="100.0" y2="100.0" /></g><rect fill="none" height="156.0" id="geom_rect_00" stroke="#555555" stroke-width="1.0" width="624.0" x="78.0" y="36.0" /></g><g id="g_text"><text fill="#000000" font-family="Arial, sans-serif" font-size="10" id="txt_tick_x_0" text-anchor="middle" x="78.0" y="210.0">0</text><text fill="#000000" font-family="Arial, sans-serif" font-size="10" id="txt_tick_x_1" text-anchor="middle" x="390.0" y="210.0">0.5</text><text fill="#000000" font-family="Arial, sans-serif" font-size="10" id="txt_tick_x_2" text-anchor="middle" x="702.0" y="210.0">1</text><text fill="#000000" font-family="Arial, sans-serif" font-size="10" id="txt_tick_y_0" text-anchor="end" x="68.0" y="195.0">0</text><text fill="#000000" font-family="Arial, sans-serif" font-size="10" id="txt_tick_y_1" text-anchor="end" x="68.0" y="117.0">0.5</text><text fill="#000000" font-family="Arial, sans-serif" font-size="10" id="txt_tick_y_2" text-anchor="end" x="68.0" y="39.0">1</text><text fill="#000000" font-family="Arial, sans-serif" font-size="10" id="txt_legend_series_1" text-anchor="start" x="592.0" y="50.0">Series 1</text><text fill="#000000" font-family="Arial, sans-serif" font-size="10" id="txt_legend_series_2" text-anchor="start" x="592.0" y="68.0">Series 2</text><text fill="#000000" font-family="Arial, sans-serif" font-size="10" id="txt_legend_series_3" text-anchor="start" x="592.0" y="86.0">Series 3</text><text fill="#000000" font-family="Arial, sans-serif" font-size="10" id="txt_legend_series_4" text-anchor="start" x="592.0" y="104.0">Series 4</text></g><g id="g_markers" /></g></svg>