<?xml version="1.0" encoding="utf-8" ?>
<svg baseProfile="full" height="320" version="1.1" width="900" xmlns="http://www.w3.org/2000/svg" xmlns:ev="http://www.w3.org/2001/xml-events" xmlns:xlink="http://www.w3.org/1999/xlink"><defs /><g id="figure_root"><g id="g_axes"><line stroke="#000000" stroke-width="2" x1="90.0" x2="750.0" y1="250.0" y2="250.0" /><line stroke="#000000" stroke-width="2" x1="90.0" x2="90.0" y1="250.0" y2="50.0" /><line stroke="#000000" stroke-width="1" x1="90.0" x2="90.0" y1="250.0" y2="256.0" /><line stroke="#000000" stroke-width="1" x1="255.0" x2="255.0" y1="250.0" y2="256.0" /><line stroke="#000000" stroke-width="1" x1="420.0" x2="420.0" y1="250.0" y2="256.0" /><line stroke="#000000" stroke-width="1" x1="585.0" x2="585.0" y1="250.0" y2="256.0" /><line stroke="#000000" stroke-width="1" x1="750.0" x2="750.0" y1="250.0" y2="256.0" /><line stroke="#000000" stroke-width="1" x1="84.0" x2="90.0" y1="250.0" y2="250.0" /><line stroke="#000000" stroke-width="1" x1="84.0" x2="90.0" y1="183.33333333333334" y2="183.33333333333334" /><line stroke="#000000" stroke-width="1" x1="84.0" x2="90.0" y1="116.66666666666669" y2="116.66666666666669" /><line stroke="#000000" stroke-width="1" x1="84.0" x2="90.0" y1="50.0" y2="50.0" /></g><g id="g_curves"><polyline fill="none" id="series_link_a" points="90.0,216.66666666666669 255.0,190.0 502.5,166.66666666666666 750.0,176.66666666666669" stroke="#1f77b4" stroke-width="2.0" /><polyline fill="none" id="series_link_b" points="90.0,183.33333333333334 255.0,156.66666666666669 502.5,133.33333333333331 750.0,150.0" stroke="#ff7f0e" stroke-width="2.0" /><polyline fill="none" id="series_link_c" points="90.0,200.0 255.0,170.0 502.5,150.0 750.0,163.33333333333331" stroke="#2ca02c" stroke-width="2.0" /><polyline class="dashed" fill="none" id="series_link_d" points="90.0,166.66666666666666 255.0,143.33333333333331 502.5,116.66666666666669 750.0,136.66666666666669" stroke="#d62728" stroke-dasharray="6,4" stroke-width="2.0" /></g><g id="g_annotations"><g id="legend"><line stroke="#1f77b4" stroke-width="2.0" x1="610.0" x2="634.0" y1="60.0" y2="60.0" /><line stroke="#ff7f0e" stroke-width="2.0" x1="610.0" x2="634.0" y1="78.0" y2="78.0" /><line stroke="#2ca02c" stroke-width="2.0" x1="610.0" x2="634.0" y1="96.0" y2="96.0" /><line class="dashed" stroke="#d62728" stroke-dasharray="6,4" stroke-width="2.0" x1="610.0" x2="634.0" y1="114.0" y2="114.0" /></g></g><g id="g_text"><text fill="#000000" font-family="Arial" id="txt_title" x="10" y="20">Latency Comparison (4 Links)</text><text fill="#000000" font-family="Arial" font-size="10" id="txt_tick_x_0" text-anchor="middle" x="90.0" y="268.0">0</text><text fill="#000000" font-family="Arial" font-size="10" id="txt_tick_x_1" text-anchor="middle" x="255.0" y="268.0">2</text><text fill="#000000" font-family="Arial" font-size="10" id="txt_tick_x_2" text-anchor="middle" x="420.0" y="268.0">4</text><text fill="#000000" font-family="Arial" font-size="10" id="txt_tick_x_3" text-anchor="middle" x="585.0" y="268.0">6</text><text fill="#000000" font-family="Arial" font-size="10" id="txt_tick_x_4" text-anchor="middle" x="750.0" y="268.0">8</text><text fill="#000000" font-family="Arial" font-size="10" id="txt_tick_y_0" text-anchor="end" x="80.0" y="253.0">0</text><text fill="#000000" font-family="Arial" font-size="10" id="txt_tick_y_1" text-anchor="end" x="80.0" y="186.33333333333334">20</text><text fill="#000000" font-family="Arial" font-size="10" id="txt_tick_y_2" text-anchor="end" x="80.0" y="119.66666666666669">40</text><text fill="#000000" font-family="Arial" font-size="10" id="txt_tick_y_3" text-anchor="end" x="80.0" y="53.0">60</text><text fill="#000000" font-family="Arial" font-size="12" id="txt_axis_x" text-anchor="middle" x="420.0" y="282.0">Time (s)</text><text fill="#000000" font-family="Arial" font-size="12" id="txt_axis_y" text-anchor="middle" x="50.0" y="150.0">Latency (ms)</text><text fill="#000000" font-family="Arial" font-size="10" id="txt_legend_link_a" x="640.0" y="64.0">Link A</text><text fill="#000000" font-family="Arial" font-size="10" id="txt_legend_link_b" x="640.0" y="82.0">Link B</text><text fill="#000000" font-family="Arial" font-size="10" id="txt_legend_link_c" x="640.0" y="100.0">Link C</text><text fill="#000000" font-family="Arial" font-size="10" id="txt_legend_link_d" x="640.0" y="118.0">Link D</text></g><g id="g_markers" /></g></svg>