<?xml version="1.0" encoding="utf-8" ?>
<svg baseProfile="full" height="320" version="1.1" width="900" xmlns="http://www.w3.org/2000/svg" xmlns:ev="http://www.w3.org/2001/xml-events" xmlns:xlink="http://www.w3.org/1999/xlink"><defs /><g id="figure_root"><g id="g_axes"><line stroke="#000000" stroke-width="2" x1="108.0" x2="828.0" y1="282.0" y2="282.0" /><line stroke="#000000" stroke-width="2" x1="108.0" x2="108.0" y1="282.0" y2="57.0" /><line stroke="#000000" stroke-width="1" x1="108.0" x2="108.0" y1="282.0" y2="288.0" /><line stroke="#000000" stroke-width="1" x1="468.0" x2="468.0" y1="282.0" y2="288.0" /><line stroke="#000000" stroke-width="1" x1="828.0" x2="828.0" y1="282.0" y2="288.0" /><line stroke="#000000" stroke-width="1" x1="102.0" x2="108.0" y1="282.0" y2="282.0" /><line stroke="#000000" stroke-width="1" x1="102.0" x2="108.0" y1="169.5" y2="169.5" /><line stroke="#000000" stroke-width="1" x1="102.0" x2="108.0" y1="57.0" y2="57.0" /></g><g id="g_curves"><polyline fill="none" id="series_series_0" points="108.0,216.0075 172.008,203.20499999999998 254.01600000000002,190.29 336.024,182.3475 418.032,174.36" stroke="#1f77b4" stroke-width="2.0" /><polyline class="dashed" fill="none" id="series_series_1" points="108.0,182.70749999999998 172.008,169.995 254.01600000000002,157.2825 336.024,149.4975 418.032,141.64499999999998" stroke="#1f77b4" stroke-dasharray="6,4" stroke-width="2.0" /><polyline fill="none" id="series_series_2" points="108.0,198.9975 173.01600000000002,184.6425 255.024,170.35500000000002 337.032,164.0775 418.968,156.225" stroke="#1f77b4" stroke-width="2.0" /><polyline class="dashed" fill="none" id="series_series_3" points="108.0,182.70749999999998 172.008,169.995 254.01600000000002,157.2825 336.024,149.4975 418.032,141.64499999999998" stroke="#1f77b4" stroke-dasharray="6,4" stroke-width="2.0" /></g><g id="g_annotations"><g id="legend"><line stroke="#1f77b4" stroke-width="2.0" x1="688.0" x2="712.0" y1="67.0" y2="67.0" /><line class="dashed" stroke="#1f77b4" stroke-dasharray="6,4" stroke-width="2.0" x1="688.0" x2="712.0" y1="85.0" y2="85.0" /><line stroke="#1f77b4" stroke-width="2.0" x1="688.0" x2="712.0" y1="103.0" y2="103.0" /><line class="dashed" stroke="#1f77b4" stroke-dasharray="6,4" stroke-width="2.0" x1="688.0" x2="712.0" y1="121.0" y2="121.0" /></g></g><g id="g_text"><text fill="#000000" font-family="Arial, sans-serif" font-size="10" id="txt_tick_x_0" text-anchor="middle" x="108.0" y="300.0">0</text><text fill="#000000" font-family="Arial, sans-serif" font-size="10" id="txt_tick_x_1" text-anchor="middle" x="468.0" y="300.0">0.5</text><text fill="#000000" font-family="Arial, sans-serif" font-size="10" id="txt_tick_x_2" text-anchor="middle" x="828.0" y="300.0">1.0</text><text fill="#000000" font-family="Arial, sans-serif" font-size="10" id="txt_tick_y_0" text-anchor="end" x="98.0" y="285.0">0</text><text fill="#000000" font-family="Arial, sans-serif" font-size="10" id="txt_tick_y_1" text-anchor="end" x="98.0" y="172.5">0.5</text><text fill="#000000" font-family="Arial, sans-serif" font-size="10" id="txt_tick_y_2" text-anchor="end" x="98.0" y="60.0">1.0</text><text fill="#000000" font-family="Arial, sans-serif" font-size="12" id="txt_axis_x" text-anchor="middle" x="468.0" y="314.0">x</text><text fill="#000000" font-family="Arial, sans-serif" font-size="12" id="txt_axis_y" text-anchor="middle" x="68.0" y="169.5">y</text><text fill="#000000" font-family="Arial, sans-serif" font-size="10" id="txt_legend_series_0" text-anchor="start" x="718.0" y="71.0">series_0</text><text fill="#000000" font-family="Arial, sans-serif" font-size="10" id="txt_legend_series_1" text-anchor="start" x="718.0" y="89.0">series_1</text><text fill="#000000" font-family="Arial, sans-serif" font-size="10" id="txt_legend_series_2" text-anchor="start" x="718.0" y="107.0">series_2</text><text fill="#000000" font-family="Arial, sans-serif" font-size="10" id="txt_legend_series_3" text-anchor="start" x="718.0" y="125.0">series_3</text></g><g id="g_markers" /></g></svg>