<?xml version="1.0" encoding="utf-8" ?>
<svg baseProfile="full" height="260" version="1.1" width="640" xmlns="http://www.w3.org/2000/svg" xmlns:ev="http://www.w3.org/2001/xml-events" xmlns:xlink="http://www.w3.org/1999/xlink"><defs /><g id="figure_root"><g id="g_axes"><line stroke="#000000" stroke-width="2" x1="76.0" x2="589.0" y1="229.0" y2="229.0" /><line stroke="#000000" stroke-width="2" x1="76.0" x2="76.0" y1="229.0" y2="46.0" /><line stroke="#000000" stroke-width="1" x1="76.0" x2="76.0" y1="229.0" y2="235.0" /><line stroke="#000000" stroke-width="1" x1="332.5" x2="332.5" y1="229.0" y2="235.0" /><line stroke="#000000" stroke-width="1" x1="589.0" x2="589.0" y1="229.0" y2="235.0" /><line stroke="#000000" stroke-width="1" x1="70.0" x2="76.0" y1="229.0" y2="229.0" /><line stroke="#000000" stroke-width="1" x1="70.0" x2="76.0" y1="137.5" y2="137.5" /><line stroke="#000000" stroke-width="1" x1="70.0" x2="76.0" y1="46.0" y2="46.0" /></g><g id="g_curves"><polyline fill="none" id="series_series_0" points="76.0,167.2924 124.9915,162.49779999999998 189.98860000000002,156.2209 254.98569999999998,148.27870000000001 319.9828,138.70780000000002 384.9799,129.06369999999998 449.977,117.86410000000001 515.0254,109.50099999999999 578.9965,98.28309999999999" stroke="#1f77b4" stroke-width="2.0" /><polyline class="dashed" fill="none" id="series_series_1" points="76.0,140.7208 124.0168,131.278 187.9879,121.78030000000001 252.0103,112.17280000000001 315.9814,99.2164" stroke="#1f77b4" stroke-dasharray="6,4" stroke-width="2.0" /><polyline fill="none" id="series_series_2" points="76.0,119.2915 124.9915,109.8487 189.98860000000002,100.4974 254.98569999999998,89.3527 319.9828,77.78709999999998 384.9799,64.9222 449.977,58.49889999999999 515.0254,48.433899999999994 578.9965,46.0" stroke="#1f77b4" stroke-width="2.0" /><polyline class="dashed" fill="none" id="series_series_3" points="76.0,140.7208 124.0168,131.278 187.9879,121.78030000000001 252.0103,112.17280000000001 315.9814,99.2164" stroke="#1f77b4" stroke-dasharray="6,4" stroke-width="2.0" /></g><g id="g_annotations"><g id="legend"><line stroke="#1f77b4" stroke-width="2.0" x1="449.0" x2="473.0" y1="56.0" y2="56.0" /><line class="dashed" stroke="#1f77b4" stroke-dasharray="6,4" stroke-width="2.0" x1="449.0" x2="473.0" y1="74.0" y2="74.0" /><line stroke="#1f77b4" stroke-width="2.0" x1="449.0" x2="473.0" y1="92.0" y2="92.0" /><line class="dashed" stroke="#1f77b4" stroke-dasharray="6,4" stroke-width="2.0" x1="449.0" x2="473.0" y1="110.0" y2="110.0" /></g></g><g id="g_text"><text fill="#000000" font-family="Arial, sans-serif" font-size="10" id="txt_tick_x_0" text-anchor="middle" x="76.0" y="247.0">0</text><text fill="#000000" font-family="Arial, sans-serif" font-size="10" id="txt_tick_x_1" text-anchor="middle" x="332.5" y="247.0">0.5</text><text fill="#000000" font-family="Arial, sans-serif" font-size="10" id="txt_tick_x_2" text-anchor="middle" x="589.0" y="247.0">1.0</text><text fill="#000000" font-family="Arial, sans-serif" font-size="10" id="txt_tick_y_0" text-anchor="end" x="66.0" y="232.0">0</text><text fill="#000000" font-family="Arial, sans-serif" font-size="10" id="txt_tick_y_1" text-anchor="end" x="66.0" y="140.5">0.5</text><text fill="#000000" font-family="Arial, sans-serif" font-size="10" id="txt_tick_y_2" text-anchor="end" x="66.0" y="49.0">1.0</text><text fill="#000000" font-family="Arial, sans-serif" font-size="12" id="txt_axis_x" text-anchor="middle" x="332.5" y="261.0">x</text><text fill="#000000" font-family="Arial, sans-serif" font-size="12" id="txt_axis_y" text-anchor="middle" x="36.0" y="137.5">y</text><text fill="#000000" font-family="Arial, sans-serif" font-size="10" id="txt_legend_series_0" text-anchor="start" x="479.0" y="60.0">series_0</text><text fill="#000000" font-family="Arial, sans-serif" font-size="10" id="txt_legend_series_1" text-anchor="start" x="479.0" y="78.0">series_1</text><text fill="#000000" font-family="Arial, sans-serif" font-size="10" id="txt_legend_series_2" text-anchor="start" x="479.0" y="96.0">series_2</text><text fill="#000000" font-family="Arial, sans-serif" font-size="10" id="txt_legend_series_3" text-anchor="start" x="479.0" y="114.0">series_3</text></g><g id="g_markers" /></g></svg>