<?xml version="1.0" encoding="utf-8" ?>
<svg baseProfile="full" height="260" version="1.1" width="640" xmlns="http://www.w3.org/2000/svg" xmlns:ev="http://www.w3.org/2001/xml-events" xmlns:xlink="http://www.w3.org/1999/xlink"><defs /><g id="figure_root"><g id="g_axes"><line stroke="#000000" stroke-width="2" x1="60.0" x2="580.0" y1="200.0" y2="200.0" /><line stroke="#000000" stroke-width="2" x1="60.0" x2="60.0" y1="200.0" y2="40.0" /><line stroke="#000000" stroke-width="1" x1="60.0" x2="60.0" y1="200.0" y2="206.0" /><line stroke="#000000" stroke-width="1" x1="146.66666666666666" x2="146.66666666666666" y1="200.0" y2="206.0" /><line stroke="#000000" stroke-width="1" x1="233.33333333333331" x2="233.33333333333331" y1="200.0" y2="206.0" /><line stroke="#000000" stroke-width="1" x1="320.0" x2="320.0" y1="200.0" y2="206.0" /><line stroke="#000000" stroke-width="1" x1="406.66666666666663" x2="406.66666666666663" y1="200.0" y2="206.0" /><line stroke="#000000" stroke-width="1" x1="493.33333333333337" x2="493.33333333333337" y1="200.0" y2="206.0" /><line stroke="#000000" stroke-width="1" x1="580.0" x2="580.0" y1="200.0" y2="206.0" /><line stroke="#000000" stroke-width="1" x1="54.0" x2="60.0" y1="200.0" y2="200.0" /><line stroke="#000000" stroke-width="1" x1="54.0" x2="60.0" y1="173.33333333333334" y2="173.33333333333334" /><line stroke="#000000" stroke-width="1" x1="54.0" x2="60.0" y1="146.66666666666669" y2="146.66666666666669" /><line stroke="#000000" stroke-width="1" x1="54.0" x2="60.0" y1="120.0" y2="120.0" /><line stroke="#000000" stroke-width="1" x1="54.0" x2="60.0" y1="93.33333333333334" y2="93.33333333333334" /><line stroke="#000000" stroke-width="1" x1="54.0" x2="60.0" y1="66.66666666666666" y2="66.66666666666666" /><line stroke="#000000" stroke-width="1" x1="54.0" x2="60.0" y1="40.0" y2="40.0" /></g><g id="g_curves"><polyline fill="none" id="series_p50" points="60.0,168.0 233.33333333333331,152.0 406.66666666666663,125.33333333333333 580.0,98.66666666666667" stroke="#1f77b4" stroke-width="2.0" /><polyline class="dashed" fill="none" id="series_p95" points="60.0,141.33333333333334 233.33333333333331,114.66666666666667 406.66666666666663,82.66666666666667 580.0,50.66666666666666" stroke="#ff7f0e" stroke-dasharray="6,4" stroke-width="2.0" /><polyline fill="none" id="series_p99" points="60.0,120.0 233.33333333333331,93.33333333333334 406.66666666666663,61.333333333333314 580.0,40.0" stroke="#2ca02c" stroke-width="2.0" /></g><g id="g_annotations"><g id="legend"><line stroke="#1f77b4" stroke-width="2.0" x1="440.0" x2="464.0" y1="50.0" y2="50.0" /><line class="dashed" stroke="#ff7f0e" stroke-dasharray="6,4" stroke-width="2.0" x1="440.0" x2="464.0" y1="68.0" y2="68.0" /><line stroke="#2ca02c" stroke-width="2.0" x1="440.0" x2="464.0" y1="86.0" y2="86.0" /></g></g><g id="g_text"><text fill="#000000" font-family="Arial" id="txt_title" x="10" y="20">Latency vs Load (Dense Ticks)</text><text fill="#000000" font-family="Arial" font-size="10" id="txt_tick_x_0" text-anchor="middle" x="60.0" y="218.0">0</text><text fill="#000000" font-family="Arial" font-size="10" id="txt_tick_x_1" text-anchor="middle" x="146.66666666666666" y="218.0">1</text><text fill="#000000" font-family="Arial" font-size="10" id="txt_tick_x_2" text-anchor="middle" x="233.33333333333331" y="218.0">2</text><text fill="#000000" font-family="Arial" font-size="10" id="txt_tick_x_3" text-anchor="middle" x="320.0" y="218.0">3</text><text fill="#000000" font-family="Arial" font-size="10" id="txt_tick_x_4" text-anchor="middle" x="406.66666666666663" y="218.0">4</text><text fill="#000000" font-family="Arial" font-size="10" id="txt_tick_x_5" text-anchor="middle" x="493.33333333333337" y="218.0">5</text><text fill="#000000" font-family="Arial" font-size="10" id="txt_tick_x_6" text-anchor="middle" x="580.0" y="218.0">6</text><text fill="#000000" font-family="Arial" font-size="10" id="txt_tick_y_0" text-anchor="end" x="50.0" y="203.0">0</text><text fill="#000000" font-family="Arial" font-size="10" id="txt_tick_y_1" text-anchor="end" x="50.0" y="176.33333333333334">10</text><text fill="#000000" font-family="Arial" font-size="10" id="txt_tick_y_2" text-anchor="end" x="50.0" y="149.66666666666669">20</text><text fill="#000000" font-family="Arial" font-size="10" id="txt_tick_y_3" text-anchor="end" x="50.0" y="123.0">30</text><text fill="#000000" font-family="Arial" font-size="10" id="txt_tick_y_4" text-anchor="end" x="50.0" y="96.33333333333334">40</text><text fill="#000000" font-family="Arial" font-size="10" id="txt_tick_y_5" text-anchor="end" x="50.0" y="69.66666666666666">50</text><text fill="#000000" font-family="Arial" font-size="10" id="txt_tick_y_6" text-anchor="end" x="50.0" y="43.0">60</text><text fill="#000000" font-family="Arial" font-size="12" id="txt_axis_x" text-anchor="middle" x="320.0" y="232.0">Load (req/s)</text><text fill="#000000" font-family="Arial" font-size="12" id="txt_axis_y" text-anchor="middle" x="20.0" y="120.0">Latency (ms)</text><text fill="#000000" font-family="Arial" font-size="10" id="txt_legend_p50" x="470.0" y="54.0">P50</text><text fill="#000000" font-family="Arial" font-size="10" id="txt_legend_p95" x="470.0" y="72.0">P95</text><text fill="#000000" font-family="Arial" font-size="10" id="txt_legend_p99" x="470.0" y="90.0">P99</text></g><g id="g_markers" /></g></svg>