<?xml version="1.0" encoding="utf-8" ?>
<svg baseProfile="full" height="420" version="1.1" width="980" xmlns="http://www.w3.org/2000/svg" xmlns:ev="http://www.w3.org/2001/xml-events" xmlns:xlink="http://www.w3.org/1999/xlink"><defs /><g id="figure_root"><g id="g_axes" /><g id="g_curves"><line fill="none" stroke="#000000" stroke-width="2" x1="240.0" x2="280.0" y1="120.0" y2="120.0" /><polyline fill="none" points="470.0,120.0 470.0,240.0 280.0,240.0" stroke="#000000" stroke-width="2" /><line fill="none" stroke="#000000" stroke-width="2" x1="480.0" x2="520.0" y1="240.0" y2="240.0" /><line fill="none" stroke="#000000" stroke-width="2" x1="720.0" x2="760.0" y1="240.0" y2="240.0" /><polyline class="dashed" fill="none" points="620.0,240.0 620.0,330.0 520.0,330.0" stroke="#000000" stroke-dasharray="6,4" stroke-width="2" /><line class="dashed" fill="none" stroke="#000000" stroke-dasharray="6,4" stroke-width="2" x1="720.0" x2="760.0" y1="355.0" y2="240.0" /></g><g id="g_annotations"><rect fill="#f2f2f2" height="100.0" rx="6" ry="6" stroke="#000000" stroke-width="1" width="900.0" x="40.0" y="60.0" /><rect fill="#f2f2f2" height="100.0" rx="6" ry="6" stroke="#000000" stroke-width="1" width="900.0" x="40.0" y="180.0" /><rect fill="#f2f2f2" height="90.0" rx="6" ry="6" stroke="#000000" stroke-width="1" width="900.0" x="40.0" y="300.0" /><rect fill="#ffffff" height="60.0" id="node_ue_meas" rx="8.0" ry="8.0" stroke="#000000" stroke-width="2" width="160.0" x="80.0" y="90.0" /><rect fill="#ffffff" height="60.0" id="node_ue_report" rx="8.0" ry="8.0" stroke="#000000" stroke-width="2" width="180.0" x="280.0" y="90.0" /><rect fill="#ffffff" height="60.0" id="node_ran_decide" rx="8.0" ry="8.0" stroke="#000000" stroke-width="2" width="200.0" x="280.0" y="210.0" /><rect fill="#ffffff" height="60.0" id="node_ran_prepare" rx="8.0" ry="8.0" stroke="#000000" stroke-width="2" width="200.0" x="520.0" y="210.0" /><rect fill="#ffffff" height="50.0" id="node_core_auth" rx="8.0" ry="8.0" stroke="#000000" stroke-width="2" width="200.0" x="520.0" y="330.0" /><rect fill="#ffffff" height="60.0" id="node_ran_execute" rx="8.0" ry="8.0" stroke="#000000" stroke-width="2" width="160.0" x="760.0" y="210.0" /></g><g id="g_text"><text fill="#000000" font-family="Arial, sans-serif" id="txt_title" text-anchor="start" x="10" y="20">Multi-Stage Handover Procedure</text><text fill="#000000" font-family="Arial, sans-serif" font-size="10" id="txt_lane_ue" text-anchor="start" x="48.0" y="76.0"><tspan id="txt_lane_ue_line0" x="48.0" y="76.0">UE</tspan></text><text fill="#000000" font-family="Arial, sans-serif" font-size="10" id="txt_lane_ran" text-anchor="start" x="48.0" y="196.0"><tspan id="txt_lane_ran_line0" x="48.0" y="196.0">gNB</tspan></text><text fill="#000000" font-family="Arial, sans-serif" font-size="10" id="txt_lane_core" text-anchor="start" x="48.0" y="316.0"><tspan id="txt_lane_core_line0" x="48.0" y="316.0">Core</tspan></text><text fill="#000000" font-family="Arial, sans-serif" font-size="12" id="txt_node_ue_meas" text-anchor="start" x="92.0" y="114.0"><tspan id="txt_node_ue_meas_line0" x="92.0" y="114.0">Measure</tspan><tspan dy="14" id="txt_node_ue_meas_line1" x="92.0">Signal</tspan></text><text fill="#000000" font-family="Arial, sans-serif" font-size="12" id="txt_node_ue_report" text-anchor="start" x="292.0" y="114.0"><tspan id="txt_node_ue_report_line0" x="292.0" y="114.0">Report</tspan><tspan dy="14" id="txt_node_ue_report_line1" x="292.0">Quality</tspan></text><text fill="#000000" font-family="Arial, sans-serif" font-size="12" id="txt_node_ran_decide" text-anchor="start" x="292.0" y="234.0"><tspan id="txt_node_ran_decide_line0" x="292.0" y="234.0">Decide</tspan><tspan dy="14" id="txt_node_ran_decide_line1" x="292.0">Handover</tspan></text><text fill="#000000" font-family="Arial, sans-serif" font-size="12" id="txt_node_ran_prepare" text-anchor="start" x="532.0" y="234.0"><tspan id="txt_node_ran_prepare_line0" x="532.0" y="234.0">Prepare</tspan><tspan dy="14" id="txt_node_ran_prepare_line1" x="532.0">Resources</tspan></text><text fill="#000000" font-family="Arial, sans-serif" font-size="12" id="txt_node_core_auth" text-anchor="start" x="532.0" y="354.0"><tspan id="txt_node_core_auth_line0" x="532.0" y="354.0">Authorize</tspan></text><text fill="#000000" font-family="Arial, sans-serif" font-size="12" id="txt_node_ran_execute" text-anchor="start" x="772.0" y="234.0"><tspan id="txt_node_ran_execute_line0" x="772.0" y="234.0">Execute</tspan><tspan dy="14" id="txt_node_ran_execute_line1" x="772.0">Switch</tspan></text><text fill="#000000" font-family="Arial, sans-serif" font-size="10" id="txt_edge_ue_meas_ue_report" text-anchor="start" x="260.0" y="114.0">periodic</text><text fill="#000000" font-family="Arial, sans-serif" font-size="10" id="txt_edge_ue_report_ran_decide" text-anchor="start" x="375.0" y="174.0">report</text><text fill="#000000" font-family="Arial, sans-serif" font-size="10" id="txt_edge_ran_decide_ran_prepare" text-anchor="start" x="500.0" y="234.0">trigger</text><text fill="#000000" font-family="Arial, sans-serif" font-size="10" id="txt_edge_ran_prepare_ran_execute" text-anchor="start" x="740.0" y="234.0">command</text><text fill="#000000" font-family="Arial, sans-serif" font-size="10" id="txt_edge_ran_prepare_core_auth" text-anchor="start" x="570.0" y="279.0">auth</text><text fill="#000000" font-family="Arial, sans-serif" font-size="10" id="txt_edge_core_auth_ran_execute" text-anchor="start" x="740.0" y="291.5">ack</text></g><g id="g_markers"><polygon fill="#000000" points="280.0,120.0 270.0,123.0 270.0,117.0" /><polygon fill="#000000" points="280.0,240.0 290.0,237.0 290.0,243.0" /><polygon fill="#000000" points="520.0,240.0 510.0,243.0 510.0,237.0" /><polygon fill="#000000" points="760.0,240.0 750.0,243.0 750.0,237.0" /><polygon fill="#000000" points="520.0,330.0 530.0,327.0 530.0,333.0" /><polygon fill="#000000" points="760.0,240.0 759.5482841407058,250.4305298418854 753.8813033604688,248.45940609223777" /></g></g></svg>