<?xml version="1.0" encoding="utf-8" ?>
<svg baseProfile="full" height="260" version="1.1" width="800" xmlns="http://www.w3.org/2000/svg" xmlns:ev="http://www.w3.org/2001/xml-events" xmlns:xlink="http://www.w3.org/1999/xlink"><defs /><g id="figure_root"><g id="g_axes"><line stroke="#000000" stroke-width="2" x1="10.0" x2="243.0" y1="150.0" y2="150.0" /><line stroke="#000000" stroke-width="2" x1="10.0" x2="10.0" y1="150.0" y2="89.0" /><line stroke="#000000" stroke-width="2" x1="263.0" x2="503.0" y1="150.0" y2="150.0" /><line stroke="#000000" stroke-width="2" x1="263.0" x2="263.0" y1="150.0" y2="89.0" /><line stroke="#000000" stroke-width="2" x1="524.0" x2="789.0" y1="150.0" y2="150.0" /><line stroke="#000000" stroke-width="2" x1="524.0" x2="524.0" y1="150.0" y2="89.0" /></g><g id="g_curves"><path d="M 21.65 137.80 C 58.35 137.80 89.80 101.20 126.50 101.20 C 163.20 101.20 194.65 125.60 231.35 125.60" fill="none" id="curve_serving_A3" stroke="#2b6cb0" stroke-width="2" /><path d="M 21.65 125.60 C 58.35 125.60 89.80 131.70 126.50 131.70 C 163.20 131.70 194.65 101.20 231.35 101.20" fill="none" id="curve_neighbor_A3" stroke="#dd6b20" stroke-width="2" /><path d="M 275.00 137.80 C 312.80 137.80 345.20 101.20 383.00 101.20 C 420.80 101.20 453.20 125.60 491.00 125.60" fill="none" id="curve_serving_A4" stroke="#2b6cb0" stroke-width="2" /><path d="M 275.00 125.60 C 312.80 125.60 345.20 131.70 383.00 131.70 C 420.80 131.70 453.20 101.20 491.00 101.20" fill="none" id="curve_neighbor_A4" stroke="#dd6b20" stroke-width="2" /><path d="M 537.25 137.80 C 578.99 137.80 614.76 101.20 656.50 101.20 C 698.24 101.20 734.01 125.60 775.75 125.60" fill="none" id="curve_serving_A5" stroke="#2b6cb0" stroke-width="2" /><path d="M 537.25 125.60 C 578.99 125.60 614.76 131.70 656.50 131.70 C 698.24 131.70 734.01 101.20 775.75 101.20" fill="none" id="curve_neighbor_A5" stroke="#dd6b20" stroke-width="2" /></g><g id="g_annotations"><rect fill="#d0d0d0" fill-opacity="0.3" height="61.0" width="93.19999999999999" x="56.6" y="89.0" /><line stroke="#555555" stroke-width="1" x1="56.6" x2="56.6" y1="150.0" y2="89.0" /><line stroke="#555555" stroke-width="1" x1="149.79999999999998" x2="149.79999999999998" y1="150.0" y2="89.0" /><rect fill="#d0d0d0" fill-opacity="0.3" height="61.0" width="96.0" x="311.0" y="89.0" /><line stroke="#555555" stroke-width="1" x1="311.0" x2="311.0" y1="150.0" y2="89.0" /><line stroke="#555555" stroke-width="1" x1="407.0" x2="407.0" y1="150.0" y2="89.0" /><rect fill="#d0d0d0" fill-opacity="0.3" height="61.0" width="106.0" x="577.0" y="89.0" /><line stroke="#555555" stroke-width="1" x1="577.0" x2="577.0" y1="150.0" y2="89.0" /><line stroke="#555555" stroke-width="1" x1="683.0" x2="683.0" y1="150.0" y2="89.0" /><line id="geom_line_00" stroke="#000000" stroke-width="2.0" x1="60.0" x2="60.0" y1="92.0" y2="146.0" /><line id="geom_line_01" stroke="#000000" stroke-width="2.0" x1="560.0" x2="560.0" y1="92.0" y2="146.0" /><line id="geom_line_02" stroke="#000000" stroke-width="2.0" x1="299.0" x2="299.0" y1="94.0" y2="145.0" /><line id="geom_line_03" stroke="#000000" stroke-width="2.0" x1="62.0" x2="217.0" y1="149.0" y2="149.0" /><line id="geom_line_04" stroke="#000000" stroke-width="2.0" x1="302.0" x2="477.0" y1="149.0" y2="149.0" /><line id="geom_line_05" stroke="#000000" stroke-width="2.0" x1="562.0" x2="717.0" y1="149.0" y2="149.0" /><rect fill="none" height="61.0" id="geom_rect_00" stroke="#555555" stroke-width="1.0" width="233.0" x="10.0" y="89.0" /><rect fill="none" height="61.0" id="geom_rect_01" stroke="#555555" stroke-width="1.0" width="240.0" x="263.0" y="89.0" /><rect fill="none" height="61.0" id="geom_rect_02" stroke="#555555" stroke-width="1.0" width="265.0" x="524.0" y="89.0" /></g><g id="g_text"><text fill="#333333" font-family="Arial, sans-serif" font-size="10" id="txt_t_start_A3" text-anchor="start" x="60.6" y="101.0">t_start</text><text fill="#333333" font-family="Arial, sans-serif" font-size="10" id="txt_t_trigger_A3" text-anchor="start" x="153.79999999999998" y="101.0">t_trigger</text><text fill="#000000" font-family="Arial, sans-serif" font-size="12" id="txt_panel_A3" text-anchor="start" x="16.0" y="105.0">A3</text><text fill="#2b6cb0" font-family="Arial, sans-serif" font-size="10" id="txt_serving_A3" text-anchor="start" x="21.65" y="110.35">Serving</text><text fill="#dd6b20" font-family="Arial, sans-serif" font-size="10" id="txt_neighbor_A3" text-anchor="start" x="21.65" y="122.55000000000001">Neighbor</text><text fill="#333333" font-family="Arial, sans-serif" font-size="10" id="txt_t_start_A4" text-anchor="start" x="315.0" y="101.0">t_start</text><text fill="#333333" font-family="Arial, sans-serif" font-size="10" id="txt_t_trigger_A4" text-anchor="start" x="411.0" y="101.0">t_trigger</text><text fill="#000000" font-family="Arial, sans-serif" font-size="12" id="txt_panel_A4" text-anchor="start" x="269.0" y="105.0">A4</text><text fill="#2b6cb0" font-family="Arial, sans-serif" font-size="10" id="txt_serving_A4" text-anchor="start" x="275.0" y="110.35">Serving</text><text fill="#dd6b20" font-family="Arial, sans-serif" font-size="10" id="txt_neighbor_A4" text-anchor="start" x="275.0" y="122.55000000000001">Neighbor</text><text fill="#333333" font-family="Arial, sans-serif" font-size="10" id="txt_t_start_A5" text-anchor="start" x="581.0" y="101.0">t_start</text><text fill="#333333" font-family="Arial, sans-serif" font-size="10" id="txt_t_trigger_A5" text-anchor="start" x="687.0" y="101.0">t_trigger</text><text fill="#000000" font-family="Arial, sans-serif" font-size="12" id="txt_panel_A5" text-anchor="start" x="530.0" y="105.0">A5</text><text fill="#2b6cb0" font-family="Arial, sans-serif" font-size="10" id="txt_serving_A5" text-anchor="start" x="537.25" y="110.35">Serving</text><text fill="#dd6b20" font-family="Arial, sans-serif" font-size="10" id="txt_neighbor_A5" text-anchor="start" x="537.25" y="122.55000000000001">Neighbor</text></g><g id="g_markers"><circle cx="56.6" cy="95.0" fill="#555555" r="3" /><circle cx="149.79999999999998" cy="95.0" fill="#555555" r="3" /><circle cx="21.65" cy="137.8" fill="#2b6cb0" r="3" /><circle cx="231.35" cy="125.6" fill="#2b6cb0" r="3" /><circle cx="21.65" cy="125.6" fill="#dd6b20" r="3" /><circle cx="231.35" cy="101.2" fill="#dd6b20" r="3" /><circle cx="311.0" cy="95.0" fill="#555555" r="3" /><circle cx="407.0" cy="95.0" fill="#555555" r="3" /><circle cx="275.0" cy="137.8" fill="#2b6cb0" r="3" /><circle cx="491.0" cy="125.6" fill="#2b6cb0" r="3" /><circle cx="275.0" cy="125.6" fill="#dd6b20" r="3" /><circle cx="491.0" cy="101.2" fill="#dd6b20" r="3" /><circle cx="577.0" cy="95.0" fill="#555555" r="3" /><circle cx="683.0" cy="95.0" fill="#555555" r="3" /><circle cx="537.25" cy="137.8" fill="#2b6cb0" r="3" /><circle cx="775.75" cy="125.6" fill="#2b6cb0" r="3" /><circle cx="537.25" cy="125.6" fill="#dd6b20" r="3" /><circle cx="775.75" cy="101.2" fill="#dd6b20" r="3" /></g></g></svg>