<?xml version="1.0" encoding="utf-8" ?>
<svg baseProfile="full" height="240" version="1.1" width="780" xmlns="http://www.w3.org/2000/svg" xmlns:ev="http://www.w3.org/2001/xml-events" xmlns:xlink="http://www.w3.org/1999/xlink"><defs /><g id="figure_root"><g id="g_axes"><line stroke="#000000" stroke-width="2" x1="10.0" x2="191.0" y1="190.0" y2="190.0" /><line stroke="#000000" stroke-width="2" x1="10.0" x2="10.0" y1="190.0" y2="56.0" /><line stroke="#000000" stroke-width="2" x1="211.0" x2="451.0" y1="190.0" y2="190.0" /><line stroke="#000000" stroke-width="2" x1="211.0" x2="211.0" y1="190.0" y2="56.0" /><line stroke="#000000" stroke-width="2" x1="473.0" x2="768.0" y1="190.0" y2="190.0" /><line stroke="#000000" stroke-width="2" x1="473.0" x2="473.0" y1="190.0" y2="56.0" /></g><g id="g_curves"><path d="M 19.05 163.20 C 47.56 163.20 71.99 82.80 100.50 82.80 C 129.01 82.80 153.44 136.40 181.95 136.40" fill="none" id="curve_serving_A3" stroke="#2b6cb0" stroke-width="2" /><path d="M 19.05 136.40 C 47.56 136.40 71.99 149.80 100.50 149.80 C 129.01 149.80 153.44 82.80 181.95 82.80" fill="none" id="curve_neighbor_A3" stroke="#dd6b20" stroke-width="2" /><path d="M 223.00 163.20 C 260.80 163.20 293.20 82.80 331.00 82.80 C 368.80 82.80 401.20 136.40 439.00 136.40" fill="none" id="curve_serving_A4" stroke="#2b6cb0" stroke-width="2" /><path d="M 223.00 136.40 C 260.80 136.40 293.20 149.80 331.00 149.80 C 368.80 149.80 401.20 82.80 439.00 82.80" fill="none" id="curve_neighbor_A4" stroke="#dd6b20" stroke-width="2" /><path d="M 487.75 163.20 C 534.21 163.20 574.04 82.80 620.50 82.80 C 666.96 82.80 706.79 136.40 753.25 136.40" fill="none" id="curve_serving_A5" stroke="#2b6cb0" stroke-width="2" /><path d="M 487.75 136.40 C 534.21 136.40 574.04 149.80 620.50 149.80 C 666.96 149.80 706.79 82.80 753.25 82.80" fill="none" id="curve_neighbor_A5" stroke="#dd6b20" stroke-width="2" /></g><g id="g_annotations"><rect fill="#d0d0d0" fill-opacity="0.3" height="134.0" width="72.39999999999999" x="46.2" y="56.0" /><line stroke="#555555" stroke-width="1" x1="46.2" x2="46.2" y1="190.0" y2="56.0" /><line stroke="#555555" stroke-width="1" x1="118.6" x2="118.6" y1="190.0" y2="56.0" /><rect fill="#d0d0d0" fill-opacity="0.3" height="134.0" width="96.0" x="259.0" y="56.0" /><line stroke="#555555" stroke-width="1" x1="259.0" x2="259.0" y1="190.0" y2="56.0" /><line stroke="#555555" stroke-width="1" x1="355.0" x2="355.0" y1="190.0" y2="56.0" /><rect fill="#d0d0d0" fill-opacity="0.3" height="134.0" width="118.0" x="532.0" y="56.0" /><line stroke="#555555" stroke-width="1" x1="532.0" x2="532.0" y1="190.0" y2="56.0" /><line stroke="#555555" stroke-width="1" x1="650.0" x2="650.0" y1="190.0" y2="56.0" /><line class="dashed" id="geom_line_00" stroke="#555555" stroke-dasharray="6,4" stroke-width="1.0" x1="85.0" x2="635.0" y1="56.0" y2="56.0" /><line class="dashed" id="geom_line_01" stroke="#555555" stroke-dasharray="6,4" stroke-width="1.0" x1="79.0" x2="690.0" y1="86.0" y2="86.0" /><line class="dashed" id="geom_line_02" stroke="#555555" stroke-dasharray="6,4" stroke-width="1.0" x1="79.0" x2="690.0" y1="153.0" y2="153.0" /><line class="dashed" id="geom_line_03" stroke="#555555" stroke-dasharray="6,4" stroke-width="1.0" x1="68.0" x2="701.0" y1="189.0" y2="189.0" /><rect fill="none" height="134.0" id="geom_rect_00" stroke="#555555" stroke-width="1.0" width="181.0" x="10.0" y="56.0" /><rect fill="none" height="134.0" id="geom_rect_01" stroke="#555555" stroke-width="1.0" width="240.0" x="211.0" y="56.0" /><rect fill="none" height="134.0" id="geom_rect_02" stroke="#555555" stroke-width="1.0" width="295.0" x="473.0" y="56.0" /></g><g id="g_text"><text fill="#333333" font-family="Arial, sans-serif" font-size="10" id="txt_t_start_A3" text-anchor="start" x="50.2" y="68.0">t_start</text><text fill="#333333" font-family="Arial, sans-serif" font-size="10" id="txt_t_trigger_A3" text-anchor="start" x="122.6" y="68.0">t_trigger</text><text fill="#000000" font-family="Arial, sans-serif" font-size="12" id="txt_panel_A3" text-anchor="start" x="16.0" y="72.0">A3</text><text fill="#2b6cb0" font-family="Arial, sans-serif" font-size="10" id="txt_serving_A3" text-anchor="start" x="19.05" y="102.9">Serving</text><text fill="#dd6b20" font-family="Arial, sans-serif" font-size="10" id="txt_neighbor_A3" text-anchor="start" x="19.05" y="129.7">Neighbor</text><text fill="#333333" font-family="Arial, sans-serif" font-size="10" id="txt_t_start_A4" text-anchor="start" x="263.0" y="68.0">t_start</text><text fill="#333333" font-family="Arial, sans-serif" font-size="10" id="txt_t_trigger_A4" text-anchor="start" x="359.0" y="68.0">t_trigger</text><text fill="#000000" font-family="Arial, sans-serif" font-size="12" id="txt_panel_A4" text-anchor="start" x="217.0" y="72.0">A4</text><text fill="#2b6cb0" font-family="Arial, sans-serif" font-size="10" id="txt_serving_A4" text-anchor="start" x="223.0" y="102.9">Serving</text><text fill="#dd6b20" font-family="Arial, sans-serif" font-size="10" id="txt_neighbor_A4" text-anchor="start" x="223.0" y="129.7">Neighbor</text><text fill="#333333" font-family="Arial, sans-serif" font-size="10" id="txt_t_start_A5" text-anchor="start" x="536.0" y="68.0">t_start</text><text fill="#333333" font-family="Arial, sans-serif" font-size="10" id="txt_t_trigger_A5" text-anchor="start" x="654.0" y="68.0">t_trigger</text><text fill="#000000" font-family="Arial, sans-serif" font-size="12" id="txt_panel_A5" text-anchor="start" x="479.0" y="72.0">A5</text><text fill="#2b6cb0" font-family="Arial, sans-serif" font-size="10" id="txt_serving_A5" text-anchor="start" x="487.75" y="102.9">Serving</text><text fill="#dd6b20" font-family="Arial, sans-serif" font-size="10" id="txt_neighbor_A5" text-anchor="start" x="487.75" y="129.7">Neighbor</text></g><g id="g_markers"><circle cx="46.2" cy="62.0" fill="#555555" r="3" /><circle cx="118.6" cy="62.0" fill="#555555" r="3" /><circle cx="19.05" cy="163.2" fill="#2b6cb0" r="3" /><circle cx="181.95" cy="136.39999999999998" fill="#2b6cb0" r="3" /><circle cx="19.05" cy="136.39999999999998" fill="#dd6b20" r="3" /><circle cx="181.95" cy="82.8" fill="#dd6b20" r="3" /><circle cx="259.0" cy="62.0" fill="#555555" r="3" /><circle cx="355.0" cy="62.0" fill="#555555" r="3" /><circle cx="223.0" cy="163.2" fill="#2b6cb0" r="3" /><circle cx="439.0" cy="136.39999999999998" fill="#2b6cb0" r="3" /><circle cx="223.0" cy="136.39999999999998" fill="#dd6b20" r="3" /><circle cx="439.0" cy="82.8" fill="#dd6b20" r="3" /><circle cx="532.0" cy="62.0" fill="#555555" r="3" /><circle cx="650.0" cy="62.0" fill="#555555" r="3" /><circle cx="487.75" cy="163.2" fill="#2b6cb0" r="3" /><circle cx="753.25" cy="136.39999999999998" fill="#2b6cb0" r="3" /><circle cx="487.75" cy="136.39999999999998" fill="#dd6b20" r="3" /><circle cx="753.25" cy="82.8" fill="#dd6b20" r="3" /></g></g></svg>