<?xml version="1.0" encoding="utf-8" ?>
<svg baseProfile="full" height="320" version="1.1" width="960" xmlns="http://www.w3.org/2000/svg" xmlns:ev="http://www.w3.org/2001/xml-events" xmlns:xlink="http://www.w3.org/1999/xlink"><defs /><g id="figure_root"><g id="g_axes"><line stroke="#000000" stroke-width="2" x1="40.0" x2="300.0" y1="270.0" y2="270.0" /><line stroke="#000000" stroke-width="2" x1="40.0" x2="40.0" y1="270.0" y2="70.0" /><line stroke="#000000" stroke-width="2" x1="320.0" x2="580.0" y1="270.0" y2="270.0" /><line stroke="#000000" stroke-width="2" x1="320.0" x2="320.0" y1="270.0" y2="70.0" /><line stroke="#000000" stroke-width="2" x1="600.0" x2="860.0" y1="270.0" y2="270.0" /><line stroke="#000000" stroke-width="2" x1="600.0" x2="600.0" y1="270.0" y2="70.0" /></g><g id="g_curves"><path d="M 53.00 210.00 C 89.40 210.00 120.60 100.00 157.00 100.00 C 202.50 100.00 241.50 170.00 287.00 170.00" fill="none" id="curve_serving_A3" stroke="#2b6cb0" stroke-width="2" /><path d="M 53.00 170.00 C 98.50 170.00 137.50 200.00 183.00 200.00 C 219.40 200.00 250.60 120.00 287.00 120.00" fill="none" id="curve_neighbor_A3" stroke="#dd6b20" stroke-width="2" /><path d="M 333.00 210.00 C 369.40 210.00 400.60 100.00 437.00 100.00 C 482.50 100.00 521.50 170.00 567.00 170.00" fill="none" id="curve_serving_A4" stroke="#2b6cb0" stroke-width="2" /><path d="M 333.00 170.00 C 378.50 170.00 417.50 200.00 463.00 200.00 C 499.40 200.00 530.60 120.00 567.00 120.00" fill="none" id="curve_neighbor_A4" stroke="#dd6b20" stroke-width="2" /><path d="M 613.00 210.00 C 649.40 210.00 680.60 100.00 717.00 100.00 C 762.50 100.00 801.50 170.00 847.00 170.00" fill="none" id="curve_serving_A5" stroke="#2b6cb0" stroke-width="2" /><path d="M 613.00 170.00 C 658.50 170.00 697.50 200.00 743.00 200.00 C 779.40 200.00 810.60 120.00 847.00 120.00" fill="none" id="curve_neighbor_A5" stroke="#dd6b20" stroke-width="2" /></g><g id="g_annotations"><rect fill="#d0d0d0" fill-opacity="0.3" height="200.0" width="104.0" x="79.0" y="70.0" /><line stroke="#555555" stroke-width="1" x1="79.0" x2="79.0" y1="270.0" y2="70.0" /><line stroke="#555555" stroke-width="1" x1="183.0" x2="183.0" y1="270.0" y2="70.0" /><rect fill="#d0d0d0" fill-opacity="0.3" height="200.0" width="104.0" x="359.0" y="70.0" /><line stroke="#555555" stroke-width="1" x1="359.0" x2="359.0" y1="270.0" y2="70.0" /><line stroke="#555555" stroke-width="1" x1="463.0" x2="463.0" y1="270.0" y2="70.0" /><rect fill="#d0d0d0" fill-opacity="0.3" height="200.0" width="104.0" x="639.0" y="70.0" /><line stroke="#555555" stroke-width="1" x1="639.0" x2="639.0" y1="270.0" y2="70.0" /><line stroke="#555555" stroke-width="1" x1="743.0" x2="743.0" y1="270.0" y2="70.0" /></g><g id="g_text"><text fill="#333333" font-family="Arial, sans-serif" font-size="10" id="txt_t_start_A3" text-anchor="start" x="83.0" y="82.0">t_start</text><text fill="#333333" font-family="Arial, sans-serif" font-size="10" id="txt_t_trigger_A3" text-anchor="start" x="187.0" y="82.0">t_trigger</text><text fill="#000000" font-family="Arial, sans-serif" font-size="12" id="txt_panel_A3" text-anchor="start" x="46.0" y="86.0">A3</text><text fill="#2b6cb0" font-family="Arial, sans-serif" font-size="10" id="txt_serving_A3" text-anchor="start" x="53.0" y="140.0">Serving</text><text fill="#dd6b20" font-family="Arial, sans-serif" font-size="10" id="txt_neighbor_A3" text-anchor="start" x="53.0" y="180.0">Neighbor</text><text fill="#333333" font-family="Arial, sans-serif" font-size="10" id="txt_t_start_A4" text-anchor="start" x="363.0" y="82.0">t_start</text><text fill="#333333" font-family="Arial, sans-serif" font-size="10" id="txt_t_trigger_A4" text-anchor="start" x="467.0" y="82.0">t_trigger</text><text fill="#000000" font-family="Arial, sans-serif" font-size="12" id="txt_panel_A4" text-anchor="start" x="326.0" y="86.0">A4</text><text fill="#2b6cb0" font-family="Arial, sans-serif" font-size="10" id="txt_serving_A4" text-anchor="start" x="333.0" y="140.0">Serving</text><text fill="#dd6b20" font-family="Arial, sans-serif" font-size="10" id="txt_neighbor_A4" text-anchor="start" x="333.0" y="180.0">Neighbor</text><text fill="#333333" font-family="Arial, sans-serif" font-size="10" id="txt_t_start_A5" text-anchor="start" x="643.0" y="82.0">t_start</text><text fill="#333333" font-family="Arial, sans-serif" font-size="10" id="txt_t_trigger_A5" text-anchor="start" x="747.0" y="82.0">t_trigger</text><text fill="#000000" font-family="Arial, sans-serif" font-size="12" id="txt_panel_A5" text-anchor="start" x="606.0" y="86.0">A5</text><text fill="#2b6cb0" font-family="Arial, sans-serif" font-size="10" id="txt_serving_A5" text-anchor="start" x="613.0" y="140.0">Serving</text><text fill="#dd6b20" font-family="Arial, sans-serif" font-size="10" id="txt_neighbor_A5" text-anchor="start" x="613.0" y="180.0">Neighbor</text></g><g id="g_markers"><circle cx="79.0" cy="76.0" fill="#555555" r="3" /><circle cx="183.0" cy="76.0" fill="#555555" r="3" /><circle cx="53.0" cy="210.0" fill="#2b6cb0" r="3" /><circle cx="287.0" cy="170.0" fill="#2b6cb0" r="3" /><circle cx="53.0" cy="170.0" fill="#dd6b20" r="3" /><circle cx="287.0" cy="120.0" fill="#dd6b20" r="3" /><circle cx="359.0" cy="76.0" fill="#555555" r="3" /><circle cx="463.0" cy="76.0" fill="#555555" r="3" /><circle cx="333.0" cy="210.0" fill="#2b6cb0" r="3" /><circle cx="567.0" cy="170.0" fill="#2b6cb0" r="3" /><circle cx="333.0" cy="170.0" fill="#dd6b20" r="3" /><circle cx="567.0" cy="120.0" fill="#dd6b20" r="3" /><circle cx="639.0" cy="76.0" fill="#555555" r="3" /><circle cx="743.0" cy="76.0" fill="#555555" r="3" /><circle cx="613.0" cy="210.0" fill="#2b6cb0" r="3" /><circle cx="847.0" cy="170.0" fill="#2b6cb0" r="3" /><circle cx="613.0" cy="170.0" fill="#dd6b20" r="3" /><circle cx="847.0" cy="120.0" fill="#dd6b20" r="3" /></g></g></svg>