<?xml version="1.0" encoding="utf-8" ?>
<svg baseProfile="full" height="320" version="1.1" width="900" xmlns="http://www.w3.org/2000/svg" xmlns:ev="http://www.w3.org/2001/xml-events" xmlns:xlink="http://www.w3.org/1999/xlink"><defs /><g id="figure_root"><g id="g_axes"><line stroke="#000000" stroke-width="2" x1="10.0" x2="222.0" y1="260.0" y2="260.0" /><line stroke="#000000" stroke-width="2" x1="10.0" x2="10.0" y1="260.0" y2="96.0" /><line stroke="#000000" stroke-width="2" x1="243.0" x2="501.0" y1="260.0" y2="260.0" /><line stroke="#000000" stroke-width="2" x1="243.0" x2="243.0" y1="260.0" y2="96.0" /><line stroke="#000000" stroke-width="2" x1="527.0" x2="885.0" y1="260.0" y2="260.0" /><line stroke="#000000" stroke-width="2" x1="527.0" x2="527.0" y1="260.0" y2="96.0" /></g><g id="g_curves"><path d="M 20.60 227.20 C 53.99 227.20 82.61 128.80 116.00 128.80 C 149.39 128.80 178.01 194.40 211.40 194.40" fill="none" id="curve_serving_A3" stroke="#2b6cb0" stroke-width="2" /><path d="M 20.60 194.40 C 53.99 194.40 82.61 210.80 116.00 210.80 C 149.39 210.80 178.01 128.80 211.40 128.80" fill="none" id="curve_neighbor_A3" stroke="#dd6b20" stroke-width="2" /><path d="M 255.90 227.20 C 296.54 227.20 331.37 128.80 372.00 128.80 C 412.63 128.80 447.47 194.40 488.10 194.40" fill="none" id="curve_serving_A4" stroke="#2b6cb0" stroke-width="2" /><path d="M 255.90 194.40 C 296.54 194.40 331.37 210.80 372.00 210.80 C 412.63 210.80 447.47 128.80 488.10 128.80" fill="none" id="curve_neighbor_A4" stroke="#dd6b20" stroke-width="2" /><path d="M 544.90 227.20 C 601.28 227.20 649.62 128.80 706.00 128.80 C 762.38 128.80 810.71 194.40 867.10 194.40" fill="none" id="curve_serving_A5" stroke="#2b6cb0" stroke-width="2" /><path d="M 544.90 194.40 C 601.28 194.40 649.62 210.80 706.00 210.80 C 762.38 210.80 810.71 128.80 867.10 128.80" fill="none" id="curve_neighbor_A5" stroke="#dd6b20" stroke-width="2" /></g><g id="g_annotations"><rect fill="#d0d0d0" fill-opacity="0.3" height="164.0" width="84.79999999999998" x="52.400000000000006" y="96.0" /><line stroke="#555555" stroke-width="1" x1="52.400000000000006" x2="52.400000000000006" y1="260.0" y2="96.0" /><line stroke="#555555" stroke-width="1" x1="137.2" x2="137.2" y1="260.0" y2="96.0" /><rect fill="#d0d0d0" fill-opacity="0.3" height="164.0" width="103.19999999999993" x="294.6" y="96.0" /><line stroke="#555555" stroke-width="1" x1="294.6" x2="294.6" y1="260.0" y2="96.0" /><line stroke="#555555" stroke-width="1" x1="397.79999999999995" x2="397.79999999999995" y1="260.0" y2="96.0" /><rect fill="#d0d0d0" fill-opacity="0.3" height="164.0" width="143.19999999999993" x="598.6" y="96.0" /><line stroke="#555555" stroke-width="1" x1="598.6" x2="598.6" y1="260.0" y2="96.0" /><line stroke="#555555" stroke-width="1" x1="741.8" x2="741.8" y1="260.0" y2="96.0" /><line id="geom_line_00" stroke="#000000" stroke-width="2.0" x1="196.0" x2="196.0" y1="105.0" y2="243.0" /><line id="geom_line_01" stroke="#000000" stroke-width="2.0" x1="476.0" x2="476.0" y1="105.0" y2="243.0" /><line id="geom_line_02" stroke="#000000" stroke-width="2.0" x1="756.0" x2="756.0" y1="105.0" y2="243.0" /><line class="dashed" id="geom_line_03" stroke="#555555" stroke-dasharray="6,4" stroke-width="1.0" x1="76.0" x2="756.0" y1="132.0" y2="132.0" /><line class="dashed" id="geom_line_04" stroke="#555555" stroke-dasharray="6,4" stroke-width="1.0" x1="101.0" x2="769.0" y1="259.0" y2="259.0" /><rect fill="none" height="164.0" id="geom_rect_00" stroke="#555555" stroke-width="1.0" width="212.0" x="10.0" y="96.0" /><rect fill="none" height="164.0" id="geom_rect_01" stroke="#555555" stroke-width="1.0" width="258.0" x="243.0" y="96.0" /><rect fill="none" height="164.0" id="geom_rect_02" stroke="#555555" stroke-width="1.0" width="358.0" x="527.0" y="96.0" /></g><g id="g_text"><text fill="#333333" font-family="Arial, sans-serif" font-size="10" id="txt_t_start_A3" text-anchor="start" x="56.400000000000006" y="108.0">t_start</text><text fill="#333333" font-family="Arial, sans-serif" font-size="10" id="txt_t_trigger_A3" text-anchor="start" x="141.2" y="108.0">t_trigger</text><text fill="#000000" font-family="Arial, sans-serif" font-size="12" id="txt_panel_A3" text-anchor="start" x="16.0" y="112.0">A3</text><text fill="#2b6cb0" font-family="Arial, sans-serif" font-size="10" id="txt_serving_A3" text-anchor="start" x="20.6" y="153.4">Serving</text><text fill="#dd6b20" font-family="Arial, sans-serif" font-size="10" id="txt_neighbor_A3" text-anchor="start" x="20.6" y="186.2">Neighbor</text><text fill="#333333" font-family="Arial, sans-serif" font-size="10" id="txt_t_start_A4" text-anchor="start" x="298.6" y="108.0">t_start</text><text fill="#333333" font-family="Arial, sans-serif" font-size="10" id="txt_t_trigger_A4" text-anchor="start" x="401.79999999999995" y="108.0">t_trigger</text><text fill="#000000" font-family="Arial, sans-serif" font-size="12" id="txt_panel_A4" text-anchor="start" x="249.0" y="112.0">A4</text><text fill="#2b6cb0" font-family="Arial, sans-serif" font-size="10" id="txt_serving_A4" text-anchor="start" x="255.9" y="153.4">Serving</text><text fill="#dd6b20" font-family="Arial, sans-serif" font-size="10" id="txt_neighbor_A4" text-anchor="start" x="255.9" y="186.2">Neighbor</text><text fill="#333333" font-family="Arial, sans-serif" font-size="10" id="txt_t_start_A5" text-anchor="start" x="602.6" y="108.0">t_start</text><text fill="#333333" font-family="Arial, sans-serif" font-size="10" id="txt_t_trigger_A5" text-anchor="start" x="745.8" y="108.0">t_trigger</text><text fill="#000000" font-family="Arial, sans-serif" font-size="12" id="txt_panel_A5" text-anchor="start" x="533.0" y="112.0">A5</text><text fill="#2b6cb0" font-family="Arial, sans-serif" font-size="10" id="txt_serving_A5" text-anchor="start" x="544.9" y="153.4">Serving</text><text fill="#dd6b20" font-family="Arial, sans-serif" font-size="10" id="txt_neighbor_A5" text-anchor="start" x="544.9" y="186.2">Neighbor</text></g><g id="g_markers"><circle cx="52.400000000000006" cy="102.0" fill="#555555" r="3" /><circle cx="137.2" cy="102.0" fill="#555555" r="3" /><circle cx="20.6" cy="227.20000000000002" fill="#2b6cb0" r="3" /><circle cx="211.39999999999998" cy="194.39999999999998" fill="#2b6cb0" r="3" /><circle cx="20.6" cy="194.39999999999998" fill="#dd6b20" r="3" /><circle cx="211.39999999999998" cy="128.79999999999998" fill="#dd6b20" r="3" /><circle cx="294.6" cy="102.0" fill="#555555" r="3" /><circle cx="397.79999999999995" cy="102.0" fill="#555555" r="3" /><circle cx="255.9" cy="227.20000000000002" fill="#2b6cb0" r="3" /><circle cx="488.1" cy="194.39999999999998" fill="#2b6cb0" r="3" /><circle cx="255.9" cy="194.39999999999998" fill="#dd6b20" r="3" /><circle cx="488.1" cy="128.79999999999998" fill="#dd6b20" r="3" /><circle cx="598.6" cy="102.0" fill="#555555" r="3" /><circle cx="741.8" cy="102.0" fill="#555555" r="3" /><circle cx="544.9" cy="227.20000000000002" fill="#2b6cb0" r="3" /><circle cx="867.0999999999999" cy="194.39999999999998" fill="#2b6cb0" r="3" /><circle cx="544.9" cy="194.39999999999998" fill="#dd6b20" r="3" /><circle cx="867.0999999999999" cy="128.79999999999998" fill="#dd6b20" r="3" /></g></g></svg>