<?xml version="1.0" encoding="utf-8" ?>
<svg baseProfile="full" height="260" version="1.1" width="1000" xmlns="http://www.w3.org/2000/svg" xmlns:ev="http://www.w3.org/2001/xml-events" xmlns:xlink="http://www.w3.org/1999/xlink"><defs /><g id="figure_root"><g id="g_axes"><line stroke="#000000" stroke-width="2" x1="120.0" x2="920.0" y1="229.0" y2="229.0" /><line stroke="#000000" stroke-width="2" x1="120.0" x2="120.0" y1="229.0" y2="46.0" /><line stroke="#000000" stroke-width="1" x1="120.0" x2="120.0" y1="229.0" y2="235.0" /><line stroke="#000000" stroke-width="1" x1="520.0" x2="520.0" y1="229.0" y2="235.0" /><line stroke="#000000" stroke-width="1" x1="920.0" x2="920.0" y1="229.0" y2="235.0" /><line stroke="#000000" stroke-width="1" x1="114.0" x2="120.0" y1="229.0" y2="229.0" /><line stroke="#000000" stroke-width="1" x1="114.0" x2="120.0" y1="137.5" y2="137.5" /><line stroke="#000000" stroke-width="1" x1="114.0" x2="120.0" y1="46.0" y2="46.0" /></g><g id="g_curves"><polyline fill="none" id="series_series_0" points="120.0,159.277 195.04,139.71429999999998 290.0,120.2797 384.96,103.9195 480.0,86.2783 575.04,80.00139999999999 670.0,73.65129999999999 764.96,63.000699999999995 859.04,53.5762" stroke="#1f77b4" stroke-width="2.0" /><polyline class="dashed" fill="none" id="series_series_1" points="120.0,165.865 195.04,146.43040000000002 290.0,127.1422 384.96,112.9231 480.0,100.42420000000001 575.04,90.99969999999999 670.0,83.07579999999999 764.96,75.20679999999999 859.04,67.5025" stroke="#1f77b4" stroke-dasharray="6,4" stroke-width="2.0" /><polyline fill="none" id="series_series_2" points="120.0,172.4347 194.0,153.27460000000002 288.0,134.0047 382.0,119.7124 476.0,107.10369999999999" stroke="#1f77b4" stroke-width="2.0" /><polyline class="dashed" fill="none" id="series_series_3" points="120.0,165.865 195.04,146.43040000000002 290.0,127.1422 384.96,112.9231 480.0,100.42420000000001 575.04,90.99969999999999 670.0,83.07579999999999 764.96,75.20679999999999 859.04,67.5025" stroke="#1f77b4" stroke-dasharray="6,4" stroke-width="2.0" /></g><g id="g_annotations"><g id="legend"><line stroke="#1f77b4" stroke-width="2.0" x1="780.0" x2="804.0" y1="56.0" y2="56.0" /><line class="dashed" stroke="#1f77b4" stroke-dasharray="6,4" stroke-width="2.0" x1="780.0" x2="804.0" y1="74.0" y2="74.0" /><line stroke="#1f77b4" stroke-width="2.0" x1="780.0" x2="804.0" y1="92.0" y2="92.0" /><line class="dashed" stroke="#1f77b4" stroke-dasharray="6,4" stroke-width="2.0" x1="780.0" x2="804.0" y1="110.0" y2="110.0" /></g></g><g id="g_text"><text fill="#000000" font-family="Arial, sans-serif" font-size="10" id="txt_tick_x_0" text-anchor="middle" x="120.0" y="247.0">0</text><text fill="#000000" font-family="Arial, sans-serif" font-size="10" id="txt_tick_x_1" text-anchor="middle" x="520.0" y="247.0">0.5</text><text fill="#000000" font-family="Arial, sans-serif" font-size="10" id="txt_tick_x_2" text-anchor="middle" x="920.0" y="247.0">1.0</text><text fill="#000000" font-family="Arial, sans-serif" font-size="10" id="txt_tick_y_0" text-anchor="end" x="110.0" y="232.0">0</text><text fill="#000000" font-family="Arial, sans-serif" font-size="10" id="txt_tick_y_1" text-anchor="end" x="110.0" y="140.5">0.5</text><text fill="#000000" font-family="Arial, sans-serif" font-size="10" id="txt_tick_y_2" text-anchor="end" x="110.0" y="49.0">1.0</text><text fill="#000000" font-family="Arial, sans-serif" font-size="12" id="txt_axis_x" text-anchor="middle" x="520.0" y="261.0">x</text><text fill="#000000" font-family="Arial, sans-serif" font-size="12" id="txt_axis_y" text-anchor="middle" x="80.0" y="137.5">y</text><text fill="#000000" font-family="Arial, sans-serif" font-size="10" id="txt_legend_series_0" text-anchor="start" x="810.0" y="60.0">series_0</text><text fill="#000000" font-family="Arial, sans-serif" font-size="10" id="txt_legend_series_1" text-anchor="start" x="810.0" y="78.0">series_1</text><text fill="#000000" font-family="Arial, sans-serif" font-size="10" id="txt_legend_series_2" text-anchor="start" x="810.0" y="96.0">series_2</text><text fill="#000000" font-family="Arial, sans-serif" font-size="10" id="txt_legend_series_3" text-anchor="start" x="810.0" y="114.0">series_3</text></g><g id="g_markers" /></g></svg>