<?xml version="1.0" encoding="utf-8" ?>
<svg baseProfile="full" height="220" version="1.1" width="640" xmlns="http://www.w3.org/2000/svg" xmlns:ev="http://www.w3.org/2001/xml-events" xmlns:xlink="http://www.w3.org/1999/xlink"><defs /><g id="figure_root"><g id="g_axes"><line stroke="#000000" stroke-width="2" x1="10.0" x2="127.0" y1="180.0" y2="180.0" /><line stroke="#000000" stroke-width="2" x1="10.0" x2="10.0" y1="180.0" y2="66.0" /><line stroke="#000000" stroke-width="2" x1="147.0" x2="340.0" y1="180.0" y2="180.0" /><line stroke="#000000" stroke-width="2" x1="147.0" x2="147.0" y1="180.0" y2="66.0" /><line stroke="#000000" stroke-width="2" x1="361.0" x2="629.0" y1="180.0" y2="180.0" /><line stroke="#000000" stroke-width="2" x1="361.0" x2="361.0" y1="180.0" y2="66.0" /></g><g id="g_curves"><path d="M 15.85 157.20 C 34.28 157.20 50.07 88.80 68.50 88.80 C 86.93 88.80 102.72 134.40 121.15 134.40" fill="none" id="curve_serving_A3" stroke="#2b6cb0" stroke-width="2" /><path d="M 15.85 134.40 C 34.28 134.40 50.07 145.80 68.50 145.80 C 86.93 145.80 102.72 88.80 121.15 88.80" fill="none" id="curve_neighbor_A3" stroke="#dd6b20" stroke-width="2" /><path d="M 156.65 157.20 C 187.05 157.20 213.10 88.80 243.50 88.80 C 273.90 88.80 299.95 134.40 330.35 134.40" fill="none" id="curve_serving_A4" stroke="#2b6cb0" stroke-width="2" /><path d="M 156.65 134.40 C 187.05 134.40 213.10 145.80 243.50 145.80 C 273.90 145.80 299.95 88.80 330.35 88.80" fill="none" id="curve_neighbor_A4" stroke="#dd6b20" stroke-width="2" /><path d="M 374.40 157.20 C 416.61 157.20 452.79 88.80 495.00 88.80 C 537.21 88.80 573.39 134.40 615.60 134.40" fill="none" id="curve_serving_A5" stroke="#2b6cb0" stroke-width="2" /><path d="M 374.40 134.40 C 416.61 134.40 452.79 145.80 495.00 145.80 C 537.21 145.80 573.39 88.80 615.60 88.80" fill="none" id="curve_neighbor_A5" stroke="#dd6b20" stroke-width="2" /></g><g id="g_annotations"><rect fill="#d0d0d0" fill-opacity="0.3" height="114.0" width="46.8" x="33.400000000000006" y="66.0" /><line stroke="#555555" stroke-width="1" x1="33.400000000000006" x2="33.400000000000006" y1="180.0" y2="66.0" /><line stroke="#555555" stroke-width="1" x1="80.2" x2="80.2" y1="180.0" y2="66.0" /><rect fill="#d0d0d0" fill-opacity="0.3" height="114.0" width="77.20000000000002" x="185.6" y="66.0" /><line stroke="#555555" stroke-width="1" x1="185.6" x2="185.6" y1="180.0" y2="66.0" /><line stroke="#555555" stroke-width="1" x1="262.8" x2="262.8" y1="180.0" y2="66.0" /><rect fill="#d0d0d0" fill-opacity="0.3" height="114.0" width="107.19999999999993" x="414.6" y="66.0" /><line stroke="#555555" stroke-width="1" x1="414.6" x2="414.6" y1="180.0" y2="66.0" /><line stroke="#555555" stroke-width="1" x1="521.8" x2="521.8" y1="180.0" y2="66.0" /><line id="geom_line_00" stroke="#000000" stroke-width="2.0" x1="37.0" x2="119.0" y1="179.0" y2="179.0" /><line class="dashed" id="geom_line_01" stroke="#555555" stroke-dasharray="6,4" stroke-width="1.0" x1="51.0" x2="482.0" y1="66.0" y2="66.0" /><line class="dashed" id="geom_line_02" stroke="#555555" stroke-dasharray="6,4" stroke-width="1.0" x1="36.0" x2="515.0" y1="71.0" y2="71.0" /><line class="dashed" id="geom_line_03" stroke="#555555" stroke-dasharray="6,4" stroke-width="1.0" x1="36.0" x2="510.0" y1="74.0" y2="74.0" /><line class="dashed" id="geom_line_04" stroke="#555555" stroke-dasharray="6,4" stroke-width="1.0" x1="19.0" x2="510.0" y1="101.0" y2="101.0" /><line class="dashed" id="geom_line_05" stroke="#555555" stroke-dasharray="6,4" stroke-width="1.0" x1="50.0" x2="510.0" y1="120.0" y2="120.0" /><line class="dashed" id="geom_line_06" stroke="#555555" stroke-dasharray="6,4" stroke-width="1.0" x1="50.0" x2="510.0" y1="124.0" y2="124.0" /><line class="dashed" id="geom_line_07" stroke="#555555" stroke-dasharray="6,4" stroke-width="1.0" x1="37.0" x2="519.0" y1="179.0" y2="179.0" /><rect fill="none" height="114.0" id="geom_rect_00" stroke="#555555" stroke-width="1.0" width="117.0" x="10.0" y="66.0" /><rect fill="none" height="114.0" id="geom_rect_01" stroke="#555555" stroke-width="1.0" width="193.0" x="147.0" y="66.0" /><rect fill="none" height="114.0" id="geom_rect_02" stroke="#555555" stroke-width="1.0" width="268.0" x="361.0" y="66.0" /></g><g id="g_text"><text fill="#333333" font-family="Arial, sans-serif" font-size="10" id="txt_t_start_A3" text-anchor="start" x="37.400000000000006" y="78.0">t_start</text><text fill="#333333" font-family="Arial, sans-serif" font-size="10" id="txt_t_trigger_A3" text-anchor="start" x="84.2" y="78.0">t_trigger</text><text fill="#000000" font-family="Arial, sans-serif" font-size="12" id="txt_panel_A3" text-anchor="start" x="16.0" y="82.0">A3</text><text fill="#2b6cb0" font-family="Arial, sans-serif" font-size="10" id="txt_serving_A3" text-anchor="start" x="15.850000000000001" y="105.9">Serving</text><text fill="#dd6b20" font-family="Arial, sans-serif" font-size="10" id="txt_neighbor_A3" text-anchor="start" x="15.850000000000001" y="128.7">Neighbor</text><text fill="#333333" font-family="Arial, sans-serif" font-size="10" id="txt_t_start_A4" text-anchor="start" x="189.6" y="78.0">t_start</text><text fill="#333333" font-family="Arial, sans-serif" font-size="10" id="txt_t_trigger_A4" text-anchor="start" x="266.8" y="78.0">t_trigger</text><text fill="#000000" font-family="Arial, sans-serif" font-size="12" id="txt_panel_A4" text-anchor="start" x="153.0" y="82.0">A4</text><text fill="#2b6cb0" font-family="Arial, sans-serif" font-size="10" id="txt_serving_A4" text-anchor="start" x="156.65" y="105.9">Serving</text><text fill="#dd6b20" font-family="Arial, sans-serif" font-size="10" id="txt_neighbor_A4" text-anchor="start" x="156.65" y="128.7">Neighbor</text><text fill="#333333" font-family="Arial, sans-serif" font-size="10" id="txt_t_start_A5" text-anchor="start" x="418.6" y="78.0">t_start</text><text fill="#333333" font-family="Arial, sans-serif" font-size="10" id="txt_t_trigger_A5" text-anchor="start" x="525.8" y="78.0">t_trigger</text><text fill="#000000" font-family="Arial, sans-serif" font-size="12" id="txt_panel_A5" text-anchor="start" x="367.0" y="82.0">A5</text><text fill="#2b6cb0" font-family="Arial, sans-serif" font-size="10" id="txt_serving_A5" text-anchor="start" x="374.4" y="105.9">Serving</text><text fill="#dd6b20" font-family="Arial, sans-serif" font-size="10" id="txt_neighbor_A5" text-anchor="start" x="374.4" y="128.7">Neighbor</text></g><g id="g_markers"><circle cx="33.400000000000006" cy="72.0" fill="#555555" r="3" /><circle cx="80.2" cy="72.0" fill="#555555" r="3" /><circle cx="15.850000000000001" cy="157.2" fill="#2b6cb0" r="3" /><circle cx="121.14999999999999" cy="134.39999999999998" fill="#2b6cb0" r="3" /><circle cx="15.850000000000001" cy="134.39999999999998" fill="#dd6b20" r="3" /><circle cx="121.14999999999999" cy="88.8" fill="#dd6b20" r="3" /><circle cx="185.6" cy="72.0" fill="#555555" r="3" /><circle cx="262.8" cy="72.0" fill="#555555" r="3" /><circle cx="156.65" cy="157.2" fill="#2b6cb0" r="3" /><circle cx="330.35" cy="134.39999999999998" fill="#2b6cb0" r="3" /><circle cx="156.65" cy="134.39999999999998" fill="#dd6b20" r="3" /><circle cx="330.35" cy="88.8" fill="#dd6b20" r="3" /><circle cx="414.6" cy="72.0" fill="#555555" r="3" /><circle cx="521.8" cy="72.0" fill="#555555" r="3" /><circle cx="374.4" cy="157.2" fill="#2b6cb0" r="3" /><circle cx="615.6" cy="134.39999999999998" fill="#2b6cb0" r="3" /><circle cx="374.4" cy="134.39999999999998" fill="#dd6b20" r="3" /><circle cx="615.6" cy="88.8" fill="#dd6b20" r="3" /></g></g></svg>