<?xml version="1.0" encoding="utf-8" ?>
<svg baseProfile="full" height="280" version="1.1" width="900" xmlns="http://www.w3.org/2000/svg" xmlns:ev="http://www.w3.org/2001/xml-events" xmlns:xlink="http://www.w3.org/1999/xlink"><defs /><g id="figure_root"><g id="g_axes"><line stroke="#000000" stroke-width="2" x1="10.0" x2="210.0" y1="240.0" y2="240.0" /><line stroke="#000000" stroke-width="2" x1="10.0" x2="10.0" y1="240.0" y2="66.0" /><line stroke="#000000" stroke-width="2" x1="230.0" x2="482.0" y1="240.0" y2="240.0" /><line stroke="#000000" stroke-width="2" x1="230.0" x2="230.0" y1="240.0" y2="66.0" /><line stroke="#000000" stroke-width="2" x1="508.0" x2="884.0" y1="240.0" y2="240.0" /><line stroke="#000000" stroke-width="2" x1="508.0" x2="508.0" y1="240.0" y2="66.0" /></g><g id="g_curves"><path d="M 20.00 205.20 C 51.50 205.20 78.50 100.80 110.00 100.80 C 141.50 100.80 168.50 170.40 200.00 170.40" fill="none" id="curve_serving_A3" stroke="#2b6cb0" stroke-width="2" /><path d="M 20.00 170.40 C 51.50 170.40 78.50 187.80 110.00 187.80 C 141.50 187.80 168.50 100.80 200.00 100.80" fill="none" id="curve_neighbor_A3" stroke="#dd6b20" stroke-width="2" /><path d="M 242.60 205.20 C 282.29 205.20 316.31 100.80 356.00 100.80 C 395.69 100.80 429.71 170.40 469.40 170.40" fill="none" id="curve_serving_A4" stroke="#2b6cb0" stroke-width="2" /><path d="M 242.60 170.40 C 282.29 170.40 316.31 187.80 356.00 187.80 C 395.69 187.80 429.71 100.80 469.40 100.80" fill="none" id="curve_neighbor_A4" stroke="#dd6b20" stroke-width="2" /><path d="M 526.80 205.20 C 586.02 205.20 636.78 100.80 696.00 100.80 C 755.22 100.80 805.98 170.40 865.20 170.40" fill="none" id="curve_serving_A5" stroke="#2b6cb0" stroke-width="2" /><path d="M 526.80 170.40 C 586.02 170.40 636.78 187.80 696.00 187.80 C 755.22 187.80 805.98 100.80 865.20 100.80" fill="none" id="curve_neighbor_A5" stroke="#dd6b20" stroke-width="2" /></g><g id="g_annotations"><rect fill="#d0d0d0" fill-opacity="0.3" height="174.0" width="80.0" x="50.0" y="66.0" /><line stroke="#555555" stroke-width="1" x1="50.0" x2="50.0" y1="240.0" y2="66.0" /><line stroke="#555555" stroke-width="1" x1="130.0" x2="130.0" y1="240.0" y2="66.0" /><rect fill="#d0d0d0" fill-opacity="0.3" height="174.0" width="100.80000000000001" x="280.4" y="66.0" /><line stroke="#555555" stroke-width="1" x1="280.4" x2="280.4" y1="240.0" y2="66.0" /><line stroke="#555555" stroke-width="1" x1="381.2" x2="381.2" y1="240.0" y2="66.0" /><rect fill="#d0d0d0" fill-opacity="0.3" height="174.0" width="150.39999999999998" x="583.2" y="66.0" /><line stroke="#555555" stroke-width="1" x1="583.2" x2="583.2" y1="240.0" y2="66.0" /><line stroke="#555555" stroke-width="1" x1="733.6" x2="733.6" y1="240.0" y2="66.0" /><line id="geom_line_00" stroke="#000000" stroke-width="2.0" x1="184.0" x2="184.0" y1="75.0" y2="222.0" /><line id="geom_line_01" stroke="#000000" stroke-width="2.0" x1="444.0" x2="444.0" y1="75.0" y2="222.0" /><line id="geom_line_02" stroke="#000000" stroke-width="2.0" x1="704.0" x2="704.0" y1="75.0" y2="222.0" /><line class="dashed" id="geom_line_03" stroke="#555555" stroke-dasharray="6,4" stroke-width="1.0" x1="87.0" x2="704.0" y1="97.0" y2="97.0" /><line class="dashed" id="geom_line_04" stroke="#555555" stroke-dasharray="6,4" stroke-width="1.0" x1="87.0" x2="704.0" y1="184.0" y2="184.0" /><line class="dashed" id="geom_line_05" stroke="#555555" stroke-dasharray="6,4" stroke-width="1.0" x1="74.0" x2="717.0" y1="239.0" y2="239.0" /><rect fill="none" height="174.0" id="geom_rect_00" stroke="#555555" stroke-width="1.0" width="200.0" x="10.0" y="66.0" /><rect fill="none" height="174.0" id="geom_rect_01" stroke="#555555" stroke-width="1.0" width="252.0" x="230.0" y="66.0" /><rect fill="none" height="174.0" id="geom_rect_02" stroke="#555555" stroke-width="1.0" width="376.0" x="508.0" y="66.0" /></g><g id="g_text"><text fill="#333333" font-family="Arial, sans-serif" font-size="10" id="txt_t_start_A3" text-anchor="start" x="54.0" y="78.0">t_start</text><text fill="#333333" font-family="Arial, sans-serif" font-size="10" id="txt_t_trigger_A3" text-anchor="start" x="134.0" y="78.0">t_trigger</text><text fill="#000000" font-family="Arial, sans-serif" font-size="12" id="txt_panel_A3" text-anchor="start" x="16.0" y="82.0">A3</text><text fill="#2b6cb0" font-family="Arial, sans-serif" font-size="10" id="txt_serving_A3" text-anchor="start" x="20.0" y="126.9">Serving</text><text fill="#dd6b20" font-family="Arial, sans-serif" font-size="10" id="txt_neighbor_A3" text-anchor="start" x="20.0" y="161.7">Neighbor</text><text fill="#333333" font-family="Arial, sans-serif" font-size="10" id="txt_t_start_A4" text-anchor="start" x="284.4" y="78.0">t_start</text><text fill="#333333" font-family="Arial, sans-serif" font-size="10" id="txt_t_trigger_A4" text-anchor="start" x="385.2" y="78.0">t_trigger</text><text fill="#000000" font-family="Arial, sans-serif" font-size="12" id="txt_panel_A4" text-anchor="start" x="236.0" y="82.0">A4</text><text fill="#2b6cb0" font-family="Arial, sans-serif" font-size="10" id="txt_serving_A4" text-anchor="start" x="242.6" y="126.9">Serving</text><text fill="#dd6b20" font-family="Arial, sans-serif" font-size="10" id="txt_neighbor_A4" text-anchor="start" x="242.6" y="161.7">Neighbor</text><text fill="#333333" font-family="Arial, sans-serif" font-size="10" id="txt_t_start_A5" text-anchor="start" x="587.2" y="78.0">t_start</text><text fill="#333333" font-family="Arial, sans-serif" font-size="10" id="txt_t_trigger_A5" text-anchor="start" x="737.6" y="78.0">t_trigger</text><text fill="#000000" font-family="Arial, sans-serif" font-size="12" id="txt_panel_A5" text-anchor="start" x="514.0" y="82.0">A5</text><text fill="#2b6cb0" font-family="Arial, sans-serif" font-size="10" id="txt_serving_A5" text-anchor="start" x="526.8" y="126.9">Serving</text><text fill="#dd6b20" font-family="Arial, sans-serif" font-size="10" id="txt_neighbor_A5" text-anchor="start" x="526.8" y="161.7">Neighbor</text></g><g id="g_markers"><circle cx="50.0" cy="72.0" fill="#555555" r="3" /><circle cx="130.0" cy="72.0" fill="#555555" r="3" /><circle cx="20.0" cy="205.20000000000002" fill="#2b6cb0" r="3" /><circle cx="200.0" cy="170.39999999999998" fill="#2b6cb0" r="3" /><circle cx="20.0" cy="170.39999999999998" fill="#dd6b20" r="3" /><circle cx="200.0" cy="100.79999999999998" fill="#dd6b20" r="3" /><circle cx="280.4" cy="72.0" fill="#555555" r="3" /><circle cx="381.2" cy="72.0" fill="#555555" r="3" /><circle cx="242.6" cy="205.20000000000002" fill="#2b6cb0" r="3" /><circle cx="469.4" cy="170.39999999999998" fill="#2b6cb0" r="3" /><circle cx="242.6" cy="170.39999999999998" fill="#dd6b20" r="3" /><circle cx="469.4" cy="100.79999999999998" fill="#dd6b20" r="3" /><circle cx="583.2" cy="72.0" fill="#555555" r="3" /><circle cx="733.6" cy="72.0" fill="#555555" r="3" /><circle cx="526.8" cy="205.20000000000002" fill="#2b6cb0" r="3" /><circle cx="865.2" cy="170.39999999999998" fill="#2b6cb0" r="3" /><circle cx="526.8" cy="170.39999999999998" fill="#dd6b20" r="3" /><circle cx="865.2" cy="100.79999999999998" fill="#dd6b20" r="3" /></g></g></svg>