<?xml version="1.0" encoding="utf-8" ?>
<svg baseProfile="full" height="360" version="1.1" width="900" xmlns="http://www.w3.org/2000/svg" xmlns:ev="http://www.w3.org/2001/xml-events" xmlns:xlink="http://www.w3.org/1999/xlink"><defs /><g id="figure_root"><g id="g_axes"><line stroke="#000000" stroke-width="2" x1="108.0" x2="828.0" y1="317.0" y2="317.0" /><line stroke="#000000" stroke-width="2" x1="108.0" x2="108.0" y1="317.0" y2="64.0" /><line stroke="#000000" stroke-width="1" x1="108.0" x2="108.0" y1="317.0" y2="323.0" /><line stroke="#000000" stroke-width="1" x1="468.0" x2="468.0" y1="317.0" y2="323.0" /><line stroke="#000000" stroke-width="1" x1="828.0" x2="828.0" y1="317.0" y2="323.0" /><line stroke="#000000" stroke-width="1" x1="102.0" x2="108.0" y1="317.0" y2="317.0" /><line stroke="#000000" stroke-width="1" x1="102.0" x2="108.0" y1="190.5" y2="190.5" /><line stroke="#000000" stroke-width="1" x1="102.0" x2="108.0" y1="64.0" y2="64.0" /></g><g id="g_curves"><polyline fill="none" id="series_series_0" points="108.0,208.0076 115.992,109.99539999999999 247.968,109.99539999999999 313.992,165.83249999999998 380.016,126.0609 511.992,250.56220000000002 580.0319999999999,248.9683" stroke="#1f77b4" stroke-width="2.0" /><polyline class="dashed" fill="none" id="series_series_1" points="108.0,209.67739999999998 113.976,110.805 180.0,110.805 246.024,110.805 311.976,165.70600000000002 378.0,127.0729 444.024,210.74 509.976,249.7273 574.992,249.7273" stroke="#1f77b4" stroke-dasharray="6,4" stroke-width="2.0" /><polyline fill="none" id="series_series_2" points="108.0,191.4108 112.968,110.1978 243.0,110.1978 308.01599999999996,157.98950000000002 373.032,124.214 502.99199999999996,248.53820000000002 573.9839999999999,250.4863" stroke="#1f77b4" stroke-width="2.0" /><polyline class="dashed" fill="none" id="series_series_3" points="108.0,209.67739999999998 113.976,110.805 180.0,110.805 246.024,110.805 311.976,165.70600000000002 378.0,127.0729 444.024,210.74 509.976,249.7273 574.992,249.7273" stroke="#1f77b4" stroke-dasharray="6,4" stroke-width="2.0" /></g><g id="g_annotations"><g id="legend"><line stroke="#1f77b4" stroke-width="2.0" x1="688.0" x2="712.0" y1="74.0" y2="74.0" /><line class="dashed" stroke="#1f77b4" stroke-dasharray="6,4" stroke-width="2.0" x1="688.0" x2="712.0" y1="92.0" y2="92.0" /><line stroke="#1f77b4" stroke-width="2.0" x1="688.0" x2="712.0" y1="110.0" y2="110.0" /><line class="dashed" stroke="#1f77b4" stroke-dasharray="6,4" stroke-width="2.0" x1="688.0" x2="712.0" y1="128.0" y2="128.0" /></g></g><g id="g_text"><text fill="#000000" font-family="Arial, sans-serif" font-size="10" id="txt_tick_x_0" text-anchor="middle" x="108.0" y="335.0">0</text><text fill="#000000" font-family="Arial, sans-serif" font-size="10" id="txt_tick_x_1" text-anchor="middle" x="468.0" y="335.0">0.5</text><text fill="#000000" font-family="Arial, sans-serif" font-size="10" id="txt_tick_x_2" text-anchor="middle" x="828.0" y="335.0">1.0</text><text fill="#000000" font-family="Arial, sans-serif" font-size="10" id="txt_tick_y_0" text-anchor="end" x="98.0" y="320.0">0</text><text fill="#000000" font-family="Arial, sans-serif" font-size="10" id="txt_tick_y_1" text-anchor="end" x="98.0" y="193.5">0.5</text><text fill="#000000" font-family="Arial, sans-serif" font-size="10" id="txt_tick_y_2" text-anchor="end" x="98.0" y="67.0">1.0</text><text fill="#000000" font-family="Arial, sans-serif" font-size="12" id="txt_axis_x" text-anchor="middle" x="468.0" y="349.0">x</text><text fill="#000000" font-family="Arial, sans-serif" font-size="12" id="txt_axis_y" text-anchor="middle" x="68.0" y="190.5">Network</text><text fill="#000000" font-family="Arial, sans-serif" font-size="10" id="txt_legend_series_0" text-anchor="start" x="718.0" y="78.0">series_0</text><text fill="#000000" font-family="Arial, sans-serif" font-size="10" id="txt_legend_series_1" text-anchor="start" x="718.0" y="96.0">series_1</text><text fill="#000000" font-family="Arial, sans-serif" font-size="10" id="txt_legend_series_2" text-anchor="start" x="718.0" y="114.0">series_2</text><text fill="#000000" font-family="Arial, sans-serif" font-size="10" id="txt_legend_series_3" text-anchor="start" x="718.0" y="132.0">series_3</text></g><g id="g_markers" /></g></svg>