<?xml version="1.0" encoding="utf-8" ?>
<svg baseProfile="full" height="220" version="1.1" width="640" xmlns="http://www.w3.org/2000/svg" xmlns:ev="http://www.w3.org/2001/xml-events" xmlns:xlink="http://www.w3.org/1999/xlink"><defs /><g id="figure_root"><g id="g_axes"><line stroke="#000000" stroke-width="2" x1="10.0" x2="127.0" y1="180.0" y2="180.0" /><line stroke="#000000" stroke-width="2" x1="10.0" x2="10.0" y1="180.0" y2="66.0" /><line stroke="#000000" stroke-width="2" x1="147.0" x2="340.0" y1="180.0" y2="180.0" /><line stroke="#000000" stroke-width="2" x1="147.0" x2="147.0" y1="180.0" y2="66.0" /><line stroke="#000000" stroke-width="2" x1="361.0" x2="629.0" y1="180.0" y2="180.0" /><line stroke="#000000" stroke-width="2" x1="361.0" x2="361.0" y1="180.0" y2="66.0" /></g><g id="g_curves"><path d="M 26.01 150.93 C 26.17 150.93 26.67 151.63 27.00 150.93 C 27.33 150.23 27.66 148.71 27.99 146.71 C 28.33 144.71 28.67 140.89 29.00 138.93 C 29.33 136.96 29.83 135.59 30.00 134.92" fill="none" id="curve_serving_A3" stroke="#2b6cb0" stroke-width="2" /><path class="dashed" d="M 26.01 107.50 C 26.17 107.76 26.67 108.81 27.00 109.07 C 27.33 109.33 27.66 109.07 27.99 109.07 C 28.33 109.07 28.67 109.07 29.00 109.07 C 29.33 109.07 29.83 109.07 30.00 109.07" fill="none" id="curve_neighbor_A3" stroke="#dd6b20" stroke-dasharray="6,4" stroke-linecap="round" stroke-width="2" /><path d="M 147.00 105.72 C 147.17 105.72 147.67 106.47 148.00 105.72 C 148.34 104.97 148.68 101.97 149.01 101.21 C 149.34 100.46 149.66 101.21 149.99 101.21 C 150.32 101.21 150.83 101.21 151.00 101.21" fill="none" id="curve_serving_A4" stroke="#2b6cb0" stroke-width="2" /><path class="dashed" d="M 147.00 121.50 C 147.17 120.81 147.67 118.05 148.00 117.36 C 148.34 116.67 148.68 117.67 149.01 117.36 C 149.34 117.05 149.66 115.81 149.99 115.50 C 150.32 115.19 150.83 115.50 151.00 115.50" fill="none" id="curve_neighbor_A4" stroke="#dd6b20" stroke-dasharray="6,4" stroke-linecap="round" stroke-width="2" /><path d="M 361.00 115.08 C 361.17 115.08 361.66 115.08 361.99 115.08 C 362.33 115.08 362.68 115.08 363.01 115.08 C 363.34 115.08 363.67 114.77 364.00 115.08 C 364.33 115.38 364.83 116.62 364.99 116.92" fill="none" id="curve_serving_A5" stroke="#2b6cb0" stroke-width="2" /><path class="dashed" d="M 361.00 104.08 C 366.83 100.83 368.17 78.31 396.00 84.57 C 423.83 90.83 503.66 137.08 527.99 141.64 C 552.33 146.20 531.17 121.38 542.01 111.93 C 552.84 102.48 584.51 89.43 593.01 84.92" fill="none" id="curve_neighbor_A5" stroke="#dd6b20" stroke-dasharray="6,4" stroke-linecap="round" stroke-width="2" /></g><g id="g_annotations"><rect fill="#d0d0d0" fill-opacity="0.3" height="114.0" width="46.8" x="33.400000000000006" y="66.0" /><line stroke="#555555" stroke-width="1" x1="33.400000000000006" x2="33.400000000000006" y1="180.0" y2="66.0" /><line stroke="#555555" stroke-width="1" x1="80.2" x2="80.2" y1="180.0" y2="66.0" /><rect fill="#d0d0d0" fill-opacity="0.3" height="114.0" width="77.20000000000002" x="185.6" y="66.0" /><line stroke="#555555" stroke-width="1" x1="185.6" x2="185.6" y1="180.0" y2="66.0" /><line stroke="#555555" stroke-width="1" x1="262.8" x2="262.8" y1="180.0" y2="66.0" /><rect fill="#d0d0d0" fill-opacity="0.3" height="114.0" width="107.19999999999993" x="414.6" y="66.0" /><line stroke="#555555" stroke-width="1" x1="414.6" x2="414.6" y1="180.0" y2="66.0" /><line stroke="#555555" stroke-width="1" x1="521.8" x2="521.8" y1="180.0" y2="66.0" /><line id="geom_line_00" stroke="#000000" stroke-width="2.0" x1="37.0" x2="119.0" y1="179.0" y2="179.0" /><line class="dashed" id="geom_line_01" stroke="#555555" stroke-dasharray="6,4" stroke-width="1.0" x1="51.0" x2="482.0" y1="66.0" y2="66.0" /><line class="dashed" id="geom_line_02" stroke="#555555" stroke-dasharray="6,4" stroke-width="1.0" x1="36.0" x2="515.0" y1="71.0" y2="71.0" /><line class="dashed" id="geom_line_03" stroke="#555555" stroke-dasharray="6,4" stroke-width="1.0" x1="36.0" x2="510.0" y1="74.0" y2="74.0" /><line class="dashed" id="geom_line_04" stroke="#555555" stroke-dasharray="6,4" stroke-width="1.0" x1="19.0" x2="510.0" y1="101.0" y2="101.0" /><line class="dashed" id="geom_line_05" stroke="#555555" stroke-dasharray="6,4" stroke-width="1.0" x1="50.0" x2="510.0" y1="120.0" y2="120.0" /><line class="dashed" id="geom_line_06" stroke="#555555" stroke-dasharray="6,4" stroke-width="1.0" x1="50.0" x2="510.0" y1="124.0" y2="124.0" /><line class="dashed" id="geom_line_07" stroke="#555555" stroke-dasharray="6,4" stroke-width="1.0" x1="37.0" x2="519.0" y1="179.0" y2="179.0" /><rect fill="none" height="114.0" id="geom_rect_00" stroke="#555555" stroke-width="1.0" width="117.0" x="10.0" y="66.0" /><rect fill="none" height="114.0" id="geom_rect_01" stroke="#555555" stroke-width="1.0" width="193.0" x="147.0" y="66.0" /><rect fill="none" height="114.0" id="geom_rect_02" stroke="#555555" stroke-width="1.0" width="268.0" x="361.0" y="66.0" /></g><g id="g_text"><text fill="#333333" font-family="Arial, sans-serif" font-size="10" id="txt_t_start_A3" text-anchor="start" x="37.400000000000006" y="78.0">t_start</text><text fill="#333333" font-family="Arial, sans-serif" font-size="10" id="txt_t_trigger_A3" text-anchor="start" x="84.2" y="78.0">t_trigger</text><text fill="#000000" font-family="Arial, sans-serif" font-size="12" id="txt_panel_A3" text-anchor="start" x="16.0" y="82.0">A3</text><text fill="#2b6cb0" font-family="Arial, sans-serif" font-size="10" id="txt_serving_A3" text-anchor="start" x="15.850000000000001" y="105.9">Serving</text><text fill="#dd6b20" font-family="Arial, sans-serif" font-size="10" id="txt_neighbor_A3" text-anchor="start" x="15.850000000000001" y="128.7">Neighbor</text><text fill="#333333" font-family="Arial, sans-serif" font-size="10" id="txt_t_start_A4" text-anchor="start" x="189.6" y="78.0">t_start</text><text fill="#333333" font-family="Arial, sans-serif" font-size="10" id="txt_t_trigger_A4" text-anchor="start" x="266.8" y="78.0">t_trigger</text><text fill="#000000" font-family="Arial, sans-serif" font-size="12" id="txt_panel_A4" text-anchor="start" x="153.0" y="82.0">A4</text><text fill="#2b6cb0" font-family="Arial, sans-serif" font-size="10" id="txt_serving_A4" text-anchor="start" x="156.65" y="105.9">Serving</text><text fill="#dd6b20" font-family="Arial, sans-serif" font-size="10" id="txt_neighbor_A4" text-anchor="start" x="156.65" y="128.7">Neighbor</text><text fill="#333333" font-family="Arial, sans-serif" font-size="10" id="txt_t_start_A5" text-anchor="start" x="418.6" y="78.0">t_start</text><text fill="#333333" font-family="Arial, sans-serif" font-size="10" id="txt_t_trigger_A5" text-anchor="start" x="525.8" y="78.0">t_trigger</text><text fill="#000000" font-family="Arial, sans-serif" font-size="12" id="txt_panel_A5" text-anchor="start" x="367.0" y="82.0">A5</text><text fill="#2b6cb0" font-family="Arial, sans-serif" font-size="10" id="txt_serving_A5" text-anchor="start" x="374.4" y="105.9">Serving</text><text fill="#dd6b20" font-family="Arial, sans-serif" font-size="10" id="txt_neighbor_A5" text-anchor="start" x="374.4" y="128.7">Neighbor</text></g><g id="g_markers"><circle cx="33.400000000000006" cy="72.0" fill="#555555" r="3" /><circle cx="80.2" cy="72.0" fill="#555555" r="3" /><circle cx="26.0056" cy="150.93" fill="#2b6cb0" r="3" /><circle cx="29.9953" cy="134.9244" fill="#2b6cb0" r="3" /><circle cx="26.0056" cy="107.49600000000001" fill="#dd6b20" r="3" /><circle cx="29.9953" cy="109.0692" fill="#dd6b20" r="3" /><circle cx="185.6" cy="72.0" fill="#555555" r="3" /><circle cx="262.8" cy="72.0" fill="#555555" r="3" /><circle cx="147.0" cy="105.7176" fill="#2b6cb0" r="3" /><circle cx="150.9951" cy="101.21459999999999" fill="#2b6cb0" r="3" /><circle cx="147.0" cy="121.49520000000001" fill="#dd6b20" r="3" /><circle cx="150.9951" cy="115.4988" fill="#dd6b20" r="3" /><circle cx="414.6" cy="72.0" fill="#555555" r="3" /><circle cx="521.8" cy="72.0" fill="#555555" r="3" /><circle cx="361.0" cy="115.077" fill="#2b6cb0" r="3" /><circle cx="364.9932" cy="116.9238" fill="#2b6cb0" r="3" /><circle cx="361.0" cy="104.076" fill="#dd6b20" r="3" /><circle cx="593.0076" cy="84.924" fill="#dd6b20" r="3" /></g></g></svg>