<?xml version="1.0" encoding="utf-8" ?>
<svg baseProfile="full" height="420" version="1.1" width="1024" xmlns="http://www.w3.org/2000/svg" xmlns:ev="http://www.w3.org/2001/xml-events" xmlns:xlink="http://www.w3.org/1999/xlink"><defs /><g id="figure_root"><g id="g_axes" /><g id="g_curves"><line fill="none" stroke="#000000" stroke-width="2" x1="329.0" x2="410.0" y1="189.0" y2="189.0" /><line fill="none" stroke="#000000" stroke-width="2" x1="614.0" x2="695.0" y1="189.0" y2="189.0" /></g><g id="g_annotations"><rect fill="#ffffff" height="84.0" id="node_node_1" rx="8.0" ry="8.0" stroke="#000000" stroke-width="2" width="204.0" x="125.0" y="147.0" /><rect fill="#ffffff" height="84.0" id="node_node_2" rx="8.0" ry="8.0" stroke="#000000" stroke-width="2" width="204.0" x="410.0" y="147.0" /><rect fill="#ffffff" height="84.0" id="node_node_3" rx="8.0" ry="8.0" stroke="#000000" stroke-width="2" width="204.0" x="695.0" y="147.0" /><line id="geom_line_00" stroke="#000000" stroke-width="2.0" x1="227.0" x2="512.0" y1="189.0" y2="189.0" /><line id="geom_line_01" stroke="#000000" stroke-width="2.0" x1="512.0" x2="797.0" y1="189.0" y2="189.0" /><rect fill="none" height="84.0" id="geom_rect_00" stroke="#000000" stroke-width="2.0" width="204.0" x="125.0" y="147.0" /><rect fill="none" height="84.0" id="geom_rect_01" stroke="#000000" stroke-width="2.0" width="204.0" x="410.0" y="147.0" /><rect fill="none" height="84.0" id="geom_rect_02" stroke="#000000" stroke-width="2.0" width="204.0" x="695.0" y="147.0" /></g><g id="g_text"><text fill="#000000" font-family="Arial, sans-serif" font-size="12" id="txt_node_node_1" text-anchor="start" x="137.0" y="171.0"><tspan id="txt_node_node_1_line0" x="137.0" y="171.0">Unknown</tspan></text><text fill="#000000" font-family="Arial, sans-serif" font-size="12" id="txt_node_node_2" text-anchor="start" x="422.0" y="171.0"><tspan id="txt_node_node_2_line0" x="422.0" y="171.0">Unknown</tspan></text><text fill="#000000" font-family="Arial, sans-serif" font-size="12" id="txt_node_node_3" text-anchor="start" x="707.0" y="171.0"><tspan id="txt_node_node_3_line0" x="707.0" y="171.0">Unknown</tspan></text></g><g id="g_markers"><polygon fill="#000000" points="410.0,189.0 400.0,192.0 400.0,186.0" /><polygon fill="#000000" points="695.0,189.0 685.0,192.0 685.0,186.0" /></g></g></svg>