<?xml version="1.0" encoding="utf-8" ?>
<svg baseProfile="full" height="320" version="1.1" width="960" xmlns="http://www.w3.org/2000/svg" xmlns:ev="http://www.w3.org/2001/xml-events" xmlns:xlink="http://www.w3.org/1999/xlink"><defs /><g id="figure_root"><g id="g_axes"><line stroke="#000000" stroke-width="2" x1="50.0" x2="310.0" y1="280.0" y2="280.0" /><line stroke="#000000" stroke-width="2" x1="50.0" x2="50.0" y1="280.0" y2="80.0" /><line stroke="#000000" stroke-width="2" x1="340.0" x2="600.0" y1="280.0" y2="280.0" /><line stroke="#000000" stroke-width="2" x1="340.0" x2="340.0" y1="280.0" y2="80.0" /><line stroke="#000000" stroke-width="2" x1="630.0" x2="890.0" y1="280.0" y2="280.0" /><line stroke="#000000" stroke-width="2" x1="630.0" x2="630.0" y1="280.0" y2="80.0" /></g><g id="g_curves"><path d="M 63.00 250.00 C 99.40 250.00 130.60 130.00 167.00 130.00 C 207.95 130.00 243.05 180.00 284.00 180.00" fill="none" id="curve_serving_A3" stroke="#2b6cb0" stroke-width="2" /><path d="M 63.00 170.00 C 99.40 170.00 130.60 210.00 167.00 210.00 C 207.95 210.00 243.05 110.00 284.00 110.00" fill="none" id="curve_neighbor_A3" stroke="#dd6b20" stroke-width="2" /><path d="M 353.00 250.00 C 389.40 250.00 420.60 130.00 457.00 130.00 C 497.95 130.00 533.05 180.00 574.00 180.00" fill="none" id="curve_serving_A4" stroke="#2b6cb0" stroke-width="2" /><path d="M 353.00 170.00 C 389.40 170.00 420.60 210.00 457.00 210.00 C 497.95 210.00 533.05 110.00 574.00 110.00" fill="none" id="curve_neighbor_A4" stroke="#dd6b20" stroke-width="2" /><path d="M 643.00 250.00 C 679.40 250.00 710.60 130.00 747.00 130.00 C 787.95 130.00 823.05 180.00 864.00 180.00" fill="none" id="curve_serving_A5" stroke="#2b6cb0" stroke-width="2" /><path d="M 643.00 170.00 C 679.40 170.00 710.60 210.00 747.00 210.00 C 787.95 210.00 823.05 110.00 864.00 110.00" fill="none" id="curve_neighbor_A5" stroke="#dd6b20" stroke-width="2" /></g><g id="g_annotations"><rect fill="#d0d0d0" fill-opacity="0.3" height="200.0" width="145.60000000000002" x="81.2" y="80.0" /><line stroke="#555555" stroke-width="1" x1="81.2" x2="81.2" y1="280.0" y2="80.0" /><line stroke="#555555" stroke-width="1" x1="226.8" x2="226.8" y1="280.0" y2="80.0" /><rect fill="#d0d0d0" fill-opacity="0.3" height="200.0" width="145.59999999999997" x="371.2" y="80.0" /><line stroke="#555555" stroke-width="1" x1="371.2" x2="371.2" y1="280.0" y2="80.0" /><line stroke="#555555" stroke-width="1" x1="516.8" x2="516.8" y1="280.0" y2="80.0" /><rect fill="#d0d0d0" fill-opacity="0.3" height="200.0" width="145.5999999999999" x="661.2" y="80.0" /><line stroke="#555555" stroke-width="1" x1="661.2" x2="661.2" y1="280.0" y2="80.0" /><line stroke="#555555" stroke-width="1" x1="806.8" x2="806.8" y1="280.0" y2="80.0" /></g><g id="g_text"><text fill="#000000" font-family="Arial, sans-serif" id="txt_title" text-anchor="start" x="10" y="20">3GPP Event Timeline with Adaptive TTT Windows</text><text fill="#333333" font-family="Arial, sans-serif" font-size="10" id="txt_t_start_A3" text-anchor="start" x="85.2" y="92.0">t_start</text><text fill="#333333" font-family="Arial, sans-serif" font-size="10" id="txt_t_trigger_A3" text-anchor="start" x="230.8" y="92.0">t_trigger</text><text fill="#000000" font-family="Arial, sans-serif" font-size="12" id="txt_panel_A3" text-anchor="start" x="56.0" y="96.0">A3</text><text fill="#2b6cb0" font-family="Arial, sans-serif" font-size="10" id="txt_serving_A3" text-anchor="start" x="63.0" y="150.0">Serving</text><text fill="#dd6b20" font-family="Arial, sans-serif" font-size="10" id="txt_neighbor_A3" text-anchor="start" x="63.0" y="190.0">Neighbor</text><text fill="#333333" font-family="Arial, sans-serif" font-size="10" id="txt_t_start_A4" text-anchor="start" x="375.2" y="92.0">t_start</text><text fill="#333333" font-family="Arial, sans-serif" font-size="10" id="txt_t_trigger_A4" text-anchor="start" x="520.8" y="92.0">t_trigger</text><text fill="#000000" font-family="Arial, sans-serif" font-size="12" id="txt_panel_A4" text-anchor="start" x="346.0" y="96.0">A4</text><text fill="#2b6cb0" font-family="Arial, sans-serif" font-size="10" id="txt_serving_A4" text-anchor="start" x="353.0" y="150.0">Serving</text><text fill="#dd6b20" font-family="Arial, sans-serif" font-size="10" id="txt_neighbor_A4" text-anchor="start" x="353.0" y="190.0">Neighbor</text><text fill="#333333" font-family="Arial, sans-serif" font-size="10" id="txt_t_start_A5" text-anchor="start" x="665.2" y="92.0">t_start</text><text fill="#333333" font-family="Arial, sans-serif" font-size="10" id="txt_t_trigger_A5" text-anchor="start" x="810.8" y="92.0">t_trigger</text><text fill="#000000" font-family="Arial, sans-serif" font-size="12" id="txt_panel_A5" text-anchor="start" x="636.0" y="96.0">A5</text><text fill="#2b6cb0" font-family="Arial, sans-serif" font-size="10" id="txt_serving_A5" text-anchor="start" x="643.0" y="150.0">Serving</text><text fill="#dd6b20" font-family="Arial, sans-serif" font-size="10" id="txt_neighbor_A5" text-anchor="start" x="643.0" y="190.0">Neighbor</text></g><g id="g_markers"><circle cx="81.2" cy="86.0" fill="#555555" r="3" /><circle cx="226.8" cy="86.0" fill="#555555" r="3" /><circle cx="63.0" cy="250.0" fill="#2b6cb0" r="3" /><circle cx="284.0" cy="180.0" fill="#2b6cb0" r="3" /><circle cx="63.0" cy="170.0" fill="#dd6b20" r="3" /><circle cx="284.0" cy="110.0" fill="#dd6b20" r="3" /><circle cx="371.2" cy="86.0" fill="#555555" r="3" /><circle cx="516.8" cy="86.0" fill="#555555" r="3" /><circle cx="353.0" cy="250.0" fill="#2b6cb0" r="3" /><circle cx="574.0" cy="180.0" fill="#2b6cb0" r="3" /><circle cx="353.0" cy="170.0" fill="#dd6b20" r="3" /><circle cx="574.0" cy="110.0" fill="#dd6b20" r="3" /><circle cx="661.2" cy="86.0" fill="#555555" r="3" /><circle cx="806.8" cy="86.0" fill="#555555" r="3" /><circle cx="643.0" cy="250.0" fill="#2b6cb0" r="3" /><circle cx="864.0" cy="180.0" fill="#2b6cb0" r="3" /><circle cx="643.0" cy="170.0" fill="#dd6b20" r="3" /><circle cx="864.0" cy="110.0" fill="#dd6b20" r="3" /></g></g></svg>