<?xml version="1.0" encoding="utf-8" ?>
<svg baseProfile="full" height="220" version="1.1" width="640" xmlns="http://www.w3.org/2000/svg" xmlns:ev="http://www.w3.org/2001/xml-events" xmlns:xlink="http://www.w3.org/1999/xlink"><defs /><g id="figure_root"><g id="g_axes"><line stroke="#000000" stroke-width="2.0" x1="10.0" x2="192.0" y1="180.0" y2="180.0" /><line stroke="#000000" stroke-width="2.0" x1="10.0" x2="10.0" y1="180.0" y2="60.0" /><line stroke="#000000" stroke-width="2.0" x1="212.0" x2="393.0" y1="180.0" y2="180.0" /><line stroke="#000000" stroke-width="2.0" x1="212.0" x2="212.0" y1="180.0" y2="60.0" /><line stroke="#000000" stroke-width="2.0" x1="413.0" x2="630.0" y1="180.0" y2="180.0" /><line stroke="#000000" stroke-width="2.0" x1="413.0" x2="413.0" y1="180.0" y2="60.0" /></g><g id="g_curves"><path d="M 16.01 90.92 C 19.34 89.44 29.34 86.84 36.01 82.00 C 42.67 77.15 49.33 65.53 55.99 61.86 C 62.66 58.19 69.33 60.31 75.99 60.00 C 82.66 59.69 92.66 60.00 95.99 60.00" fill="none" id="curve_serving_A3" stroke="#2b6cb0" stroke-width="2" /><path class="dashed" d="M 16.01 60.00 C 19.34 60.00 29.34 59.89 36.01 60.00 C 42.67 60.11 49.33 58.68 55.99 60.65 C 62.66 62.61 69.33 68.43 75.99 71.78 C 82.66 75.14 92.66 79.28 95.99 80.78" fill="none" id="curve_neighbor_A3" stroke="#dd6b20" stroke-dasharray="6,4" stroke-linecap="round" stroke-width="2" /><path d="M 212.00 90.92 C 212.00 89.44 212.00 86.84 212.00 82.00 C 212.00 77.15 212.00 65.53 212.00 61.86 C 212.00 58.19 212.00 60.31 212.00 60.00 C 212.00 59.69 212.00 60.00 212.00 60.00" fill="none" id="curve_serving_A4" stroke="#2b6cb0" stroke-width="2" /><path class="dashed" d="M 212.00 60.00 C 212.00 60.00 212.00 59.89 212.00 60.00 C 212.00 60.11 212.00 58.68 212.00 60.65 C 212.00 62.61 212.00 68.43 212.00 71.78 C 212.00 75.14 212.00 79.28 212.00 80.78" fill="none" id="curve_neighbor_A4" stroke="#dd6b20" stroke-dasharray="6,4" stroke-linecap="round" stroke-width="2" /><path d="M 413.00 90.92 C 413.00 89.44 413.00 85.32 413.00 82.00 C 413.00 78.68 413.00 74.67 413.00 71.00 C 413.00 67.34 413.00 61.83 413.00 60.00 C 413.00 58.17 413.00 60.00 413.00 60.00 C 413.00 60.00 413.00 60.00 413.00 60.00 C 413.00 60.00 413.00 59.98 413.00 60.00 C 413.00 60.02 413.00 59.26 413.00 60.14 C 413.00 61.02 413.00 64.42 413.00 65.28" fill="none" id="curve_serving_A5" stroke="#2b6cb0" stroke-width="2" /><path class="dashed" d="M 413.00 60.00 C 413.00 60.00 413.00 59.63 413.00 60.00 C 413.00 60.37 413.00 59.97 413.00 62.22 C 413.00 64.47 413.00 70.12 413.00 73.50 C 413.00 76.88 413.00 81.62 413.00 82.50 C 413.00 83.38 413.00 82.53 413.00 78.78 C 413.00 75.03 413.00 63.13 413.00 60.00 C 413.00 56.87 413.00 60.00 413.00 60.00 C 413.00 60.00 413.00 60.00 413.00 60.00" fill="none" id="curve_neighbor_A5" stroke="#dd6b20" stroke-dasharray="6,4" stroke-linecap="round" stroke-width="2" /></g><g id="g_annotations"><rect fill="#f2e6b8" fill-opacity="0.35" height="120.0" width="112.29400000000001" x="19.1" y="60.0" /><line stroke="#555555" stroke-width="1.0" x1="19.1" x2="19.1" y1="180.0" y2="60.0" /><line stroke="#555555" stroke-width="1.0" x1="131.394" x2="131.394" y1="180.0" y2="60.0" /><rect fill="#f2e6b8" fill-opacity="0.35" height="120.0" width="111.67699999999996" x="221.05" y="60.0" /><line stroke="#555555" stroke-width="1.0" x1="221.05" x2="221.05" y1="180.0" y2="60.0" /><line stroke="#555555" stroke-width="1.0" x1="332.727" x2="332.727" y1="180.0" y2="60.0" /><rect fill="#f2e6b8" fill-opacity="0.35" height="120.0" width="133.889" x="423.85" y="60.0" /><line stroke="#555555" stroke-width="1.0" x1="423.85" x2="423.85" y1="180.0" y2="60.0" /><line stroke="#555555" stroke-width="1.0" x1="557.739" x2="557.739" y1="180.0" y2="60.0" /><line id="geom_line_00" stroke="#000000" stroke-width="2.0" x1="19.0" x2="171.0" y1="96.0" y2="96.0" /><line id="geom_line_01" stroke="#000000" stroke-width="2.0" x1="219.0" x2="371.0" y1="96.0" y2="96.0" /><line id="geom_line_02" stroke="#000000" stroke-width="2.0" x1="419.0" x2="571.0" y1="96.0" y2="96.0" /><line id="geom_line_03" stroke="#000000" stroke-width="2.0" x1="19.0" x2="191.0" y1="179.0" y2="179.0" /><line id="geom_line_04" stroke="#000000" stroke-width="2.0" x1="219.0" x2="392.0" y1="179.0" y2="179.0" /><line id="geom_line_05" stroke="#000000" stroke-width="2.0" x1="419.0" x2="599.0" y1="179.0" y2="179.0" /><line id="geom_line_06" stroke="#000000" stroke-width="2.0" x1="19.0" x2="19.0" y1="60.0" y2="179.0" /><line id="geom_line_07" stroke="#000000" stroke-width="2.0" x1="78.0" x2="78.0" y1="60.0" y2="179.0" /><line id="geom_line_08" stroke="#000000" stroke-width="2.0" x1="219.0" x2="219.0" y1="60.0" y2="179.0" /><line id="geom_line_09" stroke="#000000" stroke-width="2.0" x1="278.0" x2="278.0" y1="60.0" y2="179.0" /><line id="geom_line_10" stroke="#000000" stroke-width="2.0" x1="419.0" x2="419.0" y1="60.0" y2="179.0" /><line id="geom_line_11" stroke="#000000" stroke-width="2.0" x1="478.0" x2="478.0" y1="60.0" y2="179.0" /><line id="geom_line_12" stroke="#555555" stroke-width="1.0" x1="232.0" x2="232.0" y1="8.0" y2="181.0" /><line id="geom_line_13" stroke="#555555" stroke-width="1.0" x1="233.0" x2="233.0" y1="8.0" y2="181.0" /><line id="geom_line_14" stroke="#555555" stroke-width="1.0" x1="26.0" x2="26.0" y1="11.0" y2="181.0" /><line id="geom_line_15" stroke="#555555" stroke-width="1.0" x1="27.0" x2="27.0" y1="11.0" y2="181.0" /><line id="geom_line_16" stroke="#555555" stroke-width="1.0" x1="426.0" x2="426.0" y1="11.0" y2="181.0" /><line id="geom_line_17" stroke="#555555" stroke-width="1.0" x1="427.0" x2="427.0" y1="11.0" y2="181.0" /></g><g id="g_text"><text dominant-baseline="alphabetic" fill="#000000" font-family="Arial, sans-serif" font-size="10" id="txt_t_start_A3" text-anchor="start" x="23.1" y="72.0">t_start</text><text dominant-baseline="alphabetic" fill="#000000" font-family="Arial, sans-serif" font-size="10" id="txt_t_trigger_A3" text-anchor="start" x="135.394" y="72.0">t_trigger</text><text dominant-baseline="alphabetic" fill="#000000" font-family="Arial, sans-serif" font-size="12" font-weight="bold" id="txt_panel_A3" text-anchor="start" x="16.0" y="76.0">A3</text><text dominant-baseline="alphabetic" fill="#2b6cb0" font-family="Arial, sans-serif" font-size="10" id="txt_serving_A3" text-anchor="start" x="19.1" y="102.0">Serving</text><text dominant-baseline="alphabetic" fill="#dd6b20" font-family="Arial, sans-serif" font-size="10" id="txt_neighbor_A3" text-anchor="start" x="19.1" y="126.0">Neighbor</text><text dominant-baseline="alphabetic" fill="#000000" font-family="Arial, sans-serif" font-size="10" id="txt_t_start_A4" text-anchor="start" x="225.05" y="72.0">t_start</text><text dominant-baseline="alphabetic" fill="#000000" font-family="Arial, sans-serif" font-size="10" id="txt_t_trigger_A4" text-anchor="start" x="336.727" y="72.0">t_trigger</text><text dominant-baseline="alphabetic" fill="#000000" font-family="Arial, sans-serif" font-size="12" font-weight="bold" id="txt_panel_A4" text-anchor="start" x="218.0" y="76.0">A4</text><text dominant-baseline="alphabetic" fill="#2b6cb0" font-family="Arial, sans-serif" font-size="10" id="txt_serving_A4" text-anchor="start" x="221.05" y="102.0">Serving</text><text dominant-baseline="alphabetic" fill="#dd6b20" font-family="Arial, sans-serif" font-size="10" id="txt_neighbor_A4" text-anchor="start" x="221.05" y="126.0">Neighbor</text><text dominant-baseline="alphabetic" fill="#000000" font-family="Arial, sans-serif" font-size="10" id="txt_t_start_A5" text-anchor="start" x="427.85" y="72.0">t_start</text><text dominant-baseline="alphabetic" fill="#000000" font-family="Arial, sans-serif" font-size="10" id="txt_t_trigger_A5" text-anchor="start" x="561.739" y="72.0">t_trigger</text><text dominant-baseline="alphabetic" fill="#000000" font-family="Arial, sans-serif" font-size="12" font-weight="bold" id="txt_panel_A5" text-anchor="start" x="419.0" y="76.0">A5</text><text dominant-baseline="alphabetic" fill="#2b6cb0" font-family="Arial, sans-serif" font-size="10" id="txt_serving_A5" text-anchor="start" x="423.85" y="102.0">Serving</text><text dominant-baseline="alphabetic" fill="#dd6b20" font-family="Arial, sans-serif" font-size="10" id="txt_neighbor_A5" text-anchor="start" x="423.85" y="126.0">Neighbor</text></g><g id="g_markers"><circle cx="19.1" cy="66.0" fill="#555555" r="3" /><circle cx="131.394" cy="66.0" fill="#555555" r="3" /><circle cx="16.006" cy="90.924" fill="#2b6cb0" r="3" /><circle cx="95.99499999999999" cy="60.0" fill="#2b6cb0" r="3" /><circle cx="16.006" cy="60.0" fill="#dd6b20" r="3" /><circle cx="95.99499999999999" cy="80.784" fill="#dd6b20" r="3" /><circle cx="221.05" cy="66.0" fill="#555555" r="3" /><circle cx="332.727" cy="66.0" fill="#555555" r="3" /><circle cx="212.0" cy="90.924" fill="#2b6cb0" r="3" /><circle cx="212.0" cy="60.0" fill="#2b6cb0" r="3" /><circle cx="212.0" cy="60.0" fill="#dd6b20" r="3" /><circle cx="212.0" cy="80.784" fill="#dd6b20" r="3" /><circle cx="423.85" cy="66.0" fill="#555555" r="3" /><circle cx="557.739" cy="66.0" fill="#555555" r="3" /><circle cx="413.0" cy="90.924" fill="#2b6cb0" r="3" /><circle cx="413.0" cy="65.28" fill="#2b6cb0" r="3" /><circle cx="413.0" cy="60.0" fill="#dd6b20" r="3" /><circle cx="413.0" cy="60.0" fill="#dd6b20" r="3" /></g></g></svg>