<?xml version="1.0" encoding="utf-8" ?>
<svg baseProfile="full" height="320" version="1.1" width="960" xmlns="http://www.w3.org/2000/svg" xmlns:ev="http://www.w3.org/2001/xml-events" xmlns:xlink="http://www.w3.org/1999/xlink"><defs /><g id="figure_root"><g id="g_axes"><line stroke="#000000" stroke-width="2" x1="10.0" x2="212.0" y1="270.0" y2="270.0" /><line stroke="#000000" stroke-width="2" x1="10.0" x2="10.0" y1="270.0" y2="76.0" /><line stroke="#000000" stroke-width="2" x1="234.0" x2="513.0" y1="270.0" y2="270.0" /><line stroke="#000000" stroke-width="2" x1="234.0" x2="234.0" y1="270.0" y2="76.0" /><line stroke="#000000" stroke-width="2" x1="542.0" x2="943.0" y1="270.0" y2="270.0" /><line stroke="#000000" stroke-width="2" x1="542.0" x2="542.0" y1="270.0" y2="76.0" /></g><g id="g_curves"><path d="M 20.10 231.20 C 51.92 231.20 79.19 114.80 111.00 114.80 C 142.81 114.80 170.08 192.40 201.90 192.40" fill="none" id="curve_serving_A3" stroke="#2b6cb0" stroke-width="2" /><path d="M 20.10 192.40 C 51.92 192.40 79.19 211.80 111.00 211.80 C 142.81 211.80 170.08 114.80 201.90 114.80" fill="none" id="curve_neighbor_A3" stroke="#dd6b20" stroke-width="2" /><path d="M 247.95 231.20 C 291.89 231.20 329.56 114.80 373.50 114.80 C 417.44 114.80 455.11 192.40 499.05 192.40" fill="none" id="curve_serving_A4" stroke="#2b6cb0" stroke-width="2" /><path d="M 247.95 192.40 C 291.89 192.40 329.56 211.80 373.50 211.80 C 417.44 211.80 455.11 114.80 499.05 114.80" fill="none" id="curve_neighbor_A4" stroke="#dd6b20" stroke-width="2" /><path d="M 562.05 231.20 C 625.21 231.20 679.34 114.80 742.50 114.80 C 805.66 114.80 859.79 192.40 922.95 192.40" fill="none" id="curve_serving_A5" stroke="#2b6cb0" stroke-width="2" /><path d="M 562.05 192.40 C 625.21 192.40 679.34 211.80 742.50 211.80 C 805.66 211.80 859.79 114.80 922.95 114.80" fill="none" id="curve_neighbor_A5" stroke="#dd6b20" stroke-width="2" /></g><g id="g_annotations"><rect fill="#d0d0d0" fill-opacity="0.3" height="194.0" width="80.79999999999998" x="50.400000000000006" y="76.0" /><line stroke="#555555" stroke-width="1" x1="50.400000000000006" x2="50.400000000000006" y1="270.0" y2="76.0" /><line stroke="#555555" stroke-width="1" x1="131.2" x2="131.2" y1="270.0" y2="76.0" /><rect fill="#d0d0d0" fill-opacity="0.3" height="194.0" width="111.59999999999997" x="289.8" y="76.0" /><line stroke="#555555" stroke-width="1" x1="289.8" x2="289.8" y1="270.0" y2="76.0" /><line stroke="#555555" stroke-width="1" x1="401.4" x2="401.4" y1="270.0" y2="76.0" /><rect fill="#d0d0d0" fill-opacity="0.3" height="194.0" width="160.39999999999998" x="622.2" y="76.0" /><line stroke="#555555" stroke-width="1" x1="622.2" x2="622.2" y1="270.0" y2="76.0" /><line stroke="#555555" stroke-width="1" x1="782.6" x2="782.6" y1="270.0" y2="76.0" /><line class="dashed" id="geom_line_00" stroke="#555555" stroke-dasharray="6,4" stroke-width="1.0" x1="64.0" x2="757.0" y1="269.0" y2="269.0" /><rect fill="none" height="194.0" id="geom_rect_00" stroke="#555555" stroke-width="1.0" width="202.0" x="10.0" y="76.0" /><rect fill="none" height="194.0" id="geom_rect_01" stroke="#555555" stroke-width="1.0" width="279.0" x="234.0" y="76.0" /><rect fill="none" height="194.0" id="geom_rect_02" stroke="#555555" stroke-width="1.0" width="401.0" x="542.0" y="76.0" /></g><g id="g_text"><text fill="#333333" font-family="Arial, sans-serif" font-size="10" id="txt_t_start_A3" text-anchor="start" x="54.400000000000006" y="88.0">t_start</text><text fill="#333333" font-family="Arial, sans-serif" font-size="10" id="txt_t_trigger_A3" text-anchor="start" x="135.2" y="88.0">t_trigger</text><text fill="#000000" font-family="Arial, sans-serif" font-size="12" id="txt_panel_A3" text-anchor="start" x="16.0" y="92.0">A3</text><text fill="#2b6cb0" font-family="Arial, sans-serif" font-size="10" id="txt_serving_A3" text-anchor="start" x="20.1" y="143.89999999999998">Serving</text><text fill="#dd6b20" font-family="Arial, sans-serif" font-size="10" id="txt_neighbor_A3" text-anchor="start" x="20.1" y="182.7">Neighbor</text><text fill="#333333" font-family="Arial, sans-serif" font-size="10" id="txt_t_start_A4" text-anchor="start" x="293.8" y="88.0">t_start</text><text fill="#333333" font-family="Arial, sans-serif" font-size="10" id="txt_t_trigger_A4" text-anchor="start" x="405.4" y="88.0">t_trigger</text><text fill="#000000" font-family="Arial, sans-serif" font-size="12" id="txt_panel_A4" text-anchor="start" x="240.0" y="92.0">A4</text><text fill="#2b6cb0" font-family="Arial, sans-serif" font-size="10" id="txt_serving_A4" text-anchor="start" x="247.95" y="143.89999999999998">Serving</text><text fill="#dd6b20" font-family="Arial, sans-serif" font-size="10" id="txt_neighbor_A4" text-anchor="start" x="247.95" y="182.7">Neighbor</text><text fill="#333333" font-family="Arial, sans-serif" font-size="10" id="txt_t_start_A5" text-anchor="start" x="626.2" y="88.0">t_start</text><text fill="#333333" font-family="Arial, sans-serif" font-size="10" id="txt_t_trigger_A5" text-anchor="start" x="786.6" y="88.0">t_trigger</text><text fill="#000000" font-family="Arial, sans-serif" font-size="12" id="txt_panel_A5" text-anchor="start" x="548.0" y="92.0">A5</text><text fill="#2b6cb0" font-family="Arial, sans-serif" font-size="10" id="txt_serving_A5" text-anchor="start" x="562.05" y="143.89999999999998">Serving</text><text fill="#dd6b20" font-family="Arial, sans-serif" font-size="10" id="txt_neighbor_A5" text-anchor="start" x="562.05" y="182.7">Neighbor</text></g><g id="g_markers"><circle cx="50.400000000000006" cy="82.0" fill="#555555" r="3" /><circle cx="131.2" cy="82.0" fill="#555555" r="3" /><circle cx="20.1" cy="231.20000000000002" fill="#2b6cb0" r="3" /><circle cx="201.89999999999998" cy="192.39999999999998" fill="#2b6cb0" r="3" /><circle cx="20.1" cy="192.39999999999998" fill="#dd6b20" r="3" /><circle cx="201.89999999999998" cy="114.79999999999998" fill="#dd6b20" r="3" /><circle cx="289.8" cy="82.0" fill="#555555" r="3" /><circle cx="401.4" cy="82.0" fill="#555555" r="3" /><circle cx="247.95" cy="231.20000000000002" fill="#2b6cb0" r="3" /><circle cx="499.05" cy="192.39999999999998" fill="#2b6cb0" r="3" /><circle cx="247.95" cy="192.39999999999998" fill="#dd6b20" r="3" /><circle cx="499.05" cy="114.79999999999998" fill="#dd6b20" r="3" /><circle cx="622.2" cy="82.0" fill="#555555" r="3" /><circle cx="782.6" cy="82.0" fill="#555555" r="3" /><circle cx="562.05" cy="231.20000000000002" fill="#2b6cb0" r="3" /><circle cx="922.95" cy="192.39999999999998" fill="#2b6cb0" r="3" /><circle cx="562.05" cy="192.39999999999998" fill="#dd6b20" r="3" /><circle cx="922.95" cy="114.79999999999998" fill="#dd6b20" r="3" /></g></g></svg>