<?xml version="1.0" encoding="utf-8" ?>
<svg baseProfile="full" height="320" version="1.1" width="960" xmlns="http://www.w3.org/2000/svg" xmlns:ev="http://www.w3.org/2001/xml-events" xmlns:xlink="http://www.w3.org/1999/xlink"><defs /><g id="figure_root"><g id="g_axes"><line stroke="#000000" stroke-width="2.0" x1="10.0" x2="255.0" y1="260.0" y2="260.0" /><line stroke="#000000" stroke-width="2.0" x1="10.0" x2="10.0" y1="260.0" y2="59.0" /><line stroke="#000000" stroke-width="2.0" x1="275.0" x2="515.0" y1="260.0" y2="260.0" /><line stroke="#000000" stroke-width="2.0" x1="275.0" x2="275.0" y1="260.0" y2="59.0" /><line stroke="#000000" stroke-width="2.0" x1="542.0" x2="943.0" y1="260.0" y2="260.0" /><line stroke="#000000" stroke-width="2.0" x1="542.0" x2="542.0" y1="260.0" y2="59.0" /></g><g id="g_curves"><path d="M 83.99 59.00 C 86.49 59.00 94.01 59.00 99.01 59.00 C 104.01 59.00 109.00 59.00 114.00 59.00 C 119.00 59.00 124.00 52.85 129.00 59.00 C 133.99 65.15 141.49 89.74 143.99 95.88" fill="none" id="curve_serving_A3" stroke="#2b6cb0" stroke-width="2" /><path class="dashed" d="M 82.01 59.00 C 84.50 59.00 92.00 59.00 97.00 59.00 C 102.00 59.00 106.99 59.00 111.99 59.00 C 117.00 59.00 122.01 52.78 127.01 59.00 C 132.01 65.22 139.51 90.09 142.01 96.31" fill="none" id="curve_neighbor_A3" stroke="#dd6b20" stroke-dasharray="6,4" stroke-linecap="round" stroke-width="2" /><path d="M 275.00 59.00 C 275.00 59.00 275.00 59.00 275.00 59.00 C 275.00 59.00 275.00 59.00 275.00 59.00 C 275.00 59.00 275.00 54.69 275.00 59.00 C 275.00 63.31 275.00 80.56 275.00 84.87" fill="none" id="curve_serving_A4" stroke="#2b6cb0" stroke-width="2" /><path class="dashed" d="M 275.00 59.00 C 275.00 59.00 275.00 59.00 275.00 59.00 C 275.00 59.00 275.00 59.00 275.00 59.00 C 275.00 59.00 275.00 52.85 275.00 59.00 C 275.00 65.15 275.00 79.96 275.00 95.90 C 275.00 111.85 275.00 143.92 275.00 154.68 C 275.00 165.43 275.00 159.47 275.00 160.42 C 275.00 161.38 275.00 160.42 275.00 160.42 C 275.00 160.42 275.00 160.42 275.00 160.42" fill="none" id="curve_neighbor_A4" stroke="#dd6b20" stroke-dasharray="6,4" stroke-linecap="round" stroke-width="2" /><path d="M 542.00 59.00 C 542.00 59.00 542.00 59.00 542.00 59.00 C 542.00 59.00 542.00 59.00 542.00 59.00 C 542.00 59.00 542.00 55.55 542.00 59.00 C 542.00 62.45 542.00 68.66 542.00 79.72 C 542.00 90.79 542.00 111.96 542.00 125.39 C 542.00 138.82 542.00 154.47 542.00 160.28 C 542.00 166.10 542.00 160.02 542.00 160.28 C 542.00 160.55 542.00 161.59 542.00 161.85" fill="none" id="curve_serving_A5" stroke="#2b6cb0" stroke-width="2" /><path class="dashed" d="M 542.00 59.00 C 542.00 59.00 542.00 59.00 542.00 59.00 C 542.00 59.00 542.00 59.00 542.00 59.00 C 542.00 59.00 542.00 57.65 542.00 59.00 C 542.00 60.35 542.00 65.75 542.00 67.10" fill="none" id="curve_neighbor_A5" stroke="#dd6b20" stroke-dasharray="6,4" stroke-linecap="round" stroke-width="2" /></g><g id="g_annotations"><rect fill="#d0d0d0" fill-opacity="0.3" height="201.0" width="133.76999999999998" x="51.160000000000004" y="59.0" /><line stroke="#555555" stroke-width="1.0" x1="51.160000000000004" x2="51.160000000000004" y1="260.0" y2="59.0" /><line stroke="#555555" stroke-width="1.0" x1="184.92999999999998" x2="184.92999999999998" y1="260.0" y2="59.0" /><rect fill="#d0d0d0" fill-opacity="0.3" height="201.0" width="131.04000000000002" x="315.32" y="59.0" /><line stroke="#555555" stroke-width="1.0" x1="315.32" x2="315.32" y1="260.0" y2="59.0" /><line stroke="#555555" stroke-width="1.0" x1="446.36" x2="446.36" y1="260.0" y2="59.0" /><rect fill="#d0d0d0" fill-opacity="0.3" height="201.0" width="218.9459999999999" x="609.368" y="59.0" /><line stroke="#555555" stroke-width="1.0" x1="609.368" x2="609.368" y1="260.0" y2="59.0" /><line stroke="#555555" stroke-width="1.0" x1="828.314" x2="828.314" y1="260.0" y2="59.0" /><line id="geom_line_00" stroke="#000000" stroke-width="1.0" x1="161.0" x2="161.0" y1="11.0" y2="259.0" /><line id="geom_line_01" stroke="#000000" stroke-width="1.0" x1="162.0" x2="162.0" y1="11.0" y2="260.0" /><line id="geom_line_02" stroke="#000000" stroke-width="1.0" x1="431.0" x2="431.0" y1="59.0" y2="261.0" /><line id="geom_line_03" stroke="#000000" stroke-width="1.0" x1="435.0" x2="435.0" y1="59.0" y2="261.0" /><line id="geom_line_04" stroke="#000000" stroke-width="1.0" x1="683.0" x2="683.0" y1="59.0" y2="261.0" /><line id="geom_line_05" stroke="#000000" stroke-width="1.0" x1="685.0" x2="685.0" y1="59.0" y2="261.0" /></g><g id="g_text"><text dominant-baseline="alphabetic" fill="#000000" font-family="Arial, sans-serif" font-size="10" id="txt_t_start_A3" text-anchor="start" x="55.160000000000004" y="71.0">t_start</text><text dominant-baseline="alphabetic" fill="#000000" font-family="Arial, sans-serif" font-size="10" id="txt_t_trigger_A3" text-anchor="start" x="188.92999999999998" y="71.0">t_trigger</text><text dominant-baseline="alphabetic" fill="#000000" font-family="Arial, sans-serif" font-size="12" font-weight="bold" id="txt_panel_A3" text-anchor="start" x="16.0" y="75.0">A3</text><text dominant-baseline="alphabetic" fill="#2b6cb0" font-family="Arial, sans-serif" font-size="10" id="txt_serving_A3" text-anchor="start" x="22.25" y="129.35">Serving</text><text dominant-baseline="alphabetic" fill="#dd6b20" font-family="Arial, sans-serif" font-size="10" id="txt_neighbor_A3" text-anchor="start" x="22.25" y="169.55">Neighbor</text><text dominant-baseline="alphabetic" fill="#000000" font-family="Arial, sans-serif" font-size="10" id="txt_t_start_A4" text-anchor="start" x="319.32" y="71.0">t_start</text><text dominant-baseline="alphabetic" fill="#000000" font-family="Arial, sans-serif" font-size="10" id="txt_t_trigger_A4" text-anchor="start" x="450.36" y="71.0">t_trigger</text><text dominant-baseline="alphabetic" fill="#000000" font-family="Arial, sans-serif" font-size="12" font-weight="bold" id="txt_panel_A4" text-anchor="start" x="281.0" y="75.0">A4</text><text dominant-baseline="alphabetic" fill="#2b6cb0" font-family="Arial, sans-serif" font-size="10" id="txt_serving_A4" text-anchor="start" x="287.0" y="129.35">Serving</text><text dominant-baseline="alphabetic" fill="#dd6b20" font-family="Arial, sans-serif" font-size="10" id="txt_neighbor_A4" text-anchor="start" x="287.0" y="169.55">Neighbor</text><text dominant-baseline="alphabetic" fill="#000000" font-family="Arial, sans-serif" font-size="10" id="txt_t_start_A5" text-anchor="start" x="613.368" y="71.0">t_start</text><text dominant-baseline="alphabetic" fill="#000000" font-family="Arial, sans-serif" font-size="10" id="txt_t_trigger_A5" text-anchor="start" x="832.314" y="71.0">t_trigger</text><text dominant-baseline="alphabetic" fill="#000000" font-family="Arial, sans-serif" font-size="12" font-weight="bold" id="txt_panel_A5" text-anchor="start" x="548.0" y="75.0">A5</text><text dominant-baseline="alphabetic" fill="#2b6cb0" font-family="Arial, sans-serif" font-size="10" id="txt_serving_A5" text-anchor="start" x="562.05" y="129.35">Serving</text><text dominant-baseline="alphabetic" fill="#dd6b20" font-family="Arial, sans-serif" font-size="10" id="txt_neighbor_A5" text-anchor="start" x="562.05" y="169.55">Neighbor</text><text dominant-baseline="alphabetic" fill="#2b6cb0" font-family="Arial, sans-serif" font-size="30.0" font-weight="normal" id="txt_text_00" text-anchor="start" x="10.0" y="110.0">Collect</text></g><g id="g_markers"><circle cx="51.160000000000004" cy="65.0" fill="#555555" r="3" /><circle cx="184.92999999999998" cy="65.0" fill="#555555" r="3" /><circle cx="83.99" cy="59.0" fill="#2b6cb0" r="3" /><circle cx="143.99050000000003" cy="95.8835" fill="#2b6cb0" r="3" /><circle cx="82.0055" cy="59.0" fill="#dd6b20" r="3" /><circle cx="142.006" cy="96.3056" fill="#dd6b20" r="3" /><circle cx="315.32" cy="65.0" fill="#555555" r="3" /><circle cx="446.36" cy="65.0" fill="#555555" r="3" /><circle cx="275.0" cy="59.0" fill="#2b6cb0" r="3" /><circle cx="275.0" cy="84.8687" fill="#2b6cb0" r="3" /><circle cx="275.0" cy="59.0" fill="#dd6b20" r="3" /><circle cx="275.0" cy="160.4246" fill="#dd6b20" r="3" /><circle cx="609.368" cy="65.0" fill="#555555" r="3" /><circle cx="828.314" cy="65.0" fill="#555555" r="3" /><circle cx="542.0" cy="59.0" fill="#2b6cb0" r="3" /><circle cx="542.0" cy="161.8517" fill="#2b6cb0" r="3" /><circle cx="542.0" cy="59.0" fill="#dd6b20" r="3" /><circle cx="542.0" cy="67.1003" fill="#dd6b20" r="3" /></g></g></svg>