<?xml version="1.0" encoding="utf-8" ?>
<svg baseProfile="full" height="800" version="1.1" width="1200" xmlns="http://www.w3.org/2000/svg" xmlns:ev="http://www.w3.org/2001/xml-events" xmlns:xlink="http://www.w3.org/1999/xlink"><defs /><g id="figure_root"><g id="g_axes"><line id="grid_sep_v_0" stroke="#000000" stroke-width="1" x1="600.0" x2="600.0" y1="144.0" y2="800.0" /><line id="grid_sep_h_0" stroke="#000000" stroke-width="1" x1="72.0" x2="1128.0" y1="472.0" y2="472.0" /><line id="axis_x_P1" stroke="#000000" stroke-width="1" x1="96.0" x2="552.0" y1="428.0" y2="428.0" /><line id="axis_y_P1" stroke="#000000" stroke-width="1" x1="96.0" x2="96.0" y1="428.0" y2="191.8" /><line id="tick_x_P1_0" stroke="#000000" stroke-width="1" x1="96.0" x2="96.0" y1="428.0" y2="437.0" /><line id="tick_y_P1_0" stroke="#000000" stroke-width="1" x1="87.0" x2="96.0" y1="428.0" y2="428.0" /><line id="tick_x_P1_1" stroke="#000000" stroke-width="1" x1="324.0" x2="324.0" y1="428.0" y2="437.0" /><line id="tick_y_P1_1" stroke="#000000" stroke-width="1" x1="87.0" x2="96.0" y1="309.9" y2="309.9" /><line id="tick_x_P1_2" stroke="#000000" stroke-width="1" x1="552.0" x2="552.0" y1="428.0" y2="437.0" /><line id="tick_y_P1_2" stroke="#000000" stroke-width="1" x1="87.0" x2="96.0" y1="191.8" y2="191.8" /><line id="axis_x_P2" stroke="#000000" stroke-width="1" x1="648.0" x2="1104.0" y1="428.0" y2="428.0" /><line id="axis_y_P2" stroke="#000000" stroke-width="1" x1="648.0" x2="648.0" y1="428.0" y2="191.8" /><line id="tick_x_P2_0" stroke="#000000" stroke-width="1" x1="648.0" x2="648.0" y1="428.0" y2="437.0" /><line id="tick_y_P2_0" stroke="#000000" stroke-width="1" x1="639.0" x2="648.0" y1="428.0" y2="428.0" /><line id="tick_x_P2_1" stroke="#000000" stroke-width="1" x1="876.0" x2="876.0" y1="428.0" y2="437.0" /><line id="tick_y_P2_1" stroke="#000000" stroke-width="1" x1="639.0" x2="648.0" y1="309.9" y2="309.9" /><line id="tick_x_P2_2" stroke="#000000" stroke-width="1" x1="1104.0" x2="1104.0" y1="428.0" y2="437.0" /><line id="tick_y_P2_2" stroke="#000000" stroke-width="1" x1="639.0" x2="648.0" y1="191.8" y2="191.8" /><line id="axis_x_P3" stroke="#000000" stroke-width="1" x1="96.0" x2="552.0" y1="776.0" y2="776.0" /><line id="axis_y_P3" stroke="#000000" stroke-width="1" x1="96.0" x2="96.0" y1="776.0" y2="539.8" /><line id="tick_x_P3_0" stroke="#000000" stroke-width="1" x1="96.0" x2="96.0" y1="776.0" y2="785.0" /><line id="tick_y_P3_0" stroke="#000000" stroke-width="1" x1="87.0" x2="96.0" y1="776.0" y2="776.0" /><line id="tick_x_P3_1" stroke="#000000" stroke-width="1" x1="324.0" x2="324.0" y1="776.0" y2="785.0" /><line id="tick_y_P3_1" stroke="#000000" stroke-width="1" x1="87.0" x2="96.0" y1="657.9" y2="657.9" /><line id="tick_x_P3_2" stroke="#000000" stroke-width="1" x1="552.0" x2="552.0" y1="776.0" y2="785.0" /><line id="tick_y_P3_2" stroke="#000000" stroke-width="1" x1="87.0" x2="96.0" y1="539.8" y2="539.8" /><line id="axis_x_P4" stroke="#000000" stroke-width="1" x1="648.0" x2="1104.0" y1="776.0" y2="776.0" /><line id="axis_y_P4" stroke="#000000" stroke-width="1" x1="648.0" x2="648.0" y1="776.0" y2="539.8" /><line id="tick_x_P4_0" stroke="#000000" stroke-width="1" x1="648.0" x2="648.0" y1="776.0" y2="785.0" /><line id="tick_y_P4_0" stroke="#000000" stroke-width="1" x1="639.0" x2="648.0" y1="776.0" y2="776.0" /><line id="tick_x_P4_1" stroke="#000000" stroke-width="1" x1="876.0" x2="876.0" y1="776.0" y2="785.0" /><line id="tick_y_P4_1" stroke="#000000" stroke-width="1" x1="639.0" x2="648.0" y1="657.9" y2="657.9" /><line id="tick_x_P4_2" stroke="#000000" stroke-width="1" x1="1104.0" x2="1104.0" y1="776.0" y2="785.0" /><line id="tick_y_P4_2" stroke="#000000" stroke-width="1" x1="639.0" x2="648.0" y1="539.8" y2="539.8" /></g><g id="g_curves"><polyline fill="none" id="curve_P1_series_0" points="96.0,380.76 324.0,286.28000000000003 552.0,227.23000000000002" stroke="#1f77b4" stroke-width="2.0" /><polyline fill="none" id="curve_P1_series_1" points="96.0,250.85000000000002 324.0,309.9 552.0,368.95" stroke="#ff7f0e" stroke-dasharray="6,4" stroke-linecap="round" stroke-width="2.0" /><polyline fill="none" id="curve_P2_series_0" points="648.0,392.57 876.0,298.09 1104.0,239.04" stroke="#1f77b4" stroke-width="2.0" /><polyline fill="none" id="curve_P2_series_1" points="648.0,262.66 876.0,321.71000000000004 1104.0,357.14" stroke="#ff7f0e" stroke-dasharray="6,4" stroke-linecap="round" stroke-width="2.0" /><polyline fill="none" id="curve_P3_series_0" points="96.0,716.9499999999999 324.0,634.28 552.0,598.8499999999999" stroke="#1f77b4" stroke-width="2.0" /><polyline fill="none" id="curve_P3_series_1" points="96.0,587.04 324.0,646.0899999999999 552.0,693.3299999999999" stroke="#ff7f0e" stroke-dasharray="6,4" stroke-linecap="round" stroke-width="2.0" /><polyline fill="none" id="curve_P4_series_0" points="648.0,728.76 876.0,657.9 1104.0,610.66" stroke="#1f77b4" stroke-width="2.0" /><polyline fill="none" id="curve_P4_series_1" points="648.0,622.4699999999999 876.0,681.52 1104.0,728.76" stroke="#ff7f0e" stroke-dasharray="6,4" stroke-linecap="round" stroke-width="2.0" /><line id="legend_line_0" stroke="#1f77b4" stroke-width="2" x1="912" x2="942" y1="54.4" y2="54.4" /><line id="legend_line_1" stroke="#ff7f0e" stroke-dasharray="6,4" stroke-linecap="round" stroke-width="2" x1="912" x2="942" y1="79.4" y2="79.4" /></g><g id="g_annotations"><g id="g_boxes"><rect fill="none" height="308.0" id="panel_P1" rx="8" ry="8" stroke="#000000" stroke-width="1" width="504.0" x="72.0" y="144.0" /><rect fill="none" height="308.0" id="panel_P2" rx="8" ry="8" stroke="#000000" stroke-width="1" width="504.0" x="624.0" y="144.0" /><rect fill="none" height="308.0" id="panel_P3" rx="8" ry="8" stroke="#000000" stroke-width="1" width="504.0" x="72.0" y="492.0" /><rect fill="none" height="308.0" id="panel_P4" rx="8" ry="8" stroke="#000000" stroke-width="1" width="504.0" x="624.0" y="492.0" /></g></g><g id="g_text"><g id="g_legend"><text fill="#000000" font-family="Arial, sans-serif" font-size="14.0" id="txt_legend_0" text-anchor="start" x="948" y="58.6">Baseline</text><text fill="#000000" font-family="Arial, sans-serif" font-size="14.0" id="txt_legend_1" text-anchor="start" x="948" y="83.60000000000001">Proposed</text></g><g id="g_title"><text fill="#000000" font-family="Arial, sans-serif" font-size="32.0" font-weight="bold" id="txt_title" text-anchor="start" x="72" y="80">Performance Grid</text></g><text fill="#000000" font-family="Arial, sans-serif" font-size="17.0" font-weight="bold" id="txt_panel_P1_title" text-anchor="start" x="102.0" y="185.0">Panel 1</text><text fill="#000000" font-family="Arial, sans-serif" font-size="17.0" font-weight="bold" id="txt_panel_P2_title" text-anchor="start" x="654.0" y="185.0">Panel 2</text><text fill="#000000" font-family="Arial, sans-serif" font-size="17.0" font-weight="bold" id="txt_panel_P3_title" text-anchor="start" x="102.0" y="533.0">Panel 3</text><text fill="#000000" font-family="Arial, sans-serif" font-size="17.0" font-weight="bold" id="txt_panel_P4_title" text-anchor="start" x="654.0" y="533.0">Panel 4</text></g><g id="g_markers" /></g></svg>