<?xml version="1.0" encoding="utf-8" ?>
<svg baseProfile="full" height="240" version="1.1" width="780" xmlns="http://www.w3.org/2000/svg" xmlns:ev="http://www.w3.org/2001/xml-events" xmlns:xlink="http://www.w3.org/1999/xlink"><defs /><g id="figure_root"><g id="g_axes" /><g id="g_curves"><line fill="none" stroke="#000000" stroke-width="2" x1="250.0" x2="312.0" y1="114.0" y2="114.0" /><line fill="none" stroke="#000000" stroke-width="2" x1="468.0" x2="530.0" y1="114.0" y2="114.0" /></g><g id="g_annotations"><rect fill="#ffffff" height="60.0" id="node_node_1" rx="8.0" ry="8.0" stroke="#000000" stroke-width="2" width="156.0" x="94.0" y="84.0" /><rect fill="#ffffff" height="60.0" id="node_node_2" rx="8.0" ry="8.0" stroke="#000000" stroke-width="2" width="156.0" x="312.0" y="84.0" /><rect fill="#ffffff" height="60.0" id="node_node_3" rx="8.0" ry="8.0" stroke="#000000" stroke-width="2" width="156.0" x="530.0" y="84.0" /><line id="geom_line_00" stroke="#000000" stroke-width="2.0" x1="172.0" x2="390.0" y1="114.0" y2="114.0" /><line id="geom_line_01" stroke="#000000" stroke-width="2.0" x1="390.0" x2="608.0" y1="114.0" y2="114.0" /><rect fill="none" height="60.0" id="geom_rect_00" stroke="#000000" stroke-width="2.0" width="156.0" x="94.0" y="84.0" /><rect fill="none" height="60.0" id="geom_rect_01" stroke="#000000" stroke-width="2.0" width="156.0" x="312.0" y="84.0" /><rect fill="none" height="60.0" id="geom_rect_02" stroke="#000000" stroke-width="2.0" width="156.0" x="530.0" y="84.0" /></g><g id="g_text"><text fill="#000000" font-family="Arial, sans-serif" font-size="12" id="txt_node_node_1" text-anchor="start" x="106.0" y="108.0"><tspan id="txt_node_node_1_line0" x="106.0" y="108.0">Unknown</tspan></text><text fill="#000000" font-family="Arial, sans-serif" font-size="12" id="txt_node_node_2" text-anchor="start" x="324.0" y="108.0"><tspan id="txt_node_node_2_line0" x="324.0" y="108.0">Unknown</tspan></text><text fill="#000000" font-family="Arial, sans-serif" font-size="12" id="txt_node_node_3" text-anchor="start" x="542.0" y="108.0"><tspan id="txt_node_node_3_line0" x="542.0" y="108.0">Unknown</tspan></text></g><g id="g_markers"><polygon fill="#000000" points="312.0,114.0 302.0,117.0 302.0,111.0" /><polygon fill="#000000" points="530.0,114.0 520.0,117.0 520.0,111.0" /></g></g></svg>