<?xml version="1.0" encoding="utf-8" ?>
<svg baseProfile="full" height="260" version="1.1" width="1000" xmlns="http://www.w3.org/2000/svg" xmlns:ev="http://www.w3.org/2001/xml-events" xmlns:xlink="http://www.w3.org/1999/xlink"><defs /><g id="figure_root"><g id="g_axes"><line stroke="#000000" stroke-width="2" x1="100.0" x2="900.0" y1="208.0" y2="208.0" /><line stroke="#000000" stroke-width="2" x1="100.0" x2="100.0" y1="208.0" y2="39.0" /><line stroke="#000000" stroke-width="1" x1="100.0" x2="100.0" y1="208.0" y2="214.0" /><line stroke="#000000" stroke-width="1" x1="500.0" x2="500.0" y1="208.0" y2="214.0" /><line stroke="#000000" stroke-width="1" x1="900.0" x2="900.0" y1="208.0" y2="214.0" /><line stroke="#000000" stroke-width="1" x1="94.0" x2="100.0" y1="208.0" y2="208.0" /><line stroke="#000000" stroke-width="1" x1="94.0" x2="100.0" y1="123.5" y2="123.5" /><line stroke="#000000" stroke-width="1" x1="94.0" x2="100.0" y1="39.0" y2="39.0" /></g><g id="g_curves"><polyline fill="none" id="series_series_1" points="100.0,174.2 233.35999999999999,157.3 366.64,140.39999999999998 500.0,123.5 633.36,106.60000000000001 766.64,89.7 900.0,72.79999999999998" stroke="#1f77b4" stroke-width="2.0" /><polyline class="dashed" fill="none" id="series_series_2" points="100.0,157.3 233.35999999999999,146.02769999999998 366.64,134.7723 500.0,123.5 633.36,112.2277 766.64,100.9723 900.0,89.7" stroke="#ff7f0e" stroke-dasharray="6.0,4.0" stroke-width="2.0" /><polyline fill="none" id="series_series_3" points="100.0,140.39999999999998 233.35999999999999,134.7723 366.64,129.1277 500.0,123.5 633.36,117.8723 766.64,112.2277 900.0,106.60000000000001" stroke="#2ca02c" stroke-width="2.0" /><polyline fill="none" id="series_series_4" points="100.0,123.5 233.35999999999999,123.5 366.64,123.5 500.0,123.5 633.36,123.5 766.64,123.5 900.0,123.5" stroke="#d62728" stroke-width="2.0" /></g><g id="g_annotations"><g id="legend"><line stroke="#1f77b4" stroke-width="2.0" x1="760.0" x2="784.0" y1="49.0" y2="49.0" /><line class="dashed" stroke="#ff7f0e" stroke-dasharray="6.0,4.0" stroke-width="2.0" x1="760.0" x2="784.0" y1="67.0" y2="67.0" /><line stroke="#2ca02c" stroke-width="2.0" x1="760.0" x2="784.0" y1="85.0" y2="85.0" /><line stroke="#d62728" stroke-width="2.0" x1="760.0" x2="784.0" y1="103.0" y2="103.0" /></g><rect fill="none" height="169.0" id="geom_rect_00" stroke="#555555" stroke-width="1.0" width="800.0" x="100.0" y="39.0" /></g><g id="g_text"><text fill="#000000" font-family="Arial, sans-serif" font-size="10" id="txt_tick_x_0" text-anchor="middle" x="100.0" y="226.0">0</text><text fill="#000000" font-family="Arial, sans-serif" font-size="10" id="txt_tick_x_1" text-anchor="middle" x="500.0" y="226.0">0.5</text><text fill="#000000" font-family="Arial, sans-serif" font-size="10" id="txt_tick_x_2" text-anchor="middle" x="900.0" y="226.0">1</text><text fill="#000000" font-family="Arial, sans-serif" font-size="10" id="txt_tick_y_0" text-anchor="end" x="90.0" y="211.0">0</text><text fill="#000000" font-family="Arial, sans-serif" font-size="10" id="txt_tick_y_1" text-anchor="end" x="90.0" y="126.5">0.5</text><text fill="#000000" font-family="Arial, sans-serif" font-size="10" id="txt_tick_y_2" text-anchor="end" x="90.0" y="42.0">1</text><text fill="#000000" font-family="Arial, sans-serif" font-size="10" id="txt_legend_series_1" text-anchor="start" x="790.0" y="53.0">Series 1</text><text fill="#000000" font-family="Arial, sans-serif" font-size="10" id="txt_legend_series_2" text-anchor="start" x="790.0" y="71.0">Series 2</text><text fill="#000000" font-family="Arial, sans-serif" font-size="10" id="txt_legend_series_3" text-anchor="start" x="790.0" y="89.0">Series 3</text><text fill="#000000" font-family="Arial, sans-serif" font-size="10" id="txt_legend_series_4" text-anchor="start" x="790.0" y="107.0">Series 4</text></g><g id="g_markers" /></g></svg>