<?xml version="1.0" encoding="utf-8" ?>
<svg baseProfile="full" height="300" version="1.1" width="800" xmlns="http://www.w3.org/2000/svg" xmlns:ev="http://www.w3.org/2001/xml-events" xmlns:xlink="http://www.w3.org/1999/xlink"><defs /><g id="figure_root"><g id="g_axes"><line stroke="#000000" stroke-width="2" x1="80.0" x2="720.0" y1="240.0" y2="240.0" /><line stroke="#000000" stroke-width="2" x1="80.0" x2="80.0" y1="240.0" y2="45.0" /><line stroke="#000000" stroke-width="1" x1="80.0" x2="80.0" y1="240.0" y2="246.0" /><line stroke="#000000" stroke-width="1" x1="400.0" x2="400.0" y1="240.0" y2="246.0" /><line stroke="#000000" stroke-width="1" x1="720.0" x2="720.0" y1="240.0" y2="246.0" /><line stroke="#000000" stroke-width="1" x1="74.0" x2="80.0" y1="240.0" y2="240.0" /><line stroke="#000000" stroke-width="1" x1="74.0" x2="80.0" y1="142.5" y2="142.5" /><line stroke="#000000" stroke-width="1" x1="74.0" x2="80.0" y1="45.0" y2="45.0" /></g><g id="g_curves"><polyline fill="none" id="series_series_1" points="80.0,201.0 186.688,181.5 293.312,162.0 400.0,142.5 506.688,123.0 613.312,103.5 720.0,84.0" stroke="#1f77b4" stroke-width="2.0" /><polyline class="dashed" fill="none" id="series_series_2" points="80.0,181.5 186.688,168.49349999999998 293.312,155.50650000000002 400.0,142.5 506.688,129.49349999999998 613.312,116.5065 720.0,103.5" stroke="#ff7f0e" stroke-dasharray="6.0,4.0" stroke-width="2.0" /><polyline fill="none" id="series_series_3" points="80.0,162.0 186.688,155.50650000000002 293.312,148.99349999999998 400.0,142.5 506.688,136.00650000000002 613.312,129.49349999999998 720.0,123.0" stroke="#2ca02c" stroke-width="2.0" /><polyline fill="none" id="series_series_4" points="80.0,142.5 186.688,142.5 293.312,142.5 400.0,142.5 506.688,142.5 613.312,142.5 720.0,142.5" stroke="#d62728" stroke-width="2.0" /></g><g id="g_annotations"><g id="legend"><line stroke="#1f77b4" stroke-width="2.0" x1="580.0" x2="604.0" y1="55.0" y2="55.0" /><line class="dashed" stroke="#ff7f0e" stroke-dasharray="6.0,4.0" stroke-width="2.0" x1="580.0" x2="604.0" y1="73.0" y2="73.0" /><line stroke="#2ca02c" stroke-width="2.0" x1="580.0" x2="604.0" y1="91.0" y2="91.0" /><line stroke="#d62728" stroke-width="2.0" x1="580.0" x2="604.0" y1="109.0" y2="109.0" /></g><rect fill="none" height="195.0" id="geom_rect_00" stroke="#555555" stroke-width="1.0" width="640.0" x="80.0" y="45.0" /></g><g id="g_text"><text fill="#000000" font-family="Arial, sans-serif" font-size="10" id="txt_tick_x_0" text-anchor="middle" x="80.0" y="258.0">0</text><text fill="#000000" font-family="Arial, sans-serif" font-size="10" id="txt_tick_x_1" text-anchor="middle" x="400.0" y="258.0">0.5</text><text fill="#000000" font-family="Arial, sans-serif" font-size="10" id="txt_tick_x_2" text-anchor="middle" x="720.0" y="258.0">1</text><text fill="#000000" font-family="Arial, sans-serif" font-size="10" id="txt_tick_y_0" text-anchor="end" x="70.0" y="243.0">0</text><text fill="#000000" font-family="Arial, sans-serif" font-size="10" id="txt_tick_y_1" text-anchor="end" x="70.0" y="145.5">0.5</text><text fill="#000000" font-family="Arial, sans-serif" font-size="10" id="txt_tick_y_2" text-anchor="end" x="70.0" y="48.0">1</text><text fill="#000000" font-family="Arial, sans-serif" font-size="10" id="txt_legend_series_1" text-anchor="start" x="610.0" y="59.0">Series 1</text><text fill="#000000" font-family="Arial, sans-serif" font-size="10" id="txt_legend_series_2" text-anchor="start" x="610.0" y="77.0">Series 2</text><text fill="#000000" font-family="Arial, sans-serif" font-size="10" id="txt_legend_series_3" text-anchor="start" x="610.0" y="95.0">Series 3</text><text fill="#000000" font-family="Arial, sans-serif" font-size="10" id="txt_legend_series_4" text-anchor="start" x="610.0" y="113.0">Series 4</text></g><g id="g_markers" /></g></svg>