<?xml version="1.0" encoding="utf-8" ?>
<svg baseProfile="full" height="220" version="1.1" width="640" xmlns="http://www.w3.org/2000/svg" xmlns:ev="http://www.w3.org/2001/xml-events" xmlns:xlink="http://www.w3.org/1999/xlink"><defs /><g id="figure_root"><g id="g_axes"><line stroke="#000000" stroke-width="2.0" x1="20.0" x2="200.0" y1="180.0" y2="180.0" /><line stroke="#000000" stroke-width="2.0" x1="20.0" x2="20.0" y1="180.0" y2="60.0" /><line stroke="#000000" stroke-width="2.0" x1="220.0" x2="400.0" y1="180.0" y2="180.0" /><line stroke="#000000" stroke-width="2.0" x1="220.0" x2="220.0" y1="180.0" y2="60.0" /><line stroke="#000000" stroke-width="2.0" x1="420.0" x2="600.0" y1="180.0" y2="180.0" /><line stroke="#000000" stroke-width="2.0" x1="420.0" x2="420.0" y1="180.0" y2="60.0" /></g><g id="g_curves"><path d="M 29.00 156.00 C 60.50 156.00 87.50 96.00 119.00 96.00 C 144.20 96.00 165.80 126.00 191.00 126.00" fill="none" id="curve_serving_A3" stroke="#2b6cb0" stroke-width="2" /><path d="M 29.00 108.00 C 60.50 108.00 87.50 144.00 119.00 144.00 C 144.20 144.00 165.80 84.00 191.00 84.00" fill="none" id="curve_neighbor_A3" stroke="#dd6b20" stroke-width="2" /><path d="M 229.00 156.00 C 260.50 156.00 287.50 96.00 319.00 96.00 C 344.20 96.00 365.80 126.00 391.00 126.00" fill="none" id="curve_serving_A4" stroke="#2b6cb0" stroke-width="2" /><path d="M 229.00 108.00 C 260.50 108.00 287.50 144.00 319.00 144.00 C 344.20 144.00 365.80 84.00 391.00 84.00" fill="none" id="curve_neighbor_A4" stroke="#dd6b20" stroke-width="2" /><path d="M 429.00 156.00 C 460.50 156.00 487.50 96.00 519.00 96.00 C 544.20 96.00 565.80 126.00 591.00 126.00" fill="none" id="curve_serving_A5" stroke="#2b6cb0" stroke-width="2" /><path d="M 429.00 108.00 C 460.50 108.00 487.50 144.00 519.00 144.00 C 544.20 144.00 565.80 84.00 591.00 84.00" fill="none" id="curve_neighbor_A5" stroke="#dd6b20" stroke-width="2" /></g><g id="g_annotations"><rect fill="#d0d0d0" fill-opacity="0.3" height="120.0" width="63.0" x="47.0" y="60.0" /><line stroke="#555555" stroke-width="1.0" x1="47.0" x2="47.0" y1="180.0" y2="60.0" /><line stroke="#555555" stroke-width="1.0" x1="110.0" x2="110.0" y1="180.0" y2="60.0" /><rect fill="#d0d0d0" fill-opacity="0.3" height="120.0" width="63.0" x="247.0" y="60.0" /><line stroke="#555555" stroke-width="1.0" x1="247.0" x2="247.0" y1="180.0" y2="60.0" /><line stroke="#555555" stroke-width="1.0" x1="310.0" x2="310.0" y1="180.0" y2="60.0" /><rect fill="#d0d0d0" fill-opacity="0.3" height="120.0" width="63.0" x="447.0" y="60.0" /><line stroke="#555555" stroke-width="1.0" x1="447.0" x2="447.0" y1="180.0" y2="60.0" /><line stroke="#555555" stroke-width="1.0" x1="510.0" x2="510.0" y1="180.0" y2="60.0" /></g><g id="g_text"><text fill="#000000" font-family="Arial, sans-serif" id="txt_title" text-anchor="start" x="10" y="20">Extended Handover Timing Thresholds (Compact View)</text><text dominant-baseline="alphabetic" fill="#000000" font-family="Arial, sans-serif" font-size="10" id="txt_t_start_A3" text-anchor="start" x="51.0" y="72.0">t_start</text><text dominant-baseline="alphabetic" fill="#000000" font-family="Arial, sans-serif" font-size="10" id="txt_t_trigger_A3" text-anchor="start" x="114.0" y="72.0">t_trigger</text><text dominant-baseline="alphabetic" fill="#000000" font-family="Arial, sans-serif" font-size="12" font-weight="bold" id="txt_panel_A3" text-anchor="start" x="26.0" y="76.0">A3</text><text dominant-baseline="alphabetic" fill="#2b6cb0" font-family="Arial, sans-serif" font-size="10" id="txt_serving_A3" text-anchor="start" x="29.0" y="102.0">Serving</text><text dominant-baseline="alphabetic" fill="#dd6b20" font-family="Arial, sans-serif" font-size="10" id="txt_neighbor_A3" text-anchor="start" x="29.0" y="126.0">Neighbor</text><text dominant-baseline="alphabetic" fill="#000000" font-family="Arial, sans-serif" font-size="10" id="txt_t_start_A4" text-anchor="start" x="251.0" y="72.0">t_start</text><text dominant-baseline="alphabetic" fill="#000000" font-family="Arial, sans-serif" font-size="10" id="txt_t_trigger_A4" text-anchor="start" x="314.0" y="72.0">t_trigger</text><text dominant-baseline="alphabetic" fill="#000000" font-family="Arial, sans-serif" font-size="12" font-weight="bold" id="txt_panel_A4" text-anchor="start" x="226.0" y="76.0">A4</text><text dominant-baseline="alphabetic" fill="#2b6cb0" font-family="Arial, sans-serif" font-size="10" id="txt_serving_A4" text-anchor="start" x="229.0" y="102.0">Serving</text><text dominant-baseline="alphabetic" fill="#dd6b20" font-family="Arial, sans-serif" font-size="10" id="txt_neighbor_A4" text-anchor="start" x="229.0" y="126.0">Neighbor</text><text dominant-baseline="alphabetic" fill="#000000" font-family="Arial, sans-serif" font-size="10" id="txt_t_start_A5" text-anchor="start" x="451.0" y="72.0">t_start</text><text dominant-baseline="alphabetic" fill="#000000" font-family="Arial, sans-serif" font-size="10" id="txt_t_trigger_A5" text-anchor="start" x="514.0" y="72.0">t_trigger</text><text dominant-baseline="alphabetic" fill="#000000" font-family="Arial, sans-serif" font-size="12" font-weight="bold" id="txt_panel_A5" text-anchor="start" x="426.0" y="76.0">A5</text><text dominant-baseline="alphabetic" fill="#2b6cb0" font-family="Arial, sans-serif" font-size="10" id="txt_serving_A5" text-anchor="start" x="429.0" y="102.0">Serving</text><text dominant-baseline="alphabetic" fill="#dd6b20" font-family="Arial, sans-serif" font-size="10" id="txt_neighbor_A5" text-anchor="start" x="429.0" y="126.0">Neighbor</text></g><g id="g_markers"><circle cx="47.0" cy="66.0" fill="#555555" r="3" /><circle cx="110.0" cy="66.0" fill="#555555" r="3" /><circle cx="29.0" cy="156.0" fill="#2b6cb0" r="3" /><circle cx="191.0" cy="126.0" fill="#2b6cb0" r="3" /><circle cx="29.0" cy="108.0" fill="#dd6b20" r="3" /><circle cx="191.0" cy="84.0" fill="#dd6b20" r="3" /><circle cx="247.0" cy="66.0" fill="#555555" r="3" /><circle cx="310.0" cy="66.0" fill="#555555" r="3" /><circle cx="229.0" cy="156.0" fill="#2b6cb0" r="3" /><circle cx="391.0" cy="126.0" fill="#2b6cb0" r="3" /><circle cx="229.0" cy="108.0" fill="#dd6b20" r="3" /><circle cx="391.0" cy="84.0" fill="#dd6b20" r="3" /><circle cx="447.0" cy="66.0" fill="#555555" r="3" /><circle cx="510.0" cy="66.0" fill="#555555" r="3" /><circle cx="429.0" cy="156.0" fill="#2b6cb0" r="3" /><circle cx="591.0" cy="126.0" fill="#2b6cb0" r="3" /><circle cx="429.0" cy="108.0" fill="#dd6b20" r="3" /><circle cx="591.0" cy="84.0" fill="#dd6b20" r="3" /></g></g></svg>