<?xml version="1.0" encoding="utf-8" ?>
<svg baseProfile="full" height="320" version="1.1" width="900" xmlns="http://www.w3.org/2000/svg" xmlns:ev="http://www.w3.org/2001/xml-events" xmlns:xlink="http://www.w3.org/1999/xlink"><defs /><g id="figure_root"><g id="g_axes"><line stroke="#000000" stroke-width="2.0" x1="12.0" x2="292.0" y1="260.0" y2="260.0" /><line stroke="#000000" stroke-width="2.0" x1="12.0" x2="12.0" y1="260.0" y2="90.0" /><line stroke="#000000" stroke-width="2.0" x1="315.0" x2="571.0" y1="260.0" y2="260.0" /><line stroke="#000000" stroke-width="2.0" x1="315.0" x2="315.0" y1="260.0" y2="90.0" /><line stroke="#000000" stroke-width="2.0" x1="594.0" x2="888.0" y1="260.0" y2="260.0" /><line stroke="#000000" stroke-width="2.0" x1="594.0" x2="594.0" y1="260.0" y2="90.0" /></g><g id="g_curves"><path d="M 55.99 129.15 C 60.16 126.70 72.66 120.95 80.99 114.43 C 89.33 107.90 97.66 94.07 106.00 90.00 C 114.33 85.93 122.67 90.00 131.00 90.00 C 139.33 90.00 151.84 90.00 156.00 90.00" fill="none" id="curve_serving_A3" stroke="#2b6cb0" stroke-width="2" /><path class="dashed" d="M 55.99 90.00 C 60.16 90.00 72.66 90.00 80.99 90.00 C 89.33 90.00 97.66 87.88 106.00 90.00 C 114.33 92.12 122.67 99.49 131.00 102.72 C 139.33 105.94 151.84 108.26 156.00 109.36" fill="none" id="curve_neighbor_A3" stroke="#dd6b20" stroke-dasharray="6,4" stroke-linecap="round" stroke-width="2" /><path d="M 315.00 129.15 C 315.00 126.70 315.00 120.95 315.00 114.43 C 315.00 107.90 315.00 94.07 315.00 90.00 C 315.00 85.93 315.00 90.00 315.00 90.00 C 315.00 90.00 315.00 90.00 315.00 90.00" fill="none" id="curve_serving_A4" stroke="#2b6cb0" stroke-width="2" /><path class="dashed" d="M 315.00 90.00 C 315.00 90.00 315.00 90.00 315.00 90.00 C 315.00 90.00 315.00 87.88 315.00 90.00 C 315.00 92.12 315.00 99.49 315.00 102.72 C 315.00 105.94 315.00 108.26 315.00 109.36" fill="none" id="curve_neighbor_A4" stroke="#dd6b20" stroke-dasharray="6,4" stroke-linecap="round" stroke-width="2" /><path d="M 594.00 129.15 C 594.00 126.70 594.00 120.95 594.00 114.43 C 594.00 107.90 594.00 94.07 594.00 90.00 C 594.00 85.93 594.00 90.00 594.00 90.00 C 594.00 90.00 594.00 90.00 594.00 90.00" fill="none" id="curve_serving_A5" stroke="#2b6cb0" stroke-width="2" /><path class="dashed" d="M 594.00 90.00 C 594.00 90.00 594.00 90.00 594.00 90.00 C 594.00 90.00 594.00 87.88 594.00 90.00 C 594.00 92.12 594.00 99.49 594.00 102.72 C 594.00 105.94 594.00 108.26 594.00 109.36" fill="none" id="curve_neighbor_A5" stroke="#dd6b20" stroke-dasharray="6,4" stroke-linecap="round" stroke-width="2" /></g><g id="g_annotations"><rect fill="#f2e6b8" fill-opacity="0.35" height="170.0" width="87.08" x="33.56" y="90.0" /><line stroke="#555555" stroke-width="1.0" x1="33.56" x2="33.56" y1="260.0" y2="90.0" /><line stroke="#555555" stroke-width="1.0" x1="120.64" x2="120.64" y1="260.0" y2="90.0" /><rect fill="#f2e6b8" fill-opacity="0.35" height="170.0" width="79.61599999999999" x="334.712" y="90.0" /><line stroke="#555555" stroke-width="1.0" x1="334.712" x2="334.712" y1="260.0" y2="90.0" /><line stroke="#555555" stroke-width="1.0" x1="414.328" x2="414.328" y1="260.0" y2="90.0" /><rect fill="#d0d0d0" fill-opacity="0.35" height="170.0" width="91.43399999999997" x="616.638" y="90.0" /><line stroke="#555555" stroke-width="1.0" x1="616.638" x2="616.638" y1="260.0" y2="90.0" /><line stroke="#555555" stroke-width="1.0" x1="708.072" x2="708.072" y1="260.0" y2="90.0" /><line id="geom_line_00" stroke="#000000" stroke-width="2.0" x1="59.0" x2="279.0" y1="259.0" y2="259.0" /><line id="geom_line_01" stroke="#000000" stroke-width="2.0" x1="339.0" x2="559.0" y1="259.0" y2="259.0" /><line id="geom_line_02" stroke="#000000" stroke-width="2.0" x1="619.0" x2="839.0" y1="259.0" y2="259.0" /><line id="geom_line_03" stroke="#000000" stroke-width="1.0" x1="348.0" x2="348.0" y1="8.0" y2="261.0" /><line id="geom_line_04" stroke="#000000" stroke-width="1.0" x1="349.0" x2="349.0" y1="8.0" y2="261.0" /><line id="geom_line_05" stroke="#000000" stroke-width="1.0" x1="69.0" x2="69.0" y1="11.0" y2="261.0" /><line id="geom_line_06" stroke="#000000" stroke-width="1.0" x1="70.0" x2="70.0" y1="14.0" y2="261.0" /></g><g id="g_text"><text dominant-baseline="alphabetic" fill="#000000" font-family="Arial, sans-serif" font-size="10" id="txt_t_start_A3" text-anchor="start" x="37.56" y="102.0">t_start</text><text dominant-baseline="alphabetic" fill="#000000" font-family="Arial, sans-serif" font-size="10" id="txt_t_trigger_A3" text-anchor="start" x="124.64" y="102.0">t_trigger</text><text dominant-baseline="alphabetic" fill="#000000" font-family="Arial, sans-serif" font-size="12" font-weight="bold" id="txt_panel_A3" text-anchor="start" x="18.0" y="106.0">A3</text><text dominant-baseline="alphabetic" fill="#2b6cb0" font-family="Arial, sans-serif" font-size="10" id="txt_serving_A3" text-anchor="start" x="26.0" y="149.5">Serving</text><text dominant-baseline="alphabetic" fill="#dd6b20" font-family="Arial, sans-serif" font-size="10" id="txt_neighbor_A3" text-anchor="start" x="26.0" y="183.5">Neighbor</text><text dominant-baseline="alphabetic" fill="#000000" font-family="Arial, sans-serif" font-size="10" id="txt_t_start_A4" text-anchor="start" x="338.712" y="102.0">t_start</text><text dominant-baseline="alphabetic" fill="#000000" font-family="Arial, sans-serif" font-size="10" id="txt_t_trigger_A4" text-anchor="start" x="418.328" y="102.0">t_trigger</text><text dominant-baseline="alphabetic" fill="#000000" font-family="Arial, sans-serif" font-size="12" font-weight="bold" id="txt_panel_A4" text-anchor="start" x="321.0" y="106.0">A4</text><text dominant-baseline="alphabetic" fill="#2b6cb0" font-family="Arial, sans-serif" font-size="10" id="txt_serving_A4" text-anchor="start" x="327.8" y="149.5">Serving</text><text dominant-baseline="alphabetic" fill="#dd6b20" font-family="Arial, sans-serif" font-size="10" id="txt_neighbor_A4" text-anchor="start" x="327.8" y="183.5">Neighbor</text><text dominant-baseline="alphabetic" fill="#000000" font-family="Arial, sans-serif" font-size="10" id="txt_t_start_A5" text-anchor="start" x="620.638" y="102.0">t_start</text><text dominant-baseline="alphabetic" fill="#000000" font-family="Arial, sans-serif" font-size="10" id="txt_t_trigger_A5" text-anchor="start" x="712.072" y="102.0">t_trigger</text><text dominant-baseline="alphabetic" fill="#000000" font-family="Arial, sans-serif" font-size="12" font-weight="bold" id="txt_panel_A5" text-anchor="start" x="600.0" y="106.0">A5</text><text dominant-baseline="alphabetic" fill="#2b6cb0" font-family="Arial, sans-serif" font-size="10" id="txt_serving_A5" text-anchor="start" x="608.7" y="149.5">Serving</text><text dominant-baseline="alphabetic" fill="#dd6b20" font-family="Arial, sans-serif" font-size="10" id="txt_neighbor_A5" text-anchor="start" x="608.7" y="183.5">Neighbor</text></g><g id="g_markers"><circle cx="33.56" cy="96.0" fill="#555555" r="3" /><circle cx="120.64" cy="96.0" fill="#555555" r="3" /><circle cx="55.988" cy="129.15099999999998" fill="#2b6cb0" r="3" /><circle cx="156.004" cy="90.0" fill="#2b6cb0" r="3" /><circle cx="55.988" cy="90.0" fill="#dd6b20" r="3" /><circle cx="156.004" cy="109.363" fill="#dd6b20" r="3" /><circle cx="334.712" cy="96.0" fill="#555555" r="3" /><circle cx="414.328" cy="96.0" fill="#555555" r="3" /><circle cx="315.0" cy="129.15099999999998" fill="#2b6cb0" r="3" /><circle cx="315.0" cy="90.0" fill="#2b6cb0" r="3" /><circle cx="315.0" cy="90.0" fill="#dd6b20" r="3" /><circle cx="315.0" cy="109.363" fill="#dd6b20" r="3" /><circle cx="616.638" cy="96.0" fill="#555555" r="3" /><circle cx="708.072" cy="96.0" fill="#555555" r="3" /><circle cx="594.0" cy="129.15099999999998" fill="#2b6cb0" r="3" /><circle cx="594.0" cy="90.0" fill="#2b6cb0" r="3" /><circle cx="594.0" cy="90.0" fill="#dd6b20" r="3" /><circle cx="594.0" cy="109.363" fill="#dd6b20" r="3" /></g></g></svg>