<?xml version="1.0" encoding="utf-8" ?>
<svg baseProfile="full" height="240" version="1.1" width="780" xmlns="http://www.w3.org/2000/svg" xmlns:ev="http://www.w3.org/2001/xml-events" xmlns:xlink="http://www.w3.org/1999/xlink"><defs /><g id="figure_root"><g id="g_axes"><line stroke="#000000" stroke-width="2.0" x1="10.0" x2="239.0" y1="190.0" y2="190.0" /><line stroke="#000000" stroke-width="2.0" x1="10.0" x2="10.0" y1="190.0" y2="50.0" /><line stroke="#000000" stroke-width="2.0" x1="259.0" x2="499.0" y1="190.0" y2="190.0" /><line stroke="#000000" stroke-width="2.0" x1="259.0" x2="259.0" y1="190.0" y2="50.0" /><line stroke="#000000" stroke-width="2.0" x1="519.0" x2="770.0" y1="190.0" y2="190.0" /><line stroke="#000000" stroke-width="2.0" x1="519.0" x2="519.0" y1="190.0" y2="50.0" /></g><g id="g_curves"><path d="M 26.99 112.22 C 30.83 111.49 42.34 113.45 50.01 107.86 C 57.67 102.28 65.33 88.36 73.00 78.71 C 80.66 69.07 88.32 54.79 95.99 50.00 C 103.66 45.21 115.17 50.00 119.00 50.00" fill="none" id="curve_serving_A3" stroke="#2b6cb0" stroke-width="2" /><path class="dashed" d="M 26.99 62.50 C 30.83 63.56 42.34 65.92 50.01 68.86 C 57.67 71.80 65.33 75.44 73.00 80.14 C 80.66 84.84 88.32 93.09 95.99 97.07 C 103.66 101.04 115.17 102.84 119.00 104.00" fill="none" id="curve_neighbor_A3" stroke="#dd6b20" stroke-dasharray="6,4" stroke-linecap="round" stroke-width="2" /><path d="M 259.00 112.22 C 259.00 111.49 259.00 113.45 259.00 107.86 C 259.00 102.28 259.00 88.36 259.00 78.71 C 259.00 69.07 259.00 54.79 259.00 50.00 C 259.00 45.21 259.00 50.00 259.00 50.00" fill="none" id="curve_serving_A4" stroke="#2b6cb0" stroke-width="2" /><path class="dashed" d="M 259.00 62.50 C 259.00 63.56 259.00 65.92 259.00 68.86 C 259.00 71.80 259.00 75.44 259.00 80.14 C 259.00 84.84 259.00 93.09 259.00 97.07 C 259.00 101.04 259.00 102.84 259.00 104.00" fill="none" id="curve_neighbor_A4" stroke="#dd6b20" stroke-dasharray="6,4" stroke-linecap="round" stroke-width="2" /><path d="M 519.00 112.22 C 519.00 111.49 519.00 113.45 519.00 107.86 C 519.00 102.28 519.00 88.36 519.00 78.71 C 519.00 69.07 519.00 54.79 519.00 50.00 C 519.00 45.21 519.00 50.00 519.00 50.00" fill="none" id="curve_serving_A5" stroke="#2b6cb0" stroke-width="2" /><path class="dashed" d="M 519.00 62.50 C 519.00 63.56 519.00 65.92 519.00 68.86 C 519.00 71.80 519.00 75.44 519.00 80.14 C 519.00 84.84 519.00 93.09 519.00 97.07 C 519.00 101.04 519.00 102.84 519.00 104.00" fill="none" id="curve_neighbor_A5" stroke="#dd6b20" stroke-dasharray="6,4" stroke-linecap="round" stroke-width="2" /></g><g id="g_annotations"><rect fill="#f2e6b8" fill-opacity="0.35" height="140.0" width="0.22899999999999565" x="21.450000000000003" y="50.0" /><line stroke="#555555" stroke-width="1.0" x1="21.450000000000003" x2="21.450000000000003" y1="190.0" y2="50.0" /><line stroke="#555555" stroke-width="1.0" x1="21.679" x2="21.679" y1="190.0" y2="50.0" /><rect fill="#d0d0d0" fill-opacity="0.35" height="140.0" width="0.2400000000000091" x="271.0" y="50.0" /><line stroke="#555555" stroke-width="1.0" x1="271.0" x2="271.0" y1="190.0" y2="50.0" /><line stroke="#555555" stroke-width="1.0" x1="271.24" x2="271.24" y1="190.0" y2="50.0" /><rect fill="#d0d0d0" fill-opacity="0.35" height="140.0" width="0.25100000000009004" x="531.55" y="50.0" /><line stroke="#555555" stroke-width="1.0" x1="531.55" x2="531.55" y1="190.0" y2="50.0" /><line stroke="#555555" stroke-width="1.0" x1="531.801" x2="531.801" y1="190.0" y2="50.0" /><line id="geom_line_00" stroke="#000000" stroke-width="2.0" x1="29.0" x2="229.0" y1="189.0" y2="189.0" /><line id="geom_line_01" stroke="#000000" stroke-width="2.0" x1="289.0" x2="489.0" y1="189.0" y2="189.0" /><line id="geom_line_02" stroke="#000000" stroke-width="2.0" x1="549.0" x2="749.0" y1="189.0" y2="189.0" /><line id="geom_line_03" stroke="#000000" stroke-width="2.0" x1="29.0" x2="29.0" y1="50.0" y2="189.0" /><line id="geom_line_04" stroke="#000000" stroke-width="2.0" x1="124.0" x2="124.0" y1="50.0" y2="189.0" /><line id="geom_line_05" stroke="#000000" stroke-width="2.0" x1="289.0" x2="289.0" y1="50.0" y2="189.0" /><line id="geom_line_06" stroke="#000000" stroke-width="2.0" x1="384.0" x2="384.0" y1="50.0" y2="189.0" /><line id="geom_line_07" stroke="#000000" stroke-width="2.0" x1="549.0" x2="549.0" y1="50.0" y2="189.0" /><line id="geom_line_08" stroke="#000000" stroke-width="2.0" x1="644.0" x2="644.0" y1="50.0" y2="189.0" /><line id="geom_line_09" stroke="#555555" stroke-width="1.0" x1="39.0" x2="39.0" y1="11.0" y2="191.0" /><line id="geom_line_10" stroke="#555555" stroke-width="1.0" x1="40.0" x2="40.0" y1="12.0" y2="191.0" /></g><g id="g_text"><text dominant-baseline="alphabetic" fill="#000000" font-family="Arial, sans-serif" font-size="10" id="txt_t_start_A3" text-anchor="start" x="25.450000000000003" y="62.0">t_start</text><text dominant-baseline="alphabetic" fill="#000000" font-family="Arial, sans-serif" font-size="10" id="txt_t_trigger_A3" text-anchor="start" x="25.679" y="62.0">t_trigger</text><text dominant-baseline="alphabetic" fill="#000000" font-family="Arial, sans-serif" font-size="12" font-weight="bold" id="txt_panel_A3" text-anchor="start" x="16.0" y="66.0">A3</text><text dominant-baseline="alphabetic" fill="#2b6cb0" font-family="Arial, sans-serif" font-size="10" id="txt_serving_A3" text-anchor="start" x="21.450000000000003" y="99.0">Serving</text><text dominant-baseline="alphabetic" fill="#dd6b20" font-family="Arial, sans-serif" font-size="10" id="txt_neighbor_A3" text-anchor="start" x="21.450000000000003" y="127.0">Neighbor</text><text dominant-baseline="alphabetic" fill="#000000" font-family="Arial, sans-serif" font-size="10" id="txt_t_start_A4" text-anchor="start" x="275.0" y="62.0">t_start</text><text dominant-baseline="alphabetic" fill="#000000" font-family="Arial, sans-serif" font-size="10" id="txt_t_trigger_A4" text-anchor="start" x="275.24" y="62.0">t_trigger</text><text dominant-baseline="alphabetic" fill="#000000" font-family="Arial, sans-serif" font-size="12" font-weight="bold" id="txt_panel_A4" text-anchor="start" x="265.0" y="66.0">A4</text><text dominant-baseline="alphabetic" fill="#2b6cb0" font-family="Arial, sans-serif" font-size="10" id="txt_serving_A4" text-anchor="start" x="271.0" y="99.0">Serving</text><text dominant-baseline="alphabetic" fill="#dd6b20" font-family="Arial, sans-serif" font-size="10" id="txt_neighbor_A4" text-anchor="start" x="271.0" y="127.0">Neighbor</text><text dominant-baseline="alphabetic" fill="#000000" font-family="Arial, sans-serif" font-size="10" id="txt_t_start_A5" text-anchor="start" x="535.55" y="62.0">t_start</text><text dominant-baseline="alphabetic" fill="#000000" font-family="Arial, sans-serif" font-size="10" id="txt_t_trigger_A5" text-anchor="start" x="535.801" y="62.0">t_trigger</text><text dominant-baseline="alphabetic" fill="#000000" font-family="Arial, sans-serif" font-size="12" font-weight="bold" id="txt_panel_A5" text-anchor="start" x="525.0" y="66.0">A5</text><text dominant-baseline="alphabetic" fill="#2b6cb0" font-family="Arial, sans-serif" font-size="10" id="txt_serving_A5" text-anchor="start" x="531.55" y="99.0">Serving</text><text dominant-baseline="alphabetic" fill="#dd6b20" font-family="Arial, sans-serif" font-size="10" id="txt_neighbor_A5" text-anchor="start" x="531.55" y="127.0">Neighbor</text></g><g id="g_markers"><circle cx="21.450000000000003" cy="56.0" fill="#555555" r="3" /><circle cx="21.679" cy="56.0" fill="#555555" r="3" /><circle cx="26.9918" cy="112.21600000000001" fill="#2b6cb0" r="3" /><circle cx="119.00399999999999" cy="50.0" fill="#2b6cb0" r="3" /><circle cx="26.9918" cy="62.50200000000001" fill="#dd6b20" r="3" /><circle cx="119.00399999999999" cy="103.998" fill="#dd6b20" r="3" /><circle cx="271.0" cy="56.0" fill="#555555" r="3" /><circle cx="271.24" cy="56.0" fill="#555555" r="3" /><circle cx="259.0" cy="112.21600000000001" fill="#2b6cb0" r="3" /><circle cx="259.0" cy="50.0" fill="#2b6cb0" r="3" /><circle cx="259.0" cy="62.50200000000001" fill="#dd6b20" r="3" /><circle cx="259.0" cy="103.998" fill="#dd6b20" r="3" /><circle cx="531.55" cy="56.0" fill="#555555" r="3" /><circle cx="531.801" cy="56.0" fill="#555555" r="3" /><circle cx="519.0" cy="112.21600000000001" fill="#2b6cb0" r="3" /><circle cx="519.0" cy="50.0" fill="#2b6cb0" r="3" /><circle cx="519.0" cy="62.50200000000001" fill="#dd6b20" r="3" /><circle cx="519.0" cy="103.998" fill="#dd6b20" r="3" /></g></g></svg>