<?xml version="1.0" encoding="utf-8" ?>
<svg baseProfile="full" height="320" version="1.1" width="960" xmlns="http://www.w3.org/2000/svg" xmlns:ev="http://www.w3.org/2001/xml-events" xmlns:xlink="http://www.w3.org/1999/xlink"><defs /><g id="figure_root"><g id="g_axes"><line stroke="#000000" stroke-width="2" x1="10.0" x2="256.0" y1="280.0" y2="280.0" /><line stroke="#000000" stroke-width="2" x1="10.0" x2="10.0" y1="280.0" y2="86.0" /><line stroke="#000000" stroke-width="2" x1="277.0" x2="545.0" y1="280.0" y2="280.0" /><line stroke="#000000" stroke-width="2" x1="277.0" x2="277.0" y1="280.0" y2="86.0" /><line stroke="#000000" stroke-width="2" x1="572.0" x2="944.0" y1="280.0" y2="280.0" /><line stroke="#000000" stroke-width="2" x1="572.0" x2="572.0" y1="280.0" y2="86.0" /></g><g id="g_curves"><path d="M 60.01 240.64 C 77.01 222.23 132.84 143.51 162.00 130.21 C 191.17 116.92 220.16 158.95 234.99 160.86 C 249.83 162.78 247.67 140.89 251.01 141.72 C 254.34 142.55 254.33 161.83 254.99 165.85" fill="none" id="curve_serving_A3" stroke="#2b6cb0" stroke-width="2" /><path class="dashed" d="M 60.01 169.50 C 60.18 169.81 60.66 171.05 61.00 171.36 C 61.33 171.67 61.67 171.36 62.00 171.36 C 62.34 171.36 62.66 171.36 62.99 171.36 C 63.32 171.36 63.83 171.36 64.00 171.36" fill="none" id="curve_neighbor_A3" stroke="#dd6b20" stroke-dasharray="6,4" stroke-linecap="round" stroke-width="2" /><path d="M 277.00 179.00 C 289.00 190.49 320.51 255.80 349.01 247.93 C 377.51 240.06 418.68 146.30 448.01 131.78 C 477.34 117.27 509.01 160.03 525.01 160.86 C 541.01 161.70 540.84 140.80 544.01 136.79" fill="none" id="curve_serving_A4" stroke="#2b6cb0" stroke-width="2" /><path class="dashed" d="M 277.00 110.00 C 289.33 120.16 322.99 154.58 350.99 170.95 C 379.00 187.32 423.51 203.22 445.01 208.22 C 466.51 213.22 463.51 215.14 480.01 200.93 C 496.51 186.71 533.34 135.94 544.01 122.94" fill="none" id="curve_neighbor_A4" stroke="#dd6b20" stroke-dasharray="6,4" stroke-linecap="round" stroke-width="2" /><path d="M 572.00 179.51 C 572.17 179.51 572.67 179.51 573.00 179.51 C 573.34 179.51 573.67 179.51 574.01 179.51 C 574.34 179.51 574.68 179.51 575.01 179.51 C 575.35 179.51 575.85 179.51 576.02 179.51" fill="none" id="curve_serving_A5" stroke="#2b6cb0" stroke-width="2" /><path class="dashed" d="M 572.00 109.49 C 572.17 109.49 572.67 109.49 573.00 109.49 C 573.34 109.49 573.67 109.49 574.01 109.49 C 574.34 109.49 574.68 109.49 575.01 109.49 C 575.35 109.49 575.85 109.49 576.02 109.49" fill="none" id="curve_neighbor_A5" stroke="#dd6b20" stroke-dasharray="6,4" stroke-linecap="round" stroke-width="2" /></g><g id="g_annotations"><rect fill="#d0d0d0" fill-opacity="0.3" height="194.0" width="98.39999999999999" x="59.2" y="86.0" /><line stroke="#555555" stroke-width="1" x1="59.2" x2="59.2" y1="280.0" y2="86.0" /><line stroke="#555555" stroke-width="1" x1="157.6" x2="157.6" y1="280.0" y2="86.0" /><rect fill="#d0d0d0" fill-opacity="0.3" height="194.0" width="107.19999999999993" x="330.6" y="86.0" /><line stroke="#555555" stroke-width="1" x1="330.6" x2="330.6" y1="280.0" y2="86.0" /><line stroke="#555555" stroke-width="1" x1="437.79999999999995" x2="437.79999999999995" y1="280.0" y2="86.0" /><rect fill="#d0d0d0" fill-opacity="0.3" height="194.0" width="148.80000000000007" x="646.4" y="86.0" /><line stroke="#555555" stroke-width="1" x1="646.4" x2="646.4" y1="280.0" y2="86.0" /><line stroke="#555555" stroke-width="1" x1="795.2" x2="795.2" y1="280.0" y2="86.0" /><line class="dashed" id="geom_line_00" stroke="#555555" stroke-dasharray="6,4" stroke-width="1.0" x1="80.0" x2="807.0" y1="208.0" y2="208.0" /><line class="dashed" id="geom_line_01" stroke="#555555" stroke-dasharray="6,4" stroke-width="1.0" x1="66.0" x2="821.0" y1="279.0" y2="279.0" /><rect fill="none" height="194.0" id="geom_rect_00" stroke="#555555" stroke-width="1.0" width="246.0" x="10.0" y="86.0" /><rect fill="none" height="194.0" id="geom_rect_01" stroke="#555555" stroke-width="1.0" width="268.0" x="277.0" y="86.0" /><rect fill="none" height="194.0" id="geom_rect_02" stroke="#555555" stroke-width="1.0" width="372.0" x="572.0" y="86.0" /></g><g id="g_text"><text fill="#333333" font-family="Arial, sans-serif" font-size="10" id="txt_t_start_A3" text-anchor="start" x="63.2" y="98.0">t_start</text><text fill="#333333" font-family="Arial, sans-serif" font-size="10" id="txt_t_trigger_A3" text-anchor="start" x="161.6" y="98.0">t_trigger</text><text fill="#000000" font-family="Arial, sans-serif" font-size="12" id="txt_panel_A3" text-anchor="start" x="16.0" y="102.0">A3</text><text fill="#2b6cb0" font-family="Arial, sans-serif" font-size="10" id="txt_serving_A3" text-anchor="start" x="22.3" y="153.89999999999998">Serving</text><text fill="#dd6b20" font-family="Arial, sans-serif" font-size="10" id="txt_neighbor_A3" text-anchor="start" x="22.3" y="192.7">Neighbor</text><text fill="#333333" font-family="Arial, sans-serif" font-size="10" id="txt_t_start_A4" text-anchor="start" x="334.6" y="98.0">t_start</text><text fill="#333333" font-family="Arial, sans-serif" font-size="10" id="txt_t_trigger_A4" text-anchor="start" x="441.79999999999995" y="98.0">t_trigger</text><text fill="#000000" font-family="Arial, sans-serif" font-size="12" id="txt_panel_A4" text-anchor="start" x="283.0" y="102.0">A4</text><text fill="#2b6cb0" font-family="Arial, sans-serif" font-size="10" id="txt_serving_A4" text-anchor="start" x="290.4" y="153.89999999999998">Serving</text><text fill="#dd6b20" font-family="Arial, sans-serif" font-size="10" id="txt_neighbor_A4" text-anchor="start" x="290.4" y="192.7">Neighbor</text><text fill="#333333" font-family="Arial, sans-serif" font-size="10" id="txt_t_start_A5" text-anchor="start" x="650.4" y="98.0">t_start</text><text fill="#333333" font-family="Arial, sans-serif" font-size="10" id="txt_t_trigger_A5" text-anchor="start" x="799.2" y="98.0">t_trigger</text><text fill="#000000" font-family="Arial, sans-serif" font-size="12" id="txt_panel_A5" text-anchor="start" x="578.0" y="102.0">A5</text><text fill="#2b6cb0" font-family="Arial, sans-serif" font-size="10" id="txt_serving_A5" text-anchor="start" x="590.6" y="153.89999999999998">Serving</text><text fill="#dd6b20" font-family="Arial, sans-serif" font-size="10" id="txt_neighbor_A5" text-anchor="start" x="590.6" y="192.7">Neighbor</text><text dominant-baseline="alphabetic" fill="#000000" font-family="Arial, sans-serif" font-size="8.88888888888889" font-weight="normal" id="txt_text_00" text-anchor="middle" x="65.0" y="285.0">oe | oe | oe |</text></g><g id="g_markers"><circle cx="59.2" cy="92.0" fill="#555555" r="3" /><circle cx="157.6" cy="92.0" fill="#555555" r="3" /><circle cx="60.0118" cy="240.6374" fill="#2b6cb0" r="3" /><circle cx="254.9914" cy="165.85039999999998" fill="#2b6cb0" r="3" /><circle cx="60.0118" cy="169.4976" fill="#dd6b20" r="3" /><circle cx="63.997" cy="171.35999999999999" fill="#dd6b20" r="3" /><circle cx="330.6" cy="92.0" fill="#555555" r="3" /><circle cx="437.79999999999995" cy="92.0" fill="#555555" r="3" /><circle cx="277.0" cy="179.0036" fill="#2b6cb0" r="3" /><circle cx="544.0083999999999" cy="136.7892" fill="#2b6cb0" r="3" /><circle cx="277.0" cy="109.99780000000001" fill="#dd6b20" r="3" /><circle cx="544.0083999999999" cy="122.9376" fill="#dd6b20" r="3" /><circle cx="646.4" cy="92.0" fill="#555555" r="3" /><circle cx="795.2" cy="92.0" fill="#555555" r="3" /><circle cx="572.0" cy="179.50799999999998" fill="#2b6cb0" r="3" /><circle cx="576.0176" cy="179.50799999999998" fill="#2b6cb0" r="3" /><circle cx="572.0" cy="109.4934" fill="#dd6b20" r="3" /><circle cx="576.0176" cy="109.4934" fill="#dd6b20" r="3" /></g></g></svg>