<?xml version="1.0" encoding="utf-8" ?>
<svg baseProfile="full" height="320" version="1.1" width="960" xmlns="http://www.w3.org/2000/svg" xmlns:ev="http://www.w3.org/2001/xml-events" xmlns:xlink="http://www.w3.org/1999/xlink"><defs /><g id="figure_root"><g id="g_axes"><line stroke="#000000" stroke-width="2.0" x1="12.0" x2="299.0" y1="280.0" y2="280.0" /><line stroke="#000000" stroke-width="2.0" x1="12.0" x2="12.0" y1="280.0" y2="80.0" /><line stroke="#000000" stroke-width="2.0" x1="322.0" x2="594.0" y1="280.0" y2="280.0" /><line stroke="#000000" stroke-width="2.0" x1="322.0" x2="322.0" y1="280.0" y2="80.0" /><line stroke="#000000" stroke-width="2.0" x1="619.0" x2="946.0" y1="280.0" y2="280.0" /><line stroke="#000000" stroke-width="2.0" x1="619.0" x2="619.0" y1="280.0" y2="80.0" /></g><g id="g_curves"><path d="M 47.99 160.64 C 52.66 155.14 66.66 136.62 76.00 127.64 C 85.34 118.66 94.68 114.72 104.01 106.78 C 113.34 98.84 122.66 84.46 131.99 80.00 C 141.33 75.54 155.34 80.00 160.01 80.00" fill="none" id="curve_serving_A3" stroke="#2b6cb0" stroke-width="2" /><path class="dashed" d="M 47.99 89.50 C 52.66 90.68 66.66 93.29 76.00 96.58 C 85.34 99.87 94.68 104.51 104.01 109.22 C 113.34 113.93 122.66 121.69 131.99 124.86 C 141.33 128.03 155.34 127.66 160.01 128.22" fill="none" id="curve_neighbor_A3" stroke="#dd6b20" stroke-dasharray="6,4" stroke-linecap="round" stroke-width="2" /><path d="M 322.00 160.64 C 322.00 155.14 322.00 136.62 322.00 127.64 C 322.00 118.66 322.00 114.72 322.00 106.78 C 322.00 98.84 322.00 84.46 322.00 80.00 C 322.00 75.54 322.00 80.00 322.00 80.00" fill="none" id="curve_serving_A4" stroke="#2b6cb0" stroke-width="2" /><path class="dashed" d="M 322.00 89.50 C 322.00 90.68 322.00 93.29 322.00 96.58 C 322.00 99.87 322.00 104.51 322.00 109.22 C 322.00 113.93 322.00 121.69 322.00 124.86 C 322.00 128.03 322.00 127.66 322.00 128.22" fill="none" id="curve_neighbor_A4" stroke="#dd6b20" stroke-dasharray="6,4" stroke-linecap="round" stroke-width="2" /><path d="M 619.00 160.64 C 619.00 155.14 619.00 136.62 619.00 127.64 C 619.00 118.66 619.00 114.72 619.00 106.78 C 619.00 98.84 619.00 84.46 619.00 80.00 C 619.00 75.54 619.00 80.00 619.00 80.00" fill="none" id="curve_serving_A5" stroke="#2b6cb0" stroke-width="2" /><path class="dashed" d="M 619.00 89.50 C 619.00 90.68 619.00 93.29 619.00 96.58 C 619.00 99.87 619.00 104.51 619.00 109.22 C 619.00 113.93 619.00 121.69 619.00 124.86 C 619.00 128.03 619.00 127.66 619.00 128.22" fill="none" id="curve_neighbor_A5" stroke="#dd6b20" stroke-dasharray="6,4" stroke-linecap="round" stroke-width="2" /></g><g id="g_annotations"><rect fill="#f2e6b8" fill-opacity="0.35" height="200.0" width="175.357" x="29.794" y="80.0" /><line stroke="#555555" stroke-width="1.0" x1="29.794" x2="29.794" y1="280.0" y2="80.0" /><line stroke="#555555" stroke-width="1.0" x1="205.151" x2="205.151" y1="280.0" y2="80.0" /><rect fill="#f2e6b8" fill-opacity="0.35" height="200.0" width="166.19200000000006" x="338.864" y="80.0" /><line stroke="#555555" stroke-width="1.0" x1="338.864" x2="338.864" y1="280.0" y2="80.0" /><line stroke="#555555" stroke-width="1.0" x1="505.05600000000004" x2="505.05600000000004" y1="280.0" y2="80.0" /><rect fill="#f2e6b8" fill-opacity="0.35" height="200.0" width="199.79700000000003" x="639.274" y="80.0" /><line stroke="#555555" stroke-width="1.0" x1="639.274" x2="639.274" y1="280.0" y2="80.0" /><line stroke="#555555" stroke-width="1.0" x1="839.071" x2="839.071" y1="280.0" y2="80.0" /><line id="geom_line_00" stroke="#000000" stroke-width="2.0" x1="49.0" x2="298.0" y1="279.0" y2="279.0" /><line id="geom_line_01" stroke="#000000" stroke-width="2.0" x1="339.0" x2="593.0" y1="279.0" y2="279.0" /><line id="geom_line_02" stroke="#000000" stroke-width="2.0" x1="629.0" x2="889.0" y1="279.0" y2="279.0" /><line id="geom_line_03" stroke="#000000" stroke-width="2.0" x1="49.0" x2="49.0" y1="80.0" y2="279.0" /><line id="geom_line_04" stroke="#000000" stroke-width="2.0" x1="153.0" x2="153.0" y1="80.0" y2="279.0" /><line id="geom_line_05" stroke="#000000" stroke-width="2.0" x1="339.0" x2="339.0" y1="80.0" y2="279.0" /><line id="geom_line_06" stroke="#000000" stroke-width="2.0" x1="443.0" x2="443.0" y1="80.0" y2="279.0" /><line id="geom_line_07" stroke="#000000" stroke-width="2.0" x1="629.0" x2="629.0" y1="80.0" y2="279.0" /><line id="geom_line_08" stroke="#000000" stroke-width="2.0" x1="733.0" x2="733.0" y1="80.0" y2="279.0" /><line id="geom_line_09" stroke="#000000" stroke-width="1.0" x1="60.0" x2="60.0" y1="8.0" y2="281.0" /><line id="geom_line_10" stroke="#000000" stroke-width="1.0" x1="61.0" x2="61.0" y1="8.0" y2="281.0" /><line id="geom_line_11" stroke="#000000" stroke-width="1.0" x1="350.0" x2="350.0" y1="11.0" y2="281.0" /><line id="geom_line_12" stroke="#000000" stroke-width="1.0" x1="353.0" x2="353.0" y1="11.0" y2="281.0" /><line id="geom_line_13" stroke="#000000" stroke-width="1.0" x1="645.0" x2="645.0" y1="87.0" y2="281.0" /><line id="geom_line_14" stroke="#000000" stroke-width="1.0" x1="646.0" x2="646.0" y1="87.0" y2="281.0" /></g><g id="g_text"><text dominant-baseline="alphabetic" fill="#000000" font-family="Arial, sans-serif" font-size="10" id="txt_t_start_A3" text-anchor="start" x="33.794" y="92.0">t_start</text><text dominant-baseline="alphabetic" fill="#000000" font-family="Arial, sans-serif" font-size="10" id="txt_t_trigger_A3" text-anchor="start" x="209.151" y="92.0">t_trigger</text><text dominant-baseline="alphabetic" fill="#000000" font-family="Arial, sans-serif" font-size="12" font-weight="bold" id="txt_panel_A3" text-anchor="start" x="18.0" y="96.0">A3</text><text dominant-baseline="alphabetic" fill="#2b6cb0" font-family="Arial, sans-serif" font-size="10" id="txt_serving_A3" text-anchor="start" x="26.35" y="150.0">Serving</text><text dominant-baseline="alphabetic" fill="#dd6b20" font-family="Arial, sans-serif" font-size="10" id="txt_neighbor_A3" text-anchor="start" x="26.35" y="190.0">Neighbor</text><text dominant-baseline="alphabetic" fill="#000000" font-family="Arial, sans-serif" font-size="10" id="txt_t_start_A4" text-anchor="start" x="342.864" y="92.0">t_start</text><text dominant-baseline="alphabetic" fill="#000000" font-family="Arial, sans-serif" font-size="10" id="txt_t_trigger_A4" text-anchor="start" x="509.05600000000004" y="92.0">t_trigger</text><text dominant-baseline="alphabetic" fill="#000000" font-family="Arial, sans-serif" font-size="12" font-weight="bold" id="txt_panel_A4" text-anchor="start" x="328.0" y="96.0">A4</text><text dominant-baseline="alphabetic" fill="#2b6cb0" font-family="Arial, sans-serif" font-size="10" id="txt_serving_A4" text-anchor="start" x="335.6" y="150.0">Serving</text><text dominant-baseline="alphabetic" fill="#dd6b20" font-family="Arial, sans-serif" font-size="10" id="txt_neighbor_A4" text-anchor="start" x="335.6" y="190.0">Neighbor</text><text dominant-baseline="alphabetic" fill="#000000" font-family="Arial, sans-serif" font-size="10" id="txt_t_start_A5" text-anchor="start" x="643.274" y="92.0">t_start</text><text dominant-baseline="alphabetic" fill="#000000" font-family="Arial, sans-serif" font-size="10" id="txt_t_trigger_A5" text-anchor="start" x="843.071" y="92.0">t_trigger</text><text dominant-baseline="alphabetic" fill="#000000" font-family="Arial, sans-serif" font-size="12" font-weight="bold" id="txt_panel_A5" text-anchor="start" x="625.0" y="96.0">A5</text><text dominant-baseline="alphabetic" fill="#2b6cb0" font-family="Arial, sans-serif" font-size="10" id="txt_serving_A5" text-anchor="start" x="635.35" y="150.0">Serving</text><text dominant-baseline="alphabetic" fill="#dd6b20" font-family="Arial, sans-serif" font-size="10" id="txt_neighbor_A5" text-anchor="start" x="635.35" y="190.0">Neighbor</text></g><g id="g_markers"><circle cx="29.794" cy="86.0" fill="#555555" r="3" /><circle cx="205.151" cy="86.0" fill="#555555" r="3" /><circle cx="47.9898" cy="160.64" fill="#2b6cb0" r="3" /><circle cx="160.00590000000003" cy="80.0" fill="#2b6cb0" r="3" /><circle cx="47.9898" cy="89.5" fill="#dd6b20" r="3" /><circle cx="160.00590000000003" cy="128.22" fill="#dd6b20" r="3" /><circle cx="338.864" cy="86.0" fill="#555555" r="3" /><circle cx="505.05600000000004" cy="86.0" fill="#555555" r="3" /><circle cx="322.0" cy="160.64" fill="#2b6cb0" r="3" /><circle cx="322.0" cy="80.0" fill="#2b6cb0" r="3" /><circle cx="322.0" cy="89.5" fill="#dd6b20" r="3" /><circle cx="322.0" cy="128.22" fill="#dd6b20" r="3" /><circle cx="639.274" cy="86.0" fill="#555555" r="3" /><circle cx="839.071" cy="86.0" fill="#555555" r="3" /><circle cx="619.0" cy="160.64" fill="#2b6cb0" r="3" /><circle cx="619.0" cy="80.0" fill="#2b6cb0" r="3" /><circle cx="619.0" cy="89.5" fill="#dd6b20" r="3" /><circle cx="619.0" cy="128.22" fill="#dd6b20" r="3" /></g></g></svg>