<?xml version="1.0" encoding="utf-8" ?>
<svg baseProfile="full" height="320" version="1.1" width="960" xmlns="http://www.w3.org/2000/svg" xmlns:ev="http://www.w3.org/2001/xml-events" xmlns:xlink="http://www.w3.org/1999/xlink"><defs /><g id="figure_root"><g id="g_axes"><line stroke="#000000" stroke-width="2" x1="10.0" x2="256.0" y1="280.0" y2="280.0" /><line stroke="#000000" stroke-width="2" x1="10.0" x2="10.0" y1="280.0" y2="86.0" /><line stroke="#000000" stroke-width="2" x1="277.0" x2="545.0" y1="280.0" y2="280.0" /><line stroke="#000000" stroke-width="2" x1="277.0" x2="277.0" y1="280.0" y2="86.0" /><line stroke="#000000" stroke-width="2" x1="572.0" x2="944.0" y1="280.0" y2="280.0" /><line stroke="#000000" stroke-width="2" x1="572.0" x2="572.0" y1="280.0" y2="86.0" /></g><g id="g_curves"><path d="M 22.30 241.20 C 61.05 241.20 94.25 124.80 133.00 124.80 C 171.75 124.80 204.95 202.40 243.70 202.40" fill="none" id="curve_serving_A3" stroke="#2b6cb0" stroke-width="2" /><path d="M 22.30 202.40 C 61.05 202.40 94.25 221.80 133.00 221.80 C 171.75 221.80 204.95 124.80 243.70 124.80" fill="none" id="curve_neighbor_A3" stroke="#dd6b20" stroke-width="2" /><path d="M 290.40 241.20 C 332.61 241.20 368.79 124.80 411.00 124.80 C 453.21 124.80 489.39 202.40 531.60 202.40" fill="none" id="curve_serving_A4" stroke="#2b6cb0" stroke-width="2" /><path d="M 290.40 202.40 C 332.61 202.40 368.79 221.80 411.00 221.80 C 453.21 221.80 489.39 124.80 531.60 124.80" fill="none" id="curve_neighbor_A4" stroke="#dd6b20" stroke-width="2" /><path d="M 590.60 241.20 C 649.19 241.20 699.41 124.80 758.00 124.80 C 816.59 124.80 866.81 202.40 925.40 202.40" fill="none" id="curve_serving_A5" stroke="#2b6cb0" stroke-width="2" /><path d="M 590.60 202.40 C 649.19 202.40 699.41 221.80 758.00 221.80 C 816.59 221.80 866.81 124.80 925.40 124.80" fill="none" id="curve_neighbor_A5" stroke="#dd6b20" stroke-width="2" /></g><g id="g_annotations"><rect fill="#d0d0d0" fill-opacity="0.3" height="194.0" width="98.39999999999999" x="59.2" y="86.0" /><line stroke="#555555" stroke-width="1" x1="59.2" x2="59.2" y1="280.0" y2="86.0" /><line stroke="#555555" stroke-width="1" x1="157.6" x2="157.6" y1="280.0" y2="86.0" /><rect fill="#d0d0d0" fill-opacity="0.3" height="194.0" width="107.19999999999993" x="330.6" y="86.0" /><line stroke="#555555" stroke-width="1" x1="330.6" x2="330.6" y1="280.0" y2="86.0" /><line stroke="#555555" stroke-width="1" x1="437.79999999999995" x2="437.79999999999995" y1="280.0" y2="86.0" /><rect fill="#d0d0d0" fill-opacity="0.3" height="194.0" width="148.80000000000007" x="646.4" y="86.0" /><line stroke="#555555" stroke-width="1" x1="646.4" x2="646.4" y1="280.0" y2="86.0" /><line stroke="#555555" stroke-width="1" x1="795.2" x2="795.2" y1="280.0" y2="86.0" /><line class="dashed" id="geom_line_00" stroke="#555555" stroke-dasharray="6,4" stroke-width="1.0" x1="80.0" x2="807.0" y1="208.0" y2="208.0" /><line class="dashed" id="geom_line_01" stroke="#555555" stroke-dasharray="6,4" stroke-width="1.0" x1="66.0" x2="821.0" y1="279.0" y2="279.0" /><rect fill="none" height="194.0" id="geom_rect_00" stroke="#555555" stroke-width="1.0" width="246.0" x="10.0" y="86.0" /><rect fill="none" height="194.0" id="geom_rect_01" stroke="#555555" stroke-width="1.0" width="268.0" x="277.0" y="86.0" /><rect fill="none" height="194.0" id="geom_rect_02" stroke="#555555" stroke-width="1.0" width="372.0" x="572.0" y="86.0" /></g><g id="g_text"><text fill="#333333" font-family="Arial, sans-serif" font-size="10" id="txt_t_start_A3" text-anchor="start" x="63.2" y="98.0">t_start</text><text fill="#333333" font-family="Arial, sans-serif" font-size="10" id="txt_t_trigger_A3" text-anchor="start" x="161.6" y="98.0">t_trigger</text><text fill="#000000" font-family="Arial, sans-serif" font-size="12" id="txt_panel_A3" text-anchor="start" x="16.0" y="102.0">A3</text><text fill="#2b6cb0" font-family="Arial, sans-serif" font-size="10" id="txt_serving_A3" text-anchor="start" x="22.3" y="153.89999999999998">Serving</text><text fill="#dd6b20" font-family="Arial, sans-serif" font-size="10" id="txt_neighbor_A3" text-anchor="start" x="22.3" y="192.7">Neighbor</text><text fill="#333333" font-family="Arial, sans-serif" font-size="10" id="txt_t_start_A4" text-anchor="start" x="334.6" y="98.0">t_start</text><text fill="#333333" font-family="Arial, sans-serif" font-size="10" id="txt_t_trigger_A4" text-anchor="start" x="441.79999999999995" y="98.0">t_trigger</text><text fill="#000000" font-family="Arial, sans-serif" font-size="12" id="txt_panel_A4" text-anchor="start" x="283.0" y="102.0">A4</text><text fill="#2b6cb0" font-family="Arial, sans-serif" font-size="10" id="txt_serving_A4" text-anchor="start" x="290.4" y="153.89999999999998">Serving</text><text fill="#dd6b20" font-family="Arial, sans-serif" font-size="10" id="txt_neighbor_A4" text-anchor="start" x="290.4" y="192.7">Neighbor</text><text fill="#333333" font-family="Arial, sans-serif" font-size="10" id="txt_t_start_A5" text-anchor="start" x="650.4" y="98.0">t_start</text><text fill="#333333" font-family="Arial, sans-serif" font-size="10" id="txt_t_trigger_A5" text-anchor="start" x="799.2" y="98.0">t_trigger</text><text fill="#000000" font-family="Arial, sans-serif" font-size="12" id="txt_panel_A5" text-anchor="start" x="578.0" y="102.0">A5</text><text fill="#2b6cb0" font-family="Arial, sans-serif" font-size="10" id="txt_serving_A5" text-anchor="start" x="590.6" y="153.89999999999998">Serving</text><text fill="#dd6b20" font-family="Arial, sans-serif" font-size="10" id="txt_neighbor_A5" text-anchor="start" x="590.6" y="192.7">Neighbor</text></g><g id="g_markers"><circle cx="59.2" cy="92.0" fill="#555555" r="3" /><circle cx="157.6" cy="92.0" fill="#555555" r="3" /><circle cx="22.3" cy="241.20000000000002" fill="#2b6cb0" r="3" /><circle cx="243.7" cy="202.39999999999998" fill="#2b6cb0" r="3" /><circle cx="22.3" cy="202.39999999999998" fill="#dd6b20" r="3" /><circle cx="243.7" cy="124.79999999999998" fill="#dd6b20" r="3" /><circle cx="330.6" cy="92.0" fill="#555555" r="3" /><circle cx="437.79999999999995" cy="92.0" fill="#555555" r="3" /><circle cx="290.4" cy="241.20000000000002" fill="#2b6cb0" r="3" /><circle cx="531.6" cy="202.39999999999998" fill="#2b6cb0" r="3" /><circle cx="290.4" cy="202.39999999999998" fill="#dd6b20" r="3" /><circle cx="531.6" cy="124.79999999999998" fill="#dd6b20" r="3" /><circle cx="646.4" cy="92.0" fill="#555555" r="3" /><circle cx="795.2" cy="92.0" fill="#555555" r="3" /><circle cx="590.6" cy="241.20000000000002" fill="#2b6cb0" r="3" /><circle cx="925.4" cy="202.39999999999998" fill="#2b6cb0" r="3" /><circle cx="590.6" cy="202.39999999999998" fill="#dd6b20" r="3" /><circle cx="925.4" cy="124.79999999999998" fill="#dd6b20" r="3" /></g></g></svg>