<?xml version="1.0" encoding="utf-8" ?>
<svg baseProfile="full" height="320" version="1.1" width="900" xmlns="http://www.w3.org/2000/svg" xmlns:ev="http://www.w3.org/2001/xml-events" xmlns:xlink="http://www.w3.org/1999/xlink"><defs /><g id="figure_root"><g id="g_axes"><line stroke="#000000" stroke-width="2" x1="90.0" x2="810.0" y1="256.0" y2="256.0" /><line stroke="#000000" stroke-width="2" x1="90.0" x2="90.0" y1="256.0" y2="48.0" /><line stroke="#000000" stroke-width="1" x1="90.0" x2="90.0" y1="256.0" y2="262.0" /><line stroke="#000000" stroke-width="1" x1="450.0" x2="450.0" y1="256.0" y2="262.0" /><line stroke="#000000" stroke-width="1" x1="810.0" x2="810.0" y1="256.0" y2="262.0" /><line stroke="#000000" stroke-width="1" x1="84.0" x2="90.0" y1="256.0" y2="256.0" /><line stroke="#000000" stroke-width="1" x1="84.0" x2="90.0" y1="152.0" y2="152.0" /><line stroke="#000000" stroke-width="1" x1="84.0" x2="90.0" y1="48.0" y2="48.0" /></g><g id="g_curves"><polyline fill="none" id="series_series_1" points="90.0,214.4 210.024,193.6 329.976,172.8 450.0,152.0 570.0239999999999,131.2 689.976,110.4 810.0,89.6" stroke="#1f77b4" stroke-width="2.0" /><polyline class="dashed" fill="none" id="series_series_2" points="90.0,193.6 210.024,179.7264 329.976,165.8736 450.0,152.0 570.0239999999999,138.1264 689.976,124.27360000000002 810.0,110.4" stroke="#ff7f0e" stroke-dasharray="6.0,4.0" stroke-width="2.0" /><polyline fill="none" id="series_series_3" points="90.0,172.8 210.024,165.8736 329.976,158.9264 450.0,152.0 570.0239999999999,145.0736 689.976,138.1264 810.0,131.2" stroke="#2ca02c" stroke-width="2.0" /><polyline fill="none" id="series_series_4" points="90.0,152.0 210.024,152.0 329.976,152.0 450.0,152.0 570.0239999999999,152.0 689.976,152.0 810.0,152.0" stroke="#d62728" stroke-width="2.0" /></g><g id="g_annotations"><g id="legend"><line stroke="#1f77b4" stroke-width="2.0" x1="670.0" x2="694.0" y1="58.0" y2="58.0" /><line class="dashed" stroke="#ff7f0e" stroke-dasharray="6.0,4.0" stroke-width="2.0" x1="670.0" x2="694.0" y1="76.0" y2="76.0" /><line stroke="#2ca02c" stroke-width="2.0" x1="670.0" x2="694.0" y1="94.0" y2="94.0" /><line stroke="#d62728" stroke-width="2.0" x1="670.0" x2="694.0" y1="112.0" y2="112.0" /></g><rect fill="none" height="208.0" id="geom_rect_00" stroke="#555555" stroke-width="1.0" width="720.0" x="90.0" y="48.0" /></g><g id="g_text"><text fill="#000000" font-family="Arial, sans-serif" font-size="10" id="txt_tick_x_0" text-anchor="middle" x="90.0" y="274.0">0</text><text fill="#000000" font-family="Arial, sans-serif" font-size="10" id="txt_tick_x_1" text-anchor="middle" x="450.0" y="274.0">0.5</text><text fill="#000000" font-family="Arial, sans-serif" font-size="10" id="txt_tick_x_2" text-anchor="middle" x="810.0" y="274.0">1</text><text fill="#000000" font-family="Arial, sans-serif" font-size="10" id="txt_tick_y_0" text-anchor="end" x="80.0" y="259.0">0</text><text fill="#000000" font-family="Arial, sans-serif" font-size="10" id="txt_tick_y_1" text-anchor="end" x="80.0" y="155.0">0.5</text><text fill="#000000" font-family="Arial, sans-serif" font-size="10" id="txt_tick_y_2" text-anchor="end" x="80.0" y="51.0">1</text><text fill="#000000" font-family="Arial, sans-serif" font-size="10" id="txt_legend_series_1" text-anchor="start" x="700.0" y="62.0">Series 1</text><text fill="#000000" font-family="Arial, sans-serif" font-size="10" id="txt_legend_series_2" text-anchor="start" x="700.0" y="80.0">Series 2</text><text fill="#000000" font-family="Arial, sans-serif" font-size="10" id="txt_legend_series_3" text-anchor="start" x="700.0" y="98.0">Series 3</text><text fill="#000000" font-family="Arial, sans-serif" font-size="10" id="txt_legend_series_4" text-anchor="start" x="700.0" y="116.0">Series 4</text></g><g id="g_markers" /></g></svg>