<?xml version="1.0" encoding="utf-8" ?>
<svg baseProfile="full" height="420" version="1.1" width="1024" xmlns="http://www.w3.org/2000/svg" xmlns:ev="http://www.w3.org/2001/xml-events" xmlns:xlink="http://www.w3.org/1999/xlink"><defs /><g id="figure_root"><g id="g_axes"><line stroke="#000000" stroke-width="2" x1="122.0" x2="943.0" y1="370.0" y2="370.0" /><line stroke="#000000" stroke-width="2" x1="122.0" x2="122.0" y1="370.0" y2="75.0" /><line stroke="#000000" stroke-width="1" x1="122.0" x2="122.0" y1="370.0" y2="376.0" /><line stroke="#000000" stroke-width="1" x1="532.5" x2="532.5" y1="370.0" y2="376.0" /><line stroke="#000000" stroke-width="1" x1="943.0" x2="943.0" y1="370.0" y2="376.0" /><line stroke="#000000" stroke-width="1" x1="116.0" x2="122.0" y1="370.0" y2="370.0" /><line stroke="#000000" stroke-width="1" x1="116.0" x2="122.0" y1="222.5" y2="222.5" /><line stroke="#000000" stroke-width="1" x1="116.0" x2="122.0" y1="75.0" y2="75.0" /></g><g id="g_curves"><polyline fill="none" id="series_series_0" points="122.0,259.1685 188.99360000000001,232.88400000000001 262.96569999999997,205.921 337.0199,183.1765 410.99199999999996,164.1785" stroke="#1f77b4" stroke-width="2.0" /><polyline class="dashed" fill="none" id="series_series_1" points="400.9758,194.239 439.9733,183.7075 478.9708,173.2055 517.9683,160.963 556.9658000000001,151.523 595.9633,143.73499999999999 634.9608000000001,134.413 674.0404,126.65450000000001 713.0379,118.77799999999999" stroke="#1f77b4" stroke-dasharray="6,4" stroke-width="2.0" /><polyline fill="none" id="series_series_2" points="122.0,284.2435 193.0165,261.735 272.9819,238.961 353.0294,214.50549999999998 432.9948,196.0385" stroke="#1f77b4" stroke-width="2.0" /><polyline class="dashed" fill="none" id="series_series_3" points="400.9758,194.239 439.9733,183.7075 478.9708,173.2055 517.9683,160.963 556.9658000000001,151.523 595.9633,143.73499999999999 634.9608000000001,134.413 674.0404,126.65450000000001 713.0379,118.77799999999999" stroke="#1f77b4" stroke-dasharray="6,4" stroke-width="2.0" /></g><g id="g_annotations"><g id="legend"><line stroke="#1f77b4" stroke-width="2.0" x1="803.0" x2="827.0" y1="85.0" y2="85.0" /><line class="dashed" stroke="#1f77b4" stroke-dasharray="6,4" stroke-width="2.0" x1="803.0" x2="827.0" y1="103.0" y2="103.0" /><line stroke="#1f77b4" stroke-width="2.0" x1="803.0" x2="827.0" y1="121.0" y2="121.0" /><line class="dashed" stroke="#1f77b4" stroke-dasharray="6,4" stroke-width="2.0" x1="803.0" x2="827.0" y1="139.0" y2="139.0" /></g></g><g id="g_text"><text fill="#000000" font-family="Arial, sans-serif" font-size="10" id="txt_tick_x_0" text-anchor="middle" x="122.0" y="388.0">0</text><text fill="#000000" font-family="Arial, sans-serif" font-size="10" id="txt_tick_x_1" text-anchor="middle" x="532.5" y="388.0">0.5</text><text fill="#000000" font-family="Arial, sans-serif" font-size="10" id="txt_tick_x_2" text-anchor="middle" x="943.0" y="388.0">1.0</text><text fill="#000000" font-family="Arial, sans-serif" font-size="10" id="txt_tick_y_0" text-anchor="end" x="112.0" y="373.0">0</text><text fill="#000000" font-family="Arial, sans-serif" font-size="10" id="txt_tick_y_1" text-anchor="end" x="112.0" y="225.5">0.5</text><text fill="#000000" font-family="Arial, sans-serif" font-size="10" id="txt_tick_y_2" text-anchor="end" x="112.0" y="78.0">1.0</text><text fill="#000000" font-family="Arial, sans-serif" font-size="12" id="txt_axis_x" text-anchor="middle" x="532.5" y="402.0">x</text><text fill="#000000" font-family="Arial, sans-serif" font-size="12" id="txt_axis_y" text-anchor="middle" x="82.0" y="222.5">y</text><text fill="#000000" font-family="Arial, sans-serif" font-size="10" id="txt_legend_series_0" text-anchor="start" x="833.0" y="89.0">series_0</text><text fill="#000000" font-family="Arial, sans-serif" font-size="10" id="txt_legend_series_1" text-anchor="start" x="833.0" y="107.0">series_1</text><text fill="#000000" font-family="Arial, sans-serif" font-size="10" id="txt_legend_series_2" text-anchor="start" x="833.0" y="125.0">series_2</text><text fill="#000000" font-family="Arial, sans-serif" font-size="10" id="txt_legend_series_3" text-anchor="start" x="833.0" y="143.0">series_3</text></g><g id="g_markers" /></g></svg>