<?xml version="1.0" encoding="utf-8" ?>
<svg baseProfile="full" height="500" version="1.1" width="1400" xmlns="http://www.w3.org/2000/svg" xmlns:ev="http://www.w3.org/2001/xml-events" xmlns:xlink="http://www.w3.org/1999/xlink"><defs /><g id="figure_root"><g id="g_axes"><line id="grid_sep_v_0" stroke="#000000" stroke-width="1" x1="485.33333333333326" x2="485.33333333333326" y1="100.0" y2="500.0" /><line id="grid_sep_v_1" stroke="#000000" stroke-width="1" x1="914.6666666666665" x2="914.6666666666665" y1="100.0" y2="500.0" /><line id="axis_x_P1" stroke="#000000" stroke-width="1" x1="116.0" x2="425.3333333333333" y1="468.0" y2="468.0" /><line id="axis_y_P1" stroke="#000000" stroke-width="1" x1="116.0" x2="116.0" y1="468.0" y2="148.8" /><line id="tick_x_P1_0" stroke="#000000" stroke-width="1" x1="116.0" x2="116.0" y1="468.0" y2="480.0" /><line id="tick_y_P1_0" stroke="#000000" stroke-width="1" x1="104.0" x2="116.0" y1="468.0" y2="468.0" /><line id="tick_x_P1_1" stroke="#000000" stroke-width="1" x1="270.66666666666663" x2="270.66666666666663" y1="468.0" y2="480.0" /><line id="tick_y_P1_1" stroke="#000000" stroke-width="1" x1="104.0" x2="116.0" y1="308.4" y2="308.4" /><line id="tick_x_P1_2" stroke="#000000" stroke-width="1" x1="425.3333333333333" x2="425.3333333333333" y1="468.0" y2="480.0" /><line id="tick_y_P1_2" stroke="#000000" stroke-width="1" x1="104.0" x2="116.0" y1="148.8" y2="148.8" /><line id="axis_x_P2" stroke="#000000" stroke-width="1" x1="545.3333333333333" x2="854.6666666666665" y1="468.0" y2="468.0" /><line id="axis_y_P2" stroke="#000000" stroke-width="1" x1="545.3333333333333" x2="545.3333333333333" y1="468.0" y2="148.8" /><line id="tick_x_P2_0" stroke="#000000" stroke-width="1" x1="545.3333333333333" x2="545.3333333333333" y1="468.0" y2="480.0" /><line id="tick_y_P2_0" stroke="#000000" stroke-width="1" x1="533.3333333333333" x2="545.3333333333333" y1="468.0" y2="468.0" /><line id="tick_x_P2_1" stroke="#000000" stroke-width="1" x1="699.9999999999999" x2="699.9999999999999" y1="468.0" y2="480.0" /><line id="tick_y_P2_1" stroke="#000000" stroke-width="1" x1="533.3333333333333" x2="545.3333333333333" y1="308.4" y2="308.4" /><line id="tick_x_P2_2" stroke="#000000" stroke-width="1" x1="854.6666666666665" x2="854.6666666666665" y1="468.0" y2="480.0" /><line id="tick_y_P2_2" stroke="#000000" stroke-width="1" x1="533.3333333333333" x2="545.3333333333333" y1="148.8" y2="148.8" /><line id="axis_x_P3" stroke="#000000" stroke-width="1" x1="974.6666666666666" x2="1284.0" y1="468.0" y2="468.0" /><line id="axis_y_P3" stroke="#000000" stroke-width="1" x1="974.6666666666666" x2="974.6666666666666" y1="468.0" y2="148.8" /><line id="tick_x_P3_0" stroke="#000000" stroke-width="1" x1="974.6666666666666" x2="974.6666666666666" y1="468.0" y2="480.0" /><line id="tick_y_P3_0" stroke="#000000" stroke-width="1" x1="962.6666666666666" x2="974.6666666666666" y1="468.0" y2="468.0" /><line id="tick_x_P3_1" stroke="#000000" stroke-width="1" x1="1129.3333333333333" x2="1129.3333333333333" y1="468.0" y2="480.0" /><line id="tick_y_P3_1" stroke="#000000" stroke-width="1" x1="962.6666666666666" x2="974.6666666666666" y1="308.4" y2="308.4" /><line id="tick_x_P3_2" stroke="#000000" stroke-width="1" x1="1284.0" x2="1284.0" y1="468.0" y2="480.0" /><line id="tick_y_P3_2" stroke="#000000" stroke-width="1" x1="962.6666666666666" x2="974.6666666666666" y1="148.8" y2="148.8" /></g><g id="g_curves"><polyline fill="none" id="curve_P1_series_0" points="116.0,372.24 301.6,260.52 425.3333333333333,196.68" stroke="#1f77b4" stroke-width="2.0" /><polyline fill="none" id="curve_P1_series_1" points="116.0,228.60000000000002 301.6,324.36 425.3333333333333,388.2" stroke="#ff7f0e" stroke-dasharray="6,4" stroke-linecap="round" stroke-width="2.0" /><polyline fill="none" id="curve_P2_series_0" points="545.3333333333333,404.16 699.9999999999999,292.44 854.6666666666665,212.64" stroke="#1f77b4" stroke-width="2.0" /><polyline fill="none" id="curve_P2_series_1" points="545.3333333333333,244.56 699.9999999999999,324.36 854.6666666666665,372.24" stroke="#ff7f0e" stroke-dasharray="6,4" stroke-linecap="round" stroke-width="2.0" /><polyline fill="none" id="curve_P3_series_0" points="974.6666666666666,388.2 1129.3333333333333,276.48 1284.0,228.60000000000002" stroke="#1f77b4" stroke-width="2.0" /><polyline fill="none" id="curve_P3_series_1" points="974.6666666666666,212.64 1129.3333333333333,292.44 1284.0,356.28" stroke="#ff7f0e" stroke-dasharray="6,4" stroke-linecap="round" stroke-width="2.0" /><line id="legend_line_0" stroke="#1f77b4" stroke-width="2" x1="1064" x2="1094" y1="34.0" y2="34.0" /><line id="legend_line_1" stroke="#ff7f0e" stroke-dasharray="6,4" stroke-linecap="round" stroke-width="2" x1="1064" x2="1094" y1="50.0" y2="50.0" /></g><g id="g_annotations"><g id="g_boxes"><rect fill="none" height="400.0" id="panel_P1" rx="8" ry="8" stroke="#000000" stroke-width="1" width="373.3333333333333" x="84.0" y="100.0" /><rect fill="none" height="400.0" id="panel_P2" rx="8" ry="8" stroke="#000000" stroke-width="1" width="373.3333333333333" x="513.3333333333333" y="100.0" /><rect fill="none" height="400.0" id="panel_P3" rx="8" ry="8" stroke="#000000" stroke-width="1" width="373.3333333333333" x="942.6666666666666" y="100.0" /></g></g><g id="g_text"><g id="g_legend"><text fill="#000000" font-family="Arial, sans-serif" font-size="10.0" id="txt_legend_0" text-anchor="start" x="1100" y="37.0">Baseline</text><text fill="#000000" font-family="Arial, sans-serif" font-size="10.0" id="txt_legend_1" text-anchor="start" x="1100" y="53.0">Proposed</text></g><g id="g_title"><text fill="#000000" font-family="Arial, sans-serif" font-size="20.0" font-weight="bold" id="txt_title" text-anchor="start" x="84" y="50">Performance Grid</text></g><text fill="#000000" font-family="Arial, sans-serif" font-size="12.0" font-weight="bold" id="txt_panel_P1_title" text-anchor="start" x="106.0" y="144.0">Panel 1</text><text fill="#000000" font-family="Arial, sans-serif" font-size="12.0" font-weight="bold" id="txt_panel_P2_title" text-anchor="start" x="535.3333333333333" y="144.0">Panel 2</text><text fill="#000000" font-family="Arial, sans-serif" font-size="12.0" font-weight="bold" id="txt_panel_P3_title" text-anchor="start" x="964.6666666666666" y="144.0">Panel 3</text></g><g id="g_markers" /></g></svg>