<?xml version="1.0" encoding="utf-8" ?>
<svg baseProfile="full" height="280" version="1.1" width="900" xmlns="http://www.w3.org/2000/svg" xmlns:ev="http://www.w3.org/2001/xml-events" xmlns:xlink="http://www.w3.org/1999/xlink"><defs /><g id="figure_root"><g id="g_axes" /><g id="g_curves"><line fill="none" stroke="#000000" stroke-width="2" x1="288.0" x2="360.0" y1="128.0" y2="128.0" /><line fill="none" stroke="#000000" stroke-width="2" x1="540.0" x2="612.0" y1="128.0" y2="128.0" /></g><g id="g_annotations"><rect fill="#ffffff" height="60.0" id="node_node_1" rx="8.0" ry="8.0" stroke="#000000" stroke-width="2" width="180.0" x="108.0" y="98.0" /><rect fill="#ffffff" height="60.0" id="node_node_2" rx="8.0" ry="8.0" stroke="#000000" stroke-width="2" width="180.0" x="360.0" y="98.0" /><rect fill="#ffffff" height="60.0" id="node_node_3" rx="8.0" ry="8.0" stroke="#000000" stroke-width="2" width="180.0" x="612.0" y="98.0" /><line id="geom_line_00" stroke="#000000" stroke-width="2.0" x1="198.0" x2="450.0" y1="128.0" y2="128.0" /><line id="geom_line_01" stroke="#000000" stroke-width="2.0" x1="450.0" x2="702.0" y1="128.0" y2="128.0" /><rect fill="none" height="60.0" id="geom_rect_00" stroke="#000000" stroke-width="2.0" width="180.0" x="108.0" y="98.0" /><rect fill="none" height="60.0" id="geom_rect_01" stroke="#000000" stroke-width="2.0" width="180.0" x="360.0" y="98.0" /><rect fill="none" height="60.0" id="geom_rect_02" stroke="#000000" stroke-width="2.0" width="180.0" x="612.0" y="98.0" /></g><g id="g_text"><text fill="#000000" font-family="Arial, sans-serif" font-size="12" id="txt_node_node_1" text-anchor="start" x="120.0" y="122.0"><tspan id="txt_node_node_1_line0" x="120.0" y="122.0">Unknown</tspan></text><text fill="#000000" font-family="Arial, sans-serif" font-size="12" id="txt_node_node_2" text-anchor="start" x="372.0" y="122.0"><tspan id="txt_node_node_2_line0" x="372.0" y="122.0">Unknown</tspan></text><text fill="#000000" font-family="Arial, sans-serif" font-size="12" id="txt_node_node_3" text-anchor="start" x="624.0" y="122.0"><tspan id="txt_node_node_3_line0" x="624.0" y="122.0">Unknown</tspan></text></g><g id="g_markers"><polygon fill="#000000" points="360.0,128.0 350.0,131.0 350.0,125.0" /><polygon fill="#000000" points="612.0,128.0 602.0,131.0 602.0,125.0" /></g></g></svg>