<?xml version="1.0" encoding="utf-8" ?>
<svg baseProfile="full" height="420" version="1.1" width="980" xmlns="http://www.w3.org/2000/svg" xmlns:ev="http://www.w3.org/2001/xml-events" xmlns:xlink="http://www.w3.org/1999/xlink"><defs /><g id="figure_root"><g id="g_axes"><line stroke="#000000" stroke-width="2" x1="98.0" x2="882.0" y1="336.0" y2="336.0" /><line stroke="#000000" stroke-width="2" x1="98.0" x2="98.0" y1="336.0" y2="63.0" /><line stroke="#000000" stroke-width="1" x1="98.0" x2="98.0" y1="336.0" y2="342.0" /><line stroke="#000000" stroke-width="1" x1="490.0" x2="490.0" y1="336.0" y2="342.0" /><line stroke="#000000" stroke-width="1" x1="882.0" x2="882.0" y1="336.0" y2="342.0" /><line stroke="#000000" stroke-width="1" x1="92.0" x2="98.0" y1="336.0" y2="336.0" /><line stroke="#000000" stroke-width="1" x1="92.0" x2="98.0" y1="199.5" y2="199.5" /><line stroke="#000000" stroke-width="1" x1="92.0" x2="98.0" y1="63.0" y2="63.0" /></g><g id="g_curves"><polyline fill="none" id="series_series_1" points="98.0,281.4 228.69279999999998,254.10000000000002 359.30719999999997,226.8 490.0,199.5 620.6927999999999,172.20000000000002 751.3072000000001,144.9 882.0,117.6" stroke="#1f77b4" stroke-width="2.0" /><polyline class="dashed" fill="none" id="series_series_2" points="98.0,254.10000000000002 228.69279999999998,235.8909 359.30719999999997,217.70909999999998 490.0,199.5 620.6927999999999,181.2909 751.3072000000001,163.1091 882.0,144.9" stroke="#ff7f0e" stroke-dasharray="6.0,4.0" stroke-width="2.0" /><polyline fill="none" id="series_series_3" points="98.0,226.8 228.69279999999998,217.70909999999998 359.30719999999997,208.5909 490.0,199.5 620.6927999999999,190.4091 751.3072000000001,181.2909 882.0,172.20000000000002" stroke="#2ca02c" stroke-width="2.0" /><polyline fill="none" id="series_series_4" points="98.0,199.5 228.69279999999998,199.5 359.30719999999997,199.5 490.0,199.5 620.6927999999999,199.5 751.3072000000001,199.5 882.0,199.5" stroke="#d62728" stroke-width="2.0" /></g><g id="g_annotations"><g id="legend"><line stroke="#1f77b4" stroke-width="2.0" x1="742.0" x2="766.0" y1="73.0" y2="73.0" /><line class="dashed" stroke="#ff7f0e" stroke-dasharray="6.0,4.0" stroke-width="2.0" x1="742.0" x2="766.0" y1="91.0" y2="91.0" /><line stroke="#2ca02c" stroke-width="2.0" x1="742.0" x2="766.0" y1="109.0" y2="109.0" /><line stroke="#d62728" stroke-width="2.0" x1="742.0" x2="766.0" y1="127.0" y2="127.0" /></g><rect fill="none" height="273.0" id="geom_rect_00" stroke="#555555" stroke-width="1.0" width="784.0" x="98.0" y="63.0" /></g><g id="g_text"><text fill="#000000" font-family="Arial, sans-serif" font-size="10" id="txt_tick_x_0" text-anchor="middle" x="98.0" y="354.0">0</text><text fill="#000000" font-family="Arial, sans-serif" font-size="10" id="txt_tick_x_1" text-anchor="middle" x="490.0" y="354.0">0.5</text><text fill="#000000" font-family="Arial, sans-serif" font-size="10" id="txt_tick_x_2" text-anchor="middle" x="882.0" y="354.0">1</text><text fill="#000000" font-family="Arial, sans-serif" font-size="10" id="txt_tick_y_0" text-anchor="end" x="88.0" y="339.0">0</text><text fill="#000000" font-family="Arial, sans-serif" font-size="10" id="txt_tick_y_1" text-anchor="end" x="88.0" y="202.5">0.5</text><text fill="#000000" font-family="Arial, sans-serif" font-size="10" id="txt_tick_y_2" text-anchor="end" x="88.0" y="66.0">1</text><text fill="#000000" font-family="Arial, sans-serif" font-size="10" id="txt_legend_series_1" text-anchor="start" x="772.0" y="77.0">Series 1</text><text fill="#000000" font-family="Arial, sans-serif" font-size="10" id="txt_legend_series_2" text-anchor="start" x="772.0" y="95.0">Series 2</text><text fill="#000000" font-family="Arial, sans-serif" font-size="10" id="txt_legend_series_3" text-anchor="start" x="772.0" y="113.0">Series 3</text><text fill="#000000" font-family="Arial, sans-serif" font-size="10" id="txt_legend_series_4" text-anchor="start" x="772.0" y="131.0">Series 4</text></g><g id="g_markers" /></g></svg>