<?xml version="1.0" encoding="utf-8" ?>
<svg baseProfile="full" height="260" version="1.1" width="800" xmlns="http://www.w3.org/2000/svg" xmlns:ev="http://www.w3.org/2001/xml-events" xmlns:xlink="http://www.w3.org/1999/xlink"><defs /><g id="figure_root"><g id="g_axes"><line stroke="#000000" stroke-width="2.0" x1="10.0" x2="231.0" y1="150.0" y2="150.0" /><line stroke="#000000" stroke-width="2.0" x1="10.0" x2="10.0" y1="150.0" y2="89.0" /><line stroke="#000000" stroke-width="2.0" x1="251.0" x2="491.0" y1="150.0" y2="150.0" /><line stroke="#000000" stroke-width="2.0" x1="251.0" x2="251.0" y1="150.0" y2="89.0" /><line stroke="#000000" stroke-width="2.0" x1="512.0" x2="789.0" y1="150.0" y2="150.0" /><line stroke="#000000" stroke-width="2.0" x1="512.0" x2="512.0" y1="150.0" y2="89.0" /></g><g id="g_curves"><path d="M 63.99 89.00 C 64.49 89.00 65.99 89.00 67.00 89.00 C 68.00 89.00 69.00 89.00 70.00 89.00 C 71.00 89.00 72.01 89.00 73.01 89.00 C 74.01 89.00 75.49 89.00 75.99 89.00" fill="none" id="curve_serving_A3" stroke="#2b6cb0" stroke-width="2" /><path class="dashed" d="M 62.00 89.00 C 62.50 89.00 64.01 89.00 65.01 89.00 C 66.01 89.00 66.99 89.00 67.99 89.00 C 68.99 89.00 69.99 89.00 71.00 89.00 C 72.00 89.00 73.50 89.00 74.00 89.00" fill="none" id="curve_neighbor_A3" stroke="#dd6b20" stroke-dasharray="6,4" stroke-linecap="round" stroke-width="2" /><path d="M 251.00 89.00 C 251.00 89.00 251.00 89.00 251.00 89.00 C 251.00 89.00 251.00 89.00 251.00 89.00 C 251.00 89.00 251.00 89.00 251.00 89.00 C 251.00 89.00 251.00 89.00 251.00 89.00" fill="none" id="curve_serving_A4" stroke="#2b6cb0" stroke-width="2" /><path class="dashed" d="M 251.00 89.00 C 251.00 89.00 251.00 89.00 251.00 89.00 C 251.00 89.00 251.00 89.00 251.00 89.00 C 251.00 89.00 251.00 89.00 251.00 89.00 C 251.00 89.00 251.00 89.00 251.00 89.00" fill="none" id="curve_neighbor_A4" stroke="#dd6b20" stroke-dasharray="6,4" stroke-linecap="round" stroke-width="2" /><path d="M 512.00 89.00 C 512.00 89.00 512.00 89.00 512.00 89.00 C 512.00 89.00 512.00 89.00 512.00 89.00 C 512.00 89.00 512.00 89.00 512.00 89.00 C 512.00 89.00 512.00 89.00 512.00 89.00" fill="none" id="curve_serving_A5" stroke="#2b6cb0" stroke-width="2" /><path class="dashed" d="M 512.00 89.00 C 512.00 89.00 512.00 89.00 512.00 89.00 C 512.00 89.00 512.00 89.00 512.00 89.00 C 512.00 89.00 512.00 89.00 512.00 89.00 C 512.00 89.00 512.00 89.00 512.00 89.00" fill="none" id="curve_neighbor_A5" stroke="#dd6b20" stroke-dasharray="6,4" stroke-linecap="round" stroke-width="2" /></g><g id="g_annotations"><rect fill="#d0d0d0" fill-opacity="0.3" height="61.0" width="88.39999999999999" x="54.2" y="89.0" /><line stroke="#555555" stroke-width="1.0" x1="54.2" x2="54.2" y1="150.0" y2="89.0" /><line stroke="#555555" stroke-width="1.0" x1="142.6" x2="142.6" y1="150.0" y2="89.0" /><rect fill="#d0d0d0" fill-opacity="0.3" height="61.0" width="96.0" x="299.0" y="89.0" /><line stroke="#555555" stroke-width="1.0" x1="299.0" x2="299.0" y1="150.0" y2="89.0" /><line stroke="#555555" stroke-width="1.0" x1="395.0" x2="395.0" y1="150.0" y2="89.0" /><rect fill="#d0d0d0" fill-opacity="0.3" height="61.0" width="110.80000000000007" x="567.4" y="89.0" /><line stroke="#555555" stroke-width="1.0" x1="567.4" x2="567.4" y1="150.0" y2="89.0" /><line stroke="#555555" stroke-width="1.0" x1="678.2" x2="678.2" y1="150.0" y2="89.0" /><line id="geom_line_00" stroke="#000000" stroke-width="2.0" x1="64.0" x2="215.0" y1="89.0" y2="89.0" /><line id="geom_line_01" stroke="#000000" stroke-width="2.0" x1="304.0" x2="475.0" y1="89.0" y2="89.0" /><line id="geom_line_02" stroke="#000000" stroke-width="2.0" x1="564.0" x2="715.0" y1="89.0" y2="89.0" /><line id="geom_line_03" stroke="#000000" stroke-width="2.0" x1="62.0" x2="217.0" y1="149.0" y2="149.0" /><line id="geom_line_04" stroke="#000000" stroke-width="2.0" x1="302.0" x2="477.0" y1="149.0" y2="149.0" /><line id="geom_line_05" stroke="#000000" stroke-width="2.0" x1="562.0" x2="717.0" y1="149.0" y2="149.0" /></g><g id="g_text"><text dominant-baseline="alphabetic" fill="#000000" font-family="Arial, sans-serif" font-size="10" id="txt_t_start_A3" text-anchor="start" x="58.2" y="101.0">t_start</text><text dominant-baseline="alphabetic" fill="#000000" font-family="Arial, sans-serif" font-size="10" id="txt_t_trigger_A3" text-anchor="start" x="146.6" y="101.0">t_trigger</text><text dominant-baseline="alphabetic" fill="#000000" font-family="Arial, sans-serif" font-size="12" font-weight="bold" id="txt_panel_A3" text-anchor="start" x="16.0" y="105.0">A3</text><text dominant-baseline="alphabetic" fill="#2b6cb0" font-family="Arial, sans-serif" font-size="10" id="txt_serving_A3" text-anchor="start" x="21.05" y="110.35">Serving</text><text dominant-baseline="alphabetic" fill="#dd6b20" font-family="Arial, sans-serif" font-size="10" id="txt_neighbor_A3" text-anchor="start" x="21.05" y="122.55000000000001">Neighbor</text><text dominant-baseline="alphabetic" fill="#000000" font-family="Arial, sans-serif" font-size="10" id="txt_t_start_A4" text-anchor="start" x="303.0" y="101.0">t_start</text><text dominant-baseline="alphabetic" fill="#000000" font-family="Arial, sans-serif" font-size="10" id="txt_t_trigger_A4" text-anchor="start" x="399.0" y="101.0">t_trigger</text><text dominant-baseline="alphabetic" fill="#000000" font-family="Arial, sans-serif" font-size="12" font-weight="bold" id="txt_panel_A4" text-anchor="start" x="257.0" y="105.0">A4</text><text dominant-baseline="alphabetic" fill="#2b6cb0" font-family="Arial, sans-serif" font-size="10" id="txt_serving_A4" text-anchor="start" x="263.0" y="110.35">Serving</text><text dominant-baseline="alphabetic" fill="#dd6b20" font-family="Arial, sans-serif" font-size="10" id="txt_neighbor_A4" text-anchor="start" x="263.0" y="122.55000000000001">Neighbor</text><text dominant-baseline="alphabetic" fill="#000000" font-family="Arial, sans-serif" font-size="10" id="txt_t_start_A5" text-anchor="start" x="571.4" y="101.0">t_start</text><text dominant-baseline="alphabetic" fill="#000000" font-family="Arial, sans-serif" font-size="10" id="txt_t_trigger_A5" text-anchor="start" x="682.2" y="101.0">t_trigger</text><text dominant-baseline="alphabetic" fill="#000000" font-family="Arial, sans-serif" font-size="12" font-weight="bold" id="txt_panel_A5" text-anchor="start" x="518.0" y="105.0">A5</text><text dominant-baseline="alphabetic" fill="#2b6cb0" font-family="Arial, sans-serif" font-size="10" id="txt_serving_A5" text-anchor="start" x="525.85" y="110.35">Serving</text><text dominant-baseline="alphabetic" fill="#dd6b20" font-family="Arial, sans-serif" font-size="10" id="txt_neighbor_A5" text-anchor="start" x="525.85" y="122.55000000000001">Neighbor</text></g><g id="g_markers"><circle cx="54.2" cy="95.0" fill="#555555" r="3" /><circle cx="142.6" cy="95.0" fill="#555555" r="3" /><circle cx="63.9903" cy="89.0" fill="#2b6cb0" r="3" /><circle cx="75.9906" cy="89.0" fill="#2b6cb0" r="3" /><circle cx="62.0013" cy="89.0" fill="#dd6b20" r="3" /><circle cx="74.00160000000001" cy="89.0" fill="#dd6b20" r="3" /><circle cx="299.0" cy="95.0" fill="#555555" r="3" /><circle cx="395.0" cy="95.0" fill="#555555" r="3" /><circle cx="251.0" cy="89.0" fill="#2b6cb0" r="3" /><circle cx="251.0" cy="89.0" fill="#2b6cb0" r="3" /><circle cx="251.0" cy="89.0" fill="#dd6b20" r="3" /><circle cx="251.0" cy="89.0" fill="#dd6b20" r="3" /><circle cx="567.4" cy="95.0" fill="#555555" r="3" /><circle cx="678.2" cy="95.0" fill="#555555" r="3" /><circle cx="512.0" cy="89.0" fill="#2b6cb0" r="3" /><circle cx="512.0" cy="89.0" fill="#2b6cb0" r="3" /><circle cx="512.0" cy="89.0" fill="#dd6b20" r="3" /><circle cx="512.0" cy="89.0" fill="#dd6b20" r="3" /></g></g></svg>