<?xml version="1.0" encoding="utf-8" ?>
<svg baseProfile="full" height="320" version="1.1" width="960" xmlns="http://www.w3.org/2000/svg" xmlns:ev="http://www.w3.org/2001/xml-events" xmlns:xlink="http://www.w3.org/1999/xlink"><defs /><g id="figure_root"><g id="g_axes"><line stroke="#000000" stroke-width="2" x1="11.0" x2="284.0" y1="270.0" y2="270.0" /><line stroke="#000000" stroke-width="2" x1="11.0" x2="11.0" y1="270.0" y2="70.0" /><line stroke="#000000" stroke-width="2" x1="306.0" x2="564.0" y1="270.0" y2="270.0" /><line stroke="#000000" stroke-width="2" x1="306.0" x2="306.0" y1="270.0" y2="70.0" /><line stroke="#000000" stroke-width="2" x1="590.0" x2="945.0" y1="270.0" y2="270.0" /><line stroke="#000000" stroke-width="2" x1="590.0" x2="590.0" y1="270.0" y2="70.0" /></g><g id="g_curves"><path d="M 24.65 230.00 C 67.65 230.00 104.50 110.00 147.50 110.00 C 190.50 110.00 227.35 190.00 270.35 190.00" fill="none" id="curve_serving_A3" stroke="#2b6cb0" stroke-width="2" /><path d="M 24.65 190.00 C 67.65 190.00 104.50 210.00 147.50 210.00 C 190.50 210.00 227.35 110.00 270.35 110.00" fill="none" id="curve_neighbor_A3" stroke="#dd6b20" stroke-width="2" /><path d="M 318.90 230.00 C 359.53 230.00 394.37 110.00 435.00 110.00 C 475.63 110.00 510.47 190.00 551.10 190.00" fill="none" id="curve_serving_A4" stroke="#2b6cb0" stroke-width="2" /><path d="M 318.90 190.00 C 359.53 190.00 394.37 210.00 435.00 210.00 C 475.63 210.00 510.47 110.00 551.10 110.00" fill="none" id="curve_neighbor_A4" stroke="#dd6b20" stroke-width="2" /><path d="M 607.75 230.00 C 663.66 230.00 711.59 110.00 767.50 110.00 C 823.41 110.00 871.34 190.00 927.25 190.00" fill="none" id="curve_serving_A5" stroke="#2b6cb0" stroke-width="2" /><path d="M 607.75 190.00 C 663.66 190.00 711.59 210.00 767.50 210.00 C 823.41 210.00 871.34 110.00 927.25 110.00" fill="none" id="curve_neighbor_A5" stroke="#dd6b20" stroke-width="2" /></g><g id="g_annotations"><rect fill="#d0d0d0" fill-opacity="0.3" height="200.0" width="109.19999999999999" x="65.6" y="70.0" /><line stroke="#555555" stroke-width="1" x1="65.6" x2="65.6" y1="270.0" y2="70.0" /><line stroke="#555555" stroke-width="1" x1="174.79999999999998" x2="174.79999999999998" y1="270.0" y2="70.0" /><rect fill="#d0d0d0" fill-opacity="0.3" height="200.0" width="103.19999999999993" x="357.6" y="70.0" /><line stroke="#555555" stroke-width="1" x1="357.6" x2="357.6" y1="270.0" y2="70.0" /><line stroke="#555555" stroke-width="1" x1="460.79999999999995" x2="460.79999999999995" y1="270.0" y2="70.0" /><rect fill="#d0d0d0" fill-opacity="0.3" height="200.0" width="142.0" x="661.0" y="70.0" /><line stroke="#555555" stroke-width="1" x1="661.0" x2="661.0" y1="270.0" y2="70.0" /><line stroke="#555555" stroke-width="1" x1="803.0" x2="803.0" y1="270.0" y2="70.0" /><line id="geom_line_00" stroke="#000000" stroke-width="2.0" x1="39.0" x2="39.0" y1="70.0" y2="269.0" /><line id="geom_line_01" stroke="#000000" stroke-width="2.0" x1="320.0" x2="320.0" y1="70.0" y2="269.0" /><line id="geom_line_02" stroke="#000000" stroke-width="2.0" x1="600.0" x2="600.0" y1="70.0" y2="269.0" /><line id="geom_line_03" stroke="#000000" stroke-width="2.0" x1="39.0" x2="283.0" y1="269.0" y2="269.0" /><line id="geom_line_04" stroke="#000000" stroke-width="2.0" x1="319.0" x2="563.0" y1="269.0" y2="269.0" /><line id="geom_line_05" stroke="#000000" stroke-width="2.0" x1="599.0" x2="859.0" y1="269.0" y2="269.0" /><rect fill="none" height="200.0" id="geom_rect_00" stroke="#555555" stroke-width="1.0" width="273.0" x="11.0" y="70.0" /><rect fill="none" height="200.0" id="geom_rect_01" stroke="#555555" stroke-width="1.0" width="258.0" x="306.0" y="70.0" /><rect fill="none" height="200.0" id="geom_rect_02" stroke="#555555" stroke-width="1.0" width="355.0" x="590.0" y="70.0" /></g><g id="g_text"><text fill="#333333" font-family="Arial, sans-serif" font-size="10" id="txt_t_start_A3" text-anchor="start" x="69.6" y="82.0">t_start</text><text fill="#333333" font-family="Arial, sans-serif" font-size="10" id="txt_t_trigger_A3" text-anchor="start" x="178.79999999999998" y="82.0">t_trigger</text><text fill="#000000" font-family="Arial, sans-serif" font-size="12" id="txt_panel_A3" text-anchor="start" x="17.0" y="86.0">A3</text><text fill="#2b6cb0" font-family="Arial, sans-serif" font-size="10" id="txt_serving_A3" text-anchor="start" x="24.65" y="140.0">Serving</text><text fill="#dd6b20" font-family="Arial, sans-serif" font-size="10" id="txt_neighbor_A3" text-anchor="start" x="24.65" y="180.0">Neighbor</text><text fill="#333333" font-family="Arial, sans-serif" font-size="10" id="txt_t_start_A4" text-anchor="start" x="361.6" y="82.0">t_start</text><text fill="#333333" font-family="Arial, sans-serif" font-size="10" id="txt_t_trigger_A4" text-anchor="start" x="464.79999999999995" y="82.0">t_trigger</text><text fill="#000000" font-family="Arial, sans-serif" font-size="12" id="txt_panel_A4" text-anchor="start" x="312.0" y="86.0">A4</text><text fill="#2b6cb0" font-family="Arial, sans-serif" font-size="10" id="txt_serving_A4" text-anchor="start" x="318.9" y="140.0">Serving</text><text fill="#dd6b20" font-family="Arial, sans-serif" font-size="10" id="txt_neighbor_A4" text-anchor="start" x="318.9" y="180.0">Neighbor</text><text fill="#333333" font-family="Arial, sans-serif" font-size="10" id="txt_t_start_A5" text-anchor="start" x="665.0" y="82.0">t_start</text><text fill="#333333" font-family="Arial, sans-serif" font-size="10" id="txt_t_trigger_A5" text-anchor="start" x="807.0" y="82.0">t_trigger</text><text fill="#000000" font-family="Arial, sans-serif" font-size="12" id="txt_panel_A5" text-anchor="start" x="596.0" y="86.0">A5</text><text fill="#2b6cb0" font-family="Arial, sans-serif" font-size="10" id="txt_serving_A5" text-anchor="start" x="607.75" y="140.0">Serving</text><text fill="#dd6b20" font-family="Arial, sans-serif" font-size="10" id="txt_neighbor_A5" text-anchor="start" x="607.75" y="180.0">Neighbor</text></g><g id="g_markers"><circle cx="65.6" cy="76.0" fill="#555555" r="3" /><circle cx="174.79999999999998" cy="76.0" fill="#555555" r="3" /><circle cx="24.65" cy="230.0" fill="#2b6cb0" r="3" /><circle cx="270.34999999999997" cy="190.0" fill="#2b6cb0" r="3" /><circle cx="24.65" cy="190.0" fill="#dd6b20" r="3" /><circle cx="270.34999999999997" cy="110.0" fill="#dd6b20" r="3" /><circle cx="357.6" cy="76.0" fill="#555555" r="3" /><circle cx="460.79999999999995" cy="76.0" fill="#555555" r="3" /><circle cx="318.9" cy="230.0" fill="#2b6cb0" r="3" /><circle cx="551.1" cy="190.0" fill="#2b6cb0" r="3" /><circle cx="318.9" cy="190.0" fill="#dd6b20" r="3" /><circle cx="551.1" cy="110.0" fill="#dd6b20" r="3" /><circle cx="661.0" cy="76.0" fill="#555555" r="3" /><circle cx="803.0" cy="76.0" fill="#555555" r="3" /><circle cx="607.75" cy="230.0" fill="#2b6cb0" r="3" /><circle cx="927.25" cy="190.0" fill="#2b6cb0" r="3" /><circle cx="607.75" cy="190.0" fill="#dd6b20" r="3" /><circle cx="927.25" cy="110.0" fill="#dd6b20" r="3" /></g></g></svg>