<?xml version="1.0" encoding="utf-8" ?>
<svg baseProfile="full" height="240" version="1.1" width="720" xmlns="http://www.w3.org/2000/svg" xmlns:ev="http://www.w3.org/2001/xml-events" xmlns:xlink="http://www.w3.org/1999/xlink"><defs /><g id="figure_root"><g id="g_axes"><line stroke="#000000" stroke-width="2" x1="10.0" x2="236.0" y1="200.0" y2="200.0" /><line stroke="#000000" stroke-width="2" x1="10.0" x2="10.0" y1="200.0" y2="70.0" /><line stroke="#000000" stroke-width="2" x1="256.0" x2="461.0" y1="200.0" y2="200.0" /><line stroke="#000000" stroke-width="2" x1="256.0" x2="256.0" y1="200.0" y2="70.0" /><line stroke="#000000" stroke-width="2" x1="481.0" x2="710.0" y1="200.0" y2="200.0" /><line stroke="#000000" stroke-width="2" x1="481.0" x2="481.0" y1="200.0" y2="70.0" /></g><g id="g_curves"><path d="M 21.30 174.00 C 56.89 174.00 87.41 96.00 123.00 96.00 C 158.59 96.00 189.10 148.00 224.70 148.00" fill="none" id="curve_serving_A3" stroke="#2b6cb0" stroke-width="2" /><path d="M 21.30 148.00 C 56.89 148.00 87.41 161.00 123.00 161.00 C 158.59 161.00 189.10 96.00 224.70 96.00" fill="none" id="curve_neighbor_A3" stroke="#dd6b20" stroke-width="2" /><path d="M 266.25 174.00 C 298.54 174.00 326.21 96.00 358.50 96.00 C 390.79 96.00 418.46 148.00 450.75 148.00" fill="none" id="curve_serving_A4" stroke="#2b6cb0" stroke-width="2" /><path d="M 266.25 148.00 C 298.54 148.00 326.21 161.00 358.50 161.00 C 390.79 161.00 418.46 96.00 450.75 96.00" fill="none" id="curve_neighbor_A4" stroke="#dd6b20" stroke-width="2" /><path d="M 492.45 174.00 C 528.52 174.00 559.43 96.00 595.50 96.00 C 631.57 96.00 662.48 148.00 698.55 148.00" fill="none" id="curve_serving_A5" stroke="#2b6cb0" stroke-width="2" /><path d="M 492.45 148.00 C 528.52 148.00 559.43 161.00 595.50 161.00 C 631.57 161.00 662.48 96.00 698.55 96.00" fill="none" id="curve_neighbor_A5" stroke="#dd6b20" stroke-width="2" /></g><g id="g_annotations"><rect fill="#d0d0d0" fill-opacity="0.3" height="130.0" width="90.39999999999999" x="55.2" y="70.0" /><line stroke="#555555" stroke-width="1" x1="55.2" x2="55.2" y1="200.0" y2="70.0" /><line stroke="#555555" stroke-width="1" x1="145.6" x2="145.6" y1="200.0" y2="70.0" /><rect fill="#d0d0d0" fill-opacity="0.3" height="130.0" width="82.0" x="297.0" y="70.0" /><line stroke="#555555" stroke-width="1" x1="297.0" x2="297.0" y1="200.0" y2="70.0" /><line stroke="#555555" stroke-width="1" x1="379.0" x2="379.0" y1="200.0" y2="70.0" /><rect fill="#d0d0d0" fill-opacity="0.3" height="130.0" width="91.60000000000002" x="526.8" y="70.0" /><line stroke="#555555" stroke-width="1" x1="526.8" x2="526.8" y1="200.0" y2="70.0" /><line stroke="#555555" stroke-width="1" x1="618.4" x2="618.4" y1="200.0" y2="70.0" /><line id="geom_line_00" stroke="#000000" stroke-width="2.0" x1="40.0" x2="40.0" y1="70.0" y2="199.0" /><line id="geom_line_01" stroke="#000000" stroke-width="2.0" x1="264.0" x2="264.0" y1="70.0" y2="199.0" /><line id="geom_line_02" stroke="#000000" stroke-width="2.0" x1="489.0" x2="489.0" y1="70.0" y2="199.0" /><line id="geom_line_03" stroke="#000000" stroke-width="2.0" x1="39.0" x2="229.0" y1="199.0" y2="199.0" /><line id="geom_line_04" stroke="#000000" stroke-width="2.0" x1="264.0" x2="454.0" y1="199.0" y2="199.0" /><line id="geom_line_05" stroke="#000000" stroke-width="2.0" x1="489.0" x2="679.0" y1="199.0" y2="199.0" /><rect fill="none" height="130.0" id="geom_rect_00" stroke="#555555" stroke-width="1.0" width="226.0" x="10.0" y="70.0" /><rect fill="none" height="130.0" id="geom_rect_01" stroke="#555555" stroke-width="1.0" width="205.0" x="256.0" y="70.0" /><rect fill="none" height="130.0" id="geom_rect_02" stroke="#555555" stroke-width="1.0" width="229.0" x="481.0" y="70.0" /></g><g id="g_text"><text fill="#333333" font-family="Arial, sans-serif" font-size="10" id="txt_t_start_A3" text-anchor="start" x="59.2" y="82.0">t_start</text><text fill="#333333" font-family="Arial, sans-serif" font-size="10" id="txt_t_trigger_A3" text-anchor="start" x="149.6" y="82.0">t_trigger</text><text fill="#000000" font-family="Arial, sans-serif" font-size="12" id="txt_panel_A3" text-anchor="start" x="16.0" y="86.0">A3</text><text fill="#2b6cb0" font-family="Arial, sans-serif" font-size="10" id="txt_serving_A3" text-anchor="start" x="21.3" y="115.5">Serving</text><text fill="#dd6b20" font-family="Arial, sans-serif" font-size="10" id="txt_neighbor_A3" text-anchor="start" x="21.3" y="141.5">Neighbor</text><text fill="#333333" font-family="Arial, sans-serif" font-size="10" id="txt_t_start_A4" text-anchor="start" x="301.0" y="82.0">t_start</text><text fill="#333333" font-family="Arial, sans-serif" font-size="10" id="txt_t_trigger_A4" text-anchor="start" x="383.0" y="82.0">t_trigger</text><text fill="#000000" font-family="Arial, sans-serif" font-size="12" id="txt_panel_A4" text-anchor="start" x="262.0" y="86.0">A4</text><text fill="#2b6cb0" font-family="Arial, sans-serif" font-size="10" id="txt_serving_A4" text-anchor="start" x="266.25" y="115.5">Serving</text><text fill="#dd6b20" font-family="Arial, sans-serif" font-size="10" id="txt_neighbor_A4" text-anchor="start" x="266.25" y="141.5">Neighbor</text><text fill="#333333" font-family="Arial, sans-serif" font-size="10" id="txt_t_start_A5" text-anchor="start" x="530.8" y="82.0">t_start</text><text fill="#333333" font-family="Arial, sans-serif" font-size="10" id="txt_t_trigger_A5" text-anchor="start" x="622.4" y="82.0">t_trigger</text><text fill="#000000" font-family="Arial, sans-serif" font-size="12" id="txt_panel_A5" text-anchor="start" x="487.0" y="86.0">A5</text><text fill="#2b6cb0" font-family="Arial, sans-serif" font-size="10" id="txt_serving_A5" text-anchor="start" x="492.45" y="115.5">Serving</text><text fill="#dd6b20" font-family="Arial, sans-serif" font-size="10" id="txt_neighbor_A5" text-anchor="start" x="492.45" y="141.5">Neighbor</text></g><g id="g_markers"><circle cx="55.2" cy="76.0" fill="#555555" r="3" /><circle cx="145.6" cy="76.0" fill="#555555" r="3" /><circle cx="21.3" cy="174.0" fill="#2b6cb0" r="3" /><circle cx="224.7" cy="148.0" fill="#2b6cb0" r="3" /><circle cx="21.3" cy="148.0" fill="#dd6b20" r="3" /><circle cx="224.7" cy="96.0" fill="#dd6b20" r="3" /><circle cx="297.0" cy="76.0" fill="#555555" r="3" /><circle cx="379.0" cy="76.0" fill="#555555" r="3" /><circle cx="266.25" cy="174.0" fill="#2b6cb0" r="3" /><circle cx="450.75" cy="148.0" fill="#2b6cb0" r="3" /><circle cx="266.25" cy="148.0" fill="#dd6b20" r="3" /><circle cx="450.75" cy="96.0" fill="#dd6b20" r="3" /><circle cx="526.8" cy="76.0" fill="#555555" r="3" /><circle cx="618.4" cy="76.0" fill="#555555" r="3" /><circle cx="492.45" cy="174.0" fill="#2b6cb0" r="3" /><circle cx="698.55" cy="148.0" fill="#2b6cb0" r="3" /><circle cx="492.45" cy="148.0" fill="#dd6b20" r="3" /><circle cx="698.55" cy="96.0" fill="#dd6b20" r="3" /></g></g></svg>