<?xml version="1.0" encoding="utf-8" ?>
<svg baseProfile="full" height="320" version="1.1" width="900" xmlns="http://www.w3.org/2000/svg" xmlns:ev="http://www.w3.org/2001/xml-events" xmlns:xlink="http://www.w3.org/1999/xlink"><defs /><g id="figure_root"><g id="g_axes"><line stroke="#000000" stroke-width="2" x1="12.0" x2="292.0" y1="260.0" y2="260.0" /><line stroke="#000000" stroke-width="2" x1="12.0" x2="12.0" y1="260.0" y2="90.0" /><line stroke="#000000" stroke-width="2" x1="315.0" x2="571.0" y1="260.0" y2="260.0" /><line stroke="#000000" stroke-width="2" x1="315.0" x2="315.0" y1="260.0" y2="90.0" /><line stroke="#000000" stroke-width="2" x1="594.0" x2="888.0" y1="260.0" y2="260.0" /><line stroke="#000000" stroke-width="2" x1="594.0" x2="594.0" y1="260.0" y2="90.0" /></g><g id="g_curves"><path d="M 26.00 226.00 C 70.10 226.00 107.90 124.00 152.00 124.00 C 196.10 124.00 233.90 192.00 278.00 192.00" fill="none" id="curve_serving_A3" stroke="#2b6cb0" stroke-width="2" /><path d="M 26.00 192.00 C 70.10 192.00 107.90 209.00 152.00 209.00 C 196.10 209.00 233.90 124.00 278.00 124.00" fill="none" id="curve_neighbor_A3" stroke="#dd6b20" stroke-width="2" /><path d="M 327.80 226.00 C 368.12 226.00 402.68 124.00 443.00 124.00 C 483.32 124.00 517.88 192.00 558.20 192.00" fill="none" id="curve_serving_A4" stroke="#2b6cb0" stroke-width="2" /><path d="M 327.80 192.00 C 368.12 192.00 402.68 209.00 443.00 209.00 C 483.32 209.00 517.88 124.00 558.20 124.00" fill="none" id="curve_neighbor_A4" stroke="#dd6b20" stroke-width="2" /><path d="M 608.70 226.00 C 655.00 226.00 694.70 124.00 741.00 124.00 C 787.30 124.00 827.00 192.00 873.30 192.00" fill="none" id="curve_serving_A5" stroke="#2b6cb0" stroke-width="2" /><path d="M 608.70 192.00 C 655.00 192.00 694.70 209.00 741.00 209.00 C 787.30 209.00 827.00 124.00 873.30 124.00" fill="none" id="curve_neighbor_A5" stroke="#dd6b20" stroke-width="2" /></g><g id="g_annotations"><rect fill="#d0d0d0" fill-opacity="0.3" height="170.0" width="112.0" x="68.0" y="90.0" /><line stroke="#555555" stroke-width="1" x1="68.0" x2="68.0" y1="260.0" y2="90.0" /><line stroke="#555555" stroke-width="1" x1="180.0" x2="180.0" y1="260.0" y2="90.0" /><rect fill="#d0d0d0" fill-opacity="0.3" height="170.0" width="102.40000000000003" x="366.2" y="90.0" /><line stroke="#555555" stroke-width="1" x1="366.2" x2="366.2" y1="260.0" y2="90.0" /><line stroke="#555555" stroke-width="1" x1="468.6" x2="468.6" y1="260.0" y2="90.0" /><rect fill="#d0d0d0" fill-opacity="0.3" height="170.0" width="117.60000000000002" x="652.8" y="90.0" /><line stroke="#555555" stroke-width="1" x1="652.8" x2="652.8" y1="260.0" y2="90.0" /><line stroke="#555555" stroke-width="1" x1="770.4" x2="770.4" y1="260.0" y2="90.0" /><line id="geom_line_00" stroke="#000000" stroke-width="2.0" x1="60.0" x2="60.0" y1="90.0" y2="259.0" /><line id="geom_line_01" stroke="#000000" stroke-width="2.0" x1="339.0" x2="339.0" y1="90.0" y2="259.0" /><line id="geom_line_02" stroke="#000000" stroke-width="2.0" x1="620.0" x2="620.0" y1="90.0" y2="259.0" /><line id="geom_line_03" stroke="#000000" stroke-width="2.0" x1="59.0" x2="279.0" y1="259.0" y2="259.0" /><line id="geom_line_04" stroke="#000000" stroke-width="2.0" x1="339.0" x2="559.0" y1="259.0" y2="259.0" /><line id="geom_line_05" stroke="#000000" stroke-width="2.0" x1="619.0" x2="839.0" y1="259.0" y2="259.0" /><rect fill="none" height="170.0" id="geom_rect_00" stroke="#555555" stroke-width="1.0" width="280.0" x="12.0" y="90.0" /><rect fill="none" height="170.0" id="geom_rect_01" stroke="#555555" stroke-width="1.0" width="256.0" x="315.0" y="90.0" /><rect fill="none" height="170.0" id="geom_rect_02" stroke="#555555" stroke-width="1.0" width="294.0" x="594.0" y="90.0" /></g><g id="g_text"><text fill="#333333" font-family="Arial, sans-serif" font-size="10" id="txt_t_start_A3" text-anchor="start" x="72.0" y="102.0">t_start</text><text fill="#333333" font-family="Arial, sans-serif" font-size="10" id="txt_t_trigger_A3" text-anchor="start" x="184.0" y="102.0">t_trigger</text><text fill="#000000" font-family="Arial, sans-serif" font-size="12" id="txt_panel_A3" text-anchor="start" x="18.0" y="106.0">A3</text><text fill="#2b6cb0" font-family="Arial, sans-serif" font-size="10" id="txt_serving_A3" text-anchor="start" x="26.0" y="149.5">Serving</text><text fill="#dd6b20" font-family="Arial, sans-serif" font-size="10" id="txt_neighbor_A3" text-anchor="start" x="26.0" y="183.5">Neighbor</text><text fill="#333333" font-family="Arial, sans-serif" font-size="10" id="txt_t_start_A4" text-anchor="start" x="370.2" y="102.0">t_start</text><text fill="#333333" font-family="Arial, sans-serif" font-size="10" id="txt_t_trigger_A4" text-anchor="start" x="472.6" y="102.0">t_trigger</text><text fill="#000000" font-family="Arial, sans-serif" font-size="12" id="txt_panel_A4" text-anchor="start" x="321.0" y="106.0">A4</text><text fill="#2b6cb0" font-family="Arial, sans-serif" font-size="10" id="txt_serving_A4" text-anchor="start" x="327.8" y="149.5">Serving</text><text fill="#dd6b20" font-family="Arial, sans-serif" font-size="10" id="txt_neighbor_A4" text-anchor="start" x="327.8" y="183.5">Neighbor</text><text fill="#333333" font-family="Arial, sans-serif" font-size="10" id="txt_t_start_A5" text-anchor="start" x="656.8" y="102.0">t_start</text><text fill="#333333" font-family="Arial, sans-serif" font-size="10" id="txt_t_trigger_A5" text-anchor="start" x="774.4" y="102.0">t_trigger</text><text fill="#000000" font-family="Arial, sans-serif" font-size="12" id="txt_panel_A5" text-anchor="start" x="600.0" y="106.0">A5</text><text fill="#2b6cb0" font-family="Arial, sans-serif" font-size="10" id="txt_serving_A5" text-anchor="start" x="608.7" y="149.5">Serving</text><text fill="#dd6b20" font-family="Arial, sans-serif" font-size="10" id="txt_neighbor_A5" text-anchor="start" x="608.7" y="183.5">Neighbor</text></g><g id="g_markers"><circle cx="68.0" cy="96.0" fill="#555555" r="3" /><circle cx="180.0" cy="96.0" fill="#555555" r="3" /><circle cx="26.0" cy="226.0" fill="#2b6cb0" r="3" /><circle cx="278.0" cy="192.0" fill="#2b6cb0" r="3" /><circle cx="26.0" cy="192.0" fill="#dd6b20" r="3" /><circle cx="278.0" cy="124.0" fill="#dd6b20" r="3" /><circle cx="366.2" cy="96.0" fill="#555555" r="3" /><circle cx="468.6" cy="96.0" fill="#555555" r="3" /><circle cx="327.8" cy="226.0" fill="#2b6cb0" r="3" /><circle cx="558.2" cy="192.0" fill="#2b6cb0" r="3" /><circle cx="327.8" cy="192.0" fill="#dd6b20" r="3" /><circle cx="558.2" cy="124.0" fill="#dd6b20" r="3" /><circle cx="652.8" cy="96.0" fill="#555555" r="3" /><circle cx="770.4" cy="96.0" fill="#555555" r="3" /><circle cx="608.7" cy="226.0" fill="#2b6cb0" r="3" /><circle cx="873.3" cy="192.0" fill="#2b6cb0" r="3" /><circle cx="608.7" cy="192.0" fill="#dd6b20" r="3" /><circle cx="873.3" cy="124.0" fill="#dd6b20" r="3" /></g></g></svg>