<?xml version="1.0" encoding="utf-8" ?>
<svg baseProfile="full" height="240" version="1.1" width="780" xmlns="http://www.w3.org/2000/svg" xmlns:ev="http://www.w3.org/2001/xml-events" xmlns:xlink="http://www.w3.org/1999/xlink"><defs /><g id="figure_root"><g id="g_axes"><line stroke="#000000" stroke-width="2" x1="10.0" x2="239.0" y1="190.0" y2="190.0" /><line stroke="#000000" stroke-width="2" x1="10.0" x2="10.0" y1="190.0" y2="50.0" /><line stroke="#000000" stroke-width="2" x1="259.0" x2="499.0" y1="190.0" y2="190.0" /><line stroke="#000000" stroke-width="2" x1="259.0" x2="259.0" y1="190.0" y2="50.0" /><line stroke="#000000" stroke-width="2" x1="519.0" x2="770.0" y1="190.0" y2="190.0" /><line stroke="#000000" stroke-width="2" x1="519.0" x2="519.0" y1="190.0" y2="50.0" /></g><g id="g_curves"><path d="M 21.45 162.00 C 57.52 162.00 88.43 78.00 124.50 78.00 C 160.57 78.00 191.48 134.00 227.55 134.00" fill="none" id="curve_serving_A3" stroke="#2b6cb0" stroke-width="2" /><path d="M 21.45 134.00 C 57.52 134.00 88.43 148.00 124.50 148.00 C 160.57 148.00 191.48 78.00 227.55 78.00" fill="none" id="curve_neighbor_A3" stroke="#dd6b20" stroke-width="2" /><path d="M 271.00 162.00 C 308.80 162.00 341.20 78.00 379.00 78.00 C 416.80 78.00 449.20 134.00 487.00 134.00" fill="none" id="curve_serving_A4" stroke="#2b6cb0" stroke-width="2" /><path d="M 271.00 134.00 C 308.80 134.00 341.20 148.00 379.00 148.00 C 416.80 148.00 449.20 78.00 487.00 78.00" fill="none" id="curve_neighbor_A4" stroke="#dd6b20" stroke-width="2" /><path d="M 531.55 162.00 C 571.08 162.00 604.97 78.00 644.50 78.00 C 684.03 78.00 717.92 134.00 757.45 134.00" fill="none" id="curve_serving_A5" stroke="#2b6cb0" stroke-width="2" /><path d="M 531.55 134.00 C 571.08 134.00 604.97 148.00 644.50 148.00 C 684.03 148.00 717.92 78.00 757.45 78.00" fill="none" id="curve_neighbor_A5" stroke="#dd6b20" stroke-width="2" /></g><g id="g_annotations"><rect fill="#d0d0d0" fill-opacity="0.3" height="140.0" width="91.6" x="55.800000000000004" y="50.0" /><line stroke="#555555" stroke-width="1" x1="55.800000000000004" x2="55.800000000000004" y1="190.0" y2="50.0" /><line stroke="#555555" stroke-width="1" x1="147.4" x2="147.4" y1="190.0" y2="50.0" /><rect fill="#d0d0d0" fill-opacity="0.3" height="140.0" width="96.0" x="307.0" y="50.0" /><line stroke="#555555" stroke-width="1" x1="307.0" x2="307.0" y1="190.0" y2="50.0" /><line stroke="#555555" stroke-width="1" x1="403.0" x2="403.0" y1="190.0" y2="50.0" /><rect fill="#d0d0d0" fill-opacity="0.3" height="140.0" width="100.39999999999998" x="569.2" y="50.0" /><line stroke="#555555" stroke-width="1" x1="569.2" x2="569.2" y1="190.0" y2="50.0" /><line stroke="#555555" stroke-width="1" x1="669.6" x2="669.6" y1="190.0" y2="50.0" /><line id="geom_line_00" stroke="#000000" stroke-width="2.0" x1="30.0" x2="30.0" y1="50.0" y2="189.0" /><line id="geom_line_01" stroke="#000000" stroke-width="2.0" x1="289.0" x2="289.0" y1="50.0" y2="189.0" /><line id="geom_line_02" stroke="#000000" stroke-width="2.0" x1="549.0" x2="549.0" y1="50.0" y2="189.0" /><line id="geom_line_03" stroke="#000000" stroke-width="2.0" x1="29.0" x2="229.0" y1="189.0" y2="189.0" /><line id="geom_line_04" stroke="#000000" stroke-width="2.0" x1="289.0" x2="489.0" y1="189.0" y2="189.0" /><line id="geom_line_05" stroke="#000000" stroke-width="2.0" x1="549.0" x2="749.0" y1="189.0" y2="189.0" /><rect fill="none" height="140.0" id="geom_rect_00" stroke="#555555" stroke-width="1.0" width="229.0" x="10.0" y="50.0" /><rect fill="none" height="140.0" id="geom_rect_01" stroke="#555555" stroke-width="1.0" width="240.0" x="259.0" y="50.0" /><rect fill="none" height="140.0" id="geom_rect_02" stroke="#555555" stroke-width="1.0" width="251.0" x="519.0" y="50.0" /></g><g id="g_text"><text fill="#333333" font-family="Arial, sans-serif" font-size="10" id="txt_t_start_A3" text-anchor="start" x="59.800000000000004" y="62.0">t_start</text><text fill="#333333" font-family="Arial, sans-serif" font-size="10" id="txt_t_trigger_A3" text-anchor="start" x="151.4" y="62.0">t_trigger</text><text fill="#000000" font-family="Arial, sans-serif" font-size="12" id="txt_panel_A3" text-anchor="start" x="16.0" y="66.0">A3</text><text fill="#2b6cb0" font-family="Arial, sans-serif" font-size="10" id="txt_serving_A3" text-anchor="start" x="21.450000000000003" y="99.0">Serving</text><text fill="#dd6b20" font-family="Arial, sans-serif" font-size="10" id="txt_neighbor_A3" text-anchor="start" x="21.450000000000003" y="127.0">Neighbor</text><text fill="#333333" font-family="Arial, sans-serif" font-size="10" id="txt_t_start_A4" text-anchor="start" x="311.0" y="62.0">t_start</text><text fill="#333333" font-family="Arial, sans-serif" font-size="10" id="txt_t_trigger_A4" text-anchor="start" x="407.0" y="62.0">t_trigger</text><text fill="#000000" font-family="Arial, sans-serif" font-size="12" id="txt_panel_A4" text-anchor="start" x="265.0" y="66.0">A4</text><text fill="#2b6cb0" font-family="Arial, sans-serif" font-size="10" id="txt_serving_A4" text-anchor="start" x="271.0" y="99.0">Serving</text><text fill="#dd6b20" font-family="Arial, sans-serif" font-size="10" id="txt_neighbor_A4" text-anchor="start" x="271.0" y="127.0">Neighbor</text><text fill="#333333" font-family="Arial, sans-serif" font-size="10" id="txt_t_start_A5" text-anchor="start" x="573.2" y="62.0">t_start</text><text fill="#333333" font-family="Arial, sans-serif" font-size="10" id="txt_t_trigger_A5" text-anchor="start" x="673.6" y="62.0">t_trigger</text><text fill="#000000" font-family="Arial, sans-serif" font-size="12" id="txt_panel_A5" text-anchor="start" x="525.0" y="66.0">A5</text><text fill="#2b6cb0" font-family="Arial, sans-serif" font-size="10" id="txt_serving_A5" text-anchor="start" x="531.55" y="99.0">Serving</text><text fill="#dd6b20" font-family="Arial, sans-serif" font-size="10" id="txt_neighbor_A5" text-anchor="start" x="531.55" y="127.0">Neighbor</text></g><g id="g_markers"><circle cx="55.800000000000004" cy="56.0" fill="#555555" r="3" /><circle cx="147.4" cy="56.0" fill="#555555" r="3" /><circle cx="21.450000000000003" cy="162.0" fill="#2b6cb0" r="3" /><circle cx="227.54999999999998" cy="134.0" fill="#2b6cb0" r="3" /><circle cx="21.450000000000003" cy="134.0" fill="#dd6b20" r="3" /><circle cx="227.54999999999998" cy="78.0" fill="#dd6b20" r="3" /><circle cx="307.0" cy="56.0" fill="#555555" r="3" /><circle cx="403.0" cy="56.0" fill="#555555" r="3" /><circle cx="271.0" cy="162.0" fill="#2b6cb0" r="3" /><circle cx="487.0" cy="134.0" fill="#2b6cb0" r="3" /><circle cx="271.0" cy="134.0" fill="#dd6b20" r="3" /><circle cx="487.0" cy="78.0" fill="#dd6b20" r="3" /><circle cx="569.2" cy="56.0" fill="#555555" r="3" /><circle cx="669.6" cy="56.0" fill="#555555" r="3" /><circle cx="531.55" cy="162.0" fill="#2b6cb0" r="3" /><circle cx="757.45" cy="134.0" fill="#2b6cb0" r="3" /><circle cx="531.55" cy="134.0" fill="#dd6b20" r="3" /><circle cx="757.45" cy="78.0" fill="#dd6b20" r="3" /></g></g></svg>