<?xml version="1.0" encoding="utf-8" ?>
<svg baseProfile="full" height="320" version="1.1" width="900" xmlns="http://www.w3.org/2000/svg" xmlns:ev="http://www.w3.org/2001/xml-events" xmlns:xlink="http://www.w3.org/1999/xlink"><defs /><g id="figure_root"><g id="g_axes"><line stroke="#000000" stroke-width="2" x1="90.0" x2="880.0" y1="330.0" y2="330.0" /><line stroke="#000000" stroke-width="2" x1="90.0" x2="90.0" y1="330.0" y2="250.0" /><line stroke="#000000" stroke-width="1" x1="90.0" x2="90.0" y1="330.0" y2="336.0" /><line stroke="#000000" stroke-width="1" x1="485.0" x2="485.0" y1="330.0" y2="336.0" /><line stroke="#000000" stroke-width="1" x1="880.0" x2="880.0" y1="330.0" y2="336.0" /><line stroke="#000000" stroke-width="1" x1="84.0" x2="90.0" y1="330.0" y2="330.0" /><line stroke="#000000" stroke-width="1" x1="84.0" x2="90.0" y1="290.0" y2="290.0" /><line stroke="#000000" stroke-width="1" x1="84.0" x2="90.0" y1="250.0" y2="250.0" /></g><g id="g_curves"><polyline fill="none" id="series_series_1" points="90.0,314.0 880.0,266.0" stroke="#1f77b4" stroke-width="2.0" /></g><g id="g_annotations"><g id="legend"><line stroke="#1f77b4" stroke-width="2.0" x1="740.0" x2="764.0" y1="260.0" y2="260.0" /></g><line id="geom_line_00" stroke="#000000" stroke-width="2.0" x1="90.0" x2="880.0" y1="250.0" y2="250.0" /><line id="geom_line_01" stroke="#000000" stroke-width="2.0" x1="90.0" x2="90.0" y1="250.0" y2="330.0" /><rect fill="none" height="80.0" id="geom_rect_00" stroke="#555555" stroke-width="1.0" width="790.0" x="90.0" y="250.0" /></g><g id="g_text"><text fill="#000000" font-family="Arial, sans-serif" font-size="10" id="txt_tick_x_0" text-anchor="middle" x="90.0" y="348.0">0</text><text fill="#000000" font-family="Arial, sans-serif" font-size="10" id="txt_tick_x_1" text-anchor="middle" x="485.0" y="348.0">0.5</text><text fill="#000000" font-family="Arial, sans-serif" font-size="10" id="txt_tick_x_2" text-anchor="middle" x="880.0" y="348.0">1</text><text fill="#000000" font-family="Arial, sans-serif" font-size="10" id="txt_tick_y_0" text-anchor="end" x="80.0" y="333.0">0</text><text fill="#000000" font-family="Arial, sans-serif" font-size="10" id="txt_tick_y_1" text-anchor="end" x="80.0" y="293.0">0.5</text><text fill="#000000" font-family="Arial, sans-serif" font-size="10" id="txt_tick_y_2" text-anchor="end" x="80.0" y="253.0">1</text><text fill="#000000" font-family="Arial, sans-serif" font-size="10" id="txt_legend_series_1" text-anchor="start" x="770.0" y="264.0">Series 1</text></g><g id="g_markers" /></g></svg>