<?xml version="1.0" encoding="utf-8" ?>
<svg baseProfile="full" height="260" version="1.1" width="640" xmlns="http://www.w3.org/2000/svg" xmlns:ev="http://www.w3.org/2001/xml-events" xmlns:xlink="http://www.w3.org/1999/xlink"><defs /><g id="figure_root"><g id="g_axes"><line stroke="#000000" stroke-width="2" x1="60.0" x2="620.0" y1="280.0" y2="280.0" /><line stroke="#000000" stroke-width="2" x1="60.0" x2="60.0" y1="280.0" y2="200.0" /><line stroke="#000000" stroke-width="1" x1="60.0" x2="60.0" y1="280.0" y2="286.0" /><line stroke="#000000" stroke-width="1" x1="340.0" x2="340.0" y1="280.0" y2="286.0" /><line stroke="#000000" stroke-width="1" x1="620.0" x2="620.0" y1="280.0" y2="286.0" /><line stroke="#000000" stroke-width="1" x1="54.0" x2="60.0" y1="280.0" y2="280.0" /><line stroke="#000000" stroke-width="1" x1="54.0" x2="60.0" y1="240.0" y2="240.0" /><line stroke="#000000" stroke-width="1" x1="54.0" x2="60.0" y1="200.0" y2="200.0" /></g><g id="g_curves"><polyline fill="none" id="series_series_1" points="60.0,264.0 620.0,216.0" stroke="#1f77b4" stroke-width="2.0" /></g><g id="g_annotations"><g id="legend"><line stroke="#1f77b4" stroke-width="2.0" x1="480.0" x2="504.0" y1="210.0" y2="210.0" /></g><line id="geom_line_00" stroke="#000000" stroke-width="2.0" x1="60.0" x2="620.0" y1="200.0" y2="200.0" /><line id="geom_line_01" stroke="#000000" stroke-width="2.0" x1="60.0" x2="60.0" y1="200.0" y2="280.0" /><rect fill="none" height="80.0" id="geom_rect_00" stroke="#555555" stroke-width="1.0" width="560.0" x="60.0" y="200.0" /></g><g id="g_text"><text fill="#000000" font-family="Arial, sans-serif" font-size="10" id="txt_tick_x_0" text-anchor="middle" x="60.0" y="298.0">0</text><text fill="#000000" font-family="Arial, sans-serif" font-size="10" id="txt_tick_x_1" text-anchor="middle" x="340.0" y="298.0">0.5</text><text fill="#000000" font-family="Arial, sans-serif" font-size="10" id="txt_tick_x_2" text-anchor="middle" x="620.0" y="298.0">1</text><text fill="#000000" font-family="Arial, sans-serif" font-size="10" id="txt_tick_y_0" text-anchor="end" x="50.0" y="283.0">0</text><text fill="#000000" font-family="Arial, sans-serif" font-size="10" id="txt_tick_y_1" text-anchor="end" x="50.0" y="243.0">0.5</text><text fill="#000000" font-family="Arial, sans-serif" font-size="10" id="txt_tick_y_2" text-anchor="end" x="50.0" y="203.0">1</text><text fill="#000000" font-family="Arial, sans-serif" font-size="10" id="txt_legend_series_1" text-anchor="start" x="510.0" y="214.0">Series 1</text></g><g id="g_markers" /></g></svg>