<?xml version="1.0" encoding="utf-8" ?>
<svg baseProfile="full" height="420" version="1.1" width="980" xmlns="http://www.w3.org/2000/svg" xmlns:ev="http://www.w3.org/2001/xml-events" xmlns:xlink="http://www.w3.org/1999/xlink"><defs /><g id="figure_root"><g id="g_axes" /><g id="g_curves"><line fill="none" stroke="#000000" stroke-width="2" x1="314.0" x2="392.0" y1="189.0" y2="189.0" /><line fill="none" stroke="#000000" stroke-width="2" x1="588.0" x2="666.0" y1="189.0" y2="189.0" /></g><g id="g_annotations"><rect fill="#ffffff" height="84.0" id="node_node_1" rx="8.0" ry="8.0" stroke="#000000" stroke-width="2" width="196.0" x="118.0" y="147.0" /><rect fill="#ffffff" height="84.0" id="node_node_2" rx="8.0" ry="8.0" stroke="#000000" stroke-width="2" width="196.0" x="392.0" y="147.0" /><rect fill="#ffffff" height="84.0" id="node_node_3" rx="8.0" ry="8.0" stroke="#000000" stroke-width="2" width="196.0" x="666.0" y="147.0" /><line id="geom_line_00" stroke="#000000" stroke-width="2.0" x1="216.0" x2="490.0" y1="189.0" y2="189.0" /><line id="geom_line_01" stroke="#000000" stroke-width="2.0" x1="490.0" x2="764.0" y1="189.0" y2="189.0" /><rect fill="none" height="84.0" id="geom_rect_00" stroke="#000000" stroke-width="2.0" width="196.0" x="118.0" y="147.0" /><rect fill="none" height="84.0" id="geom_rect_01" stroke="#000000" stroke-width="2.0" width="196.0" x="392.0" y="147.0" /><rect fill="none" height="84.0" id="geom_rect_02" stroke="#000000" stroke-width="2.0" width="196.0" x="666.0" y="147.0" /></g><g id="g_text"><text fill="#000000" font-family="Arial, sans-serif" font-size="12" id="txt_node_node_1" text-anchor="start" x="130.0" y="171.0"><tspan id="txt_node_node_1_line0" x="130.0" y="171.0">Unknown</tspan></text><text fill="#000000" font-family="Arial, sans-serif" font-size="12" id="txt_node_node_2" text-anchor="start" x="404.0" y="171.0"><tspan id="txt_node_node_2_line0" x="404.0" y="171.0">Unknown</tspan></text><text fill="#000000" font-family="Arial, sans-serif" font-size="12" id="txt_node_node_3" text-anchor="start" x="678.0" y="171.0"><tspan id="txt_node_node_3_line0" x="678.0" y="171.0">Unknown</tspan></text></g><g id="g_markers"><polygon fill="#000000" points="392.0,189.0 382.0,192.0 382.0,186.0" /><polygon fill="#000000" points="666.0,189.0 656.0,192.0 656.0,186.0" /></g></g></svg>