<?xml version="1.0" encoding="utf-8" ?>
<svg baseProfile="full" height="220" version="1.1" width="640" xmlns="http://www.w3.org/2000/svg" xmlns:ev="http://www.w3.org/2001/xml-events" xmlns:xlink="http://www.w3.org/1999/xlink"><defs /><g id="figure_root"><g id="g_axes"><line stroke="#000000" stroke-width="2" x1="10.0" x2="192.0" y1="180.0" y2="180.0" /><line stroke="#000000" stroke-width="2" x1="10.0" x2="10.0" y1="180.0" y2="60.0" /><line stroke="#000000" stroke-width="2" x1="212.0" x2="393.0" y1="180.0" y2="180.0" /><line stroke="#000000" stroke-width="2" x1="212.0" x2="212.0" y1="180.0" y2="60.0" /><line stroke="#000000" stroke-width="2" x1="413.0" x2="630.0" y1="180.0" y2="180.0" /><line stroke="#000000" stroke-width="2" x1="413.0" x2="413.0" y1="180.0" y2="60.0" /></g><g id="g_curves"><path d="M 19.10 156.00 C 47.77 156.00 72.34 84.00 101.00 84.00 C 129.66 84.00 154.24 132.00 182.90 132.00" fill="none" id="curve_serving_A3" stroke="#2b6cb0" stroke-width="2" /><path d="M 19.10 132.00 C 47.77 132.00 72.34 144.00 101.00 144.00 C 129.66 144.00 154.24 84.00 182.90 84.00" fill="none" id="curve_neighbor_A3" stroke="#dd6b20" stroke-width="2" /><path d="M 221.05 156.00 C 249.56 156.00 273.99 84.00 302.50 84.00 C 331.01 84.00 355.44 132.00 383.95 132.00" fill="none" id="curve_serving_A4" stroke="#2b6cb0" stroke-width="2" /><path d="M 221.05 132.00 C 249.56 132.00 273.99 144.00 302.50 144.00 C 331.01 144.00 355.44 84.00 383.95 84.00" fill="none" id="curve_neighbor_A4" stroke="#dd6b20" stroke-width="2" /><path d="M 423.85 156.00 C 458.03 156.00 487.32 84.00 521.50 84.00 C 555.68 84.00 584.97 132.00 619.15 132.00" fill="none" id="curve_serving_A5" stroke="#2b6cb0" stroke-width="2" /><path d="M 423.85 132.00 C 458.03 132.00 487.32 144.00 521.50 144.00 C 555.68 144.00 584.97 84.00 619.15 84.00" fill="none" id="curve_neighbor_A5" stroke="#dd6b20" stroke-width="2" /></g><g id="g_annotations"><rect fill="#d0d0d0" fill-opacity="0.3" height="120.0" width="72.80000000000001" x="46.4" y="60.0" /><line stroke="#555555" stroke-width="1" x1="46.4" x2="46.4" y1="180.0" y2="60.0" /><line stroke="#555555" stroke-width="1" x1="119.2" x2="119.2" y1="180.0" y2="60.0" /><rect fill="#d0d0d0" fill-opacity="0.3" height="120.0" width="72.40000000000003" x="248.2" y="60.0" /><line stroke="#555555" stroke-width="1" x1="248.2" x2="248.2" y1="180.0" y2="60.0" /><line stroke="#555555" stroke-width="1" x1="320.6" x2="320.6" y1="180.0" y2="60.0" /><rect fill="#d0d0d0" fill-opacity="0.3" height="120.0" width="86.80000000000007" x="456.4" y="60.0" /><line stroke="#555555" stroke-width="1" x1="456.4" x2="456.4" y1="180.0" y2="60.0" /><line stroke="#555555" stroke-width="1" x1="543.2" x2="543.2" y1="180.0" y2="60.0" /><line id="geom_line_00" stroke="#000000" stroke-width="2.0" x1="20.0" x2="20.0" y1="60.0" y2="179.0" /><line id="geom_line_01" stroke="#000000" stroke-width="2.0" x1="220.0" x2="220.0" y1="60.0" y2="179.0" /><line id="geom_line_02" stroke="#000000" stroke-width="2.0" x1="419.0" x2="419.0" y1="60.0" y2="179.0" /><line id="geom_line_03" stroke="#000000" stroke-width="2.0" x1="19.0" x2="191.0" y1="179.0" y2="179.0" /><line id="geom_line_04" stroke="#000000" stroke-width="2.0" x1="219.0" x2="392.0" y1="179.0" y2="179.0" /><line id="geom_line_05" stroke="#000000" stroke-width="2.0" x1="419.0" x2="599.0" y1="179.0" y2="179.0" /><line class="dashed" id="geom_line_06" stroke="#555555" stroke-dasharray="6,4" stroke-width="1.0" x1="19.0" x2="559.0" y1="109.0" y2="109.0" /><rect fill="none" height="120.0" id="geom_rect_00" stroke="#555555" stroke-width="1.0" width="182.0" x="10.0" y="60.0" /><rect fill="none" height="120.0" id="geom_rect_01" stroke="#555555" stroke-width="1.0" width="181.0" x="212.0" y="60.0" /><rect fill="none" height="120.0" id="geom_rect_02" stroke="#555555" stroke-width="1.0" width="217.0" x="413.0" y="60.0" /></g><g id="g_text"><text fill="#333333" font-family="Arial, sans-serif" font-size="10" id="txt_t_start_A3" text-anchor="start" x="50.4" y="72.0">t_start</text><text fill="#333333" font-family="Arial, sans-serif" font-size="10" id="txt_t_trigger_A3" text-anchor="start" x="123.2" y="72.0">t_trigger</text><text fill="#000000" font-family="Arial, sans-serif" font-size="12" id="txt_panel_A3" text-anchor="start" x="16.0" y="76.0">A3</text><text fill="#2b6cb0" font-family="Arial, sans-serif" font-size="10" id="txt_serving_A3" text-anchor="start" x="19.1" y="102.0">Serving</text><text fill="#dd6b20" font-family="Arial, sans-serif" font-size="10" id="txt_neighbor_A3" text-anchor="start" x="19.1" y="126.0">Neighbor</text><text fill="#333333" font-family="Arial, sans-serif" font-size="10" id="txt_t_start_A4" text-anchor="start" x="252.2" y="72.0">t_start</text><text fill="#333333" font-family="Arial, sans-serif" font-size="10" id="txt_t_trigger_A4" text-anchor="start" x="324.6" y="72.0">t_trigger</text><text fill="#000000" font-family="Arial, sans-serif" font-size="12" id="txt_panel_A4" text-anchor="start" x="218.0" y="76.0">A4</text><text fill="#2b6cb0" font-family="Arial, sans-serif" font-size="10" id="txt_serving_A4" text-anchor="start" x="221.05" y="102.0">Serving</text><text fill="#dd6b20" font-family="Arial, sans-serif" font-size="10" id="txt_neighbor_A4" text-anchor="start" x="221.05" y="126.0">Neighbor</text><text fill="#333333" font-family="Arial, sans-serif" font-size="10" id="txt_t_start_A5" text-anchor="start" x="460.4" y="72.0">t_start</text><text fill="#333333" font-family="Arial, sans-serif" font-size="10" id="txt_t_trigger_A5" text-anchor="start" x="547.2" y="72.0">t_trigger</text><text fill="#000000" font-family="Arial, sans-serif" font-size="12" id="txt_panel_A5" text-anchor="start" x="419.0" y="76.0">A5</text><text fill="#2b6cb0" font-family="Arial, sans-serif" font-size="10" id="txt_serving_A5" text-anchor="start" x="423.85" y="102.0">Serving</text><text fill="#dd6b20" font-family="Arial, sans-serif" font-size="10" id="txt_neighbor_A5" text-anchor="start" x="423.85" y="126.0">Neighbor</text></g><g id="g_markers"><circle cx="46.4" cy="66.0" fill="#555555" r="3" /><circle cx="119.2" cy="66.0" fill="#555555" r="3" /><circle cx="19.1" cy="156.0" fill="#2b6cb0" r="3" /><circle cx="182.9" cy="132.0" fill="#2b6cb0" r="3" /><circle cx="19.1" cy="132.0" fill="#dd6b20" r="3" /><circle cx="182.9" cy="84.0" fill="#dd6b20" r="3" /><circle cx="248.2" cy="66.0" fill="#555555" r="3" /><circle cx="320.6" cy="66.0" fill="#555555" r="3" /><circle cx="221.05" cy="156.0" fill="#2b6cb0" r="3" /><circle cx="383.95" cy="132.0" fill="#2b6cb0" r="3" /><circle cx="221.05" cy="132.0" fill="#dd6b20" r="3" /><circle cx="383.95" cy="84.0" fill="#dd6b20" r="3" /><circle cx="456.4" cy="66.0" fill="#555555" r="3" /><circle cx="543.2" cy="66.0" fill="#555555" r="3" /><circle cx="423.85" cy="156.0" fill="#2b6cb0" r="3" /><circle cx="619.15" cy="132.0" fill="#2b6cb0" r="3" /><circle cx="423.85" cy="132.0" fill="#dd6b20" r="3" /><circle cx="619.15" cy="84.0" fill="#dd6b20" r="3" /></g></g></svg>