<?xml version="1.0" encoding="utf-8" ?>
<svg baseProfile="full" height="320" version="1.1" width="960" xmlns="http://www.w3.org/2000/svg" xmlns:ev="http://www.w3.org/2001/xml-events" xmlns:xlink="http://www.w3.org/1999/xlink"><defs /><g id="figure_root"><g id="g_axes"><line stroke="#000000" stroke-width="2" x1="12.0" x2="299.0" y1="280.0" y2="280.0" /><line stroke="#000000" stroke-width="2" x1="12.0" x2="12.0" y1="280.0" y2="80.0" /><line stroke="#000000" stroke-width="2" x1="322.0" x2="594.0" y1="280.0" y2="280.0" /><line stroke="#000000" stroke-width="2" x1="322.0" x2="322.0" y1="280.0" y2="80.0" /><line stroke="#000000" stroke-width="2" x1="619.0" x2="946.0" y1="280.0" y2="280.0" /><line stroke="#000000" stroke-width="2" x1="619.0" x2="619.0" y1="280.0" y2="80.0" /></g><g id="g_curves"><path d="M 26.35 240.00 C 71.55 240.00 110.30 120.00 155.50 120.00 C 200.70 120.00 239.45 200.00 284.65 200.00" fill="none" id="curve_serving_A3" stroke="#2b6cb0" stroke-width="2" /><path d="M 26.35 200.00 C 71.55 200.00 110.30 220.00 155.50 220.00 C 200.70 220.00 239.45 120.00 284.65 120.00" fill="none" id="curve_neighbor_A3" stroke="#dd6b20" stroke-width="2" /><path d="M 335.60 240.00 C 378.44 240.00 415.16 120.00 458.00 120.00 C 500.84 120.00 537.56 200.00 580.40 200.00" fill="none" id="curve_serving_A4" stroke="#2b6cb0" stroke-width="2" /><path d="M 335.60 200.00 C 378.44 200.00 415.16 220.00 458.00 220.00 C 500.84 220.00 537.56 120.00 580.40 120.00" fill="none" id="curve_neighbor_A4" stroke="#dd6b20" stroke-width="2" /><path d="M 635.35 240.00 C 686.85 240.00 731.00 120.00 782.50 120.00 C 834.00 120.00 878.15 200.00 929.65 200.00" fill="none" id="curve_serving_A5" stroke="#2b6cb0" stroke-width="2" /><path d="M 635.35 200.00 C 686.85 200.00 731.00 220.00 782.50 220.00 C 834.00 220.00 878.15 120.00 929.65 120.00" fill="none" id="curve_neighbor_A5" stroke="#dd6b20" stroke-width="2" /></g><g id="g_annotations"><rect fill="#d0d0d0" fill-opacity="0.3" height="200.0" width="114.79999999999998" x="69.4" y="80.0" /><line stroke="#555555" stroke-width="1" x1="69.4" x2="69.4" y1="280.0" y2="80.0" /><line stroke="#555555" stroke-width="1" x1="184.2" x2="184.2" y1="280.0" y2="80.0" /><rect fill="#d0d0d0" fill-opacity="0.3" height="200.0" width="108.80000000000001" x="376.4" y="80.0" /><line stroke="#555555" stroke-width="1" x1="376.4" x2="376.4" y1="280.0" y2="80.0" /><line stroke="#555555" stroke-width="1" x1="485.2" x2="485.2" y1="280.0" y2="80.0" /><rect fill="#d0d0d0" fill-opacity="0.3" height="200.0" width="130.80000000000007" x="684.4" y="80.0" /><line stroke="#555555" stroke-width="1" x1="684.4" x2="684.4" y1="280.0" y2="80.0" /><line stroke="#555555" stroke-width="1" x1="815.2" x2="815.2" y1="280.0" y2="80.0" /><line id="geom_line_00" stroke="#000000" stroke-width="2.0" x1="50.0" x2="50.0" y1="80.0" y2="279.0" /><line id="geom_line_01" stroke="#000000" stroke-width="2.0" x1="340.0" x2="340.0" y1="80.0" y2="279.0" /><line id="geom_line_02" stroke="#000000" stroke-width="2.0" x1="629.0" x2="629.0" y1="80.0" y2="279.0" /><line id="geom_line_03" stroke="#000000" stroke-width="2.0" x1="49.0" x2="298.0" y1="279.0" y2="279.0" /><line id="geom_line_04" stroke="#000000" stroke-width="2.0" x1="339.0" x2="593.0" y1="279.0" y2="279.0" /><line id="geom_line_05" stroke="#000000" stroke-width="2.0" x1="629.0" x2="889.0" y1="279.0" y2="279.0" /><rect fill="none" height="200.0" id="geom_rect_00" stroke="#555555" stroke-width="1.0" width="287.0" x="12.0" y="80.0" /><rect fill="none" height="200.0" id="geom_rect_01" stroke="#555555" stroke-width="1.0" width="272.0" x="322.0" y="80.0" /><rect fill="none" height="200.0" id="geom_rect_02" stroke="#555555" stroke-width="1.0" width="327.0" x="619.0" y="80.0" /></g><g id="g_text"><text fill="#333333" font-family="Arial, sans-serif" font-size="10" id="txt_t_start_A3" text-anchor="start" x="73.4" y="92.0">t_start</text><text fill="#333333" font-family="Arial, sans-serif" font-size="10" id="txt_t_trigger_A3" text-anchor="start" x="188.2" y="92.0">t_trigger</text><text fill="#000000" font-family="Arial, sans-serif" font-size="12" id="txt_panel_A3" text-anchor="start" x="18.0" y="96.0">A3</text><text fill="#2b6cb0" font-family="Arial, sans-serif" font-size="10" id="txt_serving_A3" text-anchor="start" x="26.35" y="150.0">Serving</text><text fill="#dd6b20" font-family="Arial, sans-serif" font-size="10" id="txt_neighbor_A3" text-anchor="start" x="26.35" y="190.0">Neighbor</text><text fill="#333333" font-family="Arial, sans-serif" font-size="10" id="txt_t_start_A4" text-anchor="start" x="380.4" y="92.0">t_start</text><text fill="#333333" font-family="Arial, sans-serif" font-size="10" id="txt_t_trigger_A4" text-anchor="start" x="489.2" y="92.0">t_trigger</text><text fill="#000000" font-family="Arial, sans-serif" font-size="12" id="txt_panel_A4" text-anchor="start" x="328.0" y="96.0">A4</text><text fill="#2b6cb0" font-family="Arial, sans-serif" font-size="10" id="txt_serving_A4" text-anchor="start" x="335.6" y="150.0">Serving</text><text fill="#dd6b20" font-family="Arial, sans-serif" font-size="10" id="txt_neighbor_A4" text-anchor="start" x="335.6" y="190.0">Neighbor</text><text fill="#333333" font-family="Arial, sans-serif" font-size="10" id="txt_t_start_A5" text-anchor="start" x="688.4" y="92.0">t_start</text><text fill="#333333" font-family="Arial, sans-serif" font-size="10" id="txt_t_trigger_A5" text-anchor="start" x="819.2" y="92.0">t_trigger</text><text fill="#000000" font-family="Arial, sans-serif" font-size="12" id="txt_panel_A5" text-anchor="start" x="625.0" y="96.0">A5</text><text fill="#2b6cb0" font-family="Arial, sans-serif" font-size="10" id="txt_serving_A5" text-anchor="start" x="635.35" y="150.0">Serving</text><text fill="#dd6b20" font-family="Arial, sans-serif" font-size="10" id="txt_neighbor_A5" text-anchor="start" x="635.35" y="190.0">Neighbor</text></g><g id="g_markers"><circle cx="69.4" cy="86.0" fill="#555555" r="3" /><circle cx="184.2" cy="86.0" fill="#555555" r="3" /><circle cx="26.35" cy="240.0" fill="#2b6cb0" r="3" /><circle cx="284.65" cy="200.0" fill="#2b6cb0" r="3" /><circle cx="26.35" cy="200.0" fill="#dd6b20" r="3" /><circle cx="284.65" cy="120.0" fill="#dd6b20" r="3" /><circle cx="376.4" cy="86.0" fill="#555555" r="3" /><circle cx="485.2" cy="86.0" fill="#555555" r="3" /><circle cx="335.6" cy="240.0" fill="#2b6cb0" r="3" /><circle cx="580.4" cy="200.0" fill="#2b6cb0" r="3" /><circle cx="335.6" cy="200.0" fill="#dd6b20" r="3" /><circle cx="580.4" cy="120.0" fill="#dd6b20" r="3" /><circle cx="684.4" cy="86.0" fill="#555555" r="3" /><circle cx="815.2" cy="86.0" fill="#555555" r="3" /><circle cx="635.35" cy="240.0" fill="#2b6cb0" r="3" /><circle cx="929.65" cy="200.0" fill="#2b6cb0" r="3" /><circle cx="635.35" cy="200.0" fill="#dd6b20" r="3" /><circle cx="929.65" cy="120.0" fill="#dd6b20" r="3" /></g></g></svg>