<?xml version="1.0" encoding="utf-8" ?>
<svg baseProfile="full" height="420" version="1.1" width="1024" xmlns="http://www.w3.org/2000/svg" xmlns:ev="http://www.w3.org/2001/xml-events" xmlns:xlink="http://www.w3.org/1999/xlink"><defs /><g id="figure_root"><g id="g_axes"><line stroke="#000000" stroke-width="2" x1="110.0" x2="1004.0" y1="390.0" y2="390.0" /><line stroke="#000000" stroke-width="2" x1="110.0" x2="110.0" y1="390.0" y2="310.0" /><line stroke="#000000" stroke-width="1" x1="110.0" x2="110.0" y1="390.0" y2="396.0" /><line stroke="#000000" stroke-width="1" x1="557.0" x2="557.0" y1="390.0" y2="396.0" /><line stroke="#000000" stroke-width="1" x1="1004.0" x2="1004.0" y1="390.0" y2="396.0" /><line stroke="#000000" stroke-width="1" x1="104.0" x2="110.0" y1="390.0" y2="390.0" /><line stroke="#000000" stroke-width="1" x1="104.0" x2="110.0" y1="350.0" y2="350.0" /><line stroke="#000000" stroke-width="1" x1="104.0" x2="110.0" y1="310.0" y2="310.0" /></g><g id="g_curves"><polyline fill="none" id="series_series_1" points="110.0,374.0 1004.0,326.0" stroke="#1f77b4" stroke-width="2.0" /></g><g id="g_annotations"><g id="legend"><line stroke="#1f77b4" stroke-width="2.0" x1="864.0" x2="888.0" y1="320.0" y2="320.0" /></g><line id="geom_line_00" stroke="#000000" stroke-width="2.0" x1="110.0" x2="1004.0" y1="310.0" y2="310.0" /><line id="geom_line_01" stroke="#000000" stroke-width="2.0" x1="110.0" x2="110.0" y1="310.0" y2="390.0" /><rect fill="none" height="80.0" id="geom_rect_00" stroke="#555555" stroke-width="1.0" width="894.0" x="110.0" y="310.0" /></g><g id="g_text"><text fill="#000000" font-family="Arial, sans-serif" font-size="10" id="txt_tick_x_0" text-anchor="middle" x="110.0" y="408.0">0</text><text fill="#000000" font-family="Arial, sans-serif" font-size="10" id="txt_tick_x_1" text-anchor="middle" x="557.0" y="408.0">0.5</text><text fill="#000000" font-family="Arial, sans-serif" font-size="10" id="txt_tick_x_2" text-anchor="middle" x="1004.0" y="408.0">1</text><text fill="#000000" font-family="Arial, sans-serif" font-size="10" id="txt_tick_y_0" text-anchor="end" x="100.0" y="393.0">0</text><text fill="#000000" font-family="Arial, sans-serif" font-size="10" id="txt_tick_y_1" text-anchor="end" x="100.0" y="353.0">0.5</text><text fill="#000000" font-family="Arial, sans-serif" font-size="10" id="txt_tick_y_2" text-anchor="end" x="100.0" y="313.0">1</text><text fill="#000000" font-family="Arial, sans-serif" font-size="10" id="txt_legend_series_1" text-anchor="start" x="894.0" y="324.0">Series 1</text></g><g id="g_markers" /></g></svg>