<?xml version="1.0" encoding="utf-8" ?>
<svg baseProfile="full" height="280" version="1.1" width="900" xmlns="http://www.w3.org/2000/svg" xmlns:ev="http://www.w3.org/2001/xml-events" xmlns:xlink="http://www.w3.org/1999/xlink"><defs /><g id="figure_root"><g id="g_axes"><line stroke="#000000" stroke-width="2" x1="10.0" x2="210.0" y1="240.0" y2="240.0" /><line stroke="#000000" stroke-width="2" x1="10.0" x2="10.0" y1="240.0" y2="66.0" /><line stroke="#000000" stroke-width="2" x1="230.0" x2="482.0" y1="240.0" y2="240.0" /><line stroke="#000000" stroke-width="2" x1="230.0" x2="230.0" y1="240.0" y2="66.0" /><line stroke="#000000" stroke-width="2" x1="508.0" x2="884.0" y1="240.0" y2="240.0" /><line stroke="#000000" stroke-width="2" x1="508.0" x2="508.0" y1="240.0" y2="66.0" /></g><g id="g_curves"><path d="M 49.00 196.78 C 49.17 196.78 49.67 197.80 50.00 196.78 C 50.33 195.75 50.67 193.60 51.00 190.64 C 51.33 187.67 51.67 181.92 52.00 179.00 C 52.33 176.07 52.83 174.07 53.00 173.08" fill="none" id="curve_serving_A3" stroke="#2b6cb0" stroke-width="2" /><path class="dashed" d="M 49.00 167.49 C 55.50 166.79 79.00 161.89 88.00 163.28 C 97.00 164.68 89.17 172.37 103.00 175.86 C 116.83 179.35 153.33 189.08 171.00 184.22 C 188.67 179.35 202.67 152.91 209.00 146.65" fill="none" id="curve_neighbor_A3" stroke="#dd6b20" stroke-dasharray="6,4" stroke-linecap="round" stroke-width="2" /><path d="M 230.00 148.35 C 230.17 148.35 230.68 148.35 231.01 148.35 C 231.34 148.35 231.66 148.00 231.99 148.35 C 232.32 148.71 232.66 150.14 233.00 150.49 C 233.33 150.85 233.84 150.49 234.01 150.49" fill="none" id="curve_serving_A4" stroke="#2b6cb0" stroke-width="2" /><path class="dashed" d="M 230.00 118.86 C 236.67 115.02 256.83 87.95 269.99 95.79 C 283.16 103.63 287.00 151.17 309.00 165.91 C 331.00 180.65 373.33 191.42 401.99 184.22 C 430.65 177.01 467.82 132.96 480.99 122.71" fill="none" id="curve_neighbor_A4" stroke="#dd6b20" stroke-dasharray="6,4" stroke-linecap="round" stroke-width="2" /><path d="M 508.00 161.93 C 508.17 161.93 508.68 161.93 509.02 161.93 C 509.35 161.93 509.66 161.93 509.99 161.93 C 510.32 161.93 510.68 161.65 511.01 161.93 C 511.34 162.20 511.82 163.30 511.99 163.58" fill="none" id="curve_serving_A5" stroke="#2b6cb0" stroke-width="2" /><path class="dashed" d="M 508.00 102.44 C 508.17 102.44 508.68 102.44 509.02 102.44 C 509.35 102.44 509.66 102.44 509.99 102.44 C 510.32 102.44 510.68 102.77 511.01 102.44 C 511.34 102.10 511.82 100.77 511.99 100.43" fill="none" id="curve_neighbor_A5" stroke="#dd6b20" stroke-dasharray="6,4" stroke-linecap="round" stroke-width="2" /></g><g id="g_annotations"><rect fill="#d0d0d0" fill-opacity="0.3" height="174.0" width="80.0" x="50.0" y="66.0" /><line stroke="#555555" stroke-width="1" x1="50.0" x2="50.0" y1="240.0" y2="66.0" /><line stroke="#555555" stroke-width="1" x1="130.0" x2="130.0" y1="240.0" y2="66.0" /><rect fill="#d0d0d0" fill-opacity="0.3" height="174.0" width="100.80000000000001" x="280.4" y="66.0" /><line stroke="#555555" stroke-width="1" x1="280.4" x2="280.4" y1="240.0" y2="66.0" /><line stroke="#555555" stroke-width="1" x1="381.2" x2="381.2" y1="240.0" y2="66.0" /><rect fill="#d0d0d0" fill-opacity="0.3" height="174.0" width="150.39999999999998" x="583.2" y="66.0" /><line stroke="#555555" stroke-width="1" x1="583.2" x2="583.2" y1="240.0" y2="66.0" /><line stroke="#555555" stroke-width="1" x1="733.6" x2="733.6" y1="240.0" y2="66.0" /><line id="geom_line_00" stroke="#000000" stroke-width="2.0" x1="184.0" x2="184.0" y1="75.0" y2="222.0" /><line id="geom_line_01" stroke="#000000" stroke-width="2.0" x1="444.0" x2="444.0" y1="75.0" y2="222.0" /><line id="geom_line_02" stroke="#000000" stroke-width="2.0" x1="704.0" x2="704.0" y1="75.0" y2="222.0" /><line class="dashed" id="geom_line_03" stroke="#555555" stroke-dasharray="6,4" stroke-width="1.0" x1="87.0" x2="704.0" y1="97.0" y2="97.0" /><line class="dashed" id="geom_line_04" stroke="#555555" stroke-dasharray="6,4" stroke-width="1.0" x1="87.0" x2="704.0" y1="184.0" y2="184.0" /><line class="dashed" id="geom_line_05" stroke="#555555" stroke-dasharray="6,4" stroke-width="1.0" x1="74.0" x2="717.0" y1="239.0" y2="239.0" /><rect fill="none" height="174.0" id="geom_rect_00" stroke="#555555" stroke-width="1.0" width="200.0" x="10.0" y="66.0" /><rect fill="none" height="174.0" id="geom_rect_01" stroke="#555555" stroke-width="1.0" width="252.0" x="230.0" y="66.0" /><rect fill="none" height="174.0" id="geom_rect_02" stroke="#555555" stroke-width="1.0" width="376.0" x="508.0" y="66.0" /></g><g id="g_text"><text fill="#333333" font-family="Arial, sans-serif" font-size="10" id="txt_t_start_A3" text-anchor="start" x="54.0" y="78.0">t_start</text><text fill="#333333" font-family="Arial, sans-serif" font-size="10" id="txt_t_trigger_A3" text-anchor="start" x="134.0" y="78.0">t_trigger</text><text fill="#000000" font-family="Arial, sans-serif" font-size="12" id="txt_panel_A3" text-anchor="start" x="16.0" y="82.0">A3</text><text fill="#2b6cb0" font-family="Arial, sans-serif" font-size="10" id="txt_serving_A3" text-anchor="start" x="20.0" y="126.9">Serving</text><text fill="#dd6b20" font-family="Arial, sans-serif" font-size="10" id="txt_neighbor_A3" text-anchor="start" x="20.0" y="161.7">Neighbor</text><text fill="#333333" font-family="Arial, sans-serif" font-size="10" id="txt_t_start_A4" text-anchor="start" x="284.4" y="78.0">t_start</text><text fill="#333333" font-family="Arial, sans-serif" font-size="10" id="txt_t_trigger_A4" text-anchor="start" x="385.2" y="78.0">t_trigger</text><text fill="#000000" font-family="Arial, sans-serif" font-size="12" id="txt_panel_A4" text-anchor="start" x="236.0" y="82.0">A4</text><text fill="#2b6cb0" font-family="Arial, sans-serif" font-size="10" id="txt_serving_A4" text-anchor="start" x="242.6" y="126.9">Serving</text><text fill="#dd6b20" font-family="Arial, sans-serif" font-size="10" id="txt_neighbor_A4" text-anchor="start" x="242.6" y="161.7">Neighbor</text><text fill="#333333" font-family="Arial, sans-serif" font-size="10" id="txt_t_start_A5" text-anchor="start" x="587.2" y="78.0">t_start</text><text fill="#333333" font-family="Arial, sans-serif" font-size="10" id="txt_t_trigger_A5" text-anchor="start" x="737.6" y="78.0">t_trigger</text><text fill="#000000" font-family="Arial, sans-serif" font-size="12" id="txt_panel_A5" text-anchor="start" x="514.0" y="82.0">A5</text><text fill="#2b6cb0" font-family="Arial, sans-serif" font-size="10" id="txt_serving_A5" text-anchor="start" x="526.8" y="126.9">Serving</text><text fill="#dd6b20" font-family="Arial, sans-serif" font-size="10" id="txt_neighbor_A5" text-anchor="start" x="526.8" y="161.7">Neighbor</text></g><g id="g_markers"><circle cx="50.0" cy="72.0" fill="#555555" r="3" /><circle cx="130.0" cy="72.0" fill="#555555" r="3" /><circle cx="49.0" cy="196.7784" fill="#2b6cb0" r="3" /><circle cx="53.0" cy="173.07959999999997" fill="#2b6cb0" r="3" /><circle cx="49.0" cy="167.49419999999998" fill="#dd6b20" r="3" /><circle cx="209.0" cy="146.649" fill="#dd6b20" r="3" /><circle cx="280.4" cy="72.0" fill="#555555" r="3" /><circle cx="381.2" cy="72.0" fill="#555555" r="3" /><circle cx="230.0" cy="148.3542" fill="#2b6cb0" r="3" /><circle cx="234.0068" cy="150.49439999999998" fill="#2b6cb0" r="3" /><circle cx="230.0" cy="118.8612" fill="#dd6b20" r="3" /><circle cx="480.99199999999996" cy="122.7066" fill="#dd6b20" r="3" /><circle cx="583.2" cy="72.0" fill="#555555" r="3" /><circle cx="733.6" cy="72.0" fill="#555555" r="3" /><circle cx="508.0" cy="161.9262" fill="#2b6cb0" r="3" /><circle cx="511.9856" cy="163.57920000000001" fill="#2b6cb0" r="3" /><circle cx="508.0" cy="102.43560000000001" fill="#dd6b20" r="3" /><circle cx="511.9856" cy="100.43459999999999" fill="#dd6b20" r="3" /></g></g></svg>