<?xml version="1.0" encoding="utf-8" ?>
<svg baseProfile="full" height="280" version="1.1" width="900" xmlns="http://www.w3.org/2000/svg" xmlns:ev="http://www.w3.org/2001/xml-events" xmlns:xlink="http://www.w3.org/1999/xlink"><defs /><g id="figure_root"><g id="g_axes"><line stroke="#000000" stroke-width="2" x1="10.0" x2="245.0" y1="240.0" y2="240.0" /><line stroke="#000000" stroke-width="2" x1="10.0" x2="10.0" y1="240.0" y2="67.0" /><line stroke="#000000" stroke-width="2" x1="265.0" x2="496.0" y1="239.0" y2="239.0" /><line stroke="#000000" stroke-width="2" x1="265.0" x2="265.0" y1="239.0" y2="67.0" /><line stroke="#000000" stroke-width="2" x1="521.0" x2="885.0" y1="238.0" y2="238.0" /><line stroke="#000000" stroke-width="2" x1="521.0" x2="521.0" y1="238.0" y2="66.0" /></g><g id="g_curves"><path d="M 21.75 205.40 C 58.76 205.40 90.49 101.60 127.50 101.60 C 164.51 101.60 196.24 170.80 233.25 170.80" fill="none" id="curve_serving_A3" stroke="#2b6cb0" stroke-width="2" /><path d="M 21.75 170.80 C 58.76 170.80 90.49 188.10 127.50 188.10 C 164.51 188.10 196.24 101.60 233.25 101.60" fill="none" id="curve_neighbor_A3" stroke="#dd6b20" stroke-width="2" /><path d="M 276.55 204.60 C 312.93 204.60 344.12 101.40 380.50 101.40 C 416.88 101.40 448.07 170.20 484.45 170.20" fill="none" id="curve_serving_A4" stroke="#2b6cb0" stroke-width="2" /><path d="M 276.55 170.20 C 312.93 170.20 344.12 187.40 380.50 187.40 C 416.88 187.40 448.07 101.40 484.45 101.40" fill="none" id="curve_neighbor_A4" stroke="#dd6b20" stroke-width="2" /><path d="M 539.20 203.60 C 596.53 203.60 645.67 100.40 703.00 100.40 C 760.33 100.40 809.47 169.20 866.80 169.20" fill="none" id="curve_serving_A5" stroke="#2b6cb0" stroke-width="2" /><path d="M 539.20 169.20 C 596.53 169.20 645.67 186.40 703.00 186.40 C 760.33 186.40 809.47 100.40 866.80 100.40" fill="none" id="curve_neighbor_A5" stroke="#dd6b20" stroke-width="2" /></g><g id="g_annotations"><rect fill="#d0d0d0" fill-opacity="0.3" height="173.0" width="94.0" x="57.0" y="67.0" /><line stroke="#555555" stroke-width="1" x1="57.0" x2="57.0" y1="240.0" y2="67.0" /><line stroke="#555555" stroke-width="1" x1="151.0" x2="151.0" y1="240.0" y2="67.0" /><rect fill="#d0d0d0" fill-opacity="0.3" height="172.0" width="92.40000000000003" x="311.2" y="67.0" /><line stroke="#555555" stroke-width="1" x1="311.2" x2="311.2" y1="239.0" y2="67.0" /><line stroke="#555555" stroke-width="1" x1="403.6" x2="403.6" y1="239.0" y2="67.0" /><rect fill="#d0d0d0" fill-opacity="0.3" height="172.0" width="145.60000000000002" x="593.8" y="66.0" /><line stroke="#555555" stroke-width="1" x1="593.8" x2="593.8" y1="238.0" y2="66.0" /><line stroke="#555555" stroke-width="1" x1="739.4" x2="739.4" y1="238.0" y2="66.0" /><line id="geom_line_00" stroke="#000000" stroke-width="2.0" x1="188.0" x2="188.0" y1="71.0" y2="239.0" /><line class="dashed" id="geom_line_01" stroke="#555555" stroke-dasharray="6,4" stroke-width="1.0" x1="19.0" x2="190.0" y1="16.0" y2="16.0" /><rect fill="none" height="172.0" id="geom_rect_00" stroke="#555555" stroke-width="1.0" width="364.0" x="521.0" y="66.0" /><rect fill="none" height="173.0" id="geom_rect_01" stroke="#555555" stroke-width="1.0" width="235.0" x="10.0" y="67.0" /><rect fill="none" height="172.0" id="geom_rect_02" stroke="#555555" stroke-width="1.0" width="231.0" x="265.0" y="67.0" /></g><g id="g_text"><text fill="#333333" font-family="Arial, sans-serif" font-size="10" id="txt_t_start_A3" text-anchor="start" x="61.0" y="79.0">t_start</text><text fill="#333333" font-family="Arial, sans-serif" font-size="10" id="txt_t_trigger_A3" text-anchor="start" x="155.0" y="79.0">t_trigger</text><text fill="#000000" font-family="Arial, sans-serif" font-size="12" id="txt_panel_A3" text-anchor="start" x="16.0" y="83.0">A3</text><text fill="#2b6cb0" font-family="Arial, sans-serif" font-size="10" id="txt_serving_A3" text-anchor="start" x="21.75" y="127.55">Serving</text><text fill="#dd6b20" font-family="Arial, sans-serif" font-size="10" id="txt_neighbor_A3" text-anchor="start" x="21.75" y="162.15">Neighbor</text><text fill="#333333" font-family="Arial, sans-serif" font-size="10" id="txt_t_start_A4" text-anchor="start" x="315.2" y="79.0">t_start</text><text fill="#333333" font-family="Arial, sans-serif" font-size="10" id="txt_t_trigger_A4" text-anchor="start" x="407.6" y="79.0">t_trigger</text><text fill="#000000" font-family="Arial, sans-serif" font-size="12" id="txt_panel_A4" text-anchor="start" x="271.0" y="83.0">A4</text><text fill="#2b6cb0" font-family="Arial, sans-serif" font-size="10" id="txt_serving_A4" text-anchor="start" x="276.55" y="127.19999999999999">Serving</text><text fill="#dd6b20" font-family="Arial, sans-serif" font-size="10" id="txt_neighbor_A4" text-anchor="start" x="276.55" y="161.60000000000002">Neighbor</text><text fill="#333333" font-family="Arial, sans-serif" font-size="10" id="txt_t_start_A5" text-anchor="start" x="597.8" y="78.0">t_start</text><text fill="#333333" font-family="Arial, sans-serif" font-size="10" id="txt_t_trigger_A5" text-anchor="start" x="743.4" y="78.0">t_trigger</text><text fill="#000000" font-family="Arial, sans-serif" font-size="12" id="txt_panel_A5" text-anchor="start" x="527.0" y="82.0">A5</text><text fill="#2b6cb0" font-family="Arial, sans-serif" font-size="10" id="txt_serving_A5" text-anchor="start" x="539.2" y="126.19999999999999">Serving</text><text fill="#dd6b20" font-family="Arial, sans-serif" font-size="10" id="txt_neighbor_A5" text-anchor="start" x="539.2" y="160.60000000000002">Neighbor</text></g><g id="g_markers"><circle cx="57.0" cy="73.0" fill="#555555" r="3" /><circle cx="151.0" cy="73.0" fill="#555555" r="3" /><circle cx="21.75" cy="205.4" fill="#2b6cb0" r="3" /><circle cx="233.25" cy="170.8" fill="#2b6cb0" r="3" /><circle cx="21.75" cy="170.8" fill="#dd6b20" r="3" /><circle cx="233.25" cy="101.6" fill="#dd6b20" r="3" /><circle cx="311.2" cy="73.0" fill="#555555" r="3" /><circle cx="403.6" cy="73.0" fill="#555555" r="3" /><circle cx="276.55" cy="204.6" fill="#2b6cb0" r="3" /><circle cx="484.45" cy="170.2" fill="#2b6cb0" r="3" /><circle cx="276.55" cy="170.2" fill="#dd6b20" r="3" /><circle cx="484.45" cy="101.39999999999999" fill="#dd6b20" r="3" /><circle cx="593.8" cy="72.0" fill="#555555" r="3" /><circle cx="739.4" cy="72.0" fill="#555555" r="3" /><circle cx="539.2" cy="203.6" fill="#2b6cb0" r="3" /><circle cx="866.8" cy="169.2" fill="#2b6cb0" r="3" /><circle cx="539.2" cy="169.2" fill="#dd6b20" r="3" /><circle cx="866.8" cy="100.39999999999999" fill="#dd6b20" r="3" /><circle cx="520.0" cy="95.0" fill="#dd6b20" id="geom_marker_00" r="2.0" /><circle cx="262.0" cy="97.0" fill="#dd6b20" id="geom_marker_01" r="3.0" /><circle cx="584.0" cy="151.0" fill="#dd6b20" id="geom_marker_02" r="2.0" /><circle cx="328.0" cy="152.0" fill="#dd6b20" id="geom_marker_03" r="2.0" /><circle cx="571.0" cy="156.0" fill="#dd6b20" id="geom_marker_04" r="2.0" /><circle cx="66.0" cy="167.0" fill="#dd6b20" id="geom_marker_05" r="5.0" /><circle cx="325.0" cy="167.0" fill="#dd6b20" id="geom_marker_06" r="8.0" /><circle cx="81.0" cy="171.0" fill="#dd6b20" id="geom_marker_07" r="4.0" /><circle cx="602.0" cy="171.0" fill="#dd6b20" id="geom_marker_08" r="3.0" /><circle cx="90.0" cy="172.0" fill="#dd6b20" id="geom_marker_09" r="2.0" /></g></g></svg>