<?xml version="1.0" encoding="utf-8" ?>
<svg baseProfile="full" height="280" version="1.1" width="900" xmlns="http://www.w3.org/2000/svg" xmlns:ev="http://www.w3.org/2001/xml-events" xmlns:xlink="http://www.w3.org/1999/xlink"><defs /><g id="figure_root"><g id="g_axes"><line stroke="#000000" stroke-width="2.0" x1="11.0" x2="265.0" y1="240.0" y2="240.0" /><line stroke="#000000" stroke-width="2.0" x1="11.0" x2="11.0" y1="240.0" y2="60.0" /><line stroke="#000000" stroke-width="2.0" x1="286.0" x2="526.0" y1="240.0" y2="240.0" /><line stroke="#000000" stroke-width="2.0" x1="286.0" x2="286.0" y1="240.0" y2="60.0" /><line stroke="#000000" stroke-width="2.0" x1="550.0" x2="886.0" y1="240.0" y2="240.0" /><line stroke="#000000" stroke-width="2.0" x1="550.0" x2="550.0" y1="240.0" y2="60.0" /></g><g id="g_curves"><path d="M 38.00 136.79 C 42.50 133.95 56.00 126.76 65.00 119.78 C 74.00 112.80 83.00 104.88 92.00 94.92 C 101.00 84.96 110.00 65.82 119.00 60.00 C 128.00 54.18 137.00 60.00 146.00 60.00 C 155.00 60.00 164.00 60.00 173.00 60.00 C 182.00 60.00 191.00 54.21 200.00 60.00 C 209.00 65.79 218.17 87.01 227.00 94.72 C 235.84 102.43 248.68 104.35 253.01 106.28" fill="none" id="curve_serving_A3" stroke="#2b6cb0" stroke-width="2" /><path class="dashed" d="M 38.00 107.50 C 42.50 107.06 56.00 103.46 65.00 104.86 C 74.00 106.25 83.00 112.94 92.00 115.85 C 101.00 118.77 110.00 120.99 119.00 122.35 C 128.00 123.71 137.00 125.23 146.00 124.01 C 155.00 122.78 164.00 123.24 173.00 115.01 C 182.00 106.78 191.00 83.80 200.00 74.63 C 209.00 65.47 218.17 62.44 227.00 60.00 C 235.84 57.56 248.68 60.00 253.01 60.00" fill="none" id="curve_neighbor_A3" stroke="#dd6b20" stroke-dasharray="6,4" stroke-linecap="round" stroke-width="2" /><path d="M 286.00 136.79 C 286.00 133.95 286.00 126.76 286.00 119.78 C 286.00 112.80 286.00 104.88 286.00 94.92 C 286.00 84.96 286.00 65.82 286.00 60.00 C 286.00 54.18 286.00 60.00 286.00 60.00 C 286.00 60.00 286.00 60.00 286.00 60.00 C 286.00 60.00 286.00 54.21 286.00 60.00 C 286.00 65.79 286.00 87.01 286.00 94.72 C 286.00 102.43 286.00 104.35 286.00 106.28" fill="none" id="curve_serving_A4" stroke="#2b6cb0" stroke-width="2" /><path class="dashed" d="M 286.00 107.50 C 286.00 107.06 286.00 103.46 286.00 104.86 C 286.00 106.25 286.00 112.94 286.00 115.85 C 286.00 118.77 286.00 120.99 286.00 122.35 C 286.00 123.71 286.00 125.23 286.00 124.01 C 286.00 122.78 286.00 123.24 286.00 115.01 C 286.00 106.78 286.00 83.80 286.00 74.63 C 286.00 65.47 286.00 62.44 286.00 60.00 C 286.00 57.56 286.00 60.00 286.00 60.00" fill="none" id="curve_neighbor_A4" stroke="#dd6b20" stroke-dasharray="6,4" stroke-linecap="round" stroke-width="2" /><path d="M 550.00 136.79 C 550.00 133.95 550.00 126.76 550.00 119.78 C 550.00 112.80 550.00 104.88 550.00 94.92 C 550.00 84.96 550.00 65.82 550.00 60.00 C 550.00 54.18 550.00 60.00 550.00 60.00" fill="none" id="curve_serving_A5" stroke="#2b6cb0" stroke-width="2" /><path class="dashed" d="M 550.00 107.50 C 550.00 107.06 550.00 103.46 550.00 104.86 C 550.00 106.25 550.00 112.94 550.00 115.85 C 550.00 118.77 550.00 120.99 550.00 122.35 C 550.00 123.71 550.00 123.73 550.00 124.01" fill="none" id="curve_neighbor_A5" stroke="#dd6b20" stroke-dasharray="6,4" stroke-linecap="round" stroke-width="2" /></g><g id="g_annotations"><rect fill="#f2e6b8" fill-opacity="0.35" height="180.0" width="148.082" x="24.716" y="60.0" /><line stroke="#555555" stroke-width="1.0" x1="24.716" x2="24.716" y1="240.0" y2="60.0" /><line stroke="#555555" stroke-width="1.0" x1="172.798" x2="172.798" y1="240.0" y2="60.0" /><rect fill="#d9d3e8" fill-opacity="0.35" height="180.0" width="139.92000000000002" x="298.96" y="60.0" /><line stroke="#555555" stroke-width="1.0" x1="298.96" x2="298.96" y1="240.0" y2="60.0" /><line stroke="#555555" stroke-width="1.0" x1="438.88" x2="438.88" y1="240.0" y2="60.0" /><rect fill="#d9d3e8" fill-opacity="0.35" height="180.0" width="195.88800000000003" x="568.144" y="60.0" /><line stroke="#555555" stroke-width="1.0" x1="568.144" x2="568.144" y1="240.0" y2="60.0" /><line stroke="#555555" stroke-width="1.0" x1="764.032" x2="764.032" y1="240.0" y2="60.0" /><line id="geom_line_00" stroke="#000000" stroke-width="2.0" x1="39.0" x2="264.0" y1="239.0" y2="239.0" /><line id="geom_line_01" stroke="#000000" stroke-width="2.0" x1="299.0" x2="525.0" y1="239.0" y2="239.0" /><line id="geom_line_02" stroke="#000000" stroke-width="2.0" x1="559.0" x2="799.0" y1="239.0" y2="239.0" /><line id="geom_line_03" stroke="#000000" stroke-width="2.0" x1="39.0" x2="39.0" y1="60.0" y2="239.0" /><line id="geom_line_04" stroke="#000000" stroke-width="2.0" x1="135.0" x2="135.0" y1="60.0" y2="239.0" /><line id="geom_line_05" stroke="#000000" stroke-width="2.0" x1="299.0" x2="299.0" y1="60.0" y2="239.0" /><line id="geom_line_06" stroke="#000000" stroke-width="2.0" x1="395.0" x2="395.0" y1="60.0" y2="239.0" /><line id="geom_line_07" stroke="#000000" stroke-width="2.0" x1="559.0" x2="559.0" y1="60.0" y2="239.0" /><line id="geom_line_08" stroke="#000000" stroke-width="2.0" x1="655.0" x2="655.0" y1="60.0" y2="239.0" /><line id="geom_line_09" stroke="#000000" stroke-width="1.0" x1="49.0" x2="49.0" y1="8.0" y2="241.0" /><line id="geom_line_10" stroke="#000000" stroke-width="1.0" x1="50.0" x2="50.0" y1="9.0" y2="241.0" /><line id="geom_line_11" stroke="#000000" stroke-width="1.0" x1="312.0" x2="312.0" y1="70.0" y2="241.0" /><line id="geom_line_12" stroke="#000000" stroke-width="1.0" x1="572.0" x2="572.0" y1="70.0" y2="241.0" /><line id="geom_line_13" stroke="#000000" stroke-width="1.0" x1="313.0" x2="313.0" y1="73.0" y2="241.0" /><line id="geom_line_14" stroke="#000000" stroke-width="1.0" x1="573.0" x2="573.0" y1="73.0" y2="241.0" /></g><g id="g_text"><text dominant-baseline="alphabetic" fill="#000000" font-family="Arial, sans-serif" font-size="10" id="txt_t_start_A3" text-anchor="start" x="28.716" y="72.0">t_start</text><text dominant-baseline="alphabetic" fill="#000000" font-family="Arial, sans-serif" font-size="10" id="txt_t_trigger_A3" text-anchor="start" x="176.798" y="72.0">t_trigger</text><text dominant-baseline="alphabetic" fill="#000000" font-family="Arial, sans-serif" font-size="12" font-weight="bold" id="txt_panel_A3" text-anchor="start" x="17.0" y="76.0">A3</text><text dominant-baseline="alphabetic" fill="#2b6cb0" font-family="Arial, sans-serif" font-size="10" id="txt_serving_A3" text-anchor="start" x="23.700000000000003" y="123.0">Serving</text><text dominant-baseline="alphabetic" fill="#dd6b20" font-family="Arial, sans-serif" font-size="10" id="txt_neighbor_A3" text-anchor="start" x="23.700000000000003" y="159.0">Neighbor</text><text dominant-baseline="alphabetic" fill="#000000" font-family="Arial, sans-serif" font-size="10" id="txt_t_start_A4" text-anchor="start" x="302.96" y="72.0">t_start</text><text dominant-baseline="alphabetic" fill="#000000" font-family="Arial, sans-serif" font-size="10" id="txt_t_trigger_A4" text-anchor="start" x="442.88" y="72.0">t_trigger</text><text dominant-baseline="alphabetic" fill="#000000" font-family="Arial, sans-serif" font-size="12" font-weight="bold" id="txt_panel_A4" text-anchor="start" x="292.0" y="76.0">A4</text><text dominant-baseline="alphabetic" fill="#2b6cb0" font-family="Arial, sans-serif" font-size="10" id="txt_serving_A4" text-anchor="start" x="298.0" y="123.0">Serving</text><text dominant-baseline="alphabetic" fill="#dd6b20" font-family="Arial, sans-serif" font-size="10" id="txt_neighbor_A4" text-anchor="start" x="298.0" y="159.0">Neighbor</text><text dominant-baseline="alphabetic" fill="#000000" font-family="Arial, sans-serif" font-size="10" id="txt_t_start_A5" text-anchor="start" x="572.144" y="72.0">t_start</text><text dominant-baseline="alphabetic" fill="#000000" font-family="Arial, sans-serif" font-size="10" id="txt_t_trigger_A5" text-anchor="start" x="768.032" y="72.0">t_trigger</text><text dominant-baseline="alphabetic" fill="#000000" font-family="Arial, sans-serif" font-size="12" font-weight="bold" id="txt_panel_A5" text-anchor="start" x="556.0" y="76.0">A5</text><text dominant-baseline="alphabetic" fill="#2b6cb0" font-family="Arial, sans-serif" font-size="10" id="txt_serving_A5" text-anchor="start" x="566.8" y="123.0">Serving</text><text dominant-baseline="alphabetic" fill="#dd6b20" font-family="Arial, sans-serif" font-size="10" id="txt_neighbor_A5" text-anchor="start" x="566.8" y="159.0">Neighbor</text></g><g id="g_markers"><circle cx="24.716" cy="66.0" fill="#555555" r="3" /><circle cx="172.798" cy="66.0" fill="#555555" r="3" /><circle cx="38.00020000000001" cy="136.788" fill="#2b6cb0" r="3" /><circle cx="253.0112" cy="106.27799999999999" fill="#2b6cb0" r="3" /><circle cx="38.00020000000001" cy="107.50200000000001" fill="#dd6b20" r="3" /><circle cx="253.0112" cy="60.0" fill="#dd6b20" r="3" /><circle cx="298.96" cy="66.0" fill="#555555" r="3" /><circle cx="438.88" cy="66.0" fill="#555555" r="3" /><circle cx="286.0" cy="136.788" fill="#2b6cb0" r="3" /><circle cx="286.0" cy="106.27799999999999" fill="#2b6cb0" r="3" /><circle cx="286.0" cy="107.50200000000001" fill="#dd6b20" r="3" /><circle cx="286.0" cy="60.0" fill="#dd6b20" r="3" /><circle cx="568.144" cy="66.0" fill="#555555" r="3" /><circle cx="764.032" cy="66.0" fill="#555555" r="3" /><circle cx="550.0" cy="136.788" fill="#2b6cb0" r="3" /><circle cx="550.0" cy="60.0" fill="#2b6cb0" r="3" /><circle cx="550.0" cy="107.50200000000001" fill="#dd6b20" r="3" /><circle cx="550.0" cy="124.00800000000001" fill="#dd6b20" r="3" /></g></g></svg>