<?xml version="1.0" encoding="utf-8" ?>
<svg baseProfile="full" height="760" version="1.1" width="1300" xmlns="http://www.w3.org/2000/svg" xmlns:ev="http://www.w3.org/2001/xml-events" xmlns:xlink="http://www.w3.org/1999/xlink"><defs /><g id="figure_root"><g id="g_axes" /><g id="g_curves" /><g id="g_annotations"><g id="g_boxes"><rect fill="#e7f1ff" height="152.0" id="box_agent" rx="12" ry="12" stroke="#000000" stroke-width="2" width="364.00000000000006" x="104" y="151" /><rect fill="#fff1e0" height="152.0" id="box_environment" rx="12" ry="12" stroke="#000000" stroke-width="2" width="364.00000000000006" x="832.0" y="151" /><rect fill="#ffffff" height="68.4" id="box_constraint" rx="10" ry="10" stroke="#000000" stroke-width="1" width="254.8" x="522.6" y="87.4" /><rect fill="#ffffff" height="68.4" id="box_buffer" rx="10" ry="10" stroke="#000000" stroke-width="1" width="273.00000000000006" x="513.5" y="363.0" /></g><g id="g_arrows"><line id="arrow_action" stroke="#000000" stroke-width="1" x1="468.00000000000006" x2="832.0" y1="265.0" y2="265.0" /><line id="arrow_feedback" stroke="#000000" stroke-width="1" x1="832.0" x2="468.00000000000006" y1="189.0" y2="189.0" /><line id="arrow_constraint" stroke="#000000" stroke-width="1" x1="650.0" x2="286.0" y1="155.8" y2="151" /><line id="arrow_buffer" stroke="#000000" stroke-width="1" x1="286.0" x2="650.0" y1="303.0" y2="363.0" /></g></g><g id="g_text"><g id="g_title"><text fill="#000000" font-family="Arial, sans-serif" font-size="30.0" font-weight="bold" id="txt_title" text-anchor="start" x="104" y="75">MORL Constraints Loop</text></g><g id="g_legend" /><text fill="#000000" font-family="Arial, sans-serif" font-size="19.0" font-weight="bold" id="txt_agent" text-anchor="middle" x="286.0" y="234.6">Agent</text><text fill="#000000" font-family="Arial, sans-serif" font-size="19.0" font-weight="bold" id="txt_environment" text-anchor="middle" x="1014.0" y="234.6">Environment</text><text fill="#000000" font-family="Arial, sans-serif" font-size="16.15" id="txt_constraint" text-anchor="middle" x="650.0" y="127.30000000000001">Constraints</text><text fill="#000000" font-family="Arial, sans-serif" font-size="16.15" id="txt_buffer" text-anchor="middle" x="650.0" y="402.9">Replay Buffer</text><text fill="#000000" font-family="Arial, sans-serif" font-size="16.0" id="txt_action" text-anchor="middle" x="650.0" y="255.4">Action</text><text fill="#000000" font-family="Arial, sans-serif" font-size="16.0" id="txt_feedback" text-anchor="middle" x="650.0" y="179.4">State / Reward</text></g><g id="g_markers"><polygon fill="#000000" id="arrowhead_action" points="824.0,260.2 824.0,269.8 832.0,265.0" /><polygon fill="#000000" id="arrowhead_feedback" points="476.00000000000006,184.2 476.00000000000006,193.8 468.00000000000006,189.0" /><polygon fill="#000000" id="arrowhead_constraint" points="281.2,143 290.8,143 286.0,151" /><polygon fill="#000000" id="arrowhead_buffer" points="645.2,355.0 654.8,355.0 650.0,363.0" /></g></g></svg>