<?xml version="1.0" encoding="utf-8" ?>
<svg baseProfile="full" height="320" version="1.1" width="960" xmlns="http://www.w3.org/2000/svg" xmlns:ev="http://www.w3.org/2001/xml-events" xmlns:xlink="http://www.w3.org/1999/xlink"><defs /><g id="figure_root"><g id="g_axes"><line stroke="#000000" stroke-width="2" x1="10.0" x2="214.0" y1="270.0" y2="270.0" /><line stroke="#000000" stroke-width="2" x1="10.0" x2="10.0" y1="270.0" y2="75.0" /><line stroke="#000000" stroke-width="2" x1="237.0" x2="538.0" y1="270.0" y2="270.0" /><line stroke="#000000" stroke-width="2" x1="237.0" x2="237.0" y1="270.0" y2="75.0" /><line stroke="#000000" stroke-width="2" x1="567.0" x2="944.0" y1="271.0" y2="271.0" /><line stroke="#000000" stroke-width="2" x1="567.0" x2="567.0" y1="271.0" y2="76.0" /></g><g id="g_curves"><path d="M 20.20 231.00 C 52.33 231.00 79.87 114.00 112.00 114.00 C 144.13 114.00 171.67 192.00 203.80 192.00" fill="none" id="curve_serving_A3" stroke="#2b6cb0" stroke-width="2" /><path d="M 20.20 192.00 C 52.33 192.00 79.87 211.50 112.00 211.50 C 144.13 211.50 171.67 114.00 203.80 114.00" fill="none" id="curve_neighbor_A3" stroke="#dd6b20" stroke-width="2" /><path d="M 252.05 231.00 C 299.46 231.00 340.09 114.00 387.50 114.00 C 434.91 114.00 475.54 192.00 522.95 192.00" fill="none" id="curve_serving_A4" stroke="#2b6cb0" stroke-width="2" /><path d="M 252.05 192.00 C 299.46 192.00 340.09 211.50 387.50 211.50 C 434.91 211.50 475.54 114.00 522.95 114.00" fill="none" id="curve_neighbor_A4" stroke="#dd6b20" stroke-width="2" /><path d="M 585.85 232.00 C 645.23 232.00 696.12 115.00 755.50 115.00 C 814.88 115.00 865.77 193.00 925.15 193.00" fill="none" id="curve_serving_A5" stroke="#2b6cb0" stroke-width="2" /><path d="M 585.85 193.00 C 645.23 193.00 696.12 212.50 755.50 212.50 C 814.88 212.50 865.77 115.00 925.15 115.00" fill="none" id="curve_neighbor_A5" stroke="#dd6b20" stroke-width="2" /></g><g id="g_annotations"><rect fill="#d0d0d0" fill-opacity="0.3" height="195.0" width="81.59999999999997" x="50.800000000000004" y="75.0" /><line stroke="#555555" stroke-width="1" x1="50.800000000000004" x2="50.800000000000004" y1="270.0" y2="75.0" /><line stroke="#555555" stroke-width="1" x1="132.39999999999998" x2="132.39999999999998" y1="270.0" y2="75.0" /><rect fill="#d0d0d0" fill-opacity="0.3" height="195.0" width="120.40000000000003" x="297.2" y="75.0" /><line stroke="#555555" stroke-width="1" x1="297.2" x2="297.2" y1="270.0" y2="75.0" /><line stroke="#555555" stroke-width="1" x1="417.6" x2="417.6" y1="270.0" y2="75.0" /><rect fill="#d0d0d0" fill-opacity="0.3" height="195.0" width="150.80000000000007" x="642.4" y="76.0" /><line stroke="#555555" stroke-width="1" x1="642.4" x2="642.4" y1="271.0" y2="76.0" /><line stroke="#555555" stroke-width="1" x1="793.2" x2="793.2" y1="271.0" y2="76.0" /><line id="geom_line_00" stroke="#000000" stroke-width="2.0" x1="65.0" x2="197.0" y1="269.0" y2="269.0" /><rect fill="none" height="195.0" id="geom_rect_00" stroke="#555555" stroke-width="1.0" width="204.0" x="10.0" y="75.0" /><rect fill="none" height="195.0" id="geom_rect_01" stroke="#555555" stroke-width="1.0" width="301.0" x="237.0" y="75.0" /><rect fill="none" height="195.0" id="geom_rect_02" stroke="#555555" stroke-width="1.0" width="377.0" x="567.0" y="76.0" /></g><g id="g_text"><text fill="#333333" font-family="Arial, sans-serif" font-size="10" id="txt_t_start_A3" text-anchor="start" x="54.800000000000004" y="87.0">t_start</text><text fill="#333333" font-family="Arial, sans-serif" font-size="10" id="txt_t_trigger_A3" text-anchor="start" x="136.39999999999998" y="87.0">t_trigger</text><text fill="#000000" font-family="Arial, sans-serif" font-size="12" id="txt_panel_A3" text-anchor="start" x="16.0" y="91.0">A3</text><text fill="#2b6cb0" font-family="Arial, sans-serif" font-size="10" id="txt_serving_A3" text-anchor="start" x="20.200000000000003" y="143.25">Serving</text><text fill="#dd6b20" font-family="Arial, sans-serif" font-size="10" id="txt_neighbor_A3" text-anchor="start" x="20.200000000000003" y="182.25">Neighbor</text><text fill="#333333" font-family="Arial, sans-serif" font-size="10" id="txt_t_start_A4" text-anchor="start" x="301.2" y="87.0">t_start</text><text fill="#333333" font-family="Arial, sans-serif" font-size="10" id="txt_t_trigger_A4" text-anchor="start" x="421.6" y="87.0">t_trigger</text><text fill="#000000" font-family="Arial, sans-serif" font-size="12" id="txt_panel_A4" text-anchor="start" x="243.0" y="91.0">A4</text><text fill="#2b6cb0" font-family="Arial, sans-serif" font-size="10" id="txt_serving_A4" text-anchor="start" x="252.05" y="143.25">Serving</text><text fill="#dd6b20" font-family="Arial, sans-serif" font-size="10" id="txt_neighbor_A4" text-anchor="start" x="252.05" y="182.25">Neighbor</text><text fill="#333333" font-family="Arial, sans-serif" font-size="10" id="txt_t_start_A5" text-anchor="start" x="646.4" y="88.0">t_start</text><text fill="#333333" font-family="Arial, sans-serif" font-size="10" id="txt_t_trigger_A5" text-anchor="start" x="797.2" y="88.0">t_trigger</text><text fill="#000000" font-family="Arial, sans-serif" font-size="12" id="txt_panel_A5" text-anchor="start" x="573.0" y="92.0">A5</text><text fill="#2b6cb0" font-family="Arial, sans-serif" font-size="10" id="txt_serving_A5" text-anchor="start" x="585.85" y="144.25">Serving</text><text fill="#dd6b20" font-family="Arial, sans-serif" font-size="10" id="txt_neighbor_A5" text-anchor="start" x="585.85" y="183.25">Neighbor</text></g><g id="g_markers"><circle cx="50.800000000000004" cy="81.0" fill="#555555" r="3" /><circle cx="132.39999999999998" cy="81.0" fill="#555555" r="3" /><circle cx="20.200000000000003" cy="231.0" fill="#2b6cb0" r="3" /><circle cx="203.79999999999998" cy="192.0" fill="#2b6cb0" r="3" /><circle cx="20.200000000000003" cy="192.0" fill="#dd6b20" r="3" /><circle cx="203.79999999999998" cy="114.0" fill="#dd6b20" r="3" /><circle cx="297.2" cy="81.0" fill="#555555" r="3" /><circle cx="417.6" cy="81.0" fill="#555555" r="3" /><circle cx="252.05" cy="231.0" fill="#2b6cb0" r="3" /><circle cx="522.95" cy="192.0" fill="#2b6cb0" r="3" /><circle cx="252.05" cy="192.0" fill="#dd6b20" r="3" /><circle cx="522.95" cy="114.0" fill="#dd6b20" r="3" /><circle cx="642.4" cy="82.0" fill="#555555" r="3" /><circle cx="793.2" cy="82.0" fill="#555555" r="3" /><circle cx="585.85" cy="232.0" fill="#2b6cb0" r="3" /><circle cx="925.15" cy="193.0" fill="#2b6cb0" r="3" /><circle cx="585.85" cy="193.0" fill="#dd6b20" r="3" /><circle cx="925.15" cy="115.0" fill="#dd6b20" r="3" /><circle cx="849.0" cy="120.0" fill="#dd6b20" id="geom_marker_00" r="2.0" /><circle cx="335.0" cy="176.0" fill="#dd6b20" id="geom_marker_01" r="3.0" /><circle cx="189.0" cy="197.0" fill="#dd6b20" id="geom_marker_02" r="3.0" /></g></g></svg>