<?xml version="1.0" encoding="utf-8" ?>
<svg baseProfile="full" height="700" version="1.1" width="1200" xmlns="http://www.w3.org/2000/svg" xmlns:ev="http://www.w3.org/2001/xml-events" xmlns:xlink="http://www.w3.org/1999/xlink"><defs /><g id="figure_root"><g id="g_axes" /><g id="g_curves" /><g id="g_annotations"><g id="g_boxes"><rect fill="#e7f1ff" height="140.0" id="box_agent" rx="12" ry="12" stroke="#000000" stroke-width="2" width="336.00000000000006" x="96" y="140" /><rect fill="#fff1e0" height="140.0" id="box_environment" rx="12" ry="12" stroke="#000000" stroke-width="2" width="336.00000000000006" x="768.0" y="140" /><rect fill="#ffffff" height="63.0" id="box_constraint" rx="10" ry="10" stroke="#000000" stroke-width="1" width="235.20000000000002" x="482.4" y="81.2" /><rect fill="#ffffff" height="63.0" id="box_buffer" rx="10" ry="10" stroke="#000000" stroke-width="1" width="252.00000000000006" x="474.0" y="336.0" /></g><g id="g_arrows"><line id="arrow_action" stroke="#000000" stroke-width="1" x1="432.00000000000006" x2="768.0" y1="245.0" y2="245.0" /><line id="arrow_feedback" stroke="#000000" stroke-width="1" x1="768.0" x2="432.00000000000006" y1="175.0" y2="175.0" /><line id="arrow_constraint" stroke="#000000" stroke-width="1" x1="600.0" x2="264.0" y1="144.2" y2="140" /><line id="arrow_buffer" stroke="#000000" stroke-width="1" x1="264.0" x2="600.0" y1="280.0" y2="336.0" /></g></g><g id="g_text"><g id="g_title"><text fill="#000000" font-family="Arial, sans-serif" font-size="28.0" font-weight="bold" id="txt_title" text-anchor="start" x="96" y="70">RL Agent Loop</text></g><g id="g_legend" /><text fill="#000000" font-family="Arial, sans-serif" font-size="17.0" font-weight="bold" id="txt_agent" text-anchor="middle" x="264.0" y="216.8">Agent</text><text fill="#000000" font-family="Arial, sans-serif" font-size="17.0" font-weight="bold" id="txt_environment" text-anchor="middle" x="936.0" y="216.8">Environment</text><text fill="#000000" font-family="Arial, sans-serif" font-size="14.45" id="txt_constraint" text-anchor="middle" x="600.0" y="117.8">Constraints</text><text fill="#000000" font-family="Arial, sans-serif" font-size="14.45" id="txt_buffer" text-anchor="middle" x="600.0" y="372.6">Replay Buffer</text><text fill="#000000" font-family="Arial, sans-serif" font-size="15.0" id="txt_action" text-anchor="middle" x="600.0" y="236.0">Action</text><text fill="#000000" font-family="Arial, sans-serif" font-size="15.0" id="txt_feedback" text-anchor="middle" x="600.0" y="166.0">State / Reward</text></g><g id="g_markers"><polygon fill="#000000" id="arrowhead_action" points="760.0,240.2 760.0,249.8 768.0,245.0" /><polygon fill="#000000" id="arrowhead_feedback" points="440.00000000000006,170.2 440.00000000000006,179.8 432.00000000000006,175.0" /><polygon fill="#000000" id="arrowhead_constraint" points="259.2,132 268.8,132 264.0,140" /><polygon fill="#000000" id="arrowhead_buffer" points="595.2,328.0 604.8,328.0 600.0,336.0" /></g></g></svg>