<?xml version="1.0" encoding="utf-8" ?>
<svg baseProfile="full" height="420" version="1.1" width="1024" xmlns="http://www.w3.org/2000/svg" xmlns:ev="http://www.w3.org/2001/xml-events" xmlns:xlink="http://www.w3.org/1999/xlink"><defs /><g id="figure_root"><g id="g_axes"><line stroke="#000000" stroke-width="2" x1="110.0" x2="830.0" y1="310.0" y2="310.0" /><line stroke="#000000" stroke-width="2" x1="110.0" x2="110.0" y1="310.0" y2="70.0" /><line stroke="#000000" stroke-width="1" x1="110.0" x2="110.0" y1="310.0" y2="316.0" /><line stroke="#000000" stroke-width="1" x1="254.0" x2="254.0" y1="310.0" y2="316.0" /><line stroke="#000000" stroke-width="1" x1="398.0" x2="398.0" y1="310.0" y2="316.0" /><line stroke="#000000" stroke-width="1" x1="542.0" x2="542.0" y1="310.0" y2="316.0" /><line stroke="#000000" stroke-width="1" x1="686.0" x2="686.0" y1="310.0" y2="316.0" /><line stroke="#000000" stroke-width="1" x1="830.0" x2="830.0" y1="310.0" y2="316.0" /><line stroke="#000000" stroke-width="1" x1="104.0" x2="110.0" y1="310.0" y2="310.0" /><line stroke="#000000" stroke-width="1" x1="104.0" x2="110.0" y1="250.0" y2="250.0" /><line stroke="#000000" stroke-width="1" x1="104.0" x2="110.0" y1="190.0" y2="190.0" /><line stroke="#000000" stroke-width="1" x1="104.0" x2="110.0" y1="130.0" y2="130.0" /><line stroke="#000000" stroke-width="1" x1="104.0" x2="110.0" y1="70.0" y2="70.0" /></g><g id="g_curves"><polyline fill="none" id="series_sched_a" points="110.0,262.0 254.0,208.0 398.0,166.0 542.0,130.0 686.0,106.0 830.0,88.0" stroke="#1f77b4" stroke-width="2.0" /><polyline fill="none" id="series_sched_b" points="110.0,274.0 254.0,226.0 398.0,196.0 542.0,154.0 686.0,124.0 830.0,106.0" stroke="#ff7f0e" stroke-width="2.0" /><polyline class="dashed" fill="none" id="series_sched_c" points="110.0,286.0 254.0,244.0 398.0,202.0 542.0,172.0 686.0,136.0 830.0,118.0" stroke="#2ca02c" stroke-dasharray="6,4" stroke-width="2.0" /></g><g id="g_annotations"><g id="legend"><line stroke="#1f77b4" stroke-width="2.0" x1="690.0" x2="714.0" y1="80.0" y2="80.0" /><line stroke="#ff7f0e" stroke-width="2.0" x1="690.0" x2="714.0" y1="98.0" y2="98.0" /><line class="dashed" stroke="#2ca02c" stroke-dasharray="6,4" stroke-width="2.0" x1="690.0" x2="714.0" y1="116.0" y2="116.0" /></g></g><g id="g_text"><text fill="#000000" font-family="Arial" id="txt_title" x="10" y="20">Throughput vs Time under Load (Adaptive Scheduling)</text><text fill="#000000" font-family="Arial" font-size="10" id="txt_tick_x_0" text-anchor="middle" x="110.0" y="328.0">0</text><text fill="#000000" font-family="Arial" font-size="10" id="txt_tick_x_1" text-anchor="middle" x="254.0" y="328.0">2</text><text fill="#000000" font-family="Arial" font-size="10" id="txt_tick_x_2" text-anchor="middle" x="398.0" y="328.0">4</text><text fill="#000000" font-family="Arial" font-size="10" id="txt_tick_x_3" text-anchor="middle" x="542.0" y="328.0">6</text><text fill="#000000" font-family="Arial" font-size="10" id="txt_tick_x_4" text-anchor="middle" x="686.0" y="328.0">8</text><text fill="#000000" font-family="Arial" font-size="10" id="txt_tick_x_5" text-anchor="middle" x="830.0" y="328.0">10</text><text fill="#000000" font-family="Arial" font-size="10" id="txt_tick_y_0" text-anchor="end" x="100.0" y="313.0">0</text><text fill="#000000" font-family="Arial" font-size="10" id="txt_tick_y_1" text-anchor="end" x="100.0" y="253.0">50</text><text fill="#000000" font-family="Arial" font-size="10" id="txt_tick_y_2" text-anchor="end" x="100.0" y="193.0">100</text><text fill="#000000" font-family="Arial" font-size="10" id="txt_tick_y_3" text-anchor="end" x="100.0" y="133.0">150</text><text fill="#000000" font-family="Arial" font-size="10" id="txt_tick_y_4" text-anchor="end" x="100.0" y="73.0">200</text><text fill="#000000" font-family="Arial" font-size="12" id="txt_axis_x" text-anchor="middle" x="470.0" y="342.0">Time (s)</text><text fill="#000000" font-family="Arial" font-size="12" id="txt_axis_y" text-anchor="middle" x="70.0" y="190.0">Throughput (Mbps)</text><text fill="#000000" font-family="Arial" font-size="10" id="txt_legend_sched_a" x="720.0" y="84.0">Scheduler A</text><text fill="#000000" font-family="Arial" font-size="10" id="txt_legend_sched_b" x="720.0" y="102.0">Scheduler B</text><text fill="#000000" font-family="Arial" font-size="10" id="txt_legend_sched_c" x="720.0" y="120.0">Scheduler C</text></g><g id="g_markers" /></g></svg>