<?xml version="1.0" encoding="utf-8" ?>
<svg baseProfile="full" height="320" version="1.1" width="960" xmlns="http://www.w3.org/2000/svg" xmlns:ev="http://www.w3.org/2001/xml-events" xmlns:xlink="http://www.w3.org/1999/xlink"><defs /><g id="figure_root"><g id="g_axes" /><g id="g_curves"><line fill="none" stroke="#000000" stroke-width="2" x1="308.0" x2="384.0" y1="144.0" y2="144.0" /><line fill="none" stroke="#000000" stroke-width="2" x1="576.0" x2="652.0" y1="144.0" y2="144.0" /></g><g id="g_annotations"><rect fill="#ffffff" height="64.0" id="node_node_1" rx="8.0" ry="8.0" stroke="#000000" stroke-width="2" width="192.0" x="116.0" y="112.0" /><rect fill="#ffffff" height="64.0" id="node_node_2" rx="8.0" ry="8.0" stroke="#000000" stroke-width="2" width="192.0" x="384.0" y="112.0" /><rect fill="#ffffff" height="64.0" id="node_node_3" rx="8.0" ry="8.0" stroke="#000000" stroke-width="2" width="192.0" x="652.0" y="112.0" /><line id="geom_line_00" stroke="#000000" stroke-width="2.0" x1="212.0" x2="480.0" y1="144.0" y2="144.0" /><line id="geom_line_01" stroke="#000000" stroke-width="2.0" x1="480.0" x2="748.0" y1="144.0" y2="144.0" /><rect fill="none" height="64.0" id="geom_rect_00" stroke="#000000" stroke-width="2.0" width="192.0" x="116.0" y="112.0" /><rect fill="none" height="64.0" id="geom_rect_01" stroke="#000000" stroke-width="2.0" width="192.0" x="384.0" y="112.0" /><rect fill="none" height="64.0" id="geom_rect_02" stroke="#000000" stroke-width="2.0" width="192.0" x="652.0" y="112.0" /></g><g id="g_text"><text fill="#000000" font-family="Arial, sans-serif" font-size="12" id="txt_node_node_1" text-anchor="start" x="128.0" y="136.0"><tspan id="txt_node_node_1_line0" x="128.0" y="136.0">Unknown</tspan></text><text fill="#000000" font-family="Arial, sans-serif" font-size="12" id="txt_node_node_2" text-anchor="start" x="396.0" y="136.0"><tspan id="txt_node_node_2_line0" x="396.0" y="136.0">Unknown</tspan></text><text fill="#000000" font-family="Arial, sans-serif" font-size="12" id="txt_node_node_3" text-anchor="start" x="664.0" y="136.0"><tspan id="txt_node_node_3_line0" x="664.0" y="136.0">Unknown</tspan></text></g><g id="g_markers"><polygon fill="#000000" points="384.0,144.0 374.0,147.0 374.0,141.0" /><polygon fill="#000000" points="652.0,144.0 642.0,147.0 642.0,141.0" /></g></g></svg>