<?xml version="1.0" encoding="utf-8" ?>
<svg baseProfile="full" height="320" version="1.1" width="960" xmlns="http://www.w3.org/2000/svg" xmlns:ev="http://www.w3.org/2001/xml-events" xmlns:xlink="http://www.w3.org/1999/xlink"><defs /><g id="figure_root"><g id="g_axes"><line stroke="#000000" stroke-width="2" x1="11.0" x2="269.0" y1="260.0" y2="260.0" /><line stroke="#000000" stroke-width="2" x1="11.0" x2="11.0" y1="260.0" y2="59.0" /><line stroke="#000000" stroke-width="2" x1="290.0" x2="520.0" y1="260.0" y2="260.0" /><line stroke="#000000" stroke-width="2" x1="290.0" x2="290.0" y1="260.0" y2="59.0" /><line stroke="#000000" stroke-width="2" x1="547.0" x2="943.0" y1="260.0" y2="260.0" /><line stroke="#000000" stroke-width="2" x1="547.0" x2="547.0" y1="260.0" y2="59.0" /></g><g id="g_curves"><path d="M 94.00 79.00 C 94.17 79.00 94.67 79.00 95.00 79.00 C 95.34 79.00 95.68 79.00 96.01 79.00 C 96.34 79.00 96.66 79.00 96.99 79.00 C 97.32 79.00 97.83 79.00 98.00 79.00" fill="none" id="curve_serving_A3" stroke="#2b6cb0" stroke-width="2" /><path class="dashed" d="M 92.01 79.00 C 97.68 79.26 112.49 57.76 125.99 80.59 C 139.49 103.42 163.50 192.85 173.00 215.98 C 182.50 239.11 176.34 218.81 183.01 219.38 C 189.67 219.94 207.99 219.38 212.99 219.38" fill="none" id="curve_neighbor_A3" stroke="#dd6b20" stroke-dasharray="6,4" stroke-linecap="round" stroke-width="2" /><path d="M 344.00 79.28 C 344.17 79.28 344.66 79.28 344.99 79.28 C 345.33 79.28 345.67 79.28 346.00 79.28 C 346.34 79.28 346.66 79.28 346.99 79.28 C 347.33 79.28 347.84 79.28 348.01 79.28" fill="none" id="curve_serving_A4" stroke="#2b6cb0" stroke-width="2" /><path class="dashed" d="M 342.00 80.25 C 348.67 80.25 368.50 57.60 382.00 80.25 C 395.50 102.90 415.68 192.94 423.01 216.14 C 430.34 239.34 418.83 218.60 426.00 219.44 C 433.16 220.28 459.33 220.88 466.00 221.17" fill="none" id="curve_neighbor_A4" stroke="#dd6b20" stroke-dasharray="6,4" stroke-linecap="round" stroke-width="2" /><path d="M 594.01 79.00 C 594.17 79.00 594.67 79.00 595.00 79.00 C 595.33 79.00 595.65 79.00 595.99 79.00 C 596.32 79.00 596.68 79.00 597.01 79.00 C 597.35 79.00 597.84 79.00 598.00 79.00" fill="none" id="curve_serving_A5" stroke="#2b6cb0" stroke-width="2" /><path class="dashed" d="M 593.02 79.00 C 593.18 79.00 593.68 79.00 594.01 79.00 C 594.34 79.00 594.67 79.00 595.00 79.00 C 595.33 79.00 595.65 79.00 595.99 79.00 C 596.32 79.00 596.84 79.00 597.01 79.00" fill="none" id="curve_neighbor_A5" stroke="#dd6b20" stroke-dasharray="6,4" stroke-linecap="round" stroke-width="2" /></g><g id="g_annotations"><rect fill="#d0d0d0" fill-opacity="0.3" height="201.0" width="103.19999999999999" x="62.6" y="59.0" /><line stroke="#555555" stroke-width="1" x1="62.6" x2="62.6" y1="260.0" y2="59.0" /><line stroke="#555555" stroke-width="1" x1="165.79999999999998" x2="165.79999999999998" y1="260.0" y2="59.0" /><rect fill="#d0d0d0" fill-opacity="0.3" height="201.0" width="92.0" x="336.0" y="59.0" /><line stroke="#555555" stroke-width="1" x1="336.0" x2="336.0" y1="260.0" y2="59.0" /><line stroke="#555555" stroke-width="1" x1="428.0" x2="428.0" y1="260.0" y2="59.0" /><rect fill="#d0d0d0" fill-opacity="0.3" height="201.0" width="158.39999999999998" x="626.2" y="59.0" /><line stroke="#555555" stroke-width="1" x1="626.2" x2="626.2" y1="260.0" y2="59.0" /><line stroke="#555555" stroke-width="1" x1="784.6" x2="784.6" y1="260.0" y2="59.0" /><line id="geom_line_00" stroke="#000000" stroke-width="2.0" x1="82.0" x2="237.0" y1="119.0" y2="119.0" /><line id="geom_line_01" stroke="#000000" stroke-width="2.0" x1="332.0" x2="487.0" y1="119.0" y2="119.0" /><rect fill="none" height="201.0" id="geom_rect_00" stroke="#555555" stroke-width="1.0" width="258.0" x="11.0" y="59.0" /><rect fill="none" height="201.0" id="geom_rect_01" stroke="#555555" stroke-width="1.0" width="230.0" x="290.0" y="59.0" /><rect fill="none" height="201.0" id="geom_rect_02" stroke="#555555" stroke-width="1.0" width="396.0" x="547.0" y="59.0" /></g><g id="g_text"><text fill="#333333" font-family="Arial, sans-serif" font-size="10" id="txt_t_start_A3" text-anchor="start" x="66.6" y="71.0">t_start</text><text fill="#333333" font-family="Arial, sans-serif" font-size="10" id="txt_t_trigger_A3" text-anchor="start" x="169.79999999999998" y="71.0">t_trigger</text><text fill="#000000" font-family="Arial, sans-serif" font-size="12" id="txt_panel_A3" text-anchor="start" x="17.0" y="75.0">A3</text><text fill="#2b6cb0" font-family="Arial, sans-serif" font-size="10" id="txt_serving_A3" text-anchor="start" x="23.9" y="129.35">Serving</text><text fill="#dd6b20" font-family="Arial, sans-serif" font-size="10" id="txt_neighbor_A3" text-anchor="start" x="23.9" y="169.55">Neighbor</text><text fill="#333333" font-family="Arial, sans-serif" font-size="10" id="txt_t_start_A4" text-anchor="start" x="340.0" y="71.0">t_start</text><text fill="#333333" font-family="Arial, sans-serif" font-size="10" id="txt_t_trigger_A4" text-anchor="start" x="432.0" y="71.0">t_trigger</text><text fill="#000000" font-family="Arial, sans-serif" font-size="12" id="txt_panel_A4" text-anchor="start" x="296.0" y="75.0">A4</text><text fill="#2b6cb0" font-family="Arial, sans-serif" font-size="10" id="txt_serving_A4" text-anchor="start" x="301.5" y="129.35">Serving</text><text fill="#dd6b20" font-family="Arial, sans-serif" font-size="10" id="txt_neighbor_A4" text-anchor="start" x="301.5" y="169.55">Neighbor</text><text fill="#333333" font-family="Arial, sans-serif" font-size="10" id="txt_t_start_A5" text-anchor="start" x="630.2" y="71.0">t_start</text><text fill="#333333" font-family="Arial, sans-serif" font-size="10" id="txt_t_trigger_A5" text-anchor="start" x="788.6" y="71.0">t_trigger</text><text fill="#000000" font-family="Arial, sans-serif" font-size="12" id="txt_panel_A5" text-anchor="start" x="553.0" y="75.0">A5</text><text fill="#2b6cb0" font-family="Arial, sans-serif" font-size="10" id="txt_serving_A5" text-anchor="start" x="566.8" y="129.35">Serving</text><text fill="#dd6b20" font-family="Arial, sans-serif" font-size="10" id="txt_neighbor_A5" text-anchor="start" x="566.8" y="169.55">Neighbor</text></g><g id="g_markers"><circle cx="62.6" cy="65.0" fill="#555555" r="3" /><circle cx="165.79999999999998" cy="65.0" fill="#555555" r="3" /><circle cx="93.9986" cy="78.99950000000001" fill="#2b6cb0" r="3" /><circle cx="97.9976" cy="78.99950000000001" fill="#2b6cb0" r="3" /><circle cx="92.012" cy="78.99950000000001" fill="#dd6b20" r="3" /><circle cx="212.9882" cy="219.3779" fill="#dd6b20" r="3" /><circle cx="336.0" cy="65.0" fill="#555555" r="3" /><circle cx="428.0" cy="65.0" fill="#555555" r="3" /><circle cx="344.004" cy="79.2809" fill="#2b6cb0" r="3" /><circle cx="348.006" cy="79.2809" fill="#2b6cb0" r="3" /><circle cx="342.003" cy="80.2457" fill="#dd6b20" r="3" /><circle cx="465.996" cy="221.1668" fill="#dd6b20" r="3" /><circle cx="626.2" cy="65.0" fill="#555555" r="3" /><circle cx="784.6" cy="65.0" fill="#555555" r="3" /><circle cx="594.0052000000001" cy="78.99950000000001" fill="#2b6cb0" r="3" /><circle cx="598.0048" cy="78.99950000000001" fill="#2b6cb0" r="3" /><circle cx="593.0152" cy="78.99950000000001" fill="#dd6b20" r="3" /><circle cx="597.0148" cy="78.99950000000001" fill="#dd6b20" r="3" /></g></g></svg>