<?xml version="1.0" encoding="utf-8" ?>
<svg baseProfile="full" height="320" version="1.1" width="960" xmlns="http://www.w3.org/2000/svg" xmlns:ev="http://www.w3.org/2001/xml-events" xmlns:xlink="http://www.w3.org/1999/xlink"><defs /><g id="figure_root"><g id="g_axes" /><g id="g_curves"><line fill="none" stroke="#000000" stroke-width="2" x1="240.0" x2="330.0" y1="90.0" y2="90.0" /><line fill="none" stroke="#000000" stroke-width="2" x1="490.0" x2="580.0" y1="90.0" y2="90.0" /><line fill="none" stroke="#000000" stroke-width="2" x1="320.0" x2="410.0" y1="230.0" y2="230.0" /><line fill="none" stroke="#000000" stroke-width="2" x1="570.0" x2="660.0" y1="230.0" y2="230.0" /><polyline fill="none" points="410.0,90.0 410.0,230.0 490.0,230.0" stroke="#000000" stroke-width="2" /><polyline fill="none" points="660.0,90.0 660.0,230.0 740.0,230.0" stroke="#000000" stroke-width="2" /><line fill="none" stroke="#000000" stroke-width="2" x1="240.0" x2="160.0" y1="90.0" y2="230.0" /></g><g id="g_annotations"><rect fill="#ffffff" height="60.0" id="node_collect" rx="8.0" ry="8.0" stroke="#000000" stroke-width="2" width="160.0" x="80.0" y="60.0" /><rect fill="#ffffff" height="60.0" id="node_analyze" rx="8.0" ry="8.0" stroke="#000000" stroke-width="2" width="160.0" x="330.0" y="60.0" /><rect fill="#ffffff" height="60.0" id="node_decide" rx="8.0" ry="8.0" stroke="#000000" stroke-width="2" width="160.0" x="580.0" y="60.0" /><rect fill="#ffffff" height="60.0" id="node_prepare" rx="8.0" ry="8.0" stroke="#000000" stroke-width="2" width="160.0" x="160.0" y="200.0" /><rect fill="#ffffff" height="60.0" id="node_execute" rx="8.0" ry="8.0" stroke="#000000" stroke-width="2" width="160.0" x="410.0" y="200.0" /><rect fill="#ffffff" height="60.0" id="node_verify" rx="8.0" ry="8.0" stroke="#000000" stroke-width="2" width="160.0" x="660.0" y="200.0" /></g><g id="g_text"><text fill="#000000" font-family="Arial, sans-serif" id="txt_title" text-anchor="start" x="10" y="20">Expanded Procedure Flow</text><text fill="#000000" font-family="Arial, sans-serif" font-size="12" id="txt_node_collect" text-anchor="start" x="92.0" y="84.0"><tspan id="txt_node_collect_line0" x="92.0" y="84.0">Collect</tspan></text><text fill="#000000" font-family="Arial, sans-serif" font-size="12" id="txt_node_analyze" text-anchor="start" x="342.0" y="84.0"><tspan id="txt_node_analyze_line0" x="342.0" y="84.0">Analyze</tspan></text><text fill="#000000" font-family="Arial, sans-serif" font-size="12" id="txt_node_decide" text-anchor="start" x="592.0" y="84.0"><tspan id="txt_node_decide_line0" x="592.0" y="84.0">Decide</tspan></text><text fill="#000000" font-family="Arial, sans-serif" font-size="12" id="txt_node_prepare" text-anchor="start" x="172.0" y="224.0"><tspan id="txt_node_prepare_line0" x="172.0" y="224.0">Prepare</tspan></text><text fill="#000000" font-family="Arial, sans-serif" font-size="12" id="txt_node_execute" text-anchor="start" x="422.0" y="224.0"><tspan id="txt_node_execute_line0" x="422.0" y="224.0">Execute</tspan></text><text fill="#000000" font-family="Arial, sans-serif" font-size="12" id="txt_node_verify" text-anchor="start" x="672.0" y="224.0"><tspan id="txt_node_verify_line0" x="672.0" y="224.0">Verify</tspan></text><text fill="#000000" font-family="Arial, sans-serif" font-size="10" id="txt_edge_collect_analyze" text-anchor="start" x="285.0" y="84.0">input</text><text fill="#000000" font-family="Arial, sans-serif" font-size="10" id="txt_edge_analyze_decide" text-anchor="start" x="535.0" y="84.0">score</text><text fill="#000000" font-family="Arial, sans-serif" font-size="10" id="txt_edge_prepare_execute" text-anchor="start" x="365.0" y="224.0">handoff</text><text fill="#000000" font-family="Arial, sans-serif" font-size="10" id="txt_edge_execute_verify" text-anchor="start" x="615.0" y="224.0">confirm</text><text fill="#000000" font-family="Arial, sans-serif" font-size="10" id="txt_edge_analyze_execute" text-anchor="start" x="450.0" y="154.0">branch</text><text fill="#000000" font-family="Arial, sans-serif" font-size="10" id="txt_edge_decide_verify" text-anchor="start" x="700.0" y="154.0">finalize</text><text fill="#000000" font-family="Arial, sans-serif" font-size="10" id="txt_edge_collect_prepare" text-anchor="start" x="200.0" y="154.0">prep</text></g><g id="g_markers"><polygon fill="#000000" points="330.0,90.0 320.0,93.0 320.0,87.0" /><polygon fill="#000000" points="580.0,90.0 570.0,93.0 570.0,87.0" /><polygon fill="#000000" points="410.0,230.0 400.0,233.0 400.0,227.0" /><polygon fill="#000000" points="660.0,230.0 650.0,233.0 650.0,227.0" /><polygon fill="#000000" points="490.0,230.0 480.0,233.0 480.0,227.0" /><polygon fill="#000000" points="740.0,230.0 730.0,233.0 730.0,227.0" /><polygon fill="#000000" points="160.0,230.0 162.35665995719495,219.8291517636849 167.5661188099417,222.80598539382592" /></g></g></svg>