<?xml version="1.0" encoding="utf-8" ?>
<svg baseProfile="full" height="240" version="1.1" width="720" xmlns="http://www.w3.org/2000/svg" xmlns:ev="http://www.w3.org/2001/xml-events" xmlns:xlink="http://www.w3.org/1999/xlink"><defs /><g id="figure_root"><g id="g_axes"><line stroke="#000000" stroke-width="2.0" x1="10.0" x2="236.0" y1="200.0" y2="200.0" /><line stroke="#000000" stroke-width="2.0" x1="10.0" x2="10.0" y1="200.0" y2="70.0" /><line stroke="#000000" stroke-width="2.0" x1="256.0" x2="461.0" y1="200.0" y2="200.0" /><line stroke="#000000" stroke-width="2.0" x1="256.0" x2="256.0" y1="200.0" y2="70.0" /><line stroke="#000000" stroke-width="2.0" x1="481.0" x2="710.0" y1="200.0" y2="200.0" /><line stroke="#000000" stroke-width="2.0" x1="481.0" x2="481.0" y1="200.0" y2="70.0" /></g><g id="g_curves"><path d="M 35.99 103.50 C 39.66 102.14 50.67 100.63 58.00 95.36 C 65.34 90.10 72.66 76.15 79.99 71.92 C 87.33 67.70 94.67 70.32 102.00 70.00 C 109.34 69.68 120.33 70.00 123.99 70.00" fill="none" id="curve_serving_A3" stroke="#2b6cb0" stroke-width="2" /><path class="dashed" d="M 35.99 70.00 C 39.66 70.00 50.67 70.00 58.00 70.00 C 65.34 70.00 72.66 68.64 79.99 70.00 C 87.33 71.36 94.67 75.95 102.00 78.14 C 109.34 80.33 120.33 82.31 123.99 83.14" fill="none" id="curve_neighbor_A3" stroke="#dd6b20" stroke-dasharray="6,4" stroke-linecap="round" stroke-width="2" /><path d="M 256.00 103.50 C 256.00 102.14 256.00 100.63 256.00 95.36 C 256.00 90.10 256.00 76.15 256.00 71.92 C 256.00 67.70 256.00 70.32 256.00 70.00 C 256.00 69.68 256.00 70.00 256.00 70.00" fill="none" id="curve_serving_A4" stroke="#2b6cb0" stroke-width="2" /><path class="dashed" d="M 256.00 70.00 C 256.00 70.00 256.00 70.00 256.00 70.00 C 256.00 70.00 256.00 68.64 256.00 70.00 C 256.00 71.36 256.00 75.95 256.00 78.14 C 256.00 80.33 256.00 82.31 256.00 83.14" fill="none" id="curve_neighbor_A4" stroke="#dd6b20" stroke-dasharray="6,4" stroke-linecap="round" stroke-width="2" /><path d="M 481.00 103.50 C 481.00 102.14 481.00 100.63 481.00 95.36 C 481.00 90.10 481.00 76.15 481.00 71.92 C 481.00 67.70 481.00 70.32 481.00 70.00 C 481.00 69.68 481.00 70.00 481.00 70.00" fill="none" id="curve_serving_A5" stroke="#2b6cb0" stroke-width="2" /><path class="dashed" d="M 481.00 70.00 C 481.00 70.00 481.00 70.00 481.00 70.00 C 481.00 70.00 481.00 68.64 481.00 70.00 C 481.00 71.36 481.00 75.95 481.00 78.14 C 481.00 80.33 481.00 82.31 481.00 83.14" fill="none" id="curve_neighbor_A5" stroke="#dd6b20" stroke-dasharray="6,4" stroke-linecap="round" stroke-width="2" /></g><g id="g_annotations"><rect fill="#f2e6b8" fill-opacity="0.35" height="130.0" width="70.512" x="25.142000000000003" y="70.0" /><line stroke="#555555" stroke-width="1.0" x1="25.142000000000003" x2="25.142000000000003" y1="200.0" y2="70.0" /><line stroke="#555555" stroke-width="1.0" x1="95.654" x2="95.654" y1="200.0" y2="70.0" /><rect fill="#f2e6b8" fill-opacity="0.35" height="130.0" width="63.95999999999998" x="269.735" y="70.0" /><line stroke="#555555" stroke-width="1.0" x1="269.735" x2="269.735" y1="200.0" y2="70.0" /><line stroke="#555555" stroke-width="1.0" x1="333.695" x2="333.695" y1="200.0" y2="70.0" /><rect fill="#d0d0d0" fill-opacity="0.35" height="130.0" width="71.44799999999992" x="496.343" y="70.0" /><line stroke="#555555" stroke-width="1.0" x1="496.343" x2="496.343" y1="200.0" y2="70.0" /><line stroke="#555555" stroke-width="1.0" x1="567.7909999999999" x2="567.7909999999999" y1="200.0" y2="70.0" /><line id="geom_line_00" stroke="#000000" stroke-width="2.0" x1="39.0" x2="229.0" y1="199.0" y2="199.0" /><line id="geom_line_01" stroke="#000000" stroke-width="2.0" x1="264.0" x2="454.0" y1="199.0" y2="199.0" /><line id="geom_line_02" stroke="#000000" stroke-width="2.0" x1="489.0" x2="679.0" y1="199.0" y2="199.0" /><line id="geom_line_03" stroke="#000000" stroke-width="2.0" x1="39.0" x2="39.0" y1="70.0" y2="199.0" /><line id="geom_line_04" stroke="#000000" stroke-width="2.0" x1="110.0" x2="110.0" y1="70.0" y2="199.0" /><line id="geom_line_05" stroke="#000000" stroke-width="2.0" x1="264.0" x2="264.0" y1="70.0" y2="199.0" /><line id="geom_line_06" stroke="#000000" stroke-width="2.0" x1="335.0" x2="335.0" y1="70.0" y2="199.0" /><line id="geom_line_07" stroke="#000000" stroke-width="2.0" x1="489.0" x2="489.0" y1="70.0" y2="199.0" /><line id="geom_line_08" stroke="#000000" stroke-width="2.0" x1="560.0" x2="560.0" y1="70.0" y2="199.0" /><line id="geom_line_09" stroke="#555555" stroke-width="1.0" x1="48.0" x2="48.0" y1="11.0" y2="201.0" /><line id="geom_line_10" stroke="#555555" stroke-width="1.0" x1="49.0" x2="49.0" y1="11.0" y2="201.0" /><line id="geom_line_11" stroke="#555555" stroke-width="1.0" x1="272.0" x2="272.0" y1="11.0" y2="201.0" /><line id="geom_line_12" stroke="#555555" stroke-width="1.0" x1="273.0" x2="273.0" y1="11.0" y2="201.0" /></g><g id="g_text"><text dominant-baseline="alphabetic" fill="#000000" font-family="Arial, sans-serif" font-size="10" id="txt_t_start_A3" text-anchor="start" x="29.142000000000003" y="82.0">t_start</text><text dominant-baseline="alphabetic" fill="#000000" font-family="Arial, sans-serif" font-size="10" id="txt_t_trigger_A3" text-anchor="start" x="99.654" y="82.0">t_trigger</text><text dominant-baseline="alphabetic" fill="#000000" font-family="Arial, sans-serif" font-size="12" font-weight="bold" id="txt_panel_A3" text-anchor="start" x="16.0" y="86.0">A3</text><text dominant-baseline="alphabetic" fill="#2b6cb0" font-family="Arial, sans-serif" font-size="10" id="txt_serving_A3" text-anchor="start" x="21.3" y="115.5">Serving</text><text dominant-baseline="alphabetic" fill="#dd6b20" font-family="Arial, sans-serif" font-size="10" id="txt_neighbor_A3" text-anchor="start" x="21.3" y="141.5">Neighbor</text><text dominant-baseline="alphabetic" fill="#000000" font-family="Arial, sans-serif" font-size="10" id="txt_t_start_A4" text-anchor="start" x="273.735" y="82.0">t_start</text><text dominant-baseline="alphabetic" fill="#000000" font-family="Arial, sans-serif" font-size="10" id="txt_t_trigger_A4" text-anchor="start" x="337.695" y="82.0">t_trigger</text><text dominant-baseline="alphabetic" fill="#000000" font-family="Arial, sans-serif" font-size="12" font-weight="bold" id="txt_panel_A4" text-anchor="start" x="262.0" y="86.0">A4</text><text dominant-baseline="alphabetic" fill="#2b6cb0" font-family="Arial, sans-serif" font-size="10" id="txt_serving_A4" text-anchor="start" x="266.25" y="115.5">Serving</text><text dominant-baseline="alphabetic" fill="#dd6b20" font-family="Arial, sans-serif" font-size="10" id="txt_neighbor_A4" text-anchor="start" x="266.25" y="141.5">Neighbor</text><text dominant-baseline="alphabetic" fill="#000000" font-family="Arial, sans-serif" font-size="10" id="txt_t_start_A5" text-anchor="start" x="500.343" y="82.0">t_start</text><text dominant-baseline="alphabetic" fill="#000000" font-family="Arial, sans-serif" font-size="10" id="txt_t_trigger_A5" text-anchor="start" x="571.7909999999999" y="82.0">t_trigger</text><text dominant-baseline="alphabetic" fill="#000000" font-family="Arial, sans-serif" font-size="12" font-weight="bold" id="txt_panel_A5" text-anchor="start" x="487.0" y="86.0">A5</text><text dominant-baseline="alphabetic" fill="#2b6cb0" font-family="Arial, sans-serif" font-size="10" id="txt_serving_A5" text-anchor="start" x="492.45" y="115.5">Serving</text><text dominant-baseline="alphabetic" fill="#dd6b20" font-family="Arial, sans-serif" font-size="10" id="txt_neighbor_A5" text-anchor="start" x="492.45" y="141.5">Neighbor</text></g><g id="g_markers"><circle cx="25.142000000000003" cy="76.0" fill="#555555" r="3" /><circle cx="95.654" cy="76.0" fill="#555555" r="3" /><circle cx="35.99" cy="103.501" fill="#2b6cb0" r="3" /><circle cx="123.99439999999998" cy="70.0" fill="#2b6cb0" r="3" /><circle cx="35.99" cy="70.0" fill="#dd6b20" r="3" /><circle cx="123.99439999999998" cy="83.143" fill="#dd6b20" r="3" /><circle cx="269.735" cy="76.0" fill="#555555" r="3" /><circle cx="333.695" cy="76.0" fill="#555555" r="3" /><circle cx="256.0" cy="103.501" fill="#2b6cb0" r="3" /><circle cx="256.0" cy="70.0" fill="#2b6cb0" r="3" /><circle cx="256.0" cy="70.0" fill="#dd6b20" r="3" /><circle cx="256.0" cy="83.143" fill="#dd6b20" r="3" /><circle cx="496.343" cy="76.0" fill="#555555" r="3" /><circle cx="567.7909999999999" cy="76.0" fill="#555555" r="3" /><circle cx="481.0" cy="103.501" fill="#2b6cb0" r="3" /><circle cx="481.0" cy="70.0" fill="#2b6cb0" r="3" /><circle cx="481.0" cy="70.0" fill="#dd6b20" r="3" /><circle cx="481.0" cy="83.143" fill="#dd6b20" r="3" /></g></g></svg>