<?xml version="1.0" encoding="utf-8" ?>
<svg baseProfile="full" height="300" version="1.1" width="800" xmlns="http://www.w3.org/2000/svg" xmlns:ev="http://www.w3.org/2001/xml-events" xmlns:xlink="http://www.w3.org/1999/xlink"><defs /><g id="figure_root"><g id="g_axes"><line stroke="#000000" stroke-width="2" x1="80.0" x2="720.0" y1="240.0" y2="240.0" /><line stroke="#000000" stroke-width="2" x1="80.0" x2="80.0" y1="240.0" y2="40.0" /><line stroke="#000000" stroke-width="1" x1="80.0" x2="80.0" y1="240.0" y2="246.0" /><line stroke="#000000" stroke-width="1" x1="400.0" x2="400.0" y1="240.0" y2="246.0" /><line stroke="#000000" stroke-width="1" x1="720.0" x2="720.0" y1="240.0" y2="246.0" /><line stroke="#000000" stroke-width="1" x1="74.0" x2="80.0" y1="240.0" y2="240.0" /><line stroke="#000000" stroke-width="1" x1="74.0" x2="80.0" y1="140.0" y2="140.0" /><line stroke="#000000" stroke-width="1" x1="74.0" x2="80.0" y1="40.0" y2="40.0" /></g><g id="g_curves"><polyline fill="none" id="series_baseline" points="80.0,200.0 400.0,100.0 720.0,60.0" stroke="#1f77b4" stroke-width="2.0" /><polyline fill="none" id="series_handover" points="80.0,220.0 400.0,140.0 720.0,80.0" stroke="#ff7f0e" stroke-dasharray="6,4" stroke-width="2.0" /></g><g id="g_annotations"><g id="legend"><line stroke="#1f77b4" stroke-width="2.0" x1="580.0" x2="604.0" y1="50.0" y2="50.0" /><text fill="#000000" font-family="Arial" font-size="10" id="txt_legend_baseline" x="610.0" y="54.0">Baseline</text><line stroke="#ff7f0e" stroke-dasharray="6,4" stroke-width="2.0" x1="580.0" x2="604.0" y1="68.0" y2="68.0" /><text fill="#000000" font-family="Arial" font-size="10" id="txt_legend_handover" x="610.0" y="72.0">Handover</text></g></g><g id="g_text"><text fill="#000000" font-family="Arial" id="txt_title" x="10" y="20">Performance vs Time</text><text fill="#000000" font-family="Arial" font-size="10" id="txt_tick_x_0" text-anchor="middle" x="80.0" y="258.0">0</text><text fill="#000000" font-family="Arial" font-size="10" id="txt_tick_x_1" text-anchor="middle" x="400.0" y="258.0">5</text><text fill="#000000" font-family="Arial" font-size="10" id="txt_tick_x_2" text-anchor="middle" x="720.0" y="258.0">10</text><text fill="#000000" font-family="Arial" font-size="10" id="txt_tick_y_0" text-anchor="end" x="70.0" y="243.0">0</text><text fill="#000000" font-family="Arial" font-size="10" id="txt_tick_y_1" text-anchor="end" x="70.0" y="143.0">50</text><text fill="#000000" font-family="Arial" font-size="10" id="txt_tick_y_2" text-anchor="end" x="70.0" y="43.0">100</text><text fill="#000000" font-family="Arial" font-size="12" id="txt_axis_x" text-anchor="middle" x="400.0" y="272.0">Time (s)</text><text fill="#000000" font-family="Arial" font-size="12" id="txt_axis_y" text-anchor="middle" x="40.0" y="140.0">Throughput (Mbps)</text></g><g id="g_markers" /></g></svg>