<?xml version="1.0" encoding="utf-8" ?>
<svg baseProfile="full" height="320" version="1.1" width="900" xmlns="http://www.w3.org/2000/svg" xmlns:ev="http://www.w3.org/2001/xml-events" xmlns:xlink="http://www.w3.org/1999/xlink"><defs /><g id="figure_root"><g id="g_axes"><line stroke="#000000" stroke-width="2.0" x1="60.0" x2="280.0" y1="260.0" y2="260.0" /><line stroke="#000000" stroke-width="2.0" x1="60.0" x2="60.0" y1="260.0" y2="90.0" /><line stroke="#000000" stroke-width="2.0" x1="340.0" x2="560.0" y1="260.0" y2="260.0" /><line stroke="#000000" stroke-width="2.0" x1="340.0" x2="340.0" y1="260.0" y2="90.0" /><line stroke="#000000" stroke-width="2.0" x1="620.0" x2="840.0" y1="260.0" y2="260.0" /><line stroke="#000000" stroke-width="2.0" x1="620.0" x2="620.0" y1="260.0" y2="90.0" /></g><g id="g_curves"><path d="M 71.00 226.00 C 105.65 226.00 135.35 132.50 170.00 132.50 C 204.65 132.50 234.35 183.50 269.00 183.50" fill="none" id="curve_serving_A3" stroke="#2b6cb0" stroke-width="2" /><path d="M 71.00 158.00 C 105.65 158.00 135.35 200.50 170.00 200.50 C 204.65 200.50 234.35 124.00 269.00 124.00" fill="none" id="curve_neighbor_A3" stroke="#dd6b20" stroke-width="2" /><path d="M 351.00 226.00 C 385.65 226.00 415.35 132.50 450.00 132.50 C 484.65 132.50 514.35 183.50 549.00 183.50" fill="none" id="curve_serving_A4" stroke="#2b6cb0" stroke-width="2" /><path d="M 351.00 158.00 C 385.65 158.00 415.35 200.50 450.00 200.50 C 484.65 200.50 514.35 124.00 549.00 124.00" fill="none" id="curve_neighbor_A4" stroke="#dd6b20" stroke-width="2" /><path d="M 631.00 226.00 C 665.65 226.00 695.35 132.50 730.00 132.50 C 764.65 132.50 794.35 183.50 829.00 183.50" fill="none" id="curve_serving_A5" stroke="#2b6cb0" stroke-width="2" /><path d="M 631.00 158.00 C 665.65 158.00 695.35 200.50 730.00 200.50 C 764.65 200.50 794.35 124.00 829.00 124.00" fill="none" id="curve_neighbor_A5" stroke="#dd6b20" stroke-width="2" /></g><g id="g_annotations"><rect fill="#d0d0d0" fill-opacity="0.3" height="170.0" width="81.4" x="115.0" y="90.0" /><line stroke="#555555" stroke-width="1.0" x1="115.0" x2="115.0" y1="260.0" y2="90.0" /><line stroke="#555555" stroke-width="1.0" x1="196.4" x2="196.4" y1="260.0" y2="90.0" /><rect fill="#d0d0d0" fill-opacity="0.3" height="170.0" width="81.39999999999998" x="395.0" y="90.0" /><line stroke="#555555" stroke-width="1.0" x1="395.0" x2="395.0" y1="260.0" y2="90.0" /><line stroke="#555555" stroke-width="1.0" x1="476.4" x2="476.4" y1="260.0" y2="90.0" /><rect fill="#d0d0d0" fill-opacity="0.3" height="170.0" width="81.39999999999998" x="675.0" y="90.0" /><line stroke="#555555" stroke-width="1.0" x1="675.0" x2="675.0" y1="260.0" y2="90.0" /><line stroke="#555555" stroke-width="1.0" x1="756.4" x2="756.4" y1="260.0" y2="90.0" /><line class="dashed" id="geom_line_00" stroke="#555555" stroke-dasharray="4,4" stroke-width="1.0" x1="115.0" x2="115.0" y1="90.0" y2="260.0" /><line class="dashed" id="geom_line_01" stroke="#555555" stroke-dasharray="4,4" stroke-width="1.0" x1="196.4" x2="196.4" y1="90.0" y2="260.0" /><line class="dashed" id="geom_line_02" stroke="#555555" stroke-dasharray="4,4" stroke-width="1.0" x1="395.0" x2="395.0" y1="90.0" y2="260.0" /><line class="dashed" id="geom_line_03" stroke="#555555" stroke-dasharray="4,4" stroke-width="1.0" x1="476.4" x2="476.4" y1="90.0" y2="260.0" /><line class="dashed" id="geom_line_04" stroke="#555555" stroke-dasharray="4,4" stroke-width="1.0" x1="675.0" x2="675.0" y1="90.0" y2="260.0" /><line class="dashed" id="geom_line_05" stroke="#555555" stroke-dasharray="4,4" stroke-width="1.0" x1="756.4" x2="756.4" y1="90.0" y2="260.0" /></g><g id="g_text"><text fill="#000000" font-family="Arial, sans-serif" id="txt_title" text-anchor="start" x="10" y="20">Adaptive TTT Windowing for 3GPP Events (Dense Text)</text><text dominant-baseline="alphabetic" fill="#000000" font-family="Arial, sans-serif" font-size="10" id="txt_t_start_A3" text-anchor="start" x="119.0" y="102.0">t_start</text><text dominant-baseline="alphabetic" fill="#000000" font-family="Arial, sans-serif" font-size="10" id="txt_t_trigger_A3" text-anchor="start" x="200.4" y="102.0">t_trigger</text><text dominant-baseline="alphabetic" fill="#000000" font-family="Arial, sans-serif" font-size="12" font-weight="bold" id="txt_panel_A3" text-anchor="start" x="66.0" y="106.0">A3</text><text dominant-baseline="alphabetic" fill="#2b6cb0" font-family="Arial, sans-serif" font-size="10" id="txt_serving_A3" text-anchor="start" x="71.0" y="149.5">Serving</text><text dominant-baseline="alphabetic" fill="#dd6b20" font-family="Arial, sans-serif" font-size="10" id="txt_neighbor_A3" text-anchor="start" x="71.0" y="183.5">Neighbor</text><text dominant-baseline="alphabetic" fill="#000000" font-family="Arial, sans-serif" font-size="10" id="txt_t_start_A4" text-anchor="start" x="399.0" y="102.0">t_start</text><text dominant-baseline="alphabetic" fill="#000000" font-family="Arial, sans-serif" font-size="10" id="txt_t_trigger_A4" text-anchor="start" x="480.4" y="102.0">t_trigger</text><text dominant-baseline="alphabetic" fill="#000000" font-family="Arial, sans-serif" font-size="12" font-weight="bold" id="txt_panel_A4" text-anchor="start" x="346.0" y="106.0">A4</text><text dominant-baseline="alphabetic" fill="#2b6cb0" font-family="Arial, sans-serif" font-size="10" id="txt_serving_A4" text-anchor="start" x="351.0" y="149.5">Serving</text><text dominant-baseline="alphabetic" fill="#dd6b20" font-family="Arial, sans-serif" font-size="10" id="txt_neighbor_A4" text-anchor="start" x="351.0" y="183.5">Neighbor</text><text dominant-baseline="alphabetic" fill="#000000" font-family="Arial, sans-serif" font-size="10" id="txt_t_start_A5" text-anchor="start" x="679.0" y="102.0">t_start</text><text dominant-baseline="alphabetic" fill="#000000" font-family="Arial, sans-serif" font-size="10" id="txt_t_trigger_A5" text-anchor="start" x="760.4" y="102.0">t_trigger</text><text dominant-baseline="alphabetic" fill="#000000" font-family="Arial, sans-serif" font-size="12" font-weight="bold" id="txt_panel_A5" text-anchor="start" x="626.0" y="106.0">A5</text><text dominant-baseline="alphabetic" fill="#2b6cb0" font-family="Arial, sans-serif" font-size="10" id="txt_serving_A5" text-anchor="start" x="631.0" y="149.5">Serving</text><text dominant-baseline="alphabetic" fill="#dd6b20" font-family="Arial, sans-serif" font-size="10" id="txt_neighbor_A5" text-anchor="start" x="631.0" y="183.5">Neighbor</text><text dominant-baseline="alphabetic" fill="#000000" font-family="Arial, sans-serif" font-size="12" id="txt_auto_0" text-anchor="start" x="70.0" y="140.0">TTT=120ms</text><text dominant-baseline="alphabetic" fill="#000000" font-family="Arial, sans-serif" font-size="12" id="txt_auto_1" text-anchor="start" x="350.0" y="140.0">TTT=200ms</text><text dominant-baseline="alphabetic" fill="#000000" font-family="Arial, sans-serif" font-size="12" id="txt_auto_2" text-anchor="start" x="630.0" y="140.0">TTT=280ms</text></g><g id="g_markers"><circle cx="115.0" cy="96.0" fill="#555555" r="3" /><circle cx="196.4" cy="96.0" fill="#555555" r="3" /><circle cx="71.0" cy="226.0" fill="#2b6cb0" r="3" /><circle cx="269.0" cy="183.5" fill="#2b6cb0" r="3" /><circle cx="71.0" cy="158.0" fill="#dd6b20" r="3" /><circle cx="269.0" cy="124.0" fill="#dd6b20" r="3" /><circle cx="395.0" cy="96.0" fill="#555555" r="3" /><circle cx="476.4" cy="96.0" fill="#555555" r="3" /><circle cx="351.0" cy="226.0" fill="#2b6cb0" r="3" /><circle cx="549.0" cy="183.5" fill="#2b6cb0" r="3" /><circle cx="351.0" cy="158.0" fill="#dd6b20" r="3" /><circle cx="549.0" cy="124.0" fill="#dd6b20" r="3" /><circle cx="675.0" cy="96.0" fill="#555555" r="3" /><circle cx="756.4" cy="96.0" fill="#555555" r="3" /><circle cx="631.0" cy="226.0" fill="#2b6cb0" r="3" /><circle cx="829.0" cy="183.5" fill="#2b6cb0" r="3" /><circle cx="631.0" cy="158.0" fill="#dd6b20" r="3" /><circle cx="829.0" cy="124.0" fill="#dd6b20" r="3" /><circle cx="181.0" cy="149.5" fill="#dd6b20" id="geom_marker_00" r="3.0" /><circle cx="461.0" cy="166.5" fill="#dd6b20" id="geom_marker_01" r="3.0" /><circle cx="741.0" cy="183.5" fill="#dd6b20" id="geom_marker_02" r="3.0" /></g></g></svg>