<?xml version="1.0" encoding="utf-8" ?>
<svg baseProfile="full" height="300" version="1.1" width="820" xmlns="http://www.w3.org/2000/svg" xmlns:ev="http://www.w3.org/2001/xml-events" xmlns:xlink="http://www.w3.org/1999/xlink"><defs /><g id="figure_root"><g id="g_axes"><line stroke="#000000" stroke-width="2" x1="98.0" x2="755.0" y1="264.0" y2="264.0" /><line stroke="#000000" stroke-width="2" x1="98.0" x2="98.0" y1="264.0" y2="54.0" /><line stroke="#000000" stroke-width="1" x1="98.0" x2="98.0" y1="264.0" y2="270.0" /><line stroke="#000000" stroke-width="1" x1="426.5" x2="426.5" y1="264.0" y2="270.0" /><line stroke="#000000" stroke-width="1" x1="755.0" x2="755.0" y1="264.0" y2="270.0" /><line stroke="#000000" stroke-width="1" x1="92.0" x2="98.0" y1="264.0" y2="264.0" /><line stroke="#000000" stroke-width="1" x1="92.0" x2="98.0" y1="159.0" y2="159.0" /><line stroke="#000000" stroke-width="1" x1="92.0" x2="98.0" y1="54.0" y2="54.0" /></g><g id="g_curves"><polyline fill="none" id="series_series_0" points="98.0,123.06899999999999 143.99,123.82500000000002 214.02620000000002,123.82500000000002 283.99670000000003,125.33699999999999 353.9672,122.81700000000001" stroke="#1f77b4" stroke-width="2.0" /><polyline class="dashed" fill="none" id="series_series_1" points="98.0,131.322 142.019,124.09799999999998 211.9895,124.09799999999998 282.02570000000003,124.09799999999998 351.9962,127.31099999999998" stroke="#1f77b4" stroke-dasharray="6,4" stroke-width="2.0" /><polyline fill="none" id="series_series_2" points="98.0,119.037 142.019,123.74099999999999 211.9895,123.74099999999999 282.02570000000003,125.232 351.9962,118.17599999999999 422.0324,125.043 492.0029,125.043 561.9734000000001,126.555 632.0096,133.254" stroke="#1f77b4" stroke-width="2.0" /><polyline class="dashed" fill="none" id="series_series_3" points="98.0,131.322 142.019,124.09799999999998 211.9895,124.09799999999998 282.02570000000003,124.09799999999998 351.9962,127.31099999999998" stroke="#1f77b4" stroke-dasharray="6,4" stroke-width="2.0" /></g><g id="g_annotations"><g id="legend"><line stroke="#1f77b4" stroke-width="2.0" x1="615.0" x2="639.0" y1="64.0" y2="64.0" /><line class="dashed" stroke="#1f77b4" stroke-dasharray="6,4" stroke-width="2.0" x1="615.0" x2="639.0" y1="82.0" y2="82.0" /><line stroke="#1f77b4" stroke-width="2.0" x1="615.0" x2="639.0" y1="100.0" y2="100.0" /><line class="dashed" stroke="#1f77b4" stroke-dasharray="6,4" stroke-width="2.0" x1="615.0" x2="639.0" y1="118.0" y2="118.0" /></g></g><g id="g_text"><text fill="#000000" font-family="Arial, sans-serif" font-size="10" id="txt_tick_x_0" text-anchor="middle" x="98.0" y="282.0">0</text><text fill="#000000" font-family="Arial, sans-serif" font-size="10" id="txt_tick_x_1" text-anchor="middle" x="426.5" y="282.0">0.5</text><text fill="#000000" font-family="Arial, sans-serif" font-size="10" id="txt_tick_x_2" text-anchor="middle" x="755.0" y="282.0">1.0</text><text fill="#000000" font-family="Arial, sans-serif" font-size="10" id="txt_tick_y_0" text-anchor="end" x="88.0" y="267.0">0</text><text fill="#000000" font-family="Arial, sans-serif" font-size="10" id="txt_tick_y_1" text-anchor="end" x="88.0" y="162.0">0.5</text><text fill="#000000" font-family="Arial, sans-serif" font-size="10" id="txt_tick_y_2" text-anchor="end" x="88.0" y="57.0">1.0</text><text fill="#000000" font-family="Arial, sans-serif" font-size="12" id="txt_axis_x" text-anchor="middle" x="426.5" y="296.0">x</text><text fill="#000000" font-family="Arial, sans-serif" font-size="12" id="txt_axis_y" text-anchor="middle" x="58.0" y="159.0">Call</text><text fill="#000000" font-family="Arial, sans-serif" font-size="10" id="txt_legend_series_0" text-anchor="start" x="645.0" y="68.0">series_0</text><text fill="#000000" font-family="Arial, sans-serif" font-size="10" id="txt_legend_series_1" text-anchor="start" x="645.0" y="86.0">series_1</text><text fill="#000000" font-family="Arial, sans-serif" font-size="10" id="txt_legend_series_2" text-anchor="start" x="645.0" y="104.0">series_2</text><text fill="#000000" font-family="Arial, sans-serif" font-size="10" id="txt_legend_series_3" text-anchor="start" x="645.0" y="122.0">series_3</text></g><g id="g_markers" /></g></svg>