<?xml version="1.0" encoding="utf-8" ?>
<svg baseProfile="full" height="360" version="1.1" width="1200" xmlns="http://www.w3.org/2000/svg" xmlns:ev="http://www.w3.org/2001/xml-events" xmlns:xlink="http://www.w3.org/1999/xlink"><defs /><g id="figure_root"><g id="g_axes"><line stroke="#000000" stroke-width="2" x1="80.0" x2="380.0" y1="310.0" y2="310.0" /><line stroke="#000000" stroke-width="2" x1="80.0" x2="80.0" y1="310.0" y2="90.0" /><line stroke="#000000" stroke-width="2" x1="450.0" x2="750.0" y1="310.0" y2="310.0" /><line stroke="#000000" stroke-width="2" x1="450.0" x2="450.0" y1="310.0" y2="90.0" /><line stroke="#000000" stroke-width="2" x1="820.0" x2="1120.0" y1="310.0" y2="310.0" /><line stroke="#000000" stroke-width="2" x1="820.0" x2="820.0" y1="310.0" y2="90.0" /></g><g id="g_curves"><path d="M 95.00 266.00 C 142.25 266.00 182.75 134.00 230.00 134.00 C 274.10 134.00 311.90 189.00 356.00 189.00" fill="none" id="curve_serving_A3" stroke="#2b6cb0" stroke-width="2" /><path d="M 95.00 178.00 C 142.25 178.00 182.75 233.00 230.00 233.00 C 274.10 233.00 311.90 112.00 356.00 112.00" fill="none" id="curve_neighbor_A3" stroke="#dd6b20" stroke-width="2" /><path d="M 465.00 266.00 C 512.25 266.00 552.75 134.00 600.00 134.00 C 644.10 134.00 681.90 189.00 726.00 189.00" fill="none" id="curve_serving_A4" stroke="#2b6cb0" stroke-width="2" /><path d="M 465.00 178.00 C 512.25 178.00 552.75 233.00 600.00 233.00 C 644.10 233.00 681.90 112.00 726.00 112.00" fill="none" id="curve_neighbor_A4" stroke="#dd6b20" stroke-width="2" /><path d="M 835.00 266.00 C 882.25 266.00 922.75 134.00 970.00 134.00 C 1014.10 134.00 1051.90 189.00 1096.00 189.00" fill="none" id="curve_serving_A5" stroke="#2b6cb0" stroke-width="2" /><path d="M 835.00 178.00 C 882.25 178.00 922.75 233.00 970.00 233.00 C 1014.10 233.00 1051.90 112.00 1096.00 112.00" fill="none" id="curve_neighbor_A5" stroke="#dd6b20" stroke-width="2" /></g><g id="g_annotations"><rect fill="#d0d0d0" fill-opacity="0.3" height="220.0" width="180.0" x="110.0" y="90.0" /><line stroke="#555555" stroke-width="1" x1="110.0" x2="110.0" y1="310.0" y2="90.0" /><line stroke="#555555" stroke-width="1" x1="290.0" x2="290.0" y1="310.0" y2="90.0" /><rect fill="#d0d0d0" fill-opacity="0.3" height="220.0" width="180.0" x="480.0" y="90.0" /><line stroke="#555555" stroke-width="1" x1="480.0" x2="480.0" y1="310.0" y2="90.0" /><line stroke="#555555" stroke-width="1" x1="660.0" x2="660.0" y1="310.0" y2="90.0" /><rect fill="#d0d0d0" fill-opacity="0.3" height="220.0" width="180.0" x="850.0" y="90.0" /><line stroke="#555555" stroke-width="1" x1="850.0" x2="850.0" y1="310.0" y2="90.0" /><line stroke="#555555" stroke-width="1" x1="1030.0" x2="1030.0" y1="310.0" y2="90.0" /></g><g id="g_text"><text fill="#000000" font-family="Arial, sans-serif" id="txt_title" text-anchor="start" x="10" y="20"><tspan id="txt_title_line0" x="10" y="20">3GPP Event A3/A4/A5 Trigger</tspan><tspan dy="14" id="txt_title_line1" x="10">Timeline Overview</tspan></text><text fill="#333333" font-family="Arial, sans-serif" font-size="10" id="txt_t_start_A3" text-anchor="start" x="114.0" y="102.0">t_start</text><text fill="#333333" font-family="Arial, sans-serif" font-size="10" id="txt_t_trigger_A3" text-anchor="start" x="294.0" y="102.0">t_trigger</text><text fill="#000000" font-family="Arial, sans-serif" font-size="12" id="txt_panel_A3" text-anchor="start" x="86.0" y="106.0">A3</text><text fill="#2b6cb0" font-family="Arial, sans-serif" font-size="10" id="txt_serving_A3" text-anchor="start" x="95.0" y="167.0">Serving</text><text fill="#dd6b20" font-family="Arial, sans-serif" font-size="10" id="txt_neighbor_A3" text-anchor="start" x="95.0" y="211.0">Neighbor</text><text fill="#333333" font-family="Arial, sans-serif" font-size="10" id="txt_t_start_A4" text-anchor="start" x="484.0" y="102.0">t_start</text><text fill="#333333" font-family="Arial, sans-serif" font-size="10" id="txt_t_trigger_A4" text-anchor="start" x="664.0" y="102.0">t_trigger</text><text fill="#000000" font-family="Arial, sans-serif" font-size="12" id="txt_panel_A4" text-anchor="start" x="456.0" y="106.0">A4</text><text fill="#2b6cb0" font-family="Arial, sans-serif" font-size="10" id="txt_serving_A4" text-anchor="start" x="465.0" y="167.0">Serving</text><text fill="#dd6b20" font-family="Arial, sans-serif" font-size="10" id="txt_neighbor_A4" text-anchor="start" x="465.0" y="211.0">Neighbor</text><text fill="#333333" font-family="Arial, sans-serif" font-size="10" id="txt_t_start_A5" text-anchor="start" x="854.0" y="102.0">t_start</text><text fill="#333333" font-family="Arial, sans-serif" font-size="10" id="txt_t_trigger_A5" text-anchor="start" x="1034.0" y="102.0">t_trigger</text><text fill="#000000" font-family="Arial, sans-serif" font-size="12" id="txt_panel_A5" text-anchor="start" x="826.0" y="106.0">A5</text><text fill="#2b6cb0" font-family="Arial, sans-serif" font-size="10" id="txt_serving_A5" text-anchor="start" x="835.0" y="167.0">Serving</text><text fill="#dd6b20" font-family="Arial, sans-serif" font-size="10" id="txt_neighbor_A5" text-anchor="start" x="835.0" y="211.0">Neighbor</text></g><g id="g_markers"><circle cx="110.0" cy="96.0" fill="#555555" r="3" /><circle cx="290.0" cy="96.0" fill="#555555" r="3" /><circle cx="95.0" cy="266.0" fill="#2b6cb0" r="3" /><circle cx="356.0" cy="189.0" fill="#2b6cb0" r="3" /><circle cx="95.0" cy="178.0" fill="#dd6b20" r="3" /><circle cx="356.0" cy="112.0" fill="#dd6b20" r="3" /><circle cx="480.0" cy="96.0" fill="#555555" r="3" /><circle cx="660.0" cy="96.0" fill="#555555" r="3" /><circle cx="465.0" cy="266.0" fill="#2b6cb0" r="3" /><circle cx="726.0" cy="189.0" fill="#2b6cb0" r="3" /><circle cx="465.0" cy="178.0" fill="#dd6b20" r="3" /><circle cx="726.0" cy="112.0" fill="#dd6b20" r="3" /><circle cx="850.0" cy="96.0" fill="#555555" r="3" /><circle cx="1030.0" cy="96.0" fill="#555555" r="3" /><circle cx="835.0" cy="266.0" fill="#2b6cb0" r="3" /><circle cx="1096.0" cy="189.0" fill="#2b6cb0" r="3" /><circle cx="835.0" cy="178.0" fill="#dd6b20" r="3" /><circle cx="1096.0" cy="112.0" fill="#dd6b20" r="3" /></g></g></svg>