<?xml version="1.0" encoding="utf-8" ?>
<svg baseProfile="full" height="300" version="1.1" width="800" xmlns="http://www.w3.org/2000/svg" xmlns:ev="http://www.w3.org/2001/xml-events" xmlns:xlink="http://www.w3.org/1999/xlink"><defs /><g id="figure_root"><g id="g_axes"><line stroke="#000000" stroke-width="2" x1="80.0" x2="780.0" y1="320.0" y2="320.0" /><line stroke="#000000" stroke-width="2" x1="80.0" x2="80.0" y1="320.0" y2="240.0" /><line stroke="#000000" stroke-width="1" x1="80.0" x2="80.0" y1="320.0" y2="326.0" /><line stroke="#000000" stroke-width="1" x1="430.0" x2="430.0" y1="320.0" y2="326.0" /><line stroke="#000000" stroke-width="1" x1="780.0" x2="780.0" y1="320.0" y2="326.0" /><line stroke="#000000" stroke-width="1" x1="74.0" x2="80.0" y1="320.0" y2="320.0" /><line stroke="#000000" stroke-width="1" x1="74.0" x2="80.0" y1="280.0" y2="280.0" /><line stroke="#000000" stroke-width="1" x1="74.0" x2="80.0" y1="240.0" y2="240.0" /></g><g id="g_curves"><polyline fill="none" id="series_series_1" points="80.0,304.0 780.0,256.0" stroke="#1f77b4" stroke-width="2.0" /></g><g id="g_annotations"><g id="legend"><line stroke="#1f77b4" stroke-width="2.0" x1="640.0" x2="664.0" y1="250.0" y2="250.0" /></g><line id="geom_line_00" stroke="#000000" stroke-width="2.0" x1="80.0" x2="780.0" y1="240.0" y2="240.0" /><line id="geom_line_01" stroke="#000000" stroke-width="2.0" x1="80.0" x2="80.0" y1="240.0" y2="320.0" /><rect fill="none" height="80.0" id="geom_rect_00" stroke="#555555" stroke-width="1.0" width="700.0" x="80.0" y="240.0" /></g><g id="g_text"><text fill="#000000" font-family="Arial, sans-serif" font-size="10" id="txt_tick_x_0" text-anchor="middle" x="80.0" y="338.0">0</text><text fill="#000000" font-family="Arial, sans-serif" font-size="10" id="txt_tick_x_1" text-anchor="middle" x="430.0" y="338.0">0.5</text><text fill="#000000" font-family="Arial, sans-serif" font-size="10" id="txt_tick_x_2" text-anchor="middle" x="780.0" y="338.0">1</text><text fill="#000000" font-family="Arial, sans-serif" font-size="10" id="txt_tick_y_0" text-anchor="end" x="70.0" y="323.0">0</text><text fill="#000000" font-family="Arial, sans-serif" font-size="10" id="txt_tick_y_1" text-anchor="end" x="70.0" y="283.0">0.5</text><text fill="#000000" font-family="Arial, sans-serif" font-size="10" id="txt_tick_y_2" text-anchor="end" x="70.0" y="243.0">1</text><text fill="#000000" font-family="Arial, sans-serif" font-size="10" id="txt_legend_series_1" text-anchor="start" x="670.0" y="254.0">Series 1</text></g><g id="g_markers" /></g></svg>