<?xml version="1.0" encoding="utf-8" ?>
<svg baseProfile="full" height="300" version="1.1" width="820" xmlns="http://www.w3.org/2000/svg" xmlns:ev="http://www.w3.org/2001/xml-events" xmlns:xlink="http://www.w3.org/1999/xlink"><defs /><g id="figure_root"><g id="g_axes" /><g id="g_curves"><line fill="none" stroke="#000000" stroke-width="2" x1="263.0" x2="328.0" y1="135.0" y2="135.0" /><line fill="none" stroke="#000000" stroke-width="2" x1="492.0" x2="557.0" y1="135.0" y2="135.0" /></g><g id="g_annotations"><rect fill="#ffffff" height="60.0" id="node_node_1" rx="8.0" ry="8.0" stroke="#000000" stroke-width="2" width="164.0" x="99.0" y="105.0" /><rect fill="#ffffff" height="60.0" id="node_node_2" rx="8.0" ry="8.0" stroke="#000000" stroke-width="2" width="164.0" x="328.0" y="105.0" /><rect fill="#ffffff" height="60.0" id="node_node_3" rx="8.0" ry="8.0" stroke="#000000" stroke-width="2" width="164.0" x="557.0" y="105.0" /><line id="geom_line_00" stroke="#000000" stroke-width="2.0" x1="181.0" x2="410.0" y1="135.0" y2="135.0" /><line id="geom_line_01" stroke="#000000" stroke-width="2.0" x1="410.0" x2="639.0" y1="135.0" y2="135.0" /><rect fill="none" height="60.0" id="geom_rect_00" stroke="#000000" stroke-width="2.0" width="164.0" x="99.0" y="105.0" /><rect fill="none" height="60.0" id="geom_rect_01" stroke="#000000" stroke-width="2.0" width="164.0" x="328.0" y="105.0" /><rect fill="none" height="60.0" id="geom_rect_02" stroke="#000000" stroke-width="2.0" width="164.0" x="557.0" y="105.0" /></g><g id="g_text"><text fill="#000000" font-family="Arial, sans-serif" font-size="12" id="txt_node_node_1" text-anchor="start" x="111.0" y="129.0"><tspan id="txt_node_node_1_line0" x="111.0" y="129.0">Unknown</tspan></text><text fill="#000000" font-family="Arial, sans-serif" font-size="12" id="txt_node_node_2" text-anchor="start" x="340.0" y="129.0"><tspan id="txt_node_node_2_line0" x="340.0" y="129.0">Unknown</tspan></text><text fill="#000000" font-family="Arial, sans-serif" font-size="12" id="txt_node_node_3" text-anchor="start" x="569.0" y="129.0"><tspan id="txt_node_node_3_line0" x="569.0" y="129.0">Unknown</tspan></text></g><g id="g_markers"><polygon fill="#000000" points="328.0,135.0 318.0,138.0 318.0,132.0" /><polygon fill="#000000" points="557.0,135.0 547.0,138.0 547.0,132.0" /></g></g></svg>