<?xml version="1.0" encoding="utf-8" ?>
<svg baseProfile="full" height="300" version="1.1" width="800" xmlns="http://www.w3.org/2000/svg" xmlns:ev="http://www.w3.org/2001/xml-events" xmlns:xlink="http://www.w3.org/1999/xlink"><defs /><g id="figure_root"><g id="g_axes"><line stroke="#000000" stroke-width="2" x1="96.0" x2="736.0" y1="264.0" y2="264.0" /><line stroke="#000000" stroke-width="2" x1="96.0" x2="96.0" y1="264.0" y2="54.0" /><line stroke="#000000" stroke-width="1" x1="96.0" x2="96.0" y1="264.0" y2="270.0" /><line stroke="#000000" stroke-width="1" x1="416.0" x2="416.0" y1="264.0" y2="270.0" /><line stroke="#000000" stroke-width="1" x1="736.0" x2="736.0" y1="264.0" y2="270.0" /><line stroke="#000000" stroke-width="1" x1="90.0" x2="96.0" y1="264.0" y2="264.0" /><line stroke="#000000" stroke-width="1" x1="90.0" x2="96.0" y1="159.0" y2="159.0" /><line stroke="#000000" stroke-width="1" x1="90.0" x2="96.0" y1="54.0" y2="54.0" /></g><g id="g_curves"><polyline fill="none" id="series_series_0" points="96.0,198.711 160.0,175.296 238.976,150.28500000000003 318.01599999999996,125.29500000000002 396.992,100.28400000000002" stroke="#1f77b4" stroke-width="2.0" /><polyline class="dashed" fill="none" id="series_series_1" points="96.0,218.997 160.0,200.79 240.0,179.496 320.0,159.651 400.0,140.142 480.0,125.29500000000002 560.0,110.364 640.0,95.57999999999998 718.976,80.85900000000001" stroke="#1f77b4" stroke-dasharray="6,4" stroke-width="2.0" /><polyline fill="none" id="series_series_2" points="96.0,198.858 160.0,175.296 240.0,150.28500000000003 320.0,125.29500000000002 400.0,100.28400000000002 480.0,90.708 560.0,79.70399999999998 640.0,70.338 718.976,60.93000000000001" stroke="#1f77b4" stroke-width="2.0" /><polyline class="dashed" fill="none" id="series_series_3" points="96.0,218.997 160.0,200.79 240.0,179.496 320.0,159.651 400.0,140.142 480.0,125.29500000000002 560.0,110.364 640.0,95.57999999999998 718.976,80.85900000000001" stroke="#1f77b4" stroke-dasharray="6,4" stroke-width="2.0" /></g><g id="g_annotations"><g id="legend"><line stroke="#1f77b4" stroke-width="2.0" x1="596.0" x2="620.0" y1="64.0" y2="64.0" /><line class="dashed" stroke="#1f77b4" stroke-dasharray="6,4" stroke-width="2.0" x1="596.0" x2="620.0" y1="82.0" y2="82.0" /><line stroke="#1f77b4" stroke-width="2.0" x1="596.0" x2="620.0" y1="100.0" y2="100.0" /><line class="dashed" stroke="#1f77b4" stroke-dasharray="6,4" stroke-width="2.0" x1="596.0" x2="620.0" y1="118.0" y2="118.0" /></g></g><g id="g_text"><text fill="#000000" font-family="Arial, sans-serif" font-size="10" id="txt_tick_x_0" text-anchor="middle" x="96.0" y="282.0">0</text><text fill="#000000" font-family="Arial, sans-serif" font-size="10" id="txt_tick_x_1" text-anchor="middle" x="416.0" y="282.0">0.5</text><text fill="#000000" font-family="Arial, sans-serif" font-size="10" id="txt_tick_x_2" text-anchor="middle" x="736.0" y="282.0">1.0</text><text fill="#000000" font-family="Arial, sans-serif" font-size="10" id="txt_tick_y_0" text-anchor="end" x="86.0" y="267.0">0</text><text fill="#000000" font-family="Arial, sans-serif" font-size="10" id="txt_tick_y_1" text-anchor="end" x="86.0" y="162.0">0.5</text><text fill="#000000" font-family="Arial, sans-serif" font-size="10" id="txt_tick_y_2" text-anchor="end" x="86.0" y="57.0">1.0</text><text fill="#000000" font-family="Arial, sans-serif" font-size="12" id="txt_axis_x" text-anchor="middle" x="416.0" y="296.0">x</text><text fill="#000000" font-family="Arial, sans-serif" font-size="12" id="txt_axis_y" text-anchor="middle" x="56.0" y="159.0">y</text><text fill="#000000" font-family="Arial, sans-serif" font-size="10" id="txt_legend_series_0" text-anchor="start" x="626.0" y="68.0">series_0</text><text fill="#000000" font-family="Arial, sans-serif" font-size="10" id="txt_legend_series_1" text-anchor="start" x="626.0" y="86.0">series_1</text><text fill="#000000" font-family="Arial, sans-serif" font-size="10" id="txt_legend_series_2" text-anchor="start" x="626.0" y="104.0">series_2</text><text fill="#000000" font-family="Arial, sans-serif" font-size="10" id="txt_legend_series_3" text-anchor="start" x="626.0" y="122.0">series_3</text></g><g id="g_markers" /></g></svg>