<?xml version="1.0" encoding="utf-8" ?>
<svg baseProfile="full" height="240" version="1.1" width="780" xmlns="http://www.w3.org/2000/svg" xmlns:ev="http://www.w3.org/2001/xml-events" xmlns:xlink="http://www.w3.org/1999/xlink"><defs /><g id="figure_root"><g id="g_axes"><line stroke="#000000" stroke-width="2" x1="10.0" x2="221.0" y1="193.0" y2="193.0" /><line stroke="#000000" stroke-width="2" x1="10.0" x2="10.0" y1="193.0" y2="55.0" /><line stroke="#000000" stroke-width="2" x1="241.0" x2="486.0" y1="192.0" y2="192.0" /><line stroke="#000000" stroke-width="2" x1="241.0" x2="241.0" y1="192.0" y2="54.0" /><line stroke="#000000" stroke-width="2" x1="507.0" x2="769.0" y1="192.0" y2="192.0" /><line stroke="#000000" stroke-width="2" x1="507.0" x2="507.0" y1="192.0" y2="54.0" /></g><g id="g_curves"><path d="M 20.55 165.40 C 53.78 165.40 82.27 82.60 115.50 82.60 C 148.73 82.60 177.22 137.80 210.45 137.80" fill="none" id="curve_serving_A3" stroke="#2b6cb0" stroke-width="2" /><path d="M 20.55 137.80 C 53.78 137.80 82.27 151.60 115.50 151.60 C 148.73 151.60 177.22 82.60 210.45 82.60" fill="none" id="curve_neighbor_A3" stroke="#dd6b20" stroke-width="2" /><path d="M 253.25 164.40 C 291.84 164.40 324.91 81.60 363.50 81.60 C 402.09 81.60 435.16 136.80 473.75 136.80" fill="none" id="curve_serving_A4" stroke="#2b6cb0" stroke-width="2" /><path d="M 253.25 136.80 C 291.84 136.80 324.91 150.60 363.50 150.60 C 402.09 150.60 435.16 81.60 473.75 81.60" fill="none" id="curve_neighbor_A4" stroke="#dd6b20" stroke-width="2" /><path d="M 520.10 164.40 C 561.37 164.40 596.74 81.60 638.00 81.60 C 679.26 81.60 714.63 136.80 755.90 136.80" fill="none" id="curve_serving_A5" stroke="#2b6cb0" stroke-width="2" /><path d="M 520.10 136.80 C 561.37 136.80 596.74 150.60 638.00 150.60 C 679.26 150.60 714.63 81.60 755.90 81.60" fill="none" id="curve_neighbor_A5" stroke="#dd6b20" stroke-width="2" /></g><g id="g_annotations"><rect fill="#d0d0d0" fill-opacity="0.3" height="138.0" width="84.39999999999999" x="52.2" y="55.0" /><line stroke="#555555" stroke-width="1" x1="52.2" x2="52.2" y1="193.0" y2="55.0" /><line stroke="#555555" stroke-width="1" x1="136.6" x2="136.6" y1="193.0" y2="55.0" /><rect fill="#d0d0d0" fill-opacity="0.3" height="138.0" width="98.0" x="290.0" y="54.0" /><line stroke="#555555" stroke-width="1" x1="290.0" x2="290.0" y1="192.0" y2="54.0" /><line stroke="#555555" stroke-width="1" x1="388.0" x2="388.0" y1="192.0" y2="54.0" /><rect fill="#d0d0d0" fill-opacity="0.3" height="138.0" width="104.80000000000007" x="559.4" y="54.0" /><line stroke="#555555" stroke-width="1" x1="559.4" x2="559.4" y1="192.0" y2="54.0" /><line stroke="#555555" stroke-width="1" x1="664.2" x2="664.2" y1="192.0" y2="54.0" /><line id="geom_line_00" stroke="#000000" stroke-width="2.0" x1="432.0" x2="432.0" y1="57.0" y2="191.0" /><line id="geom_line_01" stroke="#000000" stroke-width="2.0" x1="62.0" x2="178.0" y1="191.0" y2="191.0" /><line class="dashed" id="geom_line_02" stroke="#555555" stroke-dasharray="6,4" stroke-width="1.0" x1="70.0" x2="700.0" y1="55.0" y2="55.0" /><line class="dashed" id="geom_line_03" stroke="#555555" stroke-dasharray="6,4" stroke-width="1.0" x1="72.0" x2="696.0" y1="87.0" y2="87.0" /><line class="dashed" id="geom_line_04" stroke="#555555" stroke-dasharray="6,4" stroke-width="1.0" x1="73.0" x2="696.0" y1="152.0" y2="152.0" /><line class="dashed" id="geom_line_05" stroke="#555555" stroke-dasharray="6,4" stroke-width="1.0" x1="61.0" x2="707.0" y1="190.0" y2="190.0" /><rect fill="none" height="138.0" id="geom_rect_00" stroke="#555555" stroke-width="1.0" width="245.0" x="241.0" y="54.0" /><rect fill="none" height="138.0" id="geom_rect_01" stroke="#555555" stroke-width="1.0" width="262.0" x="507.0" y="54.0" /><rect fill="none" height="138.0" id="geom_rect_02" stroke="#555555" stroke-width="1.0" width="211.0" x="10.0" y="55.0" /></g><g id="g_text"><text fill="#333333" font-family="Arial, sans-serif" font-size="10" id="txt_t_start_A3" text-anchor="start" x="56.2" y="67.0">t_start</text><text fill="#333333" font-family="Arial, sans-serif" font-size="10" id="txt_t_trigger_A3" text-anchor="start" x="140.6" y="67.0">t_trigger</text><text fill="#000000" font-family="Arial, sans-serif" font-size="12" id="txt_panel_A3" text-anchor="start" x="16.0" y="71.0">A3</text><text fill="#2b6cb0" font-family="Arial, sans-serif" font-size="10" id="txt_serving_A3" text-anchor="start" x="20.55" y="103.3">Serving</text><text fill="#dd6b20" font-family="Arial, sans-serif" font-size="10" id="txt_neighbor_A3" text-anchor="start" x="20.55" y="130.9">Neighbor</text><text fill="#333333" font-family="Arial, sans-serif" font-size="10" id="txt_t_start_A4" text-anchor="start" x="294.0" y="66.0">t_start</text><text fill="#333333" font-family="Arial, sans-serif" font-size="10" id="txt_t_trigger_A4" text-anchor="start" x="392.0" y="66.0">t_trigger</text><text fill="#000000" font-family="Arial, sans-serif" font-size="12" id="txt_panel_A4" text-anchor="start" x="247.0" y="70.0">A4</text><text fill="#2b6cb0" font-family="Arial, sans-serif" font-size="10" id="txt_serving_A4" text-anchor="start" x="253.25" y="102.3">Serving</text><text fill="#dd6b20" font-family="Arial, sans-serif" font-size="10" id="txt_neighbor_A4" text-anchor="start" x="253.25" y="129.9">Neighbor</text><text fill="#333333" font-family="Arial, sans-serif" font-size="10" id="txt_t_start_A5" text-anchor="start" x="563.4" y="66.0">t_start</text><text fill="#333333" font-family="Arial, sans-serif" font-size="10" id="txt_t_trigger_A5" text-anchor="start" x="668.2" y="66.0">t_trigger</text><text fill="#000000" font-family="Arial, sans-serif" font-size="12" id="txt_panel_A5" text-anchor="start" x="513.0" y="70.0">A5</text><text fill="#2b6cb0" font-family="Arial, sans-serif" font-size="10" id="txt_serving_A5" text-anchor="start" x="520.1" y="102.3">Serving</text><text fill="#dd6b20" font-family="Arial, sans-serif" font-size="10" id="txt_neighbor_A5" text-anchor="start" x="520.1" y="129.9">Neighbor</text></g><g id="g_markers"><circle cx="52.2" cy="61.0" fill="#555555" r="3" /><circle cx="136.6" cy="61.0" fill="#555555" r="3" /><circle cx="20.55" cy="165.4" fill="#2b6cb0" r="3" /><circle cx="210.45" cy="137.8" fill="#2b6cb0" r="3" /><circle cx="20.55" cy="137.8" fill="#dd6b20" r="3" /><circle cx="210.45" cy="82.6" fill="#dd6b20" r="3" /><circle cx="290.0" cy="60.0" fill="#555555" r="3" /><circle cx="388.0" cy="60.0" fill="#555555" r="3" /><circle cx="253.25" cy="164.4" fill="#2b6cb0" r="3" /><circle cx="473.75" cy="136.8" fill="#2b6cb0" r="3" /><circle cx="253.25" cy="136.8" fill="#dd6b20" r="3" /><circle cx="473.75" cy="81.6" fill="#dd6b20" r="3" /><circle cx="559.4" cy="60.0" fill="#555555" r="3" /><circle cx="664.2" cy="60.0" fill="#555555" r="3" /><circle cx="520.1" cy="164.4" fill="#2b6cb0" r="3" /><circle cx="755.9" cy="136.8" fill="#2b6cb0" r="3" /><circle cx="520.1" cy="136.8" fill="#dd6b20" r="3" /><circle cx="755.9" cy="81.6" fill="#dd6b20" r="3" /><circle cx="740.0" cy="69.0" fill="#dd6b20" id="geom_marker_00" r="2.0" /><circle cx="484.0" cy="70.0" fill="#dd6b20" id="geom_marker_01" r="3.0" /><circle cx="730.0" cy="78.0" fill="#dd6b20" id="geom_marker_02" r="2.0" /><circle cx="718.0" cy="87.0" fill="#dd6b20" id="geom_marker_03" r="2.0" /><circle cx="186.0" cy="91.0" fill="#dd6b20" id="geom_marker_04" r="2.0" /><circle cx="452.0" cy="92.0" fill="#dd6b20" id="geom_marker_05" r="2.0" /><circle cx="704.0" cy="109.0" fill="#dd6b20" id="geom_marker_06" r="2.0" /><circle cx="304.0" cy="111.0" fill="#dd6b20" id="geom_marker_07" r="2.0" /><circle cx="560.0" cy="112.0" fill="#dd6b20" id="geom_marker_08" r="3.0" /><circle cx="49.0" cy="114.0" fill="#dd6b20" id="geom_marker_09" r="4.0" /><circle cx="40.0" cy="115.0" fill="#dd6b20" id="geom_marker_10" r="2.0" /><circle cx="568.0" cy="115.0" fill="#dd6b20" id="geom_marker_11" r="8.0" /><circle cx="50.0" cy="118.0" fill="#dd6b20" id="geom_marker_12" r="2.0" /><circle cx="308.0" cy="118.0" fill="#dd6b20" id="geom_marker_13" r="8.0" /><circle cx="168.0" cy="120.0" fill="#dd6b20" id="geom_marker_14" r="2.0" /><circle cx="579.0" cy="120.0" fill="#dd6b20" id="geom_marker_15" r="2.0" /><circle cx="309.0" cy="127.0" fill="#dd6b20" id="geom_marker_16" r="2.0" /><circle cx="596.0" cy="128.0" fill="#dd6b20" id="geom_marker_17" r="3.0" /></g></g></svg>